<svg width="57" height="64" fill="none" xmlns="http://www.w3.org/2000/svg"><circle cx="22" cy="42" r="32" fill="#F4E19C" fill-opacity=".5"/><path d="M23.633 26.165a1.246 1.246 0 001.768 0 1.25 1.25 0 000-1.768 9.272 9.272 0 01-2.734-6.599 9.27 9.27 0 012.734-6.6 1.25 1.25 0 00-1.768-1.767 11.756 11.756 0 00-3.466 8.367c0 3.16 1.231 6.132 3.466 8.367z" fill="url(#paint0_linear_125_82)"/><path d="M19.108 30.69a1.246 1.246 0 001.768 0 1.25 1.25 0 000-1.767c-6.135-6.134-6.135-16.115 0-22.25a1.25 1.25 0 00-1.768-1.767c-7.109 7.109-7.109 18.676 0 25.784z" fill="url(#paint1_linear_125_82)"/><path d="M9.847 17.798c0-5.917 2.305-11.48 6.489-15.664A1.25 1.25 0 0014.568.366a24.491 24.491 0 00-7.22 17.432 24.491 24.491 0 007.22 17.432 1.246 1.246 0 001.768 0 1.25 1.25 0 000-1.767 22.009 22.009 0 01-6.489-15.665z" fill="url(#paint2_linear_125_82)"/><path d="M38.6 26.165a1.246 1.246 0 001.767 0 11.756 11.756 0 003.466-8.367c0-3.16-1.231-6.132-3.466-8.367a1.25 1.25 0 00-1.768 1.768 9.272 9.272 0 012.734 6.6 9.268 9.268 0 01-2.734 6.598 1.25 1.25 0 000 1.768z" fill="url(#paint3_linear_125_82)"/><path d="M43.124 28.923a1.25 1.25 0 001.768 1.767c7.109-7.108 7.109-18.675 0-25.784a1.25 1.25 0 00-1.768 1.768c6.134 6.134 6.134 16.115 0 22.249z" fill="url(#paint4_linear_125_82)"/><path d="M49.432.366a1.25 1.25 0 00-1.768 1.768 22.008 22.008 0 016.489 15.664c0 5.917-2.305 11.48-6.489 15.664a1.25 1.25 0 001.768 1.768 24.492 24.492 0 007.22-17.432A24.491 24.491 0 0049.433.366z" fill="url(#paint5_linear_125_82)"/><path d="M40.388 39.406a1.25 1.25 0 00-2.404.686l.618 2.166H25.398l5.461-19.15a5.429 5.429 0 002.282 0l1.757 6.164a1.25 1.25 0 002.405-.686l-1.876-6.577a5.423 5.423 0 002.005-4.21A5.438 5.438 0 0032 12.366a5.438 5.438 0 00-5.432 5.431c0 1.697.783 3.214 2.005 4.21l-11.52 40.4a1.25 1.25 0 002.034 1.275L32 52.154l12.913 11.529a1.249 1.249 0 002.035-1.276l-6.56-23zM32 14.866a2.935 2.935 0 012.932 2.932A2.935 2.935 0 0132 20.73a2.935 2.935 0 01-2.932-2.932A2.935 2.935 0 0132 14.867zm4.531 29.892l-4.53 4.045-4.532-4.045h9.062zM20.64 58.945l3.85-13.497 5.634 5.03-9.484 8.467zm13.238-8.466l5.635-5.03 3.85 13.496-9.485-8.466z" fill="url(#paint6_linear_125_82)"/><path d="M37.636 35.59a1.25 1.25 0 100-2.5 1.25 1.25 0 000 2.5z" fill="url(#paint7_linear_125_82)"/><defs><linearGradient id="paint0_linear_125_82" x1="25.648" y1="17.798" x2="22.611" y2="17.798" gradientUnits="userSpaceOnUse"><stop stop-color="#A268F9"/><stop offset="1" stop-color="#B88BFB"/></linearGradient><linearGradient id="paint1_linear_125_82" x1="21.084" y1="17.798" x2="17.035" y2="17.798" gradientUnits="userSpaceOnUse"><stop stop-color="#A268F9"/><stop offset="1" stop-color="#B88BFB"/></linearGradient><linearGradient id="paint2_linear_125_82" x1="16.504" y1="17.798" x2="11.43" y2="17.798" gradientUnits="userSpaceOnUse"><stop stop-color="#A268F9"/><stop offset="1" stop-color="#B88BFB"/></linearGradient><linearGradient id="paint3_linear_125_82" x1="43.714" y1="17.798" x2="40.677" y2="17.798" gradientUnits="userSpaceOnUse"><stop stop-color="#A268F9"/><stop offset="1" stop-color="#B88BFB"/></linearGradient><linearGradient id="paint4_linear_125_82" x1="50.066" y1="17.798" x2="46.016" y2="17.798" gradientUnits="userSpaceOnUse"><stop stop-color="#A268F9"/><stop offset="1" stop-color="#B88BFB"/></linearGradient><linearGradient id="paint5_linear_125_82" x1="56.455" y1="17.798" x2="51.381" y2="17.798" gradientUnits="userSpaceOnUse"><stop stop-color="#A268F9"/><stop offset="1" stop-color="#B88BFB"/></linearGradient><linearGradient id="paint6_linear_125_82" x1="46.361" y1="38.183" x2="30.094" y2="38.183" gradientUnits="userSpaceOnUse"><stop stop-color="#A268F9"/><stop offset="1" stop-color="#B88BFB"/></linearGradient><linearGradient id="paint7_linear_125_82" x1="38.833" y1="34.341" x2="37.477" y2="34.341" gradientUnits="userSpaceOnUse"><stop stop-color="#A268F9"/><stop offset="1" stop-color="#B88BFB"/></linearGradient></defs></svg>