<svg width="84" height="74" fill="none" xmlns="http://www.w3.org/2000/svg"><circle cx="32" cy="42" r="32" fill="#F4E19C" fill-opacity=".5"/><g clip-path="url(#clip0_103_292)"><path d="M43.633 26.165a1.246 1.246 0 001.768 0 1.25 1.25 0 000-1.768 9.272 9.272 0 01-2.734-6.599c0-2.493.97-4.837 2.734-6.6a1.25 1.25 0 00-1.768-1.767 11.756 11.756 0 00-3.466 8.367c0 3.16 1.231 6.132 3.466 8.367z" fill="url(#paint0_linear_103_292)"/><path d="M39.108 30.69a1.246 1.246 0 001.768 0 1.25 1.25 0 000-1.768c-6.135-6.134-6.135-16.114 0-22.248a1.25 1.25 0 00-1.768-1.768c-7.109 7.109-7.109 18.675 0 25.784z" fill="url(#paint1_linear_103_292)"/><path d="M29.847 17.798c0-5.917 2.305-11.48 6.489-15.664A1.25 1.25 0 0034.568.366a24.492 24.492 0 00-7.22 17.432 24.491 24.491 0 007.22 17.432 1.246 1.246 0 001.768 0 1.25 1.25 0 000-1.767 22.009 22.009 0 01-6.489-15.665z" fill="url(#paint2_linear_103_292)"/><path d="M58.6 26.165a1.246 1.246 0 001.767 0 11.756 11.756 0 003.466-8.367c0-3.16-1.231-6.132-3.466-8.367a1.25 1.25 0 00-1.768 1.768 9.271 9.271 0 012.734 6.599 9.273 9.273 0 01-2.734 6.6 1.25 1.25 0 000 1.767z" fill="url(#paint3_linear_103_292)"/><path d="M63.124 28.922a1.25 1.25 0 001.768 1.768c7.109-7.109 7.109-18.675 0-25.784a1.25 1.25 0 00-1.768 1.768c6.134 6.134 6.134 16.114 0 22.248z" fill="url(#paint4_linear_103_292)"/><path d="M69.432.366a1.25 1.25 0 00-1.768 1.768 22.008 22.008 0 016.489 15.664c0 5.917-2.305 11.48-6.489 15.664a1.25 1.25 0 001.768 1.768 24.492 24.492 0 007.22-17.432A24.491 24.491 0 0069.433.366z" fill="url(#paint5_linear_103_292)"/><path d="M60.388 39.406a1.25 1.25 0 00-2.404.686l.618 2.166H45.398l5.461-19.15a5.429 5.429 0 002.282 0l1.757 6.164a1.25 1.25 0 002.405-.686l-1.876-6.577a5.423 5.423 0 002.005-4.21A5.438 5.438 0 0052 12.365a5.438 5.438 0 00-5.432 5.432c0 1.697.783 3.214 2.005 4.21l-11.52 40.4a1.25 1.25 0 002.034 1.274L52 52.154l12.913 11.528a1.249 1.249 0 002.035-1.275l-6.56-23.001zM52 14.866a2.935 2.935 0 012.932 2.932A2.935 2.935 0 0152 20.73a2.935 2.935 0 01-2.932-2.932A2.935 2.935 0 0152 14.867zm4.531 29.892l-4.53 4.045-4.532-4.045h9.062zM40.64 58.945l3.85-13.497 5.634 5.03-9.484 8.467zm13.238-8.467l5.635-5.03 3.85 13.497-9.485-8.467z" fill="url(#paint6_linear_103_292)"/><path d="M57.636 35.59a1.25 1.25 0 100-2.5 1.25 1.25 0 000 2.5z" fill="url(#paint7_linear_103_292)"/></g><defs><linearGradient id="paint0_linear_103_292" x1="45.648" y1="17.798" x2="42.611" y2="17.798" gradientUnits="userSpaceOnUse"><stop stop-color="#A268F9"/><stop offset="1" stop-color="#B88BFB"/></linearGradient><linearGradient id="paint1_linear_103_292" x1="41.084" y1="17.798" x2="37.035" y2="17.798" gradientUnits="userSpaceOnUse"><stop stop-color="#A268F9"/><stop offset="1" stop-color="#B88BFB"/></linearGradient><linearGradient id="paint2_linear_103_292" x1="36.504" y1="17.798" x2="31.43" y2="17.798" gradientUnits="userSpaceOnUse"><stop stop-color="#A268F9"/><stop offset="1" stop-color="#B88BFB"/></linearGradient><linearGradient id="paint3_linear_103_292" x1="63.714" y1="17.798" x2="60.677" y2="17.798" gradientUnits="userSpaceOnUse"><stop stop-color="#A268F9"/><stop offset="1" stop-color="#B88BFB"/></linearGradient><linearGradient id="paint4_linear_103_292" x1="70.066" y1="17.798" x2="66.016" y2="17.798" gradientUnits="userSpaceOnUse"><stop stop-color="#A268F9"/><stop offset="1" stop-color="#B88BFB"/></linearGradient><linearGradient id="paint5_linear_103_292" x1="76.454" y1="17.798" x2="71.381" y2="17.798" gradientUnits="userSpaceOnUse"><stop stop-color="#A268F9"/><stop offset="1" stop-color="#B88BFB"/></linearGradient><linearGradient id="paint6_linear_103_292" x1="66.361" y1="38.183" x2="50.094" y2="38.183" gradientUnits="userSpaceOnUse"><stop stop-color="#A268F9"/><stop offset="1" stop-color="#B88BFB"/></linearGradient><linearGradient id="paint7_linear_103_292" x1="58.833" y1="34.341" x2="57.477" y2="34.341" gradientUnits="userSpaceOnUse"><stop stop-color="#A268F9"/><stop offset="1" stop-color="#B88BFB"/></linearGradient><clipPath id="clip0_103_292"><path fill="#fff" transform="translate(20)" d="M0 0h64v64H0z"/></clipPath></defs></svg>