<svg width="84" height="74" fill="none" xmlns="http://www.w3.org/2000/svg"><circle cx="32" cy="42" r="32" fill="#F4E19C" fill-opacity=".5"/><path d="M52 17.5a1.25 1.25 0 10-.001-2.501A1.25 1.25 0 0052 17.5z" fill="url(#paint0_linear_107_1485)"/><path d="M28.25 13.75v33.558a6.253 6.253 0 003.214 5.464l19.93 11.07a1.245 1.245 0 001.213 0l19.929-11.07a6.253 6.253 0 003.214-5.464V13.75A3.754 3.754 0 0072 10h-5.437L52.721.229a1.25 1.25 0 00-1.442 0L37.437 10H32a3.754 3.754 0 00-3.75 3.75zm45 0v33.558a3.752 3.752 0 01-1.928 3.278L52 61.32 32.678 50.586a3.752 3.752 0 01-1.928-3.278V13.75c0-.69.56-1.25 1.25-1.25h40c.69 0 1.25.56 1.25 1.25zM52 2.78L62.228 10H41.772L52 2.78z" fill="url(#paint1_linear_107_1485)"/><path d="M57 15a1.25 1.25 0 100 2.5h11.25v29.072L52 55.6l-16.25-9.028V17.5H47a1.25 1.25 0 100-2.5H34.5c-.69 0-1.25.56-1.25 1.25v31.058c0 .454.246.872.643 1.092l17.5 9.723a1.248 1.248 0 001.214 0l17.5-9.723a1.25 1.25 0 00.643-1.092V16.25c0-.69-.56-1.25-1.25-1.25H57z" fill="url(#paint2_linear_107_1485)"/><path d="M41.895 31.54a1.25 1.25 0 00.316 1.281l3.987 3.887-.94 5.487a1.251 1.251 0 001.814 1.318l4.927-2.59 4.927 2.59a1.251 1.251 0 001.813-1.318l-.94-5.487 3.987-3.888a1.25 1.25 0 00-.693-2.132l-5.51-.8-2.463-4.993a1.25 1.25 0 00-2.242 0l-2.464 4.994-5.51.8a1.25 1.25 0 00-1.009.851zm7.528.728c.408-.059.76-.314.942-.684l1.634-3.31 1.632 3.31c.182.37.535.625.942.684l3.655.53-2.645 2.578a1.25 1.25 0 00-.359 1.106l.624 3.64-3.267-1.718a1.247 1.247 0 00-1.164 0l-3.267 1.718.623-3.64a1.25 1.25 0 00-.359-1.106l-2.644-2.577 3.653-.53z" fill="url(#paint3_linear_107_1485)"/><defs><linearGradient id="paint0_linear_107_1485" x1="53.197" y1="16.25" x2="51.841" y2="16.25" gradientUnits="userSpaceOnUse"><stop stop-color="#A268F9"/><stop offset="1" stop-color="#B88BFB"/></linearGradient><linearGradient id="paint1_linear_107_1485" x1="74.744" y1="32" x2="48.981" y2="32" gradientUnits="userSpaceOnUse"><stop stop-color="#A268F9"/><stop offset="1" stop-color="#B88BFB"/></linearGradient><linearGradient id="paint2_linear_107_1485" x1="69.956" y1="36.64" x2="49.617" y2="36.64" gradientUnits="userSpaceOnUse"><stop stop-color="#A268F9"/><stop offset="1" stop-color="#B88BFB"/></linearGradient><linearGradient id="paint3_linear_107_1485" x1="61.733" y1="33.928" x2="50.707" y2="33.928" gradientUnits="userSpaceOnUse"><stop stop-color="#A268F9"/><stop offset="1" stop-color="#B88BFB"/></linearGradient></defs></svg>