<svg width="84" height="74" fill="none" xmlns="http://www.w3.org/2000/svg"><circle cx="32" cy="42" r="32" fill="#F4E19C" fill-opacity=".5"/><g clip-path="url(#clip0_105_494)"><path d="M54.225 20.986a1.25 1.25 0 10-1.768-1.768.603.603 0 01-.857 0 1.25 1.25 0 00-1.768 1.768c.587.587 1.367.91 2.196.91.83 0 1.61-.323 2.197-.91z" fill="url(#paint0_linear_105_494)"/><path d="M51.121 56.5H39.568c-.331 0-.65.132-.884.366l-5 5a1.25 1.25 0 001.768 1.768L40.086 59h11.035a1.25 1.25 0 000-2.5z" fill="url(#paint1_linear_105_494)"/><path d="M83.951 38.846a4.795 4.795 0 00-1.929-3.413 4.783 4.783 0 00-6.372.619l-4.9 5.343v-.948c0-5.601-3.988-10.459-9.482-11.55l-2.609-.518a3.528 3.528 0 01-2.136-1.342 12.368 12.368 0 007.013-7.165 8.09 8.09 0 007.259 3.1 1.25 1.25 0 001.078-1.566l-.23-.862.861.23a1.25 1.25 0 001.567-1.078 8.098 8.098 0 00-2.335-6.586 8.144 8.144 0 00-7.511-2.187C63.537 4.786 58.317 0 52 0c-6.317 0-11.537 4.786-12.225 10.923a8.143 8.143 0 00-7.51 2.187 8.098 8.098 0 00-2.336 6.586 1.25 1.25 0 001.567 1.079l.862-.231-.231.862a1.25 1.25 0 001.078 1.567 8.091 8.091 0 007.259-3.1 12.369 12.369 0 007.013 7.164 3.528 3.528 0 01-2.136 1.342l-2.609.518c-5.471 1.087-9.448 5.909-9.48 11.481a16.3 16.3 0 00-4.46 3.17l-8.397 8.397a1.25 1.25 0 101.767 1.768l8.398-8.397a13.688 13.688 0 019.743-4.036 9.21 9.21 0 016.556 2.716c.234.234.552.366.883.366h8.198c1.213 0 2.2.987 2.2 2.2s-.987 2.2-2.2 2.2h-9.503a1.25 1.25 0 000 2.5h9.757c5.655 0 11.09-2.39 14.913-6.558l6.385-6.962a2.287 2.287 0 013.047-.296c.534.393.861.972.922 1.632.062.66-.153 1.29-.605 1.774l-8.097 8.685a21.845 21.845 0 01-10.732 6.317 1.25 1.25 0 00.603 2.426 24.339 24.339 0 0011.958-7.038l8.097-8.685a4.795 4.795 0 001.266-3.71zM64.522 13.423a5.64 5.64 0 015.446 1.454 5.6 5.6 0 011.571 3.051l-1.34-.36a1.25 1.25 0 00-1.532 1.532l.36 1.34a5.602 5.602 0 01-3.051-1.57 5.64 5.64 0 01-1.454-5.447zm-2.757-1.954a13.414 13.414 0 01-8.056-3.697A14.786 14.786 0 0055.87 3.3c3.242 1.399 5.583 4.5 5.894 8.17zM52 2.5c.498 0 .988.038 1.467.11a12.382 12.382 0 01-11.235 8.898C42.64 6.473 46.862 2.5 52 2.5zM38.024 18.87a5.6 5.6 0 01-3.05 1.57l.359-1.34a1.25 1.25 0 00-1.531-1.531l-1.341.359a5.6 5.6 0 011.571-3.05 5.64 5.64 0 015.446-1.455 5.64 5.64 0 01-1.454 5.446zm4.173-3.274v-1.582a14.879 14.879 0 009.893-4.332 15.922 15.922 0 009.713 4.3v1.614c0 5.405-4.398 9.803-9.803 9.803-5.405 0-9.803-4.398-9.803-9.803zM52 27.9c.686 0 1.359-.058 2.014-.166a6.01 6.01 0 001.506 1.843 4.549 4.549 0 01-3.52 1.65 4.548 4.548 0 01-3.52-1.65 6.015 6.015 0 001.506-1.843c.655.108 1.328.166 2.014.166zm3.94 13.963h-7.696a11.687 11.687 0 00-7.941-3.082c-1.541 0-3.05.214-4.492.626.45-3.961 3.425-7.266 7.408-8.057l2.61-.518a6.05 6.05 0 00.393-.093A7.033 7.033 0 0052 33.727a7.032 7.032 0 005.778-2.988c.13.035.261.067.394.093l2.61.518a9.298 9.298 0 017.468 9.098v3.586a17.8 17.8 0 01-7.934 4.24c.209-.53.324-1.107.324-1.71a4.705 4.705 0 00-4.7-4.701z" fill="url(#paint2_linear_105_494)"/><path d="M56.746 56.5a1.26 1.26 0 00-.884.366 1.26 1.26 0 00-.366.884c0 .329.134.651.366.884.233.232.555.366.884.366.329 0 .651-.134.884-.366a1.26 1.26 0 00.366-.884 1.26 1.26 0 00-.366-.884 1.259 1.259 0 00-.884-.366z" fill="url(#paint3_linear_105_494)"/></g><defs><linearGradient id="paint0_linear_105_494" x1="54.482" y1="20.374" x2="51.703" y2="20.374" gradientUnits="userSpaceOnUse"><stop stop-color="#A268F9"/><stop offset="1" stop-color="#B88BFB"/></linearGradient><linearGradient id="paint1_linear_105_494" x1="51.968" y1="60.25" x2="41.634" y2="60.25" gradientUnits="userSpaceOnUse"><stop stop-color="#A268F9"/><stop offset="1" stop-color="#B88BFB"/></linearGradient><linearGradient id="paint2_linear_105_494" x1="82.617" y1="29.159" x2="47.936" y2="29.159" gradientUnits="userSpaceOnUse"><stop stop-color="#A268F9"/><stop offset="1" stop-color="#B88BFB"/></linearGradient><linearGradient id="paint3_linear_105_494" x1="57.943" y1="57.75" x2="56.587" y2="57.75" gradientUnits="userSpaceOnUse"><stop stop-color="#A268F9"/><stop offset="1" stop-color="#B88BFB"/></linearGradient><clipPath id="clip0_105_494"><path fill="#fff" transform="translate(20)" d="M0 0h64v64H0z"/></clipPath></defs></svg>