<svg width="84" height="74" fill="none" xmlns="http://www.w3.org/2000/svg"><circle cx="32" cy="42" r="32" fill="#F4E19C" fill-opacity=".5"/><path d="M62.007 5a1.25 1.25 0 100 2.5 1.25 1.25 0 000-2.5z" fill="url(#paint0_linear_107_1197)"/><path d="M42.007 5a1.25 1.25 0 100 2.5 1.25 1.25 0 000-2.5z" fill="url(#paint1_linear_107_1197)"/><path d="M78.005 61.886l-8.272-8.642A6.256 6.256 0 0075.757 47V9.909c0-2.02-.706-3.992-1.988-5.554a8.77 8.77 0 00-5.06-3.029A69.527 69.527 0 0055.209 0h-6.605c-4.3 0-8.78.412-13.313 1.318a8.774 8.774 0 00-7.034 8.58V47a6.256 6.256 0 006.108 6.246L26 61.88a1.25 1.25 0 00.898 2.12h8.938c.4 0 .777-.192 1.012-.517l3.792-5.233h22.845l3.792 5.233A1.25 1.25 0 0068.29 64h8.813a1.25 1.25 0 00.903-2.114zM30.757 47V9.899a6.268 6.268 0 015.024-6.13A65.562 65.562 0 0148.604 2.5h6.604c4.36 0 8.738.43 13.015 1.279a6.264 6.264 0 013.614 2.163 6.268 6.268 0 011.42 3.967V47a3.754 3.754 0 01-3.75 3.75h-35a3.754 3.754 0 01-3.75-3.75zm4.44 14.5H29.85l7.992-8.25h3.333l-5.977 8.25zm7.254-5.75l1.811-2.5h15.6l1.812 2.5H42.451zm26.476 5.75l-5.977-8.25h3.328l7.897 8.25h-5.248z" fill="url(#paint2_linear_107_1197)"/><path d="M69.507 10h-35c-.69 0-1.25.56-1.25 1.25V32c0 .69.56 1.25 1.25 1.25h35c.69 0 1.25-.56 1.25-1.25V11.25c0-.69-.56-1.25-1.25-1.25zm-18.75 20.75h-15V12.5h15v18.25zm17.5 0h-15V12.5h15v18.25z" fill="url(#paint3_linear_107_1197)"/><path d="M57.007 5h-10a1.25 1.25 0 000 2.5h10a1.25 1.25 0 000-2.5z" fill="url(#paint4_linear_107_1197)"/><path d="M65.757 37c-2.757 0-5 2.243-5 5s2.243 5 5 5 5-2.243 5-5-2.243-5-5-5zm0 7.5a2.503 2.503 0 01-2.5-2.5c0-1.379 1.121-2.5 2.5-2.5 1.378 0 2.5 1.121 2.5 2.5s-1.122 2.5-2.5 2.5z" fill="url(#paint5_linear_107_1197)"/><path d="M38.257 37c-2.757 0-5 2.243-5 5s2.243 5 5 5 5-2.243 5-5-2.243-5-5-5zm0 7.5a2.503 2.503 0 01-2.5-2.5c0-1.379 1.121-2.5 2.5-2.5 1.378 0 2.5 1.121 2.5 2.5s-1.122 2.5-2.5 2.5z" fill="url(#paint6_linear_107_1197)"/><path d="M57.007 38.25h-10a1.25 1.25 0 000 2.5h10a1.25 1.25 0 000-2.5z" fill="url(#paint7_linear_107_1197)"/><path d="M57.007 43.25h-10a1.25 1.25 0 000 2.5h10a1.25 1.25 0 000-2.5z" fill="url(#paint8_linear_107_1197)"/><defs><linearGradient id="paint0_linear_107_1197" x1="63.204" y1="6.25" x2="61.848" y2="6.25" gradientUnits="userSpaceOnUse"><stop stop-color="#A268F9"/><stop offset="1" stop-color="#B88BFB"/></linearGradient><linearGradient id="paint1_linear_107_1197" x1="43.204" y1="6.25" x2="41.848" y2="6.25" gradientUnits="userSpaceOnUse"><stop stop-color="#A268F9"/><stop offset="1" stop-color="#B88BFB"/></linearGradient><linearGradient id="paint2_linear_107_1197" x1="77.235" y1="32" x2="48.65" y2="32" gradientUnits="userSpaceOnUse"><stop stop-color="#A268F9"/><stop offset="1" stop-color="#B88BFB"/></linearGradient><linearGradient id="paint3_linear_107_1197" x1="69.962" y1="21.625" x2="49.623" y2="21.625" gradientUnits="userSpaceOnUse"><stop stop-color="#A268F9"/><stop offset="1" stop-color="#B88BFB"/></linearGradient><linearGradient id="paint4_linear_107_1197" x1="57.992" y1="6.25" x2="51.212" y2="6.25" gradientUnits="userSpaceOnUse"><stop stop-color="#A268F9"/><stop offset="1" stop-color="#B88BFB"/></linearGradient><linearGradient id="paint5_linear_107_1197" x1="70.545" y1="42" x2="65.121" y2="42" gradientUnits="userSpaceOnUse"><stop stop-color="#A268F9"/><stop offset="1" stop-color="#B88BFB"/></linearGradient><linearGradient id="paint6_linear_107_1197" x1="43.045" y1="42" x2="37.621" y2="42" gradientUnits="userSpaceOnUse"><stop stop-color="#A268F9"/><stop offset="1" stop-color="#B88BFB"/></linearGradient><linearGradient id="paint7_linear_107_1197" x1="57.992" y1="39.5" x2="51.212" y2="39.5" gradientUnits="userSpaceOnUse"><stop stop-color="#A268F9"/><stop offset="1" stop-color="#B88BFB"/></linearGradient><linearGradient id="paint8_linear_107_1197" x1="57.992" y1="44.5" x2="51.212" y2="44.5" gradientUnits="userSpaceOnUse"><stop stop-color="#A268F9"/><stop offset="1" stop-color="#B88BFB"/></linearGradient></defs></svg>