<svg width="84" height="74" fill="none" xmlns="http://www.w3.org/2000/svg"><circle cx="32" cy="42" r="32" fill="#F4E19C" fill-opacity=".5"/><g clip-path="url(#clip0_107_626)"><path d="M52 64a1.25 1.25 0 100-2.5 1.25 1.25 0 000 2.5z" fill="url(#paint0_linear_107_626)"/><path d="M82.75 61.5H72V57a3.754 3.754 0 00-3.75-3.75h-.404L60.75 35.51V25.374h12.5v2.5a1.25 1.25 0 002.5 0v-2.5h2.5a1.25 1.25 0 000-2.5h-17.5V13.75h8.75v2.5a1.25 1.25 0 002.5 0v-2.5h2.5a1.25 1.25 0 000-2.5H60.169L53.04.557a1.25 1.25 0 00-2.08 0L43.831 11.25H29.5a1.25 1.25 0 000 2.5H32v2.5a1.25 1.25 0 002.5 0v-2.5h8.75v9.125h-17.5a1.25 1.25 0 000 2.5h2.5v2.5a1.25 1.25 0 002.5 0v-2.5h12.5v10.134L36.154 53.25h-.404A3.754 3.754 0 0032 57v4.5H21.25a1.25 1.25 0 000 2.5h25.125a1.25 1.25 0 000-2.5H34.5V57c0-.69.56-1.25 1.25-1.25h32.5c.69 0 1.25.56 1.25 1.25v4.5H57.625a1.25 1.25 0 000 2.5H82.75a1.25 1.25 0 000-2.5zM45.346 37h5.404v5.625l-10.934 8.2L45.346 37zm13.308 0l5.53 13.825-10.934-8.2V37h5.404zM52 44.813l11.25 8.437h-22.5L52 44.812zM58.25 34.5h-5v-9.125h5V34.5zm0-11.625h-5V13.75h5v9.125zM52 3.503l5.164 7.747H46.836L52 3.503zM45.75 13.75h5v9.125h-5V13.75zm5 11.625V34.5h-5v-9.125h5z" fill="url(#paint1_linear_107_626)"/></g><defs><linearGradient id="paint0_linear_107_626" x1="53.197" y1="62.75" x2="51.841" y2="62.75" gradientUnits="userSpaceOnUse"><stop stop-color="#A268F9"/><stop offset="1" stop-color="#B88BFB"/></linearGradient><linearGradient id="paint1_linear_107_626" x1="82.644" y1="32" x2="47.932" y2="32" gradientUnits="userSpaceOnUse"><stop stop-color="#A268F9"/><stop offset="1" stop-color="#B88BFB"/></linearGradient><clipPath id="clip0_107_626"><path fill="#fff" transform="translate(20)" d="M0 0h64v64H0z"/></clipPath></defs></svg>