<svg width="84" height="74" fill="none" xmlns="http://www.w3.org/2000/svg"><circle cx="32" cy="42" r="32" fill="#F4E19C" fill-opacity=".5"/><path d="M71.75 18.594c.691 0 1.25-.56 1.25-1.25V3.75A3.754 3.754 0 0069.25 0h-45.5A3.754 3.754 0 0020 3.75v56.5A3.754 3.754 0 0023.75 64h45.5A3.754 3.754 0 0073 60.25v-9.209a1.25 1.25 0 00-2.5 0v9.209c0 .69-.56 1.25-1.25 1.25h-45.5c-.688 0-1.25-.56-1.25-1.25V3.75c0-.69.562-1.25 1.25-1.25h45.5c.69 0 1.25.56 1.25 1.25v13.594c0 .69.56 1.25 1.25 1.25z" fill="url(#paint0_linear_107_1070)"/><path d="M46.5 6.75c-6.34 0-11.5 5.159-11.5 11.5 0 3.29 1.39 6.26 3.611 8.359.042.044.086.086.134.125a11.455 11.455 0 007.756 3.016c2.985 0 5.709-1.144 7.755-3.016a1.33 1.33 0 00.134-.125A11.468 11.468 0 0058 18.25c0-6.341-5.158-11.5-11.5-11.5zm0 20.5a8.952 8.952 0 01-5.435-1.834A6.21 6.21 0 0146.5 22.25a6.21 6.21 0 015.436 3.166A8.952 8.952 0 0146.5 27.25zm-2-9.5v-.813c0-1.102.898-2 2-2 1.104 0 2 .898 2 2v.813c0 1.103-.896 2-2 2-1.102 0-2-.897-2-2zm9.243 5.835a8.672 8.672 0 00-3.683-3.087c.59-.76.94-1.714.94-2.748v-.813c0-2.48-2.018-4.5-4.5-4.5a4.505 4.505 0 00-4.5 4.5v.813c0 1.034.352 1.987.941 2.748a8.671 8.671 0 00-3.683 3.087 8.95 8.95 0 01-1.757-5.335c0-4.963 4.037-9 9-9s9 4.037 9 9a8.951 8.951 0 01-1.758 5.335z" fill="url(#paint1_linear_107_1070)"/><path d="M53.25 54.75H46.5a1.25 1.25 0 000 2.5h6.75a1.25 1.25 0 000-2.5z" fill="url(#paint2_linear_107_1070)"/><path d="M53.25 47.75H35.5a1.25 1.25 0 000 2.5h17.75a1.25 1.25 0 000-2.5z" fill="url(#paint3_linear_107_1070)"/><path d="M53.25 40.75H35.5a1.25 1.25 0 000 2.5h17.75a1.25 1.25 0 000-2.5z" fill="url(#paint4_linear_107_1070)"/><path d="M31.046 34.116a1.26 1.26 0 00-.885-.366 1.26 1.26 0 00-.884.366 1.26 1.26 0 00-.366.884c0 .329.133.651.366.884.234.232.555.366.884.366.33 0 .651-.134.885-.366a1.26 1.26 0 00.366-.884 1.26 1.26 0 00-.366-.884z" fill="url(#paint5_linear_107_1070)"/><path d="M31.046 41.116a1.262 1.262 0 00-.885-.366c-.329 0-.65.134-.884.366a1.26 1.26 0 00-.366.884c0 .329.133.651.366.884.234.232.555.366.884.366.33 0 .651-.134.885-.366a1.26 1.26 0 00.366-.884 1.26 1.26 0 00-.366-.884z" fill="url(#paint6_linear_107_1070)"/><path d="M31.046 48.116a1.262 1.262 0 00-.885-.366c-.329 0-.65.134-.884.366a1.26 1.26 0 00-.366.884c0 .329.133.651.366.884.232.232.555.366.884.366.33 0 .652-.134.885-.366a1.26 1.26 0 00.366-.884 1.26 1.26 0 00-.366-.884z" fill="url(#paint7_linear_107_1070)"/><path d="M53.25 33.75H35.5a1.25 1.25 0 000 2.5h17.75a1.25 1.25 0 000-2.5z" fill="url(#paint8_linear_107_1070)"/><path d="M81.375 16.29a5.216 5.216 0 00-3.984-.524 5.216 5.216 0 00-3.187 2.446l-15.73 27.245a1.24 1.24 0 00-.16.486l-1.108 9.918a1.25 1.25 0 001.984 1.146l8.035-5.918c.14-.103.256-.233.342-.382l15.73-27.245a5.256 5.256 0 00-1.922-7.172zM60.008 53.3l.578-5.18 3.618 2.089-4.196 3.09zm6.019-4.925l-4.764-2.75L73.888 23.76l4.763 2.75-12.623 21.863zm15.105-26.163L79.9 24.346l-4.764-2.75 1.233-2.134a2.732 2.732 0 011.67-1.282c.71-.19 1.45-.092 2.086.275a2.73 2.73 0 011.281 1.67c.19.71.093 1.45-.274 2.087z" fill="url(#paint9_linear_107_1070)"/><defs><linearGradient id="paint0_linear_107_1070" x1="71.878" y1="32" x2="43.132" y2="32" gradientUnits="userSpaceOnUse"><stop stop-color="#A268F9"/><stop offset="1" stop-color="#B88BFB"/></linearGradient><linearGradient id="paint1_linear_107_1070" x1="57.514" y1="18.25" x2="45.039" y2="18.25" gradientUnits="userSpaceOnUse"><stop stop-color="#A268F9"/><stop offset="1" stop-color="#B88BFB"/></linearGradient><linearGradient id="paint2_linear_107_1070" x1="54.305" y1="56" x2="49.288" y2="56" gradientUnits="userSpaceOnUse"><stop stop-color="#A268F9"/><stop offset="1" stop-color="#B88BFB"/></linearGradient><linearGradient id="paint3_linear_107_1070" x1="54.072" y1="49" x2="43.089" y2="49" gradientUnits="userSpaceOnUse"><stop stop-color="#A268F9"/><stop offset="1" stop-color="#B88BFB"/></linearGradient><linearGradient id="paint4_linear_107_1070" x1="54.072" y1="42" x2="43.089" y2="42" gradientUnits="userSpaceOnUse"><stop stop-color="#A268F9"/><stop offset="1" stop-color="#B88BFB"/></linearGradient><linearGradient id="paint5_linear_107_1070" x1="31.359" y1="35" x2="30.003" y2="35" gradientUnits="userSpaceOnUse"><stop stop-color="#A268F9"/><stop offset="1" stop-color="#B88BFB"/></linearGradient><linearGradient id="paint6_linear_107_1070" x1="31.359" y1="42" x2="30.003" y2="42" gradientUnits="userSpaceOnUse"><stop stop-color="#A268F9"/><stop offset="1" stop-color="#B88BFB"/></linearGradient><linearGradient id="paint7_linear_107_1070" x1="31.359" y1="49" x2="30.003" y2="49" gradientUnits="userSpaceOnUse"><stop stop-color="#A268F9"/><stop offset="1" stop-color="#B88BFB"/></linearGradient><linearGradient id="paint8_linear_107_1070" x1="54.072" y1="35" x2="43.089" y2="35" gradientUnits="userSpaceOnUse"><stop stop-color="#A268F9"/><stop offset="1" stop-color="#B88BFB"/></linearGradient><linearGradient id="paint9_linear_107_1070" x1="83.431" y1="36.417" x2="68.895" y2="36.417" gradientUnits="userSpaceOnUse"><stop stop-color="#A268F9"/><stop offset="1" stop-color="#B88BFB"/></linearGradient></defs></svg>