<svg width="84" height="74" fill="none" xmlns="http://www.w3.org/2000/svg"><circle cx="32" cy="42" r="32" fill="#F4E19C" fill-opacity=".5"/><path d="M81.875 31.76h-3.75v-7.49c0-2.158-1.1-4.064-2.77-5.188L56.64.366a1.25 1.25 0 00-1.767 0l-3.808 3.808L47.257.366a1.25 1.25 0 00-1.768 0L27.834 18.021h-.709a6.257 6.257 0 00-6.25 6.25v11.114a1.25 1.25 0 002.5 0V24.271a3.754 3.754 0 013.75-3.75h44.75a3.754 3.754 0 013.75 3.75v7.49h-19c-5.1 0-9.25 4.149-9.25 9.25 0 5.1 4.15 9.25 9.25 9.25h19v7.489a3.754 3.754 0 01-3.75 3.75h-44.75a3.754 3.754 0 01-3.75-3.75V46.635a1.25 1.25 0 10-2.5 0V57.75a6.257 6.257 0 006.25 6.25h44.75a6.257 6.257 0 006.25-6.25v-7.49h3.75c.69 0 1.25-.56 1.25-1.25v-16c0-.69-.56-1.25-1.25-1.25zM31.37 18.02L46.373 3.019l2.923 2.923-12.08 12.08H31.37zm9.382 0L55.755 3.019 70.758 18.02H40.752zm39.873 29.74h-24a6.758 6.758 0 01-6.75-6.75 6.758 6.758 0 016.75-6.75h24v13.5z" fill="url(#paint0_linear_107_1236)"/><path d="M56.625 37.26a3.754 3.754 0 00-3.75 3.75 3.754 3.754 0 003.75 3.75 3.754 3.754 0 003.75-3.75 3.754 3.754 0 00-3.75-3.75zm0 5a1.25 1.25 0 110-2.5 1.25 1.25 0 010 2.5z" fill="url(#paint1_linear_107_1236)"/><path d="M22.125 42.26a1.254 1.254 0 001.25-1.25c0-.329-.134-.651-.366-.884a1.26 1.26 0 00-.884-.366c-.329 0-.651.134-.884.366a1.26 1.26 0 00-.366.884 1.253 1.253 0 001.25 1.25z" fill="url(#paint2_linear_107_1236)"/><defs><linearGradient id="paint0_linear_107_1236" x1="81.806" y1="32" x2="48.043" y2="32" gradientUnits="userSpaceOnUse"><stop stop-color="#A268F9"/><stop offset="1" stop-color="#B88BFB"/></linearGradient><linearGradient id="paint1_linear_107_1236" x1="60.216" y1="41.01" x2="56.148" y2="41.01" gradientUnits="userSpaceOnUse"><stop stop-color="#A268F9"/><stop offset="1" stop-color="#B88BFB"/></linearGradient><linearGradient id="paint2_linear_107_1236" x1="23.322" y1="41.01" x2="21.966" y2="41.01" gradientUnits="userSpaceOnUse"><stop stop-color="#A268F9"/><stop offset="1" stop-color="#B88BFB"/></linearGradient></defs></svg>