<svg width="84" height="74" fill="none" xmlns="http://www.w3.org/2000/svg"><circle cx="32" cy="42" r="32" fill="#F4E19C" fill-opacity=".5"/><g clip-path="url(#clip0_107_746)"><path d="M83.917 29.786L81.284 18.3a3.236 3.236 0 00-3.169-2.526H64.44v-3.049h3.464a1.25 1.25 0 000-2.5h-9.155a1.25 1.25 0 00-1.166.798l-1.36 3.503h-9.012a1.25 1.25 0 000 2.5h9.868a1.25 1.25 0 001.165-.798l1.36-3.503h2.336v27.246h-5.645l-2.14-1.999V22.921a1.25 1.25 0 00-2.5 0v14.344h-7.1V22.92a1.25 1.25 0 10-2.5 0v14.344h-7.1V22.92a1.25 1.25 0 00-2.5 0v14.344H22.5v-7.296l4.736-12.944h8.989a1.25 1.25 0 000-2.5h-9.863a1.25 1.25 0 00-1.174.821l-5.112 13.972c-.05.137-.076.283-.076.43v17.11c0 .69.56 1.25 1.25 1.25h3.864a5.753 5.753 0 005.745 5.666c1.82 0 3.443-.85 4.497-2.174a5.752 5.752 0 004.493 2.175c3.1-.001 5.713-2.559 5.75-5.666h19.963a5.753 5.753 0 005.745 5.666 5.753 5.753 0 005.745-5.666h2.332A4.621 4.621 0 0084 43.492V30.513a3.27 3.27 0 00-.083-.727zm-5.802-11.512c.352 0 .653.24.732.585l2.136 9.317h-8.219c-.73 0-1.322-.593-1.322-1.322v-8.58h6.673zM22.5 39.765h29.912l2.537 2.37c.228.213.54.336.853.336h6.138v3.138H45.07c-.924-2.01-2.985-3.325-5.195-3.33a5.792 5.792 0 00-4.517 2.173 5.802 5.802 0 00-4.5-2.172 5.807 5.807 0 00-5.215 3.328H22.5v-5.843zm8.36 11.51a3.251 3.251 0 01-3.248-3.248c0-1.768 1.481-3.247 3.247-3.247 1.771 0 3.244 1.482 3.247 3.25a3.25 3.25 0 01-3.247 3.244zm11.51-1.195a3.226 3.226 0 01-2.189 1.178c-1.884.191-3.572-1.336-3.575-3.23 0-1.741 1.437-3.206 3.178-3.247 1.671-.038 3.132 1.257 3.3 2.919a3.226 3.226 0 01-.714 2.38zm28.937 1.194a3.251 3.251 0 01-3.247-3.247c0-1.77 1.483-3.247 3.247-3.247 1.763 0 3.247 1.477 3.247 3.247a3.25 3.25 0 01-3.247 3.247zm8.077-5.666h-2.862a5.806 5.806 0 00-5.214-3.328 5.805 5.805 0 00-5.216 3.328H64.44V18.274h4.502v8.58a3.827 3.827 0 003.822 3.822H81.5v12.816c0 1.167-.95 2.116-2.116 2.116z" fill="url(#paint0_linear_107_746)"/><path d="M72.97 34.157h-2.162a1.25 1.25 0 000 2.5h2.162a1.25 1.25 0 000-2.5z" fill="url(#paint1_linear_107_746)"/><path d="M40.642 16.254a1.261 1.261 0 001.633.676 1.262 1.262 0 00.676-1.633 1.261 1.261 0 00-1.632-.676 1.262 1.262 0 00-.677 1.633z" fill="url(#paint2_linear_107_746)"/></g><defs><linearGradient id="paint0_linear_107_746" x1="82.644" y1="32" x2="47.932" y2="32" gradientUnits="userSpaceOnUse"><stop stop-color="#A268F9"/><stop offset="1" stop-color="#B88BFB"/></linearGradient><linearGradient id="paint1_linear_107_746" x1="74.121" y1="35.407" x2="71.593" y2="35.407" gradientUnits="userSpaceOnUse"><stop stop-color="#A268F9"/><stop offset="1" stop-color="#B88BFB"/></linearGradient><linearGradient id="paint2_linear_107_746" x1="42.991" y1="15.776" x2="41.639" y2="15.776" gradientUnits="userSpaceOnUse"><stop stop-color="#A268F9"/><stop offset="1" stop-color="#B88BFB"/></linearGradient><clipPath id="clip0_107_746"><path fill="#fff" transform="translate(20)" d="M0 0h64v64H0z"/></clipPath></defs></svg>