<svg width="84" height="74" fill="none" xmlns="http://www.w3.org/2000/svg"><circle cx="32" cy="42" r="32" fill="#F4E19C" fill-opacity=".5"/><path d="M82.488 29.946a5.797 5.797 0 00-3.576-1.498 5.118 5.118 0 00-3.932 1.497l-7.117 7.041a4.727 4.727 0 00-.481-.687c-.876-1.04-2.156-1.611-3.605-1.611h-9.962c-1.878 0-3.71-.244-5.446-.724-4.524-1.252-8.846-.337-12.5 2.645a18.183 18.183 0 00-3.256 3.494l-1.786-1.733a1.27 1.27 0 00-.88-.358h-.009c-.34.003-.667.144-.903.388l-8.683 9.014a1.258 1.258 0 00.039 1.785l14.686 13.984a1.256 1.256 0 001.77-.033l8.602-8.825c.235-.241.365-.57.359-.908a1.272 1.272 0 00-.384-.883l-.75-.727 1.715-.193a27.248 27.248 0 013.136-.181h15.157c2.463 0 4.554-.539 6.218-1.601l.04-.028a8.391 8.391 0 001.606-1.458L82.76 36.33c1.748-2.056 1.639-4.622-.272-6.384zM35.912 60.502L23.044 48.249l6.932-7.197L42.77 53.467l-6.857 7.035zm44.93-25.803L70.628 46.716c-.324.381-.696.72-1.106 1.007-1.248.79-2.876 1.192-4.84 1.192H49.525c-1.14 0-2.294.067-3.422.198l-3.769.423-7.89-7.657a15.706 15.706 0 013.017-3.32c3.036-2.478 6.48-3.208 10.237-2.168 1.954.54 4.012.815 6.117.815h9.962c1.79 0 2.267 1.55 2.267 2.465 0 .669-.215 1.306-.59 1.747-.406.478-.983.72-1.716.72h-8.672a1.26 1.26 0 000 2.518h8.672c1.464 0 2.755-.571 3.636-1.608.733-.862 1.15-1.996 1.186-3.208l8.195-8.11c1.172-1.171 3.002-.877 4.026.067.53.488 1.241 1.514.06 2.902z" fill="url(#paint0_linear_107_1078)"/><path d="M51.14 43.062a1.26 1.26 0 10-2.452.575l.012.051a1.26 1.26 0 002.452-.575l-.012-.051z" fill="url(#paint1_linear_107_1078)"/><path d="M28.51 27.063h12.267a3.03 3.03 0 001.79-.583 3.03 3.03 0 001.788.582h12.269a3.03 3.03 0 001.789-.582 3.03 3.03 0 001.789.582h12.267a3.052 3.052 0 003.048-3.048v-5.72a6.601 6.601 0 00-3.59-5.903 7.23 7.23 0 001.67-4.629C73.598 3.758 70.34.5 66.337.5c-4.005 0-7.263 3.258-7.263 7.262 0 1.758.628 3.372 1.671 4.63a6.596 6.596 0 00-2.331 1.998 6.584 6.584 0 00-2.332-1.999 7.228 7.228 0 001.67-4.629C57.752 3.758 54.495.5 50.49.5c-4.004 0-7.262 3.258-7.262 7.262a7.23 7.23 0 001.671 4.63 6.584 6.584 0 00-2.332 1.999 6.59 6.59 0 00-2.332-2 7.228 7.228 0 001.671-4.628C41.905 3.758 38.647.5 34.643.5s-7.262 3.258-7.262 7.263a7.23 7.23 0 001.671 4.629 6.602 6.602 0 00-3.59 5.902v5.72a3.052 3.052 0 003.048 3.049zM66.336 3.017a4.75 4.75 0 014.744 4.744 4.75 4.75 0 01-4.744 4.744 4.75 4.75 0 01-4.744-4.744 4.749 4.749 0 014.744-4.744zm-3.271 11.225a7.216 7.216 0 003.27.781 7.213 7.213 0 003.271-.78A4.09 4.09 0 0173 18.293v5.72a.53.53 0 01-.53.53H60.201a.53.53 0 01-.53-.53v-5.72a4.09 4.09 0 013.393-4.05zM50.49 3.018a4.75 4.75 0 014.744 4.744 4.75 4.75 0 01-4.744 4.744 4.75 4.75 0 01-4.744-4.744 4.75 4.75 0 014.744-4.744zm-3.27 11.225a7.213 7.213 0 003.27.781 7.215 7.215 0 003.27-.78 4.091 4.091 0 013.394 4.05v5.72a.53.53 0 01-.53.53H44.355a.53.53 0 01-.53-.53v-5.72a4.091 4.091 0 013.393-4.05zM34.643 3.018a4.75 4.75 0 014.744 4.744 4.75 4.75 0 01-4.744 4.744 4.75 4.75 0 01-4.745-4.744 4.75 4.75 0 014.745-4.744zM27.98 18.294a4.091 4.091 0 013.393-4.05 7.215 7.215 0 003.27.78 7.215 7.215 0 003.271-.78 4.09 4.09 0 013.394 4.05v5.72a.53.53 0 01-.53.53H28.51a.53.53 0 01-.53-.53v-5.72z" fill="url(#paint2_linear_107_1078)"/><defs><linearGradient id="paint0_linear_107_1078" x1="82.644" y1="45.986" x2="47.932" y2="45.986" gradientUnits="userSpaceOnUse"><stop stop-color="#A268F9"/><stop offset="1" stop-color="#B88BFB"/></linearGradient><linearGradient id="paint1_linear_107_1078" x1="51.132" y1="43.375" x2="49.759" y2="43.375" gradientUnits="userSpaceOnUse"><stop stop-color="#A268F9"/><stop offset="1" stop-color="#B88BFB"/></linearGradient><linearGradient id="paint2_linear_107_1078" x1="74.457" y1="13.781" x2="47.308" y2="13.781" gradientUnits="userSpaceOnUse"><stop stop-color="#A268F9"/><stop offset="1" stop-color="#B88BFB"/></linearGradient></defs></svg>