<svg width="84" height="74" fill="none" xmlns="http://www.w3.org/2000/svg"><circle cx="32" cy="42" r="32" fill="#F4E19C" fill-opacity=".5"/><g clip-path="url(#clip0_107_612)"><path d="M83.663 26.797L62.409 4.09a1.25 1.25 0 00-1.825 0L48.147 17.377a21.846 21.846 0 00-6.231-.904C29.83 16.473 20 26.305 20 38.39s9.831 21.916 21.916 21.916a21.78 21.78 0 0010.808-2.856h17.881c.69 0 1.25-.56 1.25-1.25v-5a1.25 1.25 0 00-2.5 0v3.75H56.256c4.638-4.022 7.576-9.954 7.576-16.56 0-8.963-5.41-16.686-13.136-20.077l10.8-11.538 18.372 19.627h-9.263c-.69 0-1.25.56-1.25 1.25V39.95a1.25 1.25 0 002.5 0V28.9H82.75a1.25 1.25 0 00.913-2.104zM61.332 38.389c0 10.706-8.71 19.416-19.416 19.416S22.5 49.095 22.5 38.389s8.71-19.416 19.416-19.416 19.416 8.71 19.416 19.416z" fill="url(#paint0_linear_107_612)"/><path d="M70.605 46.824a1.25 1.25 0 100-2.5 1.25 1.25 0 000 2.5z" fill="url(#paint1_linear_107_612)"/><path d="M25.01 38.39c0 9.321 7.584 16.905 16.906 16.905s16.906-7.584 16.906-16.906-7.584-16.906-16.906-16.906S25.01 29.067 25.01 38.39zm31.312 0c0 7.943-6.463 14.405-14.406 14.405-7.944 0-14.406-6.462-14.406-14.406 0-7.943 6.462-14.406 14.406-14.406 7.943 0 14.406 6.463 14.406 14.406z" fill="url(#paint2_linear_107_612)"/><path d="M38.832 41.444a3.786 3.786 0 00-5.326 0 3.723 3.723 0 00-1.107 2.658c0 1.005.393 1.948 1.107 2.658a3.765 3.765 0 002.663 1.095c.964 0 1.929-.365 2.663-1.095a3.722 3.722 0 001.107-2.658 3.723 3.723 0 00-1.107-2.657zm-1.763 3.543a1.28 1.28 0 01-1.8 0 1.24 1.24 0 01-.37-.885c0-.333.132-.648.37-.884.248-.247.574-.37.9-.37.326 0 .652.123.9.37a1.24 1.24 0 010 1.77z" fill="url(#paint3_linear_107_612)"/><path d="M47.662 36.429c.965 0 1.93-.365 2.663-1.095a3.723 3.723 0 001.107-2.658 3.722 3.722 0 00-1.107-2.657 3.786 3.786 0 00-5.325 0 3.722 3.722 0 00-1.107 2.657c0 1.005.393 1.948 1.107 2.658a3.765 3.765 0 002.662 1.095zm-.9-4.638c.248-.247.574-.37.9-.37.326 0 .653.124.9.37.239.237.37.551.37.885 0 .334-.131.648-.37.885a1.28 1.28 0 01-1.8 0 1.24 1.24 0 01-.37-.885c0-.334.132-.648.37-.885z" fill="url(#paint4_linear_107_612)"/><path d="M36.12 30.865a1.25 1.25 0 00-1.763 1.773l13.354 13.276c.244.242.563.363.882.363a1.25 1.25 0 00.881-2.136L36.12 30.865z" fill="url(#paint5_linear_107_612)"/></g><defs><linearGradient id="paint0_linear_107_612" x1="82.644" y1="32" x2="47.932" y2="32" gradientUnits="userSpaceOnUse"><stop stop-color="#A268F9"/><stop offset="1" stop-color="#B88BFB"/></linearGradient><linearGradient id="paint1_linear_107_612" x1="71.802" y1="45.574" x2="70.446" y2="45.574" gradientUnits="userSpaceOnUse"><stop stop-color="#A268F9"/><stop offset="1" stop-color="#B88BFB"/></linearGradient><linearGradient id="paint2_linear_107_612" x1="58.105" y1="38.389" x2="39.767" y2="38.389" gradientUnits="userSpaceOnUse"><stop stop-color="#A268F9"/><stop offset="1" stop-color="#B88BFB"/></linearGradient><linearGradient id="paint3_linear_107_612" x1="39.779" y1="44.102" x2="35.69" y2="44.102" gradientUnits="userSpaceOnUse"><stop stop-color="#A268F9"/><stop offset="1" stop-color="#B88BFB"/></linearGradient><linearGradient id="paint4_linear_107_612" x1="51.272" y1="32.676" x2="47.183" y2="32.676" gradientUnits="userSpaceOnUse"><stop stop-color="#A268F9"/><stop offset="1" stop-color="#B88BFB"/></linearGradient><linearGradient id="paint5_linear_107_612" x1="49.507" y1="38.389" x2="40.908" y2="38.389" gradientUnits="userSpaceOnUse"><stop stop-color="#A268F9"/><stop offset="1" stop-color="#B88BFB"/></linearGradient><clipPath id="clip0_107_612"><path fill="#fff" transform="translate(20)" d="M0 0h64v64H0z"/></clipPath></defs></svg>