<svg width="84" height="74" fill="none" xmlns="http://www.w3.org/2000/svg"><circle cx="32" cy="42" r="32" fill="#F4E19C" fill-opacity=".5"/><g clip-path="url(#clip0_105_504)"><path d="M83.99 62.599l-7.5-61.5A1.25 1.25 0 0075.25 0h-46.5a1.25 1.25 0 00-1.24 1.099l-7.5 61.5a1.25 1.25 0 001.24 1.4h61.5a1.25 1.25 0 001.24-1.4zM52.439 2.5v5h-2.5v-5h2.5zm-22.58 0h2.621l-2.264 23.782a1.25 1.25 0 002.49.237L34.99 2.5h12.447v6.25c0 .69.56 1.25 1.25 1.25h5c.69 0 1.25-.56 1.25-1.25V2.5H69.01l5.615 59h-45.25l2.263-23.782a1.25 1.25 0 10-2.488-.237L26.863 61.5h-4.201l7.195-59zm47.279 59l-5.616-59h2.622l7.195 59h-4.201z" fill="url(#paint0_linear_105_504)"/><path d="M48.688 32.5h5c.69 0 1.25-.56 1.25-1.25v-15c0-.69-.56-1.25-1.25-1.25h-5c-.69 0-1.25.56-1.25 1.25v15c0 .69.56 1.25 1.25 1.25zm1.25-15h2.5V30h-2.5V17.5z" fill="url(#paint1_linear_105_504)"/><path d="M48.688 57.5h5c.69 0 1.25-.56 1.25-1.25v-17.5c0-.69-.56-1.25-1.25-1.25h-5c-.69 0-1.25.56-1.25 1.25v17.5c0 .691.56 1.25 1.25 1.25zm1.25-17.5h2.5v15h-2.5V40z" fill="url(#paint2_linear_105_504)"/><path d="M30.927 33.25a1.25 1.25 0 000-2.5h-.001a1.25 1.25 0 100 2.5z" fill="url(#paint3_linear_105_504)"/></g><defs><linearGradient id="paint0_linear_105_504" x1="82.644" y1="32" x2="47.932" y2="32" gradientUnits="userSpaceOnUse"><stop stop-color="#A268F9"/><stop offset="1" stop-color="#B88BFB"/></linearGradient><linearGradient id="paint1_linear_105_504" x1="54.779" y1="23.75" x2="50.711" y2="23.75" gradientUnits="userSpaceOnUse"><stop stop-color="#A268F9"/><stop offset="1" stop-color="#B88BFB"/></linearGradient><linearGradient id="paint2_linear_105_504" x1="54.779" y1="47.501" x2="50.711" y2="47.501" gradientUnits="userSpaceOnUse"><stop stop-color="#A268F9"/><stop offset="1" stop-color="#B88BFB"/></linearGradient><linearGradient id="paint3_linear_105_504" x1="32.124" y1="32" x2="30.768" y2="32" gradientUnits="userSpaceOnUse"><stop stop-color="#A268F9"/><stop offset="1" stop-color="#B88BFB"/></linearGradient><clipPath id="clip0_105_504"><path fill="#fff" transform="translate(20)" d="M0 0h64v64H0z"/></clipPath></defs></svg>