<svg width="84" height="74" fill="none" xmlns="http://www.w3.org/2000/svg"><circle cx="32" cy="42" r="32" fill="#F4E19C" fill-opacity=".5"/><g clip-path="url(#clip0_104_344)"><path d="M26.25 35.887a1.25 1.25 0 10.001 2.501 1.25 1.25 0 00-.001-2.5z" fill="url(#paint0_linear_104_344)"/><path d="M77.452 40.222l-11.784 4.051a5 5 0 00.082-.886c0-2.757-2.243-5-5-5h-8.095a1.25 1.25 0 01-.614-.16l-6.604-3.715a8.758 8.758 0 00-4.291-1.125h-8.861a3.755 3.755 0 00-3.535-2.5h-7.5c-.69 0-1.25.56-1.25 1.25v22.5c0 .69.56 1.25 1.25 1.25h7.5c1.592 0 2.957-1 3.5-2.406 1.415.176 3.052.594 4.08 1.211l6.538 3.923a15.939 15.939 0 0014.793.844l23.33-10.273c2.584-1.048 3.86-4.148 2.383-6.88-1.086-2.011-3.63-2.906-5.922-2.084zM30 52.142a1.252 1.252 0 01-1.25 1.245H22.5v-20h6.25c.689 0 1.25.56 1.25 1.25v17.506zm50.042-5.268l-.04.016-23.37 10.29a13.434 13.434 0 01-12.478-.709l-6.537-3.922c-1.4-.84-3.404-1.351-5.117-1.556V35.887h8.646c1.072 0 2.132.278 3.065.803l6.604 3.715a3.76 3.76 0 001.84.482h8.095c1.378 0 2.5 1.121 2.5 2.5 0 1.374-1.123 2.5-2.5 2.5H48.042a1.25 1.25 0 100 2.5H60.75c.82 0 1.627-.204 2.343-.586l15.199-5.224c1.12-.405 2.386-.002 2.883.917.745 1.377.129 2.875-1.133 3.38z" fill="url(#paint1_linear_104_344)"/><path d="M56.406 33.444a1.248 1.248 0 001.638 0C68.242 24.605 74.55 20.132 74.55 13.181c0-5.499-3.893-10.056-9.362-10.056-3.592 0-6.343 2.07-8.114 5.177-1.768-3.1-4.515-5.177-8.113-5.177-4.187 0-7.687 2.713-8.918 6.912a1.25 1.25 0 102.4.703c.91-3.107 3.469-5.115 6.518-5.115 3.566 0 6.068 3.167 6.908 6.115a1.25 1.25 0 002.41 0c.017-.061 1.753-6.115 6.909-6.115 3.912 0 6.862 3.248 6.862 7.556 0 5.56-5.436 9.57-14.827 17.667-5.722-4.914-10.268-8.373-12.851-11.757a1.25 1.25 0 10-1.988 1.517c2.912 3.814 7.829 7.469 14.02 12.836z" fill="url(#paint2_linear_104_344)"/><path d="M41.125 14.137a1.25 1.25 0 10.001 2.501 1.25 1.25 0 000-2.5z" fill="url(#paint3_linear_104_344)"/></g><defs><linearGradient id="paint0_linear_104_344" x1="27.447" y1="37.137" x2="26.091" y2="37.137" gradientUnits="userSpaceOnUse"><stop stop-color="#A268F9"/><stop offset="1" stop-color="#B88BFB"/></linearGradient><linearGradient id="paint1_linear_104_344" x1="82.644" y1="45.887" x2="47.932" y2="45.887" gradientUnits="userSpaceOnUse"><stop stop-color="#A268F9"/><stop offset="1" stop-color="#B88BFB"/></linearGradient><linearGradient id="paint2_linear_104_344" x1="73.819" y1="18.437" x2="55.076" y2="18.437" gradientUnits="userSpaceOnUse"><stop stop-color="#A268F9"/><stop offset="1" stop-color="#B88BFB"/></linearGradient><linearGradient id="paint3_linear_104_344" x1="42.322" y1="15.387" x2="40.966" y2="15.387" gradientUnits="userSpaceOnUse"><stop stop-color="#A268F9"/><stop offset="1" stop-color="#B88BFB"/></linearGradient><clipPath id="clip0_104_344"><path fill="#fff" transform="translate(20)" d="M0 0h64v64H0z"/></clipPath></defs></svg>