<svg width="84" height="74" fill="none" xmlns="http://www.w3.org/2000/svg"><circle cx="32" cy="42" r="32" fill="#F4E19C" fill-opacity=".5"/><path d="M82.75 50.12c-10.44 0-20.685 4.282-28.111 11.748a1.25 1.25 0 101.772 1.763c6.96-6.998 16.56-11.011 26.339-11.011a1.25 1.25 0 100-2.5z" fill="url(#paint0_linear_105_472)"/><path d="M56.684 48.962a1.25 1.25 0 00-1.736-.336c-5.345 3.61-9.86 8.128-13.418 13.427a1.25 1.25 0 002.076 1.394c3.378-5.031 7.664-9.32 12.742-12.75a1.25 1.25 0 00.336-1.735z" fill="url(#paint1_linear_105_472)"/><path d="M82.75 40.057a49.16 49.16 0 00-16.44 2.837 1.25 1.25 0 10.834 2.357 46.67 46.67 0 0115.606-2.694 1.25 1.25 0 100-2.5z" fill="url(#paint2_linear_105_472)"/><path d="M37.91 55.422C46.133 44.7 58.038 37.255 71.173 34.465l.007-.001a55.71 55.71 0 0111.57-1.219 1.25 1.25 0 000-2.5c-3.554 0-7.095.325-10.575.961v-2.698c4.518-3.824 6.998-8.836 6.998-14.173 0-5.518-2.651-10.689-7.465-14.56a1.25 1.25 0 00-1.567 0c-4.813 3.871-7.465 9.042-7.465 14.56 0 5.337 2.48 10.349 6.998 14.173v3.21a59.18 59.18 0 00-7.008 2.059v-7.319a1.24 1.24 0 00-.363-.88v-.001l-7-7.042a1.25 1.25 0 00-.886-.369H40.124a1.25 1.25 0 00-.886.37l-7 7.04v.001a1.246 1.246 0 00-.364.881v4.774a57.8 57.8 0 00-2.625-.42v-4.457C32.665 23.916 34.54 20.084 34.54 16c0-4.266-2.045-8.26-5.758-11.245a1.25 1.25 0 00-1.566 0C23.504 7.74 21.459 11.734 21.459 16c0 4.083 1.875 7.916 5.291 10.855v4.169a59.085 59.085 0 00-5.5-.258 1.25 1.25 0 100 2.5 56.38 56.38 0 0128.39 7.661 59.027 59.027 0 00-5.904 4.586c-6.983-3.557-14.742-5.435-22.486-5.435a1.25 1.25 0 000 2.5c7.046 0 14.107 1.639 20.522 4.75a59.07 59.07 0 00-5.316 5.885A39.1 39.1 0 0021.25 50.14a1.25 1.25 0 000 2.5c4.688 0 9.27.888 13.648 2.638a58.399 58.399 0 00-2.456 3.699l-1.905 3.12a1.25 1.25 0 102.134 1.303l1.905-3.12a55.475 55.475 0 013.21-4.697 1.24 1.24 0 00.124-.162zm27.267-40.587c0-4.443 2.032-8.651 5.748-11.95 3.715 3.299 5.748 7.507 5.748 11.95 0 3.915-1.58 7.649-4.498 10.737V16a1.25 1.25 0 10-2.5 0v9.572c-2.919-3.088-4.498-6.822-4.498-10.737zM23.959 16c0-3.188 1.427-6.217 4.041-8.623 2.614 2.406 4.041 5.435 4.041 8.623 0 2.635-.976 5.162-2.791 7.318V15a1.25 1.25 0 10-2.5 0v8.318c-1.815-2.156-2.791-4.683-2.791-7.318zm34.453 9.708H47.645l-4.515-4.541h10.767l4.515 4.541zM40.125 21.69l3.995 4.018h-7.99l3.995-4.018zm-5.75 6.518h11.5v7.95a59.133 59.133 0 00-1.75-.773v-4.198c0-.69-.56-1.25-1.25-1.25h-5.5c-.69 0-1.25.56-1.25 1.25v1.486a59.657 59.657 0 00-1.75-.428v-4.037zm7.25 6.19a58.687 58.687 0 00-3-1.014v-.947h3v1.962zm6.75 2.982v-9.172h11.792v7.04a58.678 58.678 0 00-8.184 4.167 59.272 59.272 0 00-3.608-2.035z" fill="url(#paint3_linear_105_472)"/><path d="M70.925 12.5c.328 0 .651-.134.884-.367.232-.232.366-.554.366-.883 0-.33-.133-.651-.366-.884a1.258 1.258 0 00-.884-.366c-.329 0-.652.133-.883.366a1.258 1.258 0 00-.367.884 1.257 1.257 0 001.25 1.25z" fill="url(#paint4_linear_105_472)"/><path d="M60.075 45.659a1.261 1.261 0 00-.367.883c0 .33.134.651.367.884.233.233.555.366.883.366a1.255 1.255 0 001.251-1.25c0-.329-.134-.65-.367-.883a1.258 1.258 0 00-.883-.367c-.33 0-.651.134-.884.367z" fill="url(#paint5_linear_105_472)"/><defs><linearGradient id="paint0_linear_105_472" x1="83.37" y1="57.06" x2="67.248" y2="57.06" gradientUnits="userSpaceOnUse"><stop stop-color="#A268F9"/><stop offset="1" stop-color="#B88BFB"/></linearGradient><linearGradient id="paint1_linear_105_472" x1="56.568" y1="56.206" x2="48.118" y2="56.206" gradientUnits="userSpaceOnUse"><stop stop-color="#A268F9"/><stop offset="1" stop-color="#B88BFB"/></linearGradient><linearGradient id="paint2_linear_105_472" x1="83.608" y1="42.69" x2="73.561" y2="42.69" gradientUnits="userSpaceOnUse"><stop stop-color="#A268F9"/><stop offset="1" stop-color="#B88BFB"/></linearGradient><linearGradient id="paint3_linear_105_472" x1="82.644" y1="32" x2="47.932" y2="32" gradientUnits="userSpaceOnUse"><stop stop-color="#A268F9"/><stop offset="1" stop-color="#B88BFB"/></linearGradient><linearGradient id="paint4_linear_105_472" x1="72.122" y1="11.25" x2="70.766" y2="11.25" gradientUnits="userSpaceOnUse"><stop stop-color="#A268F9"/><stop offset="1" stop-color="#B88BFB"/></linearGradient><linearGradient id="paint5_linear_105_472" x1="62.156" y1="46.542" x2="60.8" y2="46.542" gradientUnits="userSpaceOnUse"><stop stop-color="#A268F9"/><stop offset="1" stop-color="#B88BFB"/></linearGradient></defs></svg>