<svg width="82" height="74" fill="none" xmlns="http://www.w3.org/2000/svg"><circle cx="32" cy="42" r="32" fill="#F4E19C" fill-opacity=".5"/><g clip-path="url(#clip0_125_81)"><path d="M70.53 48.633c6.325 0 11.47-5.145 11.47-11.47 0-4.28-2.422-8.204-6.151-10.164a11.46 11.46 0 001.04-4.779c0-6.324-5.145-11.47-11.47-11.47-2.772 0-5.378.98-7.419 2.716v-5.99c.57-.117 1-.622 1-1.226v-5C59 .56 58.44 0 57.75 0h-38.5C18.56 0 18 .56 18 1.25v5c0 .604.43 1.109 1 1.225V62.75c0 .69.56 1.25 1.25 1.25h48.996c.37 0 .72-.164.958-.447a5.121 5.121 0 001.193-3.282 5.12 5.12 0 00-4.728-5.098v-7.208a11.5 11.5 0 003.86.668zM65.42 13.25c4.946 0 8.97 4.024 8.97 8.97a8.95 8.95 0 01-1.336 4.713 1.249 1.249 0 00.624 1.828 9.014 9.014 0 015.822 8.402c0 4.946-4.024 8.97-8.97 8.97-1.34 0-2.661-.3-3.86-.872v-4.243l5.673-5.674a1.25 1.25 0 00-1.767-1.768l-3.907 3.906v-11.94a1.25 1.25 0 00-2.5 0v5.94l-1.034-1.034a1.251 1.251 0 00-1.768 1.768l2.802 2.802v10.243a8.987 8.987 0 01-6.169.572V17.177a8.925 8.925 0 017.42-3.927zm-1.25 40.819a6.832 6.832 0 00-6.17-2.17v-3.501a11.494 11.494 0 006.17-.433v6.104zM21.5 7.5h11.334a1.25 1.25 0 000-2.5H20.5V2.5h36V5H44.083a1.25 1.25 0 000 2.5H55.5v45.33a6.846 6.846 0 00-2.31 2.355 5.243 5.243 0 00-.19.025V49c0-.69-.56-1.25-1.25-1.25h-5.5c-.69 0-1.25.56-1.25 1.25v7c0 .69.56 1.25 1.25 1.25h3.363a5.086 5.086 0 00-.84 4.25H21.5v-54zm29 47.25h-3v-4.5h3v4.5zm18.397 5.52c0 .431-.107.854-.308 1.23H51.43a2.616 2.616 0 012.461-3.838 1.25 1.25 0 001.219-.747 4.345 4.345 0 013.98-2.602 4.335 4.335 0 014.122 2.978 1.251 1.251 0 001.798.698 2.616 2.616 0 013.888 2.282z" fill="url(#paint0_linear_125_81)"/><path d="M30.75 47.75h-5.5c-.69 0-1.25.56-1.25 1.25v7c0 .69.56 1.25 1.25 1.25h5.5c.69 0 1.25-.56 1.25-1.25v-7c0-.69-.56-1.25-1.25-1.25zm-1.25 7h-3v-4.5h3v4.5z" fill="url(#paint1_linear_125_81)"/><path d="M41.25 47.75h-5.5c-.69 0-1.25.56-1.25 1.25v7c0 .69.56 1.25 1.25 1.25h5.5c.69 0 1.25-.56 1.25-1.25v-7c0-.69-.56-1.25-1.25-1.25zm-1.25 7h-3v-4.5h3v4.5z" fill="url(#paint2_linear_125_81)"/><path d="M30.75 35.75h-5.5c-.69 0-1.25.56-1.25 1.25v7c0 .69.56 1.25 1.25 1.25h5.5c.69 0 1.25-.56 1.25-1.25v-7c0-.69-.56-1.25-1.25-1.25zm-1.25 7h-3v-4.5h3v4.5z" fill="url(#paint3_linear_125_81)"/><path d="M41.25 35.75h-5.5c-.69 0-1.25.56-1.25 1.25v7c0 .69.56 1.25 1.25 1.25h5.5c.69 0 1.25-.56 1.25-1.25v-7c0-.69-.56-1.25-1.25-1.25zm-1.25 7h-3v-4.5h3v4.5z" fill="url(#paint4_linear_125_81)"/><path d="M46.25 45.25h5.5c.69 0 1.25-.56 1.25-1.25v-7c0-.69-.56-1.25-1.25-1.25h-5.5c-.69 0-1.25.56-1.25 1.25v7c0 .69.56 1.25 1.25 1.25zm1.25-7h3v4.5h-3v-4.5z" fill="url(#paint5_linear_125_81)"/><path d="M30.75 23.75h-5.5c-.69 0-1.25.56-1.25 1.25v7c0 .69.56 1.25 1.25 1.25h5.5c.69 0 1.25-.56 1.25-1.25v-7c0-.69-.56-1.25-1.25-1.25zm-1.25 7h-3v-4.5h3v4.5z" fill="url(#paint6_linear_125_81)"/><path d="M41.25 23.75h-5.5c-.69 0-1.25.56-1.25 1.25v7c0 .69.56 1.25 1.25 1.25h5.5c.69 0 1.25-.56 1.25-1.25v-7c0-.69-.56-1.25-1.25-1.25zm-1.25 7h-3v-4.5h3v4.5z" fill="url(#paint7_linear_125_81)"/><path d="M46.25 33.25h5.5c.69 0 1.25-.56 1.25-1.25v-7c0-.69-.56-1.25-1.25-1.25h-5.5c-.69 0-1.25.56-1.25 1.25v7c0 .69.56 1.25 1.25 1.25zm1.25-7h3v4.5h-3v-4.5z" fill="url(#paint8_linear_125_81)"/><path d="M30.75 11.75h-5.5c-.69 0-1.25.56-1.25 1.25v7c0 .69.56 1.25 1.25 1.25h5.5c.69 0 1.25-.56 1.25-1.25v-7c0-.69-.56-1.25-1.25-1.25zm-1.25 7h-3v-4.5h3v4.5z" fill="url(#paint9_linear_125_81)"/><path d="M41.25 11.75h-5.5c-.69 0-1.25.56-1.25 1.25v7c0 .69.56 1.25 1.25 1.25h5.5c.69 0 1.25-.56 1.25-1.25v-7c0-.69-.56-1.25-1.25-1.25zm-1.25 7h-3v-4.5h3v4.5z" fill="url(#paint10_linear_125_81)"/><path d="M46.25 21.25h5.5c.69 0 1.25-.56 1.25-1.25v-7c0-.69-.56-1.25-1.25-1.25h-5.5c-.69 0-1.25.56-1.25 1.25v7c0 .69.56 1.25 1.25 1.25zm1.25-7h3v4.5h-3v-4.5z" fill="url(#paint11_linear_125_81)"/><path d="M38.459 7.5c.329 0 .65-.134.883-.366a1.26 1.26 0 00.367-.884 1.26 1.26 0 00-.367-.884A1.259 1.259 0 0038.46 5a1.254 1.254 0 00-.884 2.134c.233.232.553.366.884.366z" fill="url(#paint12_linear_125_81)"/></g><defs><linearGradient id="paint0_linear_125_81" x1="80.644" y1="32" x2="45.932" y2="32" gradientUnits="userSpaceOnUse"><stop stop-color="#A268F9"/><stop offset="1" stop-color="#B88BFB"/></linearGradient><linearGradient id="paint1_linear_125_81" x1="31.831" y1="52.5" x2="27.491" y2="52.5" gradientUnits="userSpaceOnUse"><stop stop-color="#A268F9"/><stop offset="1" stop-color="#B88BFB"/></linearGradient><linearGradient id="paint2_linear_125_81" x1="42.331" y1="52.5" x2="37.992" y2="52.5" gradientUnits="userSpaceOnUse"><stop stop-color="#A268F9"/><stop offset="1" stop-color="#B88BFB"/></linearGradient><linearGradient id="paint3_linear_125_81" x1="31.831" y1="40.5" x2="27.491" y2="40.5" gradientUnits="userSpaceOnUse"><stop stop-color="#A268F9"/><stop offset="1" stop-color="#B88BFB"/></linearGradient><linearGradient id="paint4_linear_125_81" x1="42.331" y1="40.5" x2="37.992" y2="40.5" gradientUnits="userSpaceOnUse"><stop stop-color="#A268F9"/><stop offset="1" stop-color="#B88BFB"/></linearGradient><linearGradient id="paint5_linear_125_81" x1="52.831" y1="40.5" x2="48.492" y2="40.5" gradientUnits="userSpaceOnUse"><stop stop-color="#A268F9"/><stop offset="1" stop-color="#B88BFB"/></linearGradient><linearGradient id="paint6_linear_125_81" x1="31.831" y1="28.5" x2="27.491" y2="28.5" gradientUnits="userSpaceOnUse"><stop stop-color="#A268F9"/><stop offset="1" stop-color="#B88BFB"/></linearGradient><linearGradient id="paint7_linear_125_81" x1="42.331" y1="28.5" x2="37.992" y2="28.5" gradientUnits="userSpaceOnUse"><stop stop-color="#A268F9"/><stop offset="1" stop-color="#B88BFB"/></linearGradient><linearGradient id="paint8_linear_125_81" x1="52.831" y1="28.5" x2="48.492" y2="28.5" gradientUnits="userSpaceOnUse"><stop stop-color="#A268F9"/><stop offset="1" stop-color="#B88BFB"/></linearGradient><linearGradient id="paint9_linear_125_81" x1="31.831" y1="16.5" x2="27.491" y2="16.5" gradientUnits="userSpaceOnUse"><stop stop-color="#A268F9"/><stop offset="1" stop-color="#B88BFB"/></linearGradient><linearGradient id="paint10_linear_125_81" x1="42.331" y1="16.5" x2="37.992" y2="16.5" gradientUnits="userSpaceOnUse"><stop stop-color="#A268F9"/><stop offset="1" stop-color="#B88BFB"/></linearGradient><linearGradient id="paint11_linear_125_81" x1="52.831" y1="16.5" x2="48.492" y2="16.5" gradientUnits="userSpaceOnUse"><stop stop-color="#A268F9"/><stop offset="1" stop-color="#B88BFB"/></linearGradient><linearGradient id="paint12_linear_125_81" x1="39.656" y1="6.25" x2="38.3" y2="6.25" gradientUnits="userSpaceOnUse"><stop stop-color="#A268F9"/><stop offset="1" stop-color="#B88BFB"/></linearGradient><clipPath id="clip0_125_81"><path fill="#fff" transform="translate(18)" d="M0 0h64v64H0z"/></clipPath></defs></svg>