<svg width="84" height="74" fill="none" xmlns="http://www.w3.org/2000/svg"><circle cx="32" cy="42" r="32" fill="#F4E19C" fill-opacity=".5"/><g clip-path="url(#clip0_105_441)"><path d="M65.694 18.716a1.25 1.25 0 100-2.5 1.25 1.25 0 000 2.5z" fill="url(#paint0_linear_105_441)"/><path d="M46.125 25.793a1.25 1.25 0 100-2.5 1.25 1.25 0 000 2.5z" fill="url(#paint1_linear_105_441)"/><path d="M38.625 25.75h2.5a1.251 1.251 0 000-2.5h-2.5a1.251 1.251 0 000 2.5z" fill="url(#paint2_linear_105_441)"/><path d="M77.854 33.455l-2.236-4.493a1.27 1.27 0 00-1.118-.712H56.522l1.102-2.181 25.45-6.792a1.244 1.244 0 00.883-1.525l-1.294-4.827a1.248 1.248 0 00-1.531-.882l-10.93 2.924a1.247 1.247 0 00-.885 1.53c.145.547.641.926 1.206.926.109 0 .218-.047.324-.047h.001l3.686-.982.647 2.417-17.333 4.631-1.141-2.282 4.479-1.196a1.252 1.252 0 00.885-1.53 1.252 1.252 0 00-1.53-.885l-4.984 1.31a1.267 1.267 0 00-1.057-.608H32.625a1.27 1.27 0 00-1.118.711l-2.5 5.01c-.176.353-.176.75 0 1.103l.97 1.926H27c-1.335 0-2.59.54-3.535 1.485A5.015 5.015 0 0022 32.042v2.282c-1.206.923-2 2.372-2 3.968v1.25c0 .69.56 1.208 1.25 1.208h.452c-.077 1.125.01 2.15.325 2.817C24.587 48.992 28.75 52 33.75 52h36.5c5 0 9.163-3.008 11.723-8.433.315-.668.402-1.692.325-2.817h.452c.69 0 1.25-.518 1.25-1.208v-1.25c0-2.541-3.638-4.31-6.146-4.837zm2.718-18.673l.647 2.414-3.622.97-.647-2.414 3.622-.97zM73.727 30.75l1.25 2.5H33.25v-2.5h40.477zm-40.33-10h20.33l1.875 3.75-1.875 3.75h-20.33l-1.874-3.75 1.875-3.75zM24.5 32.043c0-.667.26-1.316.733-1.788A2.504 2.504 0 0127 29.5h3.75v3.75H24.5v-1.208zM79.712 42.5c-1.503 3.184-4.364 7-9.462 7h-36.5c-5.098 0-7.96-3.816-9.462-7-.102-.217-.163-.875-.087-1.75h3.964a5.48 5.48 0 00-.04.604c0 2.413 1.963 4.386 4.375 4.386 2.413 0 4.375-1.979 4.375-4.39 0-.199-.014-.35-.04-.6h2.571a7 7 0 00-.03.604c0 3.102 2.523 5.636 5.624 5.636 3.102 0 5.625-2.54 5.625-5.64 0-.198-.011-.35-.031-.6h2.562a7 7 0 00-.03.604c0 3.102 2.523 5.636 5.624 5.636 3.102 0 5.625-2.54 5.625-5.641 0-.197-.01-.349-.03-.599h2.82c-.026.25-.04.406-.04.604 0 2.412 1.963 4.386 4.375 4.386 2.413 0 4.375-1.979 4.375-4.391 0-.198-.014-.349-.04-.599H79.8c.076.875.015 1.533-.088 1.75zm-49.087-1.146c0-.203.034-.354.094-.604h3.562c.06.25.094.4.094.604A1.877 1.877 0 0132.5 43.23a1.877 1.877 0 01-1.875-1.875zm11.25 0c0-.199.019-.354.055-.604h6.14c.036.25.055.405.055.604A3.128 3.128 0 0145 44.48a3.128 3.128 0 01-3.125-3.125zm13.75 0c0-.199.019-.354.055-.604h6.14c.036.25.055.405.055.604a3.128 3.128 0 01-3.125 3.125 3.128 3.128 0 01-3.125-3.125zm14 0c0-.203.034-.354.094-.604h3.562c.06.25.094.4.094.604A1.877 1.877 0 0171.5 43.23a1.877 1.877 0 01-1.875-1.875zM22.5 38.25c0-1.125 1.07-2.5 2.5-2.5h51.5c.842 0 2.204.414 3.312 1.007 1.275.682 1.688 1.368 1.688 1.493h-59z" fill="url(#paint3_linear_105_441)"/></g><defs><linearGradient id="paint0_linear_105_441" x1="66.891" y1="17.466" x2="65.535" y2="17.466" gradientUnits="userSpaceOnUse"><stop stop-color="#A268F9"/><stop offset="1" stop-color="#B88BFB"/></linearGradient><linearGradient id="paint1_linear_105_441" x1="47.322" y1="24.543" x2="45.966" y2="24.543" gradientUnits="userSpaceOnUse"><stop stop-color="#A268F9"/><stop offset="1" stop-color="#B88BFB"/></linearGradient><linearGradient id="paint2_linear_105_441" x1="42.269" y1="24.5" x2="39.557" y2="24.5" gradientUnits="userSpaceOnUse"><stop stop-color="#A268F9"/><stop offset="1" stop-color="#B88BFB"/></linearGradient><linearGradient id="paint3_linear_105_441" x1="82.644" y1="32" x2="47.932" y2="32" gradientUnits="userSpaceOnUse"><stop stop-color="#A268F9"/><stop offset="1" stop-color="#B88BFB"/></linearGradient><clipPath id="clip0_105_441"><path fill="#fff" transform="translate(20)" d="M0 0h64v64H0z"/></clipPath></defs></svg>