<svg width="84" height="74" fill="none" xmlns="http://www.w3.org/2000/svg"><circle cx="32" cy="42" r="32" fill="#F4E19C" fill-opacity=".5"/><path d="M70.353 13.25C70.353 8.9 67.506 2 59.869 2 56.73 2 54.09 3.48 52 6.404 49.909 3.479 47.27 2 44.131 2c-7.637 0-10.483 6.9-10.483 11.25 0 7.5 5.852 12.19 13.848 19.027a656.035 656.035 0 013.685 3.167 1.247 1.247 0 001.638 0 656.035 656.035 0 013.685-3.167c8.37-7.158 13.849-11.686 13.849-19.027zM52 32.847a779.395 779.395 0 00-2.88-2.47c-8.365-7.153-12.972-11.093-12.972-17.127 0-4.093 2.677-8.75 7.983-8.75 2.77 0 4.984 1.59 6.772 4.86a1.25 1.25 0 002.194 0C54.885 6.09 57.1 4.5 59.869 4.5c5.232 0 7.984 4.588 7.984 8.75 0 6.034-4.608 9.974-12.974 17.127-.927.793-1.88 1.608-2.879 2.47z" fill="url(#paint0_linear_105_393)"/><path d="M28.982 51.014L35 54.023v6.727c0 .69.56 1.25 1.25 1.25H49.5c.69 0 1.25-.56 1.25-1.25V44.431a7.399 7.399 0 00-6.673-7.386l-.102-.011c-2.2-.22-6.095-1.725-7.633-3.263l-2.807-2.806A4.967 4.967 0 0030 29.5v-10c0-2.757-2.243-5-5-5s-5 2.243-5 5v16.98a16.25 16.25 0 008.982 14.534zM22.5 19.5c0-1.378 1.122-2.5 2.5-2.5s2.5 1.122 2.5 2.5v10.67A5.01 5.01 0 0025 34.5c0 1.335.52 2.59 1.465 3.535l6.401 6.403a1.25 1.25 0 101.768-1.768l-6.401-6.403A2.483 2.483 0 0127.5 34.5a2.504 2.504 0 011.667-2.358 2.496 2.496 0 012.6.59l2.808 2.807c2.898 2.898 9.23 3.989 9.243 3.992a4.909 4.909 0 014.432 4.9V59.5H37.5v-6.25a1.25 1.25 0 00-.691-1.118L30.1 48.778a13.676 13.676 0 01-7.6-12.298V19.5z" fill="url(#paint1_linear_105_393)"/><path d="M77.375 49.25a1.25 1.25 0 100-2.5 1.25 1.25 0 000 2.5z" fill="url(#paint2_linear_105_393)"/><path d="M79 14.5c-2.757 0-5 2.243-5 5v10c-1.335 0-2.59.52-3.535 1.465l-2.808 2.806c-1.537 1.538-5.432 3.042-7.641 3.264l-.083.009a7.401 7.401 0 00-6.683 7.387V60.75c0 .69.56 1.25 1.25 1.25h13.25c.69 0 1.25-.56 1.25-1.25v-6.727l4.091-2.046a1.25 1.25 0 00-1.118-2.236l-4.782 2.391a1.25 1.25 0 00-.691 1.118v6.25H55.75V44.431a4.911 4.911 0 014.442-4.9l.083-.01c2.711-.272 7.2-2.032 9.15-3.982l2.808-2.806a2.497 2.497 0 012.599-.591h.001A2.504 2.504 0 0176.5 34.5a2.48 2.48 0 01-.733 1.767l-6.4 6.403a1.25 1.25 0 001.767 1.768l6.401-6.403A4.968 4.968 0 0079 34.5a5.01 5.01 0 00-2.5-4.33V19.5c0-1.378 1.121-2.5 2.5-2.5s2.5 1.122 2.5 2.5v16.98c0 2.287-.577 4.558-1.67 6.566a1.25 1.25 0 102.197 1.194A16.294 16.294 0 0084 36.48V19.5c0-2.757-2.243-5-5-5z" fill="url(#paint3_linear_105_393)"/><defs><linearGradient id="paint0_linear_105_393" x1="69.575" y1="18.875" x2="49.667" y2="18.875" gradientUnits="userSpaceOnUse"><stop stop-color="#A268F9"/><stop offset="1" stop-color="#B88BFB"/></linearGradient><linearGradient id="paint1_linear_105_393" x1="50.099" y1="38.25" x2="33.421" y2="38.25" gradientUnits="userSpaceOnUse"><stop stop-color="#A268F9"/><stop offset="1" stop-color="#B88BFB"/></linearGradient><linearGradient id="paint2_linear_105_393" x1="78.572" y1="48" x2="77.216" y2="48" gradientUnits="userSpaceOnUse"><stop stop-color="#A268F9"/><stop offset="1" stop-color="#B88BFB"/></linearGradient><linearGradient id="paint3_linear_105_393" x1="83.349" y1="38.25" x2="66.671" y2="38.25" gradientUnits="userSpaceOnUse"><stop stop-color="#A268F9"/><stop offset="1" stop-color="#B88BFB"/></linearGradient></defs></svg>