<svg width="84" height="74" fill="none" xmlns="http://www.w3.org/2000/svg"><circle cx="32" cy="42" r="32" fill="#F4E19C" fill-opacity=".5"/><path d="M82.205 31.877h-3.089V26.54c0-.776-.629-1.405-1.405-1.405h-8.33a17.78 17.78 0 00-16.02-13.997V9.483h8.518c.776 0 1.405-.629 1.405-1.405V1.405c0-.776-.63-1.405-1.405-1.405h-9.923c-.776 0-1.405.629-1.405 1.405v9.74a17.78 17.78 0 00-15.932 13.99h-8.33c-.776 0-1.405.629-1.405 1.405v5.337h-3.089c-.776 0-1.405.63-1.405 1.405v29.313c0 .776.629 1.405 1.405 1.405h60.41c.776 0 1.405-.629 1.405-1.405V33.282c0-.776-.629-1.405-1.405-1.405zM53.361 4.871V2.81h7.113v3.863h-7.113V4.87zm-1.36 9.024c6.855 0 12.82 4.73 14.494 11.24h-28.99c1.673-6.51 7.64-11.24 14.495-11.24zm-24.307 14.05h48.612v3.932H27.694v-3.932zM55.176 61.19h-6.352V50.66h6.352v10.53zm25.624 0H63.942V43.255a1.405 1.405 0 10-2.81 0V61.19h-3.146V49.254c0-.776-.629-1.405-1.405-1.405h-9.162c-.776 0-1.405.629-1.405 1.405V61.19h-3.146V43.255a1.405 1.405 0 10-2.81 0V61.19H23.2V34.687h57.601V61.19z" fill="url(#paint0_linear_107_734)"/><path d="M63.916 38.345a1.433 1.433 0 00-.599-.894 1.388 1.388 0 00-.506-.209 1.384 1.384 0 00-.81.08 1.38 1.38 0 00-.631.517 1.388 1.388 0 00-.21.506 1.39 1.39 0 00.384 1.267 1.434 1.434 0 00.457.305 1.421 1.421 0 00.536.107 1.373 1.373 0 00.537-.107 1.388 1.388 0 00.76-.76c.035-.086.063-.174.082-.263a1.412 1.412 0 000-.55z" fill="url(#paint1_linear_107_734)"/><path d="M42.84 38.345a1.38 1.38 0 00-.597-.893 1.419 1.419 0 00-.506-.21 1.384 1.384 0 00-.81.08 1.377 1.377 0 00-.631.517 1.388 1.388 0 00-.21.506 1.39 1.39 0 00.384 1.267 1.445 1.445 0 00.456.305 1.422 1.422 0 00.537.107 1.373 1.373 0 00.538-.107 1.426 1.426 0 00.455-.305 1.413 1.413 0 00.384-1.267z" fill="url(#paint2_linear_107_734)"/><path d="M36.107 36.865H28.17c-.776 0-1.405.629-1.405 1.405v6.041c0 .776.629 1.405 1.405 1.405h7.938c.776 0 1.405-.629 1.405-1.405V38.27c0-.776-.629-1.405-1.405-1.405zm-1.405 6.041h-5.128v-3.231h5.128v3.231z" fill="url(#paint3_linear_107_734)"/><path d="M36.107 49.397H28.17c-.776 0-1.405.629-1.405 1.405v6.041c0 .776.629 1.405 1.405 1.405h7.938c.776 0 1.405-.629 1.405-1.405v-6.041c0-.776-.629-1.405-1.405-1.405zm-1.405 6.041h-5.128v-3.231h5.128v3.231z" fill="url(#paint4_linear_107_734)"/><path d="M55.97 36.865h-7.94c-.775 0-1.404.629-1.404 1.405v6.041c0 .776.629 1.405 1.405 1.405h7.938c.776 0 1.405-.629 1.405-1.405V38.27c0-.776-.629-1.405-1.405-1.405zm-1.405 6.041h-5.13v-3.231h5.13v3.231z" fill="url(#paint5_linear_107_734)"/><path d="M75.831 36.865h-7.938c-.776 0-1.405.629-1.405 1.405v6.041c0 .776.629 1.405 1.405 1.405h7.938c.776 0 1.405-.629 1.405-1.405V38.27c0-.776-.629-1.405-1.405-1.405zm-1.405 6.041h-5.128v-3.231h5.128v3.231z" fill="url(#paint6_linear_107_734)"/><path d="M75.831 49.397h-7.938c-.776 0-1.405.629-1.405 1.405v6.041c0 .776.629 1.405 1.405 1.405h7.938c.776 0 1.405-.629 1.405-1.405v-6.041c0-.776-.629-1.405-1.405-1.405zm-1.405 6.041h-5.128v-3.231h5.128v3.231z" fill="url(#paint7_linear_107_734)"/><defs><linearGradient id="paint0_linear_107_734" x1="82.271" y1="32" x2="47.982" y2="32" gradientUnits="userSpaceOnUse"><stop stop-color="#A268F9"/><stop offset="1" stop-color="#B88BFB"/></linearGradient><linearGradient id="paint1_linear_107_734" x1="63.883" y1="38.619" x2="62.359" y2="38.619" gradientUnits="userSpaceOnUse"><stop stop-color="#A268F9"/><stop offset="1" stop-color="#B88BFB"/></linearGradient><linearGradient id="paint2_linear_107_734" x1="42.808" y1="38.619" x2="41.284" y2="38.619" gradientUnits="userSpaceOnUse"><stop stop-color="#A268F9"/><stop offset="1" stop-color="#B88BFB"/></linearGradient><linearGradient id="paint3_linear_107_734" x1="37.285" y1="41.29" x2="31.455" y2="41.29" gradientUnits="userSpaceOnUse"><stop stop-color="#A268F9"/><stop offset="1" stop-color="#B88BFB"/></linearGradient><linearGradient id="paint4_linear_107_734" x1="37.285" y1="53.822" x2="31.455" y2="53.822" gradientUnits="userSpaceOnUse"><stop stop-color="#A268F9"/><stop offset="1" stop-color="#B88BFB"/></linearGradient><linearGradient id="paint5_linear_107_734" x1="57.147" y1="41.29" x2="51.317" y2="41.29" gradientUnits="userSpaceOnUse"><stop stop-color="#A268F9"/><stop offset="1" stop-color="#B88BFB"/></linearGradient><linearGradient id="paint6_linear_107_734" x1="77.009" y1="41.29" x2="71.179" y2="41.29" gradientUnits="userSpaceOnUse"><stop stop-color="#A268F9"/><stop offset="1" stop-color="#B88BFB"/></linearGradient><linearGradient id="paint7_linear_107_734" x1="77.009" y1="53.822" x2="71.179" y2="53.822" gradientUnits="userSpaceOnUse"><stop stop-color="#A268F9"/><stop offset="1" stop-color="#B88BFB"/></linearGradient></defs></svg>