<svg width="75" height="74" fill="none" xmlns="http://www.w3.org/2000/svg"><circle cx="32" cy="42" r="32" fill="#F4E19C" fill-opacity=".5"/><path d="M45.813 64h-5.626a3.754 3.754 0 01-3.75-3.75 3.757 3.757 0 012.813-3.631v-1.556a.753.753 0 00-.614-.733 22.526 22.526 0 01-8.334-3.452.757.757 0 00-.958.081l-1.11 1.11c.774 1.347.676 3.083-.341 4.298a3.766 3.766 0 01-2.714 1.344 3.765 3.765 0 01-2.817-1.095l-3.978-3.977a3.725 3.725 0 01-1.098-2.652c0-1.002.39-1.943 1.098-2.652a3.725 3.725 0 012.652-1.098c.68 0 1.334.18 1.905.518l1.1-1.099a.757.757 0 00.08-.958 22.528 22.528 0 01-3.45-8.333.753.753 0 00-.734-.615h-1.554a3.72 3.72 0 01-1.029 1.761 3.727 3.727 0 01-2.74 1.05C12.588 38.487 11 36.815 11 34.752v-5.566a3.72 3.72 0 011.143-2.695 3.725 3.725 0 012.734-1.052c1.659.055 3.06 1.243 3.489 2.81h1.571a.753.753 0 00.733-.614 22.526 22.526 0 013.452-8.334.757.757 0 00-.081-.958l-1.1-1.1a3.727 3.727 0 01-1.905.519 3.726 3.726 0 01-2.652-1.098 3.755 3.755 0 010-5.304l3.977-3.977a3.754 3.754 0 015.304 0 3.726 3.726 0 011.098 2.652c0 .68-.18 1.334-.519 1.905l1.1 1.1a.757.757 0 00.958.08 22.526 22.526 0 018.333-3.45.753.753 0 00.615-.734V7.381a3.757 3.757 0 01-2.813-3.631A3.754 3.754 0 0140.188 0h5.626a3.754 3.754 0 013.75 3.75 3.757 3.757 0 01-2.813 3.631v1.556c0 .356.258.664.614.733a22.525 22.525 0 018.334 3.452c.303.204.706.17.958-.081l1.1-1.1a3.757 3.757 0 01.58-4.557 3.754 3.754 0 015.303 0l3.977 3.977a3.754 3.754 0 010 5.304 3.725 3.725 0 01-2.651 1.098 3.72 3.72 0 01-1.906-.519l-1.1 1.1a.757.757 0 00-.08.958 22.526 22.526 0 013.45 8.333c.07.357.378.615.734.615h1.569c.405-1.5 1.702-2.658 3.28-2.798h.001a3.763 3.763 0 012.869.97A3.76 3.76 0 0175 29.186v5.625a3.76 3.76 0 01-1.218 2.767 3.769 3.769 0 01-2.869.969c-1.58-.14-2.876-1.298-3.281-2.798h-1.57a.753.753 0 00-.732.614 22.526 22.526 0 01-3.452 8.334.758.758 0 00.081.958l1.1 1.1a3.727 3.727 0 011.906-.519c1.001 0 1.943.39 2.651 1.098a3.725 3.725 0 011.099 2.652c0 1.002-.39 1.944-1.099 2.652l-3.977 3.977a3.758 3.758 0 01-2.818 1.095 3.766 3.766 0 01-2.714-1.344c-1.017-1.215-1.115-2.95-.341-4.298l-1.11-1.11a.757.757 0 00-.958-.08 22.527 22.527 0 01-8.333 3.45.753.753 0 00-.615.734v1.556a3.757 3.757 0 012.813 3.631 3.754 3.754 0 01-3.75 3.75zM29.87 48.246c.634 0 1.272.184 1.83.56a20.04 20.04 0 007.412 3.07 3.257 3.257 0 012.638 3.187v2.374c0 .862-.7 1.563-1.563 1.563a1.251 1.251 0 000 2.5h5.626a1.251 1.251 0 000-2.5c-.862 0-1.563-.7-1.563-1.563v-2.374c0-1.55 1.11-2.89 2.638-3.187a20.042 20.042 0 007.413-3.07 3.262 3.262 0 014.123.386l1.72 1.719a1.508 1.508 0 010 2.13c-.477.476-.53 1.232-.12 1.721.23.275.553.436.907.451.357.015.69-.114.94-.364l3.977-3.978a1.24 1.24 0 00.367-.884 1.252 1.252 0 00-2.134-.884l-.04.04a1.508 1.508 0 01-2.13 0l-1.72-1.719a3.262 3.262 0 01-.386-4.123 20.04 20.04 0 003.07-7.413 3.257 3.257 0 013.188-2.638h2.43c.831 0 1.507.676 1.507 1.506 0 .674.498 1.245 1.133 1.301.358.032.7-.083.96-.322.263-.24.407-.568.407-.922v-5.626c0-.354-.144-.682-.406-.922a1.244 1.244 0 00-.961-.322c-.635.056-1.133.627-1.133 1.3 0 .831-.676 1.507-1.506 1.507h-2.431c-1.55 0-2.89-1.11-3.187-2.638a20.043 20.043 0 00-3.07-7.413 3.262 3.262 0 01.386-4.123l1.679-1.68c.61-.609 1.6-.608 2.21 0a1.25 1.25 0 001.768 0 1.252 1.252 0 000-1.767L61.87 9.152a1.251 1.251 0 00-1.768 0 1.251 1.251 0 000 1.767c.61.61.61 1.6 0 2.21l-1.679 1.68a3.262 3.262 0 01-4.123.386 20.038 20.038 0 00-7.413-3.07 3.258 3.258 0 01-2.638-3.188V6.563c0-.862.7-1.563 1.563-1.563a1.251 1.251 0 000-2.5h-5.626a1.251 1.251 0 00.002 2.5c.862 0 1.563.7 1.563 1.563v2.374c0 1.55-1.11 2.89-2.638 3.187a20.04 20.04 0 00-7.413 3.07 3.262 3.262 0 01-4.123-.386l-1.68-1.679a1.553 1.553 0 01-.457-1.105c0-.417.163-.81.458-1.105A1.251 1.251 0 0024.13 9.15l-3.977 3.978a1.252 1.252 0 00.883 2.134c.334 0 .648-.13.884-.366.61-.61 1.6-.61 2.21 0l1.68 1.679a3.262 3.262 0 01.386 4.123 20.039 20.039 0 00-3.07 7.413 3.257 3.257 0 01-3.188 2.638h-2.44A1.499 1.499 0 0116 29.253c0-.703-.541-1.293-1.206-1.315a1.238 1.238 0 00-.913.35 1.24 1.24 0 00-.381.9v5.565c0 .698.54 1.285 1.203 1.309a1.24 1.24 0 00.915-.35 1.24 1.24 0 00.382-.9c0-.861.7-1.562 1.563-1.562h2.374c1.55 0 2.89 1.11 3.187 2.638a20.04 20.04 0 003.07 7.413 3.262 3.262 0 01-.386 4.123l-1.719 1.72a1.507 1.507 0 01-2.13 0l-.04-.04a1.24 1.24 0 00-.884-.367c-.333 0-.647.13-.883.366s-.367.55-.367.884c0 .334.13.648.366.884l3.978 3.977c.251.251.586.381.94.365.354-.015.676-.176.907-.451.41-.489.357-1.245-.119-1.721a1.508 1.508 0 010-2.13l1.72-1.72a3.237 3.237 0 012.293-.945z" fill="url(#paint0_linear_125_83)"/><path d="M38.172 26.735a5.256 5.256 0 01-5.25-5.25 5.256 5.256 0 015.25-5.25 5.256 5.256 0 015.25 5.25 5.256 5.256 0 01-5.25 5.25zm0-8a2.753 2.753 0 00-2.75 2.75 2.753 2.753 0 002.75 2.75 2.753 2.753 0 002.75-2.75 2.753 2.753 0 00-2.75-2.75z" fill="url(#paint1_linear_125_83)"/><path d="M34.625 44.476a4.547 4.547 0 01-4.542-4.542 4.547 4.547 0 014.542-4.542 4.547 4.547 0 014.542 4.542 4.547 4.547 0 01-4.542 4.542zm0-6.584a2.044 2.044 0 00-2.042 2.042c0 1.126.916 2.042 2.042 2.042a2.044 2.044 0 002.042-2.042 2.044 2.044 0 00-2.042-2.042z" fill="url(#paint2_linear_125_83)"/><path d="M51.73 43.232a7.716 7.716 0 01-7.668-6.817 1.25 1.25 0 012.483-.29 5.216 5.216 0 005.184 4.607 5.226 5.226 0 005.22-5.22 5.21 5.21 0 00-4.64-5.188 1.25 1.25 0 11.275-2.485 7.707 7.707 0 016.865 7.673c0 4.257-3.463 7.72-7.72 7.72z" fill="url(#paint3_linear_125_83)"/><path d="M50.125 22.735a1.26 1.26 0 01-.884-.366 1.26 1.26 0 01-.366-.884c0-.33.134-.651.366-.884a1.26 1.26 0 01.884-.366c.329 0 .651.134.884.366.232.233.366.555.366.884 0 .329-.134.651-.366.884a1.259 1.259 0 01-.884.366z" fill="url(#paint4_linear_125_83)"/><path d="M43 48.125c-.329 0-.651-.134-.884-.366a1.259 1.259 0 01-.366-.884c0-.329.134-.651.366-.884a1.26 1.26 0 01.884-.366c.329 0 .651.134.884.366.232.233.366.555.366.884 0 .329-.134.651-.366.884a1.258 1.258 0 01-.884.366z" fill="url(#paint5_linear_125_83)"/><path d="M28.959 33.266a1.254 1.254 0 01-1.25-1.25 1.252 1.252 0 011.25-1.25 1.254 1.254 0 011.25 1.25c0 .33-.134.65-.366.884a1.26 1.26 0 01-.884.366z" fill="url(#paint6_linear_125_83)"/><path d="M47.14 32.202a1.26 1.26 0 01-.884-.366 1.26 1.26 0 01-.366-.884c0-.33.134-.65.366-.885.233-.232.555-.365.884-.365.329 0 .651.133.884.365.232.234.366.555.366.885 0 .33-.134.65-.366.884a1.258 1.258 0 01-.884.366z" fill="url(#paint7_linear_125_83)"/><defs><linearGradient id="paint0_linear_125_83" x1="73.644" y1="32" x2="38.932" y2="32" gradientUnits="userSpaceOnUse"><stop stop-color="#A268F9"/><stop offset="1" stop-color="#B88BFB"/></linearGradient><linearGradient id="paint1_linear_125_83" x1="43.199" y1="21.485" x2="37.504" y2="21.485" gradientUnits="userSpaceOnUse"><stop stop-color="#A268F9"/><stop offset="1" stop-color="#B88BFB"/></linearGradient><linearGradient id="paint2_linear_125_83" x1="38.974" y1="39.934" x2="34.048" y2="39.934" gradientUnits="userSpaceOnUse"><stop stop-color="#A268F9"/><stop offset="1" stop-color="#B88BFB"/></linearGradient><linearGradient id="paint3_linear_125_83" x1="59.123" y1="35.532" x2="50.773" y2="35.532" gradientUnits="userSpaceOnUse"><stop stop-color="#A268F9"/><stop offset="1" stop-color="#B88BFB"/></linearGradient><linearGradient id="paint4_linear_125_83" x1="51.322" y1="21.485" x2="49.966" y2="21.485" gradientUnits="userSpaceOnUse"><stop stop-color="#A268F9"/><stop offset="1" stop-color="#B88BFB"/></linearGradient><linearGradient id="paint5_linear_125_83" x1="44.197" y1="46.875" x2="42.841" y2="46.875" gradientUnits="userSpaceOnUse"><stop stop-color="#A268F9"/><stop offset="1" stop-color="#B88BFB"/></linearGradient><linearGradient id="paint6_linear_125_83" x1="30.156" y1="32.016" x2="28.8" y2="32.016" gradientUnits="userSpaceOnUse"><stop stop-color="#A268F9"/><stop offset="1" stop-color="#B88BFB"/></linearGradient><linearGradient id="paint7_linear_125_83" x1="48.337" y1="30.952" x2="46.981" y2="30.952" gradientUnits="userSpaceOnUse"><stop stop-color="#A268F9"/><stop offset="1" stop-color="#B88BFB"/></linearGradient></defs></svg>