<svg width="84" height="74" fill="none" xmlns="http://www.w3.org/2000/svg"><circle cx="32" cy="42" r="32" fill="#F4E19C" fill-opacity=".5"/><path d="M63.25 39.875c-.69 0-1.25.56-1.25 1.25v8.625A6.257 6.257 0 0155.75 56H42.254c-.69 0-1.25.56-1.25 1.25l-.002 2.484-2.983-2.983A1.25 1.25 0 0036.872 56H28.75a6.257 6.257 0 01-6.25-6.25V30.5a6.257 6.257 0 016.25-6.25h12.625a1.25 1.25 0 000-2.5H28.75c-4.825 0-8.75 3.925-8.75 8.75v19.25c0 4.825 3.925 8.75 8.75 8.75h7.482l5.134 5.134a1.25 1.25 0 002.134-.883l.003-4.251H55.75c4.825 0 8.75-3.925 8.75-8.75v-8.625c0-.69-.56-1.25-1.25-1.25z" fill="url(#paint0_linear_107_1282)"/><path d="M65.832 0h-3.164C52.65 0 44.5 8.15 44.5 18.168c0 10.018 8.15 18.168 18.168 18.168h3.164c1.563 0 3.111-.198 4.611-.59l4.673 4.67a1.25 1.25 0 002.134-.884V32.3a18.342 18.342 0 004.776-5.888A17.971 17.971 0 0084 18.168C84 8.15 75.85 0 65.832 0zm9.416 30.692a1.25 1.25 0 00-.498.998v4.825l-3.059-3.057a1.25 1.25 0 00-1.25-.31 15.674 15.674 0 01-4.61.688h-3.163C54.028 33.837 47 26.809 47 18.169S54.029 2.5 62.668 2.5h3.164c8.64 0 15.668 7.029 15.668 15.668 0 4.967-2.279 9.531-6.252 12.524z" fill="url(#paint1_linear_107_1282)"/><path d="M69.88 13.678a5.304 5.304 0 00-4.908-4.907 5.251 5.251 0 00-3.982 1.41 5.31 5.31 0 00-1.682 3.87 1.25 1.25 0 002.5 0c0-.783.315-1.508.887-2.042a2.794 2.794 0 014.69 1.841 2.78 2.78 0 01-2.171 2.925 2.366 2.366 0 00-1.864 2.319v3.003a1.25 1.25 0 002.5 0v-2.904a5.265 5.265 0 004.03-5.515z" fill="url(#paint2_linear_107_1282)"/><path d="M65.484 26.157a1.26 1.26 0 00-.884-.366 1.26 1.26 0 00-.884.366 1.26 1.26 0 00-.366.884c0 .33.134.653.366.885a1.257 1.257 0 001.768 0c.232-.233.366-.555.366-.885a1.26 1.26 0 00-.366-.884z" fill="url(#paint3_linear_107_1282)"/><path d="M54.375 38.75H28a1.25 1.25 0 000 2.5h26.375a1.25 1.25 0 100-2.5z" fill="url(#paint4_linear_107_1282)"/><path d="M55.259 46.116a1.259 1.259 0 00-.884-.366 1.26 1.26 0 00-.884.366 1.259 1.259 0 00-.366.884c0 .329.134.651.366.884.233.232.555.366.884.366.329 0 .651-.134.884-.366a1.26 1.26 0 00.366-.884 1.26 1.26 0 00-.366-.884z" fill="url(#paint5_linear_107_1282)"/><path d="M49.458 45.75H28a1.25 1.25 0 000 2.5h21.458a1.25 1.25 0 100-2.5z" fill="url(#paint6_linear_107_1282)"/><path d="M46.25 31.75H28a1.25 1.25 0 000 2.5h18.25a1.25 1.25 0 100-2.5z" fill="url(#paint7_linear_107_1282)"/><defs><linearGradient id="paint0_linear_107_1282" x1="63.557" y1="42.875" x2="39.422" y2="42.875" gradientUnits="userSpaceOnUse"><stop stop-color="#A268F9"/><stop offset="1" stop-color="#B88BFB"/></linearGradient><linearGradient id="paint1_linear_107_1282" x1="83.163" y1="20.391" x2="61.739" y2="20.391" gradientUnits="userSpaceOnUse"><stop stop-color="#A268F9"/><stop offset="1" stop-color="#B88BFB"/></linearGradient><linearGradient id="paint2_linear_107_1282" x1="69.668" y1="16.052" x2="63.927" y2="16.052" gradientUnits="userSpaceOnUse"><stop stop-color="#A268F9"/><stop offset="1" stop-color="#B88BFB"/></linearGradient><linearGradient id="paint3_linear_107_1282" x1="65.797" y1="27.041" x2="64.441" y2="27.041" gradientUnits="userSpaceOnUse"><stop stop-color="#A268F9"/><stop offset="1" stop-color="#B88BFB"/></linearGradient><linearGradient id="paint4_linear_107_1282" x1="55.013" y1="40" x2="39.352" y2="40" gradientUnits="userSpaceOnUse"><stop stop-color="#A268F9"/><stop offset="1" stop-color="#B88BFB"/></linearGradient><linearGradient id="paint5_linear_107_1282" x1="55.572" y1="47" x2="54.216" y2="47" gradientUnits="userSpaceOnUse"><stop stop-color="#A268F9"/><stop offset="1" stop-color="#B88BFB"/></linearGradient><linearGradient id="paint6_linear_107_1282" x1="50.201" y1="47" x2="37.206" y2="47" gradientUnits="userSpaceOnUse"><stop stop-color="#A268F9"/><stop offset="1" stop-color="#B88BFB"/></linearGradient><linearGradient id="paint7_linear_107_1282" x1="47.06" y1="33" x2="35.806" y2="33" gradientUnits="userSpaceOnUse"><stop stop-color="#A268F9"/><stop offset="1" stop-color="#B88BFB"/></linearGradient></defs></svg>