<svg width="64" height="64" fill="none" xmlns="http://www.w3.org/2000/svg"><circle cx="21" cy="42" r="32" fill="#F4E19C" fill-opacity=".5"/><path d="M63.139 27.58a1.25 1.25 0 00-.885-.886 25.162 25.162 0 00-12.757-.052 24.894 24.894 0 00-6.72 2.845 23.717 23.717 0 00-1.574-20.813A23.821 23.821 0 0032.628.168a1.249 1.249 0 00-1.252 0 23.822 23.822 0 00-8.575 8.506 23.717 23.717 0 00-1.573 20.814 24.894 24.894 0 00-6.721-2.846 25.161 25.161 0 00-12.757.052 1.25 1.25 0 00-.885.885 25.16 25.16 0 00-.052 12.757 24.996 24.996 0 006.53 11.412 24.996 24.996 0 0011.412 6.53 25.114 25.114 0 0011.997.138v4.335a1.25 1.25 0 102.5 0v-4.335a25.06 25.06 0 005.695.655c4.58 0 9.126-1.247 13.067-3.66a1.25 1.25 0 00-1.304-2.13c-4.588 2.807-10.09 3.86-15.389 2.998l12.936-12.935a1.25 1.25 0 00-1.768-1.767L33.554 54.512c-1.155-7.102 1.16-14.434 6.298-19.572 5.495-5.495 13.5-7.763 21.05-6.008 1.334 5.742.36 11.85-2.71 16.866a1.25 1.25 0 102.132 1.305c3.552-5.805 4.578-12.92 2.815-19.524zM32.002 2.707c6.168 3.859 9.97 10.68 9.97 17.978 0 6.79-3.293 13.168-8.72 17.131v-17.13a1.25 1.25 0 10-2.5 0v17.13c-5.427-3.963-8.72-10.34-8.72-17.13 0-7.298 3.802-14.12 9.97-17.98zM9.11 49.98c-5.495-5.495-7.762-13.5-6.008-21.05 7.55-1.754 15.555.514 21.05 6.009 5.137 5.138 7.453 12.47 6.298 19.572L17.515 41.577a1.25 1.25 0 00-1.768 1.767l12.936 12.935c-7.102 1.155-14.435-1.16-19.573-6.298z" fill="url(#paint0_linear_125_84)"/><path d="M55.777 49.615c-.33 0-.651.134-.884.366a1.259 1.259 0 00-.366.883c0 .33.134.651.366.884.233.232.555.366.884.366a1.253 1.253 0 001.25-1.25 1.253 1.253 0 00-1.25-1.249z" fill="url(#paint1_linear_125_84)"/><defs><linearGradient id="paint0_linear_125_84" x1="62.628" y1="32" x2="27.934" y2="32" gradientUnits="userSpaceOnUse"><stop stop-color="#A268F9"/><stop offset="1" stop-color="#B88BFB"/></linearGradient><linearGradient id="paint1_linear_125_84" x1="56.973" y1="50.864" x2="55.618" y2="50.864" gradientUnits="userSpaceOnUse"><stop stop-color="#A268F9"/><stop offset="1" stop-color="#B88BFB"/></linearGradient></defs></svg>