<svg width="84" height="74" fill="none" xmlns="http://www.w3.org/2000/svg"><circle cx="32" cy="42" r="32" fill="#F4E19C" fill-opacity=".5"/><path d="M71.967 35.105a1.251 1.251 0 10-1.252 1.25h.003c.69 0 1.249-.56 1.249-1.25z" fill="url(#paint0_linear_107_1247)"/><path d="M79.945 51.742v-.002l-.002-.006-1.278-4.289a1.966 1.966 0 00-.956-1.175 1.968 1.968 0 00-1.505-.155l-.828.247-.593-1.989 4.57-1.362c2.107-.628 3.573-2.61 3.566-4.818-.013-4.383-2.064-9.201-6.096-14.32a52.856 52.856 0 00-2.973-3.444c.349-.482.552-1.07.552-1.688v-6.304a2.78 2.78 0 00-.025-.378h5.504a2.987 2.987 0 002.983-2.983V3.24A3.245 3.245 0 0079.623 0H66.68c-.75 0-1.441.256-1.991.686A3.226 3.226 0 0062.698 0H49.754a3.245 3.245 0 00-3.24 3.241V9.56H41.29a3.245 3.245 0 00-3.24 3.241v6.34h-5.222a3.245 3.245 0 00-3.241 3.242V28.7h-5.222a3.245 3.245 0 00-3.241 3.24v5.908a2.915 2.915 0 002.911 2.911h30.529a2.915 2.915 0 002.911-2.911V31.2h1.842c-.207 5.487.757 9.91 2.876 13.171a5.048 5.048 0 004.219 2.283c.468 0 .941-.066 1.404-.204l4.57-1.362.593 1.988-.921.275a1.98 1.98 0 00-1.33 2.46l1.276 4.283 2.023 6.948a4.148 4.148 0 005.151 2.785 4.143 4.143 0 002.787-5.143l-2.021-6.942zM71.9 12.437v6.006a70.758 70.758 0 00-4.585-4.093 3.224 3.224 0 00-2.965-.595 3.224 3.224 0 00-2.157 2.121l-.005.018a38.62 38.62 0 00-.053.168l-.008.024a72.06 72.06 0 00-.873 3.033h-3.779v-7.06h14.048c.208 0 .377.17.377.378zM59.552 28.06l-.001.012-.02.19-.004.032-.018.182-.004.036-.017.18-.001.008H49.013v-7.06h11.625a58.395 58.395 0 00-1.086 6.42zM66.68 2.5h12.943c.409 0 .741.333.741.741v5.835a.484.484 0 01-.483.483H65.939V3.241c0-.408.332-.741.74-.741zm-17.667.741c0-.408.333-.741.741-.741h12.944c.408 0 .741.333.741.741V9.56H49.013V3.241zm-8.463 9.56c0-.41.333-.742.742-.742h13.684v7.06H40.55V12.8zm-8.462 9.58a.74.74 0 01.74-.74h13.685v7.06H32.088v-6.32zm-8.463 15.467v-5.907a.74.74 0 01.74-.74H38.05v7.058H24.036a.412.412 0 01-.411-.41zm31.351 0a.412.412 0 01-.411.411H40.55V31.2h14.426v6.648zm12.127 6.206a2.488 2.488 0 01-2.813-1.045c-1.985-3.055-2.794-7.415-2.406-12.965v-.007a36.958 36.958 0 01.033-.428l.007-.095.006-.063.005-.063.008-.098.003-.031.009-.093.002-.024c.017-.185.034-.37.053-.554l.002-.014.01-.093c0-.013.002-.027.004-.04l.008-.08.006-.053.008-.07.014-.13c.266-2.338.725-4.823 1.371-7.415a.059.059 0 00.002-.01 68.945 68.945 0 011.107-3.939l.037-.115a.725.725 0 01.486-.478l.017-.005h.003l.006-.002.005-.001.007-.002h.003l.009-.003h.004l.007-.002h.004a.222.222 0 01.014-.003l.006-.002.009-.001h.005l.009-.002.007-.001.006-.001h.006a.058.058 0 01.01-.002h.007l.006-.001h.016l.011-.002h.065l.043.003h.002l.01.001h.002a.222.222 0 00.013.002l.008.001h.002a.357.357 0 01.034.007l.01.001.004.001a.056.056 0 00.007.002l.006.002c.002 0 .005 0 .008.002h.004l.009.003.004.001.015.004.006.002.007.003.007.002a.029.029 0 00.007.002l.007.003a.027.027 0 00.006.002l.008.003.005.002.008.003.007.003.013.006.003.001c.003.002.007.003.01.006.002 0 .004 0 .005.002l.01.004.005.003.009.005c.002 0 .003.002.005.003a.076.076 0 01.009.004l.005.003.01.006.004.003.014.008.004.002.01.007.005.003.009.007a.024.024 0 01.005.004l.01.006a.021.021 0 00.005.004l.009.007a.025.025 0 00.004.003l.014.012.06.05c.003 0 .004.002.006.003a68.182 68.182 0 015.301 4.838 52.04 52.04 0 013.758 4.244c3.678 4.67 5.55 8.97 5.56 12.78a2.488 2.488 0 01-1.78 2.416l-4.57 1.362-.727-2.44a1.25 1.25 0 10-2.396.714l.727 2.44-4.569 1.362zm9.315 4.606l.772 2.59-3.145.938-.772-2.59 3.145-.938zm2.047 12.771a1.642 1.642 0 01-2.039-1.096l-1.674-5.75 3.145-.937 1.671 5.742a1.642 1.642 0 01-1.103 2.041z" fill="url(#paint1_linear_107_1247)"/><defs><linearGradient id="paint0_linear_107_1247" x1="71.914" y1="35.105" x2="70.557" y2="35.105" gradientUnits="userSpaceOnUse"><stop stop-color="#A268F9"/><stop offset="1" stop-color="#B88BFB"/></linearGradient><linearGradient id="paint1_linear_107_1247" x1="81.61" y1="32" x2="48.095" y2="32" gradientUnits="userSpaceOnUse"><stop stop-color="#A268F9"/><stop offset="1" stop-color="#B88BFB"/></linearGradient></defs></svg>