<svg width="84" height="74" fill="none" xmlns="http://www.w3.org/2000/svg"><circle cx="32" cy="42" r="32" fill="#F4E19C" fill-opacity=".5"/><path d="M37.156 50.498v4.376a2.848 2.848 0 002.845 2.845h23.998a2.848 2.848 0 002.845-2.845v-4.376a2.846 2.846 0 00-2.845-2.841H40.001a2.846 2.846 0 00-2.845 2.841zm27.188 0v4.376a.35.35 0 01-.345.345H40.001a.345.345 0 01-.345-.345v-4.376c0-.185.158-.341.345-.341h23.998c.187 0 .345.156.345.341z" fill="url(#paint0_linear_105_484)"/><path d="M80.688 35.343h-.628v-5.325a.581.581 0 00-.02-.202 1.242 1.242 0 00-.272-.588l-2.907-3.471a4.055 4.055 0 00-.328-4.748l-1.164-1.386a4.01 4.01 0 00-2.743-1.43 4.02 4.02 0 00-2.96.926h-.001a4.05 4.05 0 00-.498 5.7l1.163 1.39a4.018 4.018 0 003.11 1.445c.522 0 1.03-.1 1.506-.29l2.614 3.121v4.858H67.508c-.1-7.02-1.156-10.508-6.208-12.93l-2.006-2.053c1.478-1.491 2.515-3.328 2.515-5.262V9.811c0-5.41-4.401-9.811-9.81-9.811-5.41 0-9.811 4.401-9.811 9.811v5.287c0 1.935 1.038 3.772 2.516 5.263l-2.007 2.052c-5.052 2.422-6.108 5.91-6.208 12.93H26.437v-4.858l2.614-3.122a4.023 4.023 0 001.875.275 4.008 4.008 0 002.74-1.428l1.165-1.389a4.014 4.014 0 00.928-2.952 4.02 4.02 0 00-1.429-2.75 4.02 4.02 0 00-2.954-.927 4.017 4.017 0 00-2.747 1.428l-1.167 1.392a4.062 4.062 0 00-.325 4.744l-2.909 3.472a1.243 1.243 0 00-.291.782v5.333h-.625A3.316 3.316 0 0020 38.656v2.154a3.316 3.316 0 003.312 3.312h1.53l4.54 17.767c.116.46.47 1.861 2.09 1.861h41.056c1.608 0 1.97-1.396 2.09-1.858l4.539-17.77h1.53A3.316 3.316 0 0084 40.81v-2.154a3.316 3.316 0 00-3.312-3.313zm-6.263-10.548a1.536 1.536 0 01-1.13.353 1.534 1.534 0 01-1.049-.544l-1.164-1.391a1.549 1.549 0 01.19-2.18 1.536 1.536 0 011.132-.35c.413.036.784.229 1.047.544l1.166 1.389a1.55 1.55 0 01-.192 2.18zm-45.046-2.178l1.166-1.39a1.534 1.534 0 011.19-.55 1.532 1.532 0 011.534 1.41 1.53 1.53 0 01-.352 1.127l-1.168 1.391a1.527 1.527 0 01-1.045.543 1.534 1.534 0 01-1.131-.351 1.554 1.554 0 01-.194-2.18zM51.999 2.5c4.03 0 7.31 3.28 7.31 7.311v.938c-2.502-.213-4.564-1.005-6.413-1.716-1.66-.638-3.278-1.26-4.877-1.26-1.095 0-2.182.292-3.268 1.07.476-3.576 3.544-6.343 7.247-6.343zm-7.311 12.598v-2.645c2.226-3.04 3.86-2.412 7.31-1.086 1.966.755 4.355 1.672 7.31 1.889v1.842c0 3.071-4.753 6.32-7.31 6.32-2.556 0-7.31-3.249-7.31-6.32zm14.077 8.299l-3.434 3.167-1.459-2.934c1.14-.323 2.358-.902 3.489-1.67l1.404 1.437zm-8.641.233l-1.459 2.934-3.434-3.167 1.406-1.437c1.131.768 2.348 1.348 3.487 1.67zm-6.902 1.314l4.974 4.588a1.25 1.25 0 001.967-.363l1.835-3.693 1.836 3.693a1.25 1.25 0 001.967.363l4.974-4.588c3.225 1.714 4.137 3.978 4.233 10.4h-26.02c.097-6.422 1.009-8.686 4.234-10.4zM81.5 40.81a.813.813 0 01-.812.812h-23.08a1.25 1.25 0 000 2.5h18.969L72.2 61.25H31.8l-4.376-17.128H46.38a1.25 1.25 0 000-2.5H23.312a.823.823 0 01-.812-.812v-2.154c0-.44.372-.813.812-.813h57.376c.44 0 .812.372.812.813v2.154z" fill="url(#paint1_linear_105_484)"/><path d="M51.995 44.122h.003c.69 0 1.248-.56 1.248-1.25a1.252 1.252 0 00-2.502 0c0 .69.56 1.25 1.25 1.25z" fill="url(#paint2_linear_105_484)"/><defs><linearGradient id="paint0_linear_105_484" x1="66.215" y1="52.688" x2="50.113" y2="52.688" gradientUnits="userSpaceOnUse"><stop stop-color="#A268F9"/><stop offset="1" stop-color="#B88BFB"/></linearGradient><linearGradient id="paint1_linear_105_484" x1="82.644" y1="31.875" x2="47.932" y2="31.875" gradientUnits="userSpaceOnUse"><stop stop-color="#A268F9"/><stop offset="1" stop-color="#B88BFB"/></linearGradient><linearGradient id="paint2_linear_105_484" x1="53.193" y1="42.872" x2="51.836" y2="42.872" gradientUnits="userSpaceOnUse"><stop stop-color="#A268F9"/><stop offset="1" stop-color="#B88BFB"/></linearGradient></defs></svg>