<svg width="84" height="74" fill="none" xmlns="http://www.w3.org/2000/svg"><circle cx="32" cy="42" r="32" fill="#F4E19C" fill-opacity=".5"/><path d="M64.5 53.625a1.25 1.25 0 100 2.5 1.25 1.25 0 000-2.5z" fill="url(#paint0_linear_105_463)"/><path d="M39.5 53.625a1.25 1.25 0 100 2.5 1.25 1.25 0 000-2.5z" fill="url(#paint1_linear_105_463)"/><path d="M75.956 47.151a14.125 14.125 0 00-5.606-5.026 1.244 1.244 0 00-.71-.327 13.076 13.076 0 00-5.14-1.048h-3.75v-3.298a14.339 14.339 0 004.487-7.077h.513c2.757 0 5-2.243 5-5a4.98 4.98 0 00-1.328-3.389 3.725 3.725 0 001.328-2.861 3.756 3.756 0 00-2.543-3.55c-.441-5.747-4.476-10.66-10.03-12.199C57.847 1.657 56.429 0 54.5 0h-5c-1.93 0-3.348 1.657-3.677 3.376-5.554 1.54-9.588 6.45-10.03 12.198a3.736 3.736 0 00-1.444.9 3.725 3.725 0 00-1.099 2.651c0 1.145.517 2.172 1.329 2.86a4.98 4.98 0 00-1.329 3.39c0 2.757 2.243 5 5 5h.51a14.368 14.368 0 004.49 7.076v3.299H39.5c-1.775 0-3.502.353-5.14 1.048-.273.03-.519.15-.71.327a14.126 14.126 0 00-5.606 5.026 14.213 14.213 0 00-2.294 7.724v7.875c0 .69.56 1.25 1.25 1.25h50c.69 0 1.25-.56 1.25-1.25v-7.875c0-2.73-.793-5.4-2.294-7.724zM33.25 61.5h-5v-6.625c0-3.802 1.948-7.446 5-9.61V61.5zm32.5-33.625h-.057a14 14 0 00.057-1.25v-3.75c1.379 0 2.5 1.122 2.5 2.5s-1.121 2.5-2.5 2.5zm-20-21.858v5.608a1.25 1.25 0 102.5 0v-7.5c0-.775.654-1.625 1.25-1.625h5c.596 0 1.25.85 1.25 1.625v7.5a1.25 1.25 0 102.5 0V6.017a11.3 11.3 0 017.43 9.358H38.32a11.3 11.3 0 017.43-9.358zm-7.5 21.858a2.503 2.503 0 01-2.5-2.5c0-1.378 1.121-2.5 2.5-2.5v3.75c0 .417.02.834.057 1.25h-.057zm0-7.5H37a1.251 1.251 0 01-.884-2.134c.237-.236.55-.366.884-.366h30a1.251 1.251 0 01.884 2.134c-.237.236-.55.366-.884.366H38.25zm2.727 8.523l-.008-.04a11.531 11.531 0 01-.219-2.233v-3.75h22.5v3.75c0 .747-.074 1.498-.22 2.232l-.007.04a11.84 11.84 0 01-4.356 7.03c-1.956 1.52-4.261 2.323-6.667 2.323-2.406 0-4.711-.803-6.669-2.324a11.854 11.854 0 01-4.354-7.029zM50.75 61.5h-10v-2.875a1.25 1.25 0 10-2.5 0V61.5h-2.5V43.934c.811-.306 1.647-.51 2.5-.61v7.801a1.25 1.25 0 102.5 0V43.25h3.214l6.786 7.125V61.5zm-5-20v-2.328A13.135 13.135 0 0052 40.75c2.197 0 4.321-.541 6.25-1.578V41.5L52 48.063 45.75 41.5zm22.5 20h-2.5v-2.875a1.25 1.25 0 10-2.5 0V61.5h-10V50.375l6.786-7.125h3.214v7.875a1.25 1.25 0 102.5 0v-7.801c.853.1 1.689.305 2.5.61V61.5zm7.5 0h-5V45.265c3.052 2.163 5 5.808 5 9.61V61.5z" fill="url(#paint2_linear_105_463)"/><defs><linearGradient id="paint0_linear_105_463" x1="65.697" y1="54.875" x2="64.341" y2="54.875" gradientUnits="userSpaceOnUse"><stop stop-color="#A268F9"/><stop offset="1" stop-color="#B88BFB"/></linearGradient><linearGradient id="paint1_linear_105_463" x1="40.697" y1="54.875" x2="39.341" y2="54.875" gradientUnits="userSpaceOnUse"><stop stop-color="#A268F9"/><stop offset="1" stop-color="#B88BFB"/></linearGradient><linearGradient id="paint2_linear_105_463" x1="77.138" y1="32" x2="48.663" y2="32" gradientUnits="userSpaceOnUse"><stop stop-color="#A268F9"/><stop offset="1" stop-color="#B88BFB"/></linearGradient></defs></svg>