<svg width="84" height="74" fill="none" xmlns="http://www.w3.org/2000/svg"><circle cx="32" cy="42" r="32" fill="#F4E19C" fill-opacity=".5"/><g clip-path="url(#clip0_107_646)"><path d="M67.206 29.409v3.437a1.24 1.24 0 102.48 0V29.41a1.24 1.24 0 00-2.48 0z" fill="url(#paint0_linear_107_646)"/><path d="M72.636 27.318a1.24 1.24 0 000 1.754l2.43 2.43a1.24 1.24 0 101.754-1.753l-2.43-2.43a1.241 1.241 0 00-1.754 0z" fill="url(#paint1_linear_107_646)"/><path d="M62.653 27.318l-2.43 2.431a1.24 1.24 0 101.754 1.754l2.43-2.43a1.24 1.24 0 10-1.754-1.755z" fill="url(#paint2_linear_107_646)"/><path d="M78.01 61.518h-3.224a6.88 6.88 0 00-1.277-3.563c-.87-1.19-2.49-2.523-5.347-2.462a6.188 6.188 0 00-5.187-2.83 6.17 6.17 0 00-3.535 1.112v-9.642a1.24 1.24 0 00-1.24-1.24h-2.203l.034-26.386-.013-2.904c.3-2.706 1.771-4.366 3.945-4.444 1.403-.05 3.015.664 3.71 2.087-3.01 1.514-5.046 4.362-5.046 7.62 0 .686.556 1.24 1.241 1.24h2.767a6.13 6.13 0 005.994 4.88 6.12 6.12 0 005.996-4.88h2.769a1.24 1.24 0 001.24-1.24c0-.548-.058-1.096-.172-1.625-.552-2.6-2.395-4.821-5.056-6.094a10.67 10.67 0 00-1.374-.539c-.457-3.117-2.004-5.857-4.416-7.785C65.23.916 62.084-.11 58.985.01c-3.151.122-6.028 1.394-8.1 3.58-2.34 2.47-3.582 6.014-3.59 10.252l.017 9.975a1.24 1.24 0 001.24 1.238h.003a1.24 1.24 0 001.238-1.242l-.018-9.97c.017-8.116 5.023-11.189 9.306-11.354 4.34-.17 9.153 2.447 10.34 7.626h-.015a11.296 11.296 0 00-3.395.28l-.005-.002C65 8.114 62.57 6.582 59.874 6.682c-2.61.093-5.833 1.912-6.332 6.731a1.336 1.336 0 00-.006.133l.014 2.966-.034 26.381H49.81l-.016-8.733a1.24 1.24 0 00-1.24-1.238h-.002a1.24 1.24 0 00-1.238 1.242l-.002 8.729h-1.774a1.24 1.24 0 00-1.24 1.24v9.735a6.163 6.163 0 00-3.664-1.205 6.19 6.19 0 00-5.189 2.831c-2.527-.047-4.046 1.037-4.892 2.009-1.07 1.229-1.526 2.796-1.643 4.016h-3.044a1.24 1.24 0 000 2.48H78.01a1.24 1.24 0 100-2.48zm-9.381-39.012a3.646 3.646 0 01-3.422-2.4h6.848a3.643 3.643 0 01-3.426 2.4zm0-9.94c1.302 0 2.585.284 3.708.82 1.913.914 3.244 2.453 3.67 4.24H61.255c.689-2.881 3.733-5.06 7.374-5.06zM31.4 61.519c.102-.711.385-1.67 1.047-2.415.796-.895 1.996-1.261 3.568-1.09a1.24 1.24 0 001.263-.716 3.699 3.699 0 013.354-2.154 3.688 3.688 0 013.574 2.764c.141.548.635.93 1.2.93h.006c.712-.005 1.42.35 1.958.971a3.49 3.49 0 01.795 1.71H31.401zm22.938-3.32a5.932 5.932 0 00-1.427 3.32h-2.244a5.925 5.925 0 00-1.422-3.334 5.308 5.308 0 00-2.468-1.624V45.373H56.96v11.15c-.984.264-1.9.843-2.622 1.674zm1.073 3.32a3.465 3.465 0 01.8-1.695c.544-.627 1.263-.986 1.975-.986h.014a1.24 1.24 0 001.2-.93 3.689 3.689 0 016.93-.61c.221.486.73.774 1.262.717 1.708-.188 2.993.245 3.82 1.282.584.733.816 1.602.881 2.222H55.411z" fill="url(#paint3_linear_107_646)"/><path d="M48.552 30.455a1.24 1.24 0 001.241-1.24v-.024a1.24 1.24 0 00-2.481 0v.024c0 .685.556 1.24 1.24 1.24z" fill="url(#paint4_linear_107_646)"/></g><defs><linearGradient id="paint0_linear_107_646" x1="69.634" y1="31.128" x2="68.288" y2="31.128" gradientUnits="userSpaceOnUse"><stop stop-color="#A268F9"/><stop offset="1" stop-color="#B88BFB"/></linearGradient><linearGradient id="paint1_linear_107_646" x1="77.08" y1="29.411" x2="74.416" y2="29.411" gradientUnits="userSpaceOnUse"><stop stop-color="#A268F9"/><stop offset="1" stop-color="#B88BFB"/></linearGradient><linearGradient id="paint2_linear_107_646" x1="64.667" y1="29.411" x2="62.003" y2="29.411" gradientUnits="userSpaceOnUse"><stop stop-color="#A268F9"/><stop offset="1" stop-color="#B88BFB"/></linearGradient><linearGradient id="paint3_linear_107_646" x1="78.093" y1="32" x2="48.466" y2="32" gradientUnits="userSpaceOnUse"><stop stop-color="#A268F9"/><stop offset="1" stop-color="#B88BFB"/></linearGradient><linearGradient id="paint4_linear_107_646" x1="49.74" y1="29.203" x2="48.395" y2="29.203" gradientUnits="userSpaceOnUse"><stop stop-color="#A268F9"/><stop offset="1" stop-color="#B88BFB"/></linearGradient><clipPath id="clip0_107_646"><path fill="#fff" transform="translate(20)" d="M0 0h64v64H0z"/></clipPath></defs></svg>