<svg width="84" height="74" fill="none" xmlns="http://www.w3.org/2000/svg"><circle cx="32" cy="42" r="32" fill="#F4E19C" fill-opacity=".5"/><g clip-path="url(#clip0_107_1226)"><path d="M47.151 2.929a1.262 1.262 0 00-.885-.367 1.26 1.26 0 00-.883.367 1.26 1.26 0 00-.367.883 1.256 1.256 0 001.25 1.25c.33 0 .652-.133.885-.366a1.255 1.255 0 000-1.767z" fill="url(#paint0_linear_107_1226)"/><path d="M64.12 23.353l-1.036-5.251a10.901 10.901 0 00-3.009-5.631l-1.77-1.766V3.812a1.25 1.25 0 10-2.5 0v7.412c0 .332.132.65.367.885l2.138 2.132a8.413 8.413 0 012.322 4.344l1.035 5.252a.766.766 0 01-.12.585.773.773 0 01-1.386-.252l-.535-2.183a1.524 1.524 0 00-1.682-1.163 1.524 1.524 0 00-1.356 1.53v10.168a.729.729 0 01-1.449.095v-5.309c0-.69-.56-1.25-1.25-1.25h-.007c-.69 0-1.25.56-1.25 1.25v5.214c0 .068.003.135.007.202v1.666a.729.729 0 01-1.455 0v-1.666a3.29 3.29 0 00.007-.202v-5.214c0-.69-.56-1.25-1.25-1.25h-.007c-.69 0-1.25.56-1.25 1.25v5.309a.728.728 0 01-1.449-.095v-1.865a3.29 3.29 0 00.007-.202v-3.147c0-.69-.56-1.25-1.25-1.25h-.007c-.69 0-1.25.56-1.25 1.25v3.242a.728.728 0 01-1.449-.095V19.464c0-2.259.881-4.382 2.481-5.977l1.382-1.378a1.25 1.25 0 00.368-.885V8.27a1.25 1.25 0 10-2.5 0v2.435l-1.015 1.012a10.868 10.868 0 00-3.216 7.747v10.992a3.231 3.231 0 004.12 3.1 3.233 3.233 0 004.016 2.048 3.232 3.232 0 002.99 2.013c1.35 0 2.508-.833 2.99-2.013a3.231 3.231 0 004.187-3.082v-5.823a3.265 3.265 0 004.52-.864 3.247 3.247 0 00.511-2.482z" fill="url(#paint1_linear_107_1226)"/><path d="M51.134 48.65a3.243 3.243 0 00-.554-.711 3.233 3.233 0 00-.234-4.5 3.22 3.22 0 00.57-1.147 3.207 3.207 0 00-.323-2.45 3.232 3.232 0 00-3.238-1.582 3.235 3.235 0 00-2.314-2.407 3.206 3.206 0 00-2.45.323l-5.042 2.911a3.263 3.263 0 00-3.009-3.484 3.25 3.25 0 00-2.405.799l-4.03 3.523a10.904 10.904 0 00-3.372 5.42l-.644 2.417-3.464 2a1.25 1.25 0 101.25 2.165l3.914-2.26a1.25 1.25 0 00.583-.76l.777-2.918a8.413 8.413 0 012.601-4.182l4.03-3.523a.764.764 0 01.568-.188.773.773 0 01.474 1.326l-1.623 1.555a1.524 1.524 0 00-.166 2.038 1.524 1.524 0 002.003.41l8.806-5.084a.723.723 0 01.552-.073c.188.05.345.17.442.34a.724.724 0 01-.208.952l-4.577 2.642a1.25 1.25 0 00-.456 1.71l.002.004a1.25 1.25 0 001.707.457l4.516-2.607c.059-.034.115-.07.172-.107l1.442-.833a.729.729 0 01.728 1.261l-1.443.833c-.06.03-.12.061-.178.095l-4.516 2.607a1.25 1.25 0 00-.29 1.933 1.25 1.25 0 001.544.238l4.597-2.655a.728.728 0 01.642 1.302l-1.614.932c-.06.03-.12.062-.179.096L44 49.04a1.25 1.25 0 00-.457 1.708c.222.383.643.631 1.087.631.212 0 .427-.054.624-.168l2.808-1.62a.723.723 0 01.908.308c.2.347.081.793-.266.993l-4.006 2.313-5.513 3.183a8.385 8.385 0 01-6.417.84l-1.884-.508a1.25 1.25 0 00-.95.125l-3.914 2.26a1.25 1.25 0 101.25 2.164l3.464-2 1.384.373a10.87 10.87 0 008.317-1.089l3.157-1.823 2.356-1.36.213-.123 3.793-2.19a3.231 3.231 0 001.181-4.409z" fill="url(#paint2_linear_107_1226)"/><path d="M83.375 49.762l-3.464-2-.37-1.385a10.868 10.868 0 00-5.101-6.658l-5.512-3.183-4.007-2.313a3.207 3.207 0 00-2.449-.322 3.207 3.207 0 00-1.96 1.504 3.215 3.215 0 00-.336.834 3.211 3.211 0 00-1.468.048 3.238 3.238 0 00-2.314 2.407 3.233 3.233 0 00-3.237 1.582 3.232 3.232 0 00.248 3.596 3.231 3.231 0 00.577 5.167l5.042 2.911a3.264 3.264 0 00-1.513 4.348 3.247 3.247 0 001.894 1.683l5.066 1.73c2.066.705 4.273.777 6.381.21l2.415-.651 3.464 2a1.25 1.25 0 101.25-2.165l-3.914-2.26a1.249 1.249 0 00-.95-.124l-2.916.785a8.412 8.412 0 01-4.922-.162l-5.066-1.729a.766.766 0 01-.447-.397.773.773 0 01.911-1.074l2.158.629a1.524 1.524 0 001.849-.875 1.524 1.524 0 00-.647-1.94l-8.806-5.084a.729.729 0 01.176-1.333.72.72 0 01.466.03l4.598 2.655a1.244 1.244 0 001.543-.237 1.25 1.25 0 00-.29-1.934l-4.515-2.607a3.358 3.358 0 00-.18-.095l-1.44-.833a.729.729 0 01.727-1.26l1.442.832c.056.038.113.074.172.108l4.515 2.607a1.243 1.243 0 001.543-.238 1.25 1.25 0 00-.29-1.934l-4.576-2.642a.72.72 0 01-.208-.953.723.723 0 01.442-.339.723.723 0 01.552.073l1.615.932c.055.037.112.073.171.107l2.726 1.574a1.243 1.243 0 001.542-.237 1.25 1.25 0 00-.29-1.934l-2.807-1.621a.728.728 0 01.807-1.207l3.792 2.19.214.123 2.355 1.36 3.157 1.822a8.385 8.385 0 013.936 5.138l.503 1.885c.085.321.295.595.583.761l3.913 2.26a1.25 1.25 0 101.25-2.165z" fill="url(#paint3_linear_107_1226)"/></g><defs><linearGradient id="paint0_linear_107_1226" x1="47.463" y1="3.812" x2="46.108" y2="3.812" gradientUnits="userSpaceOnUse"><stop stop-color="#A268F9"/><stop offset="1" stop-color="#B88BFB"/></linearGradient><linearGradient id="paint1_linear_107_1226" x1="63.687" y1="20.09" x2="50.998" y2="20.09" gradientUnits="userSpaceOnUse"><stop stop-color="#A268F9"/><stop offset="1" stop-color="#B88BFB"/></linearGradient><linearGradient id="paint2_linear_107_1226" x1="50.897" y1="48.516" x2="33.777" y2="48.516" gradientUnits="userSpaceOnUse"><stop stop-color="#A268F9"/><stop offset="1" stop-color="#B88BFB"/></linearGradient><linearGradient id="paint3_linear_107_1226" x1="83.33" y1="47.613" x2="66.174" y2="47.613" gradientUnits="userSpaceOnUse"><stop stop-color="#A268F9"/><stop offset="1" stop-color="#B88BFB"/></linearGradient><clipPath id="clip0_107_1226"><path fill="#fff" transform="translate(20)" d="M0 0h64v64H0z"/></clipPath></defs></svg>