<svg width="84" height="74" fill="none" xmlns="http://www.w3.org/2000/svg"><circle cx="32" cy="42" r="32" fill="#F4E19C" fill-opacity=".5"/><g clip-path="url(#clip0_105_405)"><path d="M32.401 18.727a1.244 1.244 0 001.766 0l4.317-4.318a1.249 1.249 0 00-1.766-1.765l-3.434 3.434-2.04-2.04a1.249 1.249 0 00-1.766 1.766l2.923 2.923z" fill="url(#paint0_linear_105_405)"/><path d="M83.995 30.644a1.248 1.248 0 00-.442-.847l-10.424-8.73a1.249 1.249 0 00-1.603 1.914l9.467 7.929-3.268 3.902-24.882-20.839a1.248 1.248 0 00-1.603 0l-3.83 3.208c.343-1.458.52-2.962.52-4.491v-2.582l4.112-3.445 10.871 9.105a1.246 1.246 0 001.759-.155 1.248 1.248 0 00-.156-1.759L52.843 4.078a1.249 1.249 0 00-1.603 0l-3.31 2.773v-1.78c0-.552-.364-1.039-.893-1.196L34.32.093a1.247 1.247 0 00-.711 0L20.892 3.875A1.248 1.248 0 0020 5.072v7.618c0 4.166 1.3 8.146 3.759 11.508.44.602.911 1.173 1.409 1.715l-4.638 3.884a1.248 1.248 0 00-.156 1.759l4.871 5.816a1.248 1.248 0 001.58.28V62.71c0 .69.558 1.248 1.248 1.248H76.01c.69 0 1.249-.558 1.249-1.248V37.653a1.246 1.246 0 001.58-.28l4.87-5.817a1.25 1.25 0 00.286-.912zM22.497 12.69V6.003l11.468-3.41 11.467 3.41v6.687a16.94 16.94 0 01-11.468 16.076A16.941 16.941 0 0122.498 12.69zm3.861 22.122L23.09 30.91l3.895-3.262a19.3 19.3 0 004.54 2.836l-5.167 4.328zm39.416 26.65H38.309v-3.466c0-3.196 2.6-5.796 5.796-5.796h3.705a4.369 4.369 0 004.232 3.308 4.367 4.367 0 004.231-3.308h3.705c3.196 0 5.796 2.6 5.796 5.796v3.466zM54.37 40.365c.944 0 1.84-.205 2.648-.57v1.795c0 3.228-2.093 5.572-4.977 5.572a4.983 4.983 0 01-4.978-4.978v-1.819h7.307zm-7.307-2.497v-2.323a3.958 3.958 0 013.954-3.954h7.307v2.324a3.958 3.958 0 01-3.954 3.953h-7.307zm6.842 11.557v1.722a1.867 1.867 0 01-1.864 1.864 1.867 1.867 0 01-1.865-1.864v-1.724a7.46 7.46 0 001.865.236c.648 0 1.272-.082 1.864-.234zm20.856 12.037H68.27v-3.466c0-4.573-3.72-8.292-8.292-8.292h-3.575v-1.48c1.909-1.431 3.113-3.82 3.113-6.634v-3.791a6.415 6.415 0 001.306-3.884v-3.572c0-.69-.56-1.249-1.249-1.249h-8.555a6.458 6.458 0 00-6.45 6.45v6.64a7.468 7.468 0 003.112 6.065v1.455h-3.575c-4.572 0-8.292 3.72-8.292 8.292v3.466H29.32V35.587l5.245-4.393A19.368 19.368 0 0044.17 24.2a19.74 19.74 0 001.413-2.231l6.459-5.41 22.72 19.029v25.875z" fill="url(#paint1_linear_105_405)"/><path d="M68.02 19.666a1.252 1.252 0 001.248-1.248 1.252 1.252 0 00-1.248-1.249 1.252 1.252 0 00-1.248 1.249 1.253 1.253 0 001.248 1.248z" fill="url(#paint2_linear_105_405)"/></g><defs><linearGradient id="paint0_linear_105_405" x1="38.643" y1="15.685" x2="33.362" y2="15.685" gradientUnits="userSpaceOnUse"><stop stop-color="#A268F9"/><stop offset="1" stop-color="#B88BFB"/></linearGradient><linearGradient id="paint1_linear_105_405" x1="82.644" y1="32" x2="47.932" y2="32" gradientUnits="userSpaceOnUse"><stop stop-color="#A268F9"/><stop offset="1" stop-color="#B88BFB"/></linearGradient><linearGradient id="paint2_linear_105_405" x1="69.216" y1="18.418" x2="67.862" y2="18.418" gradientUnits="userSpaceOnUse"><stop stop-color="#A268F9"/><stop offset="1" stop-color="#B88BFB"/></linearGradient><clipPath id="clip0_105_405"><path fill="#fff" transform="translate(20)" d="M0 0h64v64H0z"/></clipPath></defs></svg>