<svg width="84" height="74" fill="none" xmlns="http://www.w3.org/2000/svg"><circle cx="32" cy="42" r="32" fill="#F4E19C" fill-opacity=".5"/><path d="M68.491 64a1.25 1.25 0 100-2.5 1.25 1.25 0 000 2.5z" fill="url(#paint0_linear_104_376)"/><path d="M83.356 5a8.141 8.141 0 00-1.755-2.601A8.14 8.14 0 0079 .644 8.133 8.133 0 0075.812 0H28.188A8.133 8.133 0 0025 .644a8.14 8.14 0 00-2.601 1.755A8.14 8.14 0 0020.644 5 8.133 8.133 0 0020 8.188v47.624c0 1.105.216 2.178.644 3.188a8.138 8.138 0 001.755 2.601A8.14 8.14 0 0028.187 64h34.68c.688 0 1.25-.561 1.25-1.25s-.562-1.25-1.25-1.25h-34.68a5.656 5.656 0 01-4.02-1.666 5.656 5.656 0 01-1.667-4.022V8.188a5.66 5.66 0 011.666-4.022A5.656 5.656 0 0128.187 2.5h47.626a5.65 5.65 0 014.02 1.666A5.656 5.656 0 0181.5 8.187v47.626a5.656 5.656 0 01-1.666 4.02 5.656 5.656 0 01-4.022 1.667h-1.696a1.251 1.251 0 000 2.5h1.697a8.14 8.14 0 005.789-2.399A8.14 8.14 0 0084 55.813V8.187A8.132 8.132 0 0083.356 5z" fill="url(#paint1_linear_104_376)"/><path d="M52 5.75C37.526 5.75 25.75 17.526 25.75 32S37.526 58.25 52 58.25 78.25 46.474 78.25 32 66.474 5.75 52 5.75zm0 50c-13.096 0-23.75-10.654-23.75-23.75S38.904 8.25 52 8.25 75.75 18.904 75.75 32 65.096 55.75 52 55.75z" fill="url(#paint2_linear_104_376)"/><path d="M38.334 30.914a58.529 58.529 0 01-3.009-1.216.879.879 0 01-.325-.837c.03-.217.186-.746.958-.978 1.61-.486 3.092.688 3.132.72a1.25 1.25 0 001.603-1.918c-.102-.086-2.52-2.08-5.456-1.196-1.47.443-2.508 1.599-2.712 3.017a3.367 3.367 0 001.502 3.333c.055.036.113.068.173.095.064.028 1.571.7 3.27 1.326.51.188 1.678.723 1.516 1.63-.119.662-.913 1.347-2.037 1.347-1.124 0-2.208-.455-2.898-1.216A1.25 1.25 0 0032.2 36.7c1.156 1.275 2.932 2.037 4.75 2.037 2.254 0 4.145-1.434 4.498-3.409.264-1.481-.415-3.42-3.113-4.414z" fill="url(#paint3_linear_104_376)"/><path d="M68.958 30.914a58.545 58.545 0 01-3.009-1.216.879.879 0 01-.325-.837c.03-.217.186-.746.958-.978 1.61-.486 3.092.688 3.132.72a1.25 1.25 0 001.603-1.918c-.102-.086-2.52-2.08-5.456-1.196-1.47.443-2.508 1.599-2.712 3.017a3.367 3.367 0 001.502 3.333c.055.036.113.068.173.095.064.028 1.571.7 3.27 1.326.51.188 1.678.723 1.516 1.63-.119.662-.913 1.347-2.037 1.347-1.124 0-2.208-.455-2.898-1.216a1.25 1.25 0 00-1.852 1.679c1.156 1.275 2.932 2.037 4.75 2.037 2.254 0 4.145-1.434 4.498-3.409.264-1.481-.414-3.42-3.113-4.414z" fill="url(#paint4_linear_104_376)"/><path d="M52.014 25.223A6.784 6.784 0 0045.237 32a6.784 6.784 0 006.777 6.777A6.784 6.784 0 0058.79 32a6.784 6.784 0 00-6.777-6.777zm0 11.054A4.282 4.282 0 0147.737 32a4.282 4.282 0 014.277-4.277A4.282 4.282 0 0156.29 32a4.282 4.282 0 01-4.277 4.277z" fill="url(#paint5_linear_104_376)"/><defs><linearGradient id="paint0_linear_104_376" x1="69.688" y1="62.75" x2="68.332" y2="62.75" gradientUnits="userSpaceOnUse"><stop stop-color="#A268F9"/><stop offset="1" stop-color="#B88BFB"/></linearGradient><linearGradient id="paint1_linear_104_376" x1="82.644" y1="32" x2="47.932" y2="32" gradientUnits="userSpaceOnUse"><stop stop-color="#A268F9"/><stop offset="1" stop-color="#B88BFB"/></linearGradient><linearGradient id="paint2_linear_104_376" x1="77.138" y1="32" x2="48.663" y2="32" gradientUnits="userSpaceOnUse"><stop stop-color="#A268F9"/><stop offset="1" stop-color="#B88BFB"/></linearGradient><linearGradient id="paint3_linear_104_376" x1="41.296" y1="32" x2="36.076" y2="32" gradientUnits="userSpaceOnUse"><stop stop-color="#A268F9"/><stop offset="1" stop-color="#B88BFB"/></linearGradient><linearGradient id="paint4_linear_104_376" x1="71.92" y1="32" x2="66.7" y2="32" gradientUnits="userSpaceOnUse"><stop stop-color="#A268F9"/><stop offset="1" stop-color="#B88BFB"/></linearGradient><linearGradient id="paint5_linear_104_376" x1="58.503" y1="32" x2="51.152" y2="32" gradientUnits="userSpaceOnUse"><stop stop-color="#A268F9"/><stop offset="1" stop-color="#B88BFB"/></linearGradient></defs></svg>