<svg width="84" height="74" fill="none" xmlns="http://www.w3.org/2000/svg"><circle cx="32" cy="42" r="32" fill="#F4E19C" fill-opacity=".5"/><path d="M32 25.875h1.875c.69 0 1.25-.56 1.25-1.25V22.75c0-.69-.56-1.25-1.25-1.25H32c-.69 0-1.25.56-1.25 1.25v1.875c0 .69.56 1.25 1.25 1.25z" fill="url(#paint0_linear_107_753)"/><path d="M32 33.375h1.875c.69 0 1.25-.56 1.25-1.25V30.25c0-.69-.56-1.25-1.25-1.25H32c-.69 0-1.25.56-1.25 1.25v1.875c0 .69.56 1.25 1.25 1.25z" fill="url(#paint1_linear_107_753)"/><path d="M32 40.875h1.875c.69 0 1.25-.56 1.25-1.25V37.75c0-.69-.56-1.25-1.25-1.25H32c-.69 0-1.25.56-1.25 1.25v1.875c0 .69.56 1.25 1.25 1.25z" fill="url(#paint2_linear_107_753)"/><path d="M32 48.374h1.875c.69 0 1.25-.56 1.25-1.25V45.25c0-.69-.56-1.25-1.25-1.25H32c-.69 0-1.25.56-1.25 1.25v1.874c0 .69.56 1.25 1.25 1.25z" fill="url(#paint3_linear_107_753)"/><path d="M38.562 25.875h1.876c.69 0 1.25-.56 1.25-1.25V22.75c0-.69-.56-1.25-1.25-1.25h-1.876c-.69 0-1.25.56-1.25 1.25v1.875c0 .69.56 1.25 1.25 1.25z" fill="url(#paint4_linear_107_753)"/><path d="M38.562 33.375h1.876c.69 0 1.25-.56 1.25-1.25V30.25c0-.69-.56-1.25-1.25-1.25h-1.876c-.69 0-1.25.56-1.25 1.25v1.875c0 .69.56 1.25 1.25 1.25z" fill="url(#paint5_linear_107_753)"/><path d="M38.562 40.875h1.876c.69 0 1.25-.56 1.25-1.25V37.75c0-.69-.56-1.25-1.25-1.25h-1.876c-.69 0-1.25.56-1.25 1.25v1.875c0 .69.56 1.25 1.25 1.25z" fill="url(#paint6_linear_107_753)"/><path d="M38.562 48.374h1.876c.69 0 1.25-.56 1.25-1.25V45.25c0-.69-.56-1.25-1.25-1.25h-1.876c-.69 0-1.25.56-1.25 1.25v1.874c0 .69.56 1.25 1.25 1.25z" fill="url(#paint7_linear_107_753)"/><path d="M45.125 25.875H47c.69 0 1.25-.56 1.25-1.25V22.75c0-.69-.56-1.25-1.25-1.25h-1.875c-.69 0-1.25.56-1.25 1.25v1.875c0 .69.56 1.25 1.25 1.25z" fill="url(#paint8_linear_107_753)"/><path d="M45.125 33.375H47c.69 0 1.25-.56 1.25-1.25V30.25c0-.69-.56-1.25-1.25-1.25h-1.875c-.69 0-1.25.56-1.25 1.25v1.875c0 .69.56 1.25 1.25 1.25z" fill="url(#paint9_linear_107_753)"/><path d="M45.125 40.875H47c.69 0 1.25-.56 1.25-1.25V37.75c0-.69-.56-1.25-1.25-1.25h-1.875c-.69 0-1.25.56-1.25 1.25v1.875c0 .69.56 1.25 1.25 1.25z" fill="url(#paint10_linear_107_753)"/><path d="M45.125 48.374H47c.69 0 1.25-.56 1.25-1.25V45.25c0-.69-.56-1.25-1.25-1.25h-1.875c-.69 0-1.25.56-1.25 1.25v1.874c0 .69.56 1.25 1.25 1.25z" fill="url(#paint11_linear_107_753)"/><path d="M57 25.875h1.875c.69 0 1.25-.56 1.25-1.25V22.75c0-.69-.56-1.25-1.25-1.25H57c-.69 0-1.25.56-1.25 1.25v1.875c0 .69.56 1.25 1.25 1.25z" fill="url(#paint12_linear_107_753)"/><path d="M57 18.375h1.875c.69 0 1.25-.56 1.25-1.25v-1.874c0-.69-.56-1.25-1.25-1.25H57c-.69 0-1.25.56-1.25 1.25v1.874c0 .69.56 1.25 1.25 1.25z" fill="url(#paint13_linear_107_753)"/><path d="M57 10.876h1.875c.69 0 1.25-.56 1.25-1.25V7.75c0-.69-.56-1.25-1.25-1.25H57c-.69 0-1.25.56-1.25 1.25v1.876c0 .69.56 1.25 1.25 1.25z" fill="url(#paint14_linear_107_753)"/><path d="M57 33.375h1.875c.69 0 1.25-.56 1.25-1.25V30.25c0-.69-.56-1.25-1.25-1.25H57c-.69 0-1.25.56-1.25 1.25v1.875c0 .69.56 1.25 1.25 1.25z" fill="url(#paint15_linear_107_753)"/><path d="M57 40.875h1.875c.69 0 1.25-.56 1.25-1.25V37.75c0-.69-.56-1.25-1.25-1.25H57c-.69 0-1.25.56-1.25 1.25v1.875c0 .69.56 1.25 1.25 1.25z" fill="url(#paint16_linear_107_753)"/><path d="M57 48.374h1.875c.69 0 1.25-.56 1.25-1.25V45.25c0-.69-.56-1.25-1.25-1.25H57c-.69 0-1.25.56-1.25 1.25v1.874c0 .69.56 1.25 1.25 1.25z" fill="url(#paint17_linear_107_753)"/><path d="M63.562 25.875h1.875c.69 0 1.25-.56 1.25-1.25V22.75c0-.69-.56-1.25-1.25-1.25h-1.875c-.69 0-1.25.56-1.25 1.25v1.875c0 .69.56 1.25 1.25 1.25z" fill="url(#paint18_linear_107_753)"/><path d="M63.562 18.375h1.875c.69 0 1.25-.56 1.25-1.25v-1.874c0-.69-.56-1.25-1.25-1.25h-1.875c-.69 0-1.25.56-1.25 1.25v1.874c0 .69.56 1.25 1.25 1.25z" fill="url(#paint19_linear_107_753)"/><path d="M63.562 10.876h1.875c.69 0 1.25-.56 1.25-1.25V7.75c0-.69-.56-1.25-1.25-1.25h-1.875c-.69 0-1.25.56-1.25 1.25v1.876c0 .69.56 1.25 1.25 1.25z" fill="url(#paint20_linear_107_753)"/><path d="M63.562 33.375h1.875c.69 0 1.25-.56 1.25-1.25V30.25c0-.69-.56-1.25-1.25-1.25h-1.875c-.69 0-1.25.56-1.25 1.25v1.875c0 .69.56 1.25 1.25 1.25z" fill="url(#paint21_linear_107_753)"/><path d="M63.562 40.875h1.875c.69 0 1.25-.56 1.25-1.25V37.75c0-.69-.56-1.25-1.25-1.25h-1.875c-.69 0-1.25.56-1.25 1.25v1.875c0 .69.56 1.25 1.25 1.25z" fill="url(#paint22_linear_107_753)"/><path d="M63.562 48.374h1.875c.69 0 1.25-.56 1.25-1.25V45.25c0-.69-.56-1.25-1.25-1.25h-1.875c-.69 0-1.25.56-1.25 1.25v1.874c0 .69.56 1.25 1.25 1.25z" fill="url(#paint23_linear_107_753)"/><path d="M70.125 25.875H72c.69 0 1.25-.56 1.25-1.25V22.75c0-.69-.56-1.25-1.25-1.25h-1.875c-.69 0-1.25.56-1.25 1.25v1.875c0 .69.56 1.25 1.25 1.25z" fill="url(#paint24_linear_107_753)"/><path d="M70.125 18.375H72c.69 0 1.25-.56 1.25-1.25v-1.874c0-.69-.56-1.25-1.25-1.25h-1.875c-.69 0-1.25.56-1.25 1.25v1.874c0 .69.56 1.25 1.25 1.25z" fill="url(#paint25_linear_107_753)"/><path d="M70.125 10.876H72c.69 0 1.25-.56 1.25-1.25V7.75c0-.69-.56-1.25-1.25-1.25h-1.875c-.69 0-1.25.56-1.25 1.25v1.876c0 .69.56 1.25 1.25 1.25z" fill="url(#paint26_linear_107_753)"/><path d="M70.125 33.375H72c.69 0 1.25-.56 1.25-1.25V30.25c0-.69-.56-1.25-1.25-1.25h-1.875c-.69 0-1.25.56-1.25 1.25v1.875c0 .69.56 1.25 1.25 1.25z" fill="url(#paint27_linear_107_753)"/><path d="M70.125 40.875H72c.69 0 1.25-.56 1.25-1.25V37.75c0-.69-.56-1.25-1.25-1.25h-1.875c-.69 0-1.25.56-1.25 1.25v1.875c0 .69.56 1.25 1.25 1.25z" fill="url(#paint28_linear_107_753)"/><path d="M70.125 48.374H72c.69 0 1.25-.56 1.25-1.25V45.25c0-.69-.56-1.25-1.25-1.25h-1.875c-.69 0-1.25.56-1.25 1.25v1.874c0 .69.56 1.25 1.25 1.25z" fill="url(#paint29_linear_107_753)"/><path d="M34.47 56.5a1.25 1.25 0 000 2.5h.03a1.25 1.25 0 000-2.5h-.03z" fill="url(#paint30_linear_107_753)"/><path d="M59.47 56.5a1.25 1.25 0 000 2.5h.03a1.25 1.25 0 000-2.5h-.03z" fill="url(#paint31_linear_107_753)"/><path d="M21.28 61.5h-.03a1.25 1.25 0 100 2.5h.03a1.25 1.25 0 000-2.5z" fill="url(#paint32_linear_107_753)"/><path d="M82.75 61.5h-.03a1.25 1.25 0 000 2.5h.03a1.25 1.25 0 000-2.5z" fill="url(#paint33_linear_107_753)"/><path d="M79.129 61.5h-.88V1.25A1.249 1.249 0 0077 0H52c-.69 0-1.25.56-1.25 1.25V16.5H27c-.69 0-1.25.56-1.25 1.25V61.5h-.88a1.25 1.25 0 000 2.5h54.26a1.25 1.25 0 000-2.5zm-33.379 0h-5v-5h5v5zm5 0h-2.5v-6.25c0-.69-.56-1.25-1.25-1.25h-7.5c-.69 0-1.25.56-1.25 1.25v6.25h-10V59h2.63a1.25 1.25 0 000-2.5h-2.63V19h22.5v42.5zm20 0h-5v-5h5v5zm5 0h-2.5v-6.25c0-.69-.56-1.25-1.25-1.25h-7.5c-.69 0-1.25.56-1.25 1.25v6.25h-10V59h2.629a1.25 1.25 0 000-2.5h-2.63v-54h22.5v59z" fill="url(#paint34_linear_107_753)"/><defs><linearGradient id="paint0_linear_107_753" x1="35.032" y1="23.688" x2="32.659" y2="23.688" gradientUnits="userSpaceOnUse"><stop stop-color="#A268F9"/><stop offset="1" stop-color="#B88BFB"/></linearGradient><linearGradient id="paint1_linear_107_753" x1="35.032" y1="31.188" x2="32.659" y2="31.188" gradientUnits="userSpaceOnUse"><stop stop-color="#A268F9"/><stop offset="1" stop-color="#B88BFB"/></linearGradient><linearGradient id="paint2_linear_107_753" x1="35.032" y1="38.687" x2="32.659" y2="38.687" gradientUnits="userSpaceOnUse"><stop stop-color="#A268F9"/><stop offset="1" stop-color="#B88BFB"/></linearGradient><linearGradient id="paint3_linear_107_753" x1="35.032" y1="46.187" x2="32.659" y2="46.187" gradientUnits="userSpaceOnUse"><stop stop-color="#A268F9"/><stop offset="1" stop-color="#B88BFB"/></linearGradient><linearGradient id="paint4_linear_107_753" x1="41.595" y1="23.688" x2="39.222" y2="23.688" gradientUnits="userSpaceOnUse"><stop stop-color="#A268F9"/><stop offset="1" stop-color="#B88BFB"/></linearGradient><linearGradient id="paint5_linear_107_753" x1="41.595" y1="31.188" x2="39.222" y2="31.188" gradientUnits="userSpaceOnUse"><stop stop-color="#A268F9"/><stop offset="1" stop-color="#B88BFB"/></linearGradient><linearGradient id="paint6_linear_107_753" x1="41.595" y1="38.687" x2="39.222" y2="38.687" gradientUnits="userSpaceOnUse"><stop stop-color="#A268F9"/><stop offset="1" stop-color="#B88BFB"/></linearGradient><linearGradient id="paint7_linear_107_753" x1="41.595" y1="46.187" x2="39.222" y2="46.187" gradientUnits="userSpaceOnUse"><stop stop-color="#A268F9"/><stop offset="1" stop-color="#B88BFB"/></linearGradient><linearGradient id="paint8_linear_107_753" x1="48.157" y1="23.688" x2="45.785" y2="23.688" gradientUnits="userSpaceOnUse"><stop stop-color="#A268F9"/><stop offset="1" stop-color="#B88BFB"/></linearGradient><linearGradient id="paint9_linear_107_753" x1="48.157" y1="31.188" x2="45.785" y2="31.188" gradientUnits="userSpaceOnUse"><stop stop-color="#A268F9"/><stop offset="1" stop-color="#B88BFB"/></linearGradient><linearGradient id="paint10_linear_107_753" x1="48.157" y1="38.687" x2="45.785" y2="38.687" gradientUnits="userSpaceOnUse"><stop stop-color="#A268F9"/><stop offset="1" stop-color="#B88BFB"/></linearGradient><linearGradient id="paint11_linear_107_753" x1="48.157" y1="46.187" x2="45.785" y2="46.187" gradientUnits="userSpaceOnUse"><stop stop-color="#A268F9"/><stop offset="1" stop-color="#B88BFB"/></linearGradient><linearGradient id="paint12_linear_107_753" x1="60.032" y1="23.688" x2="57.659" y2="23.688" gradientUnits="userSpaceOnUse"><stop stop-color="#A268F9"/><stop offset="1" stop-color="#B88BFB"/></linearGradient><linearGradient id="paint13_linear_107_753" x1="60.032" y1="16.188" x2="57.659" y2="16.188" gradientUnits="userSpaceOnUse"><stop stop-color="#A268F9"/><stop offset="1" stop-color="#B88BFB"/></linearGradient><linearGradient id="paint14_linear_107_753" x1="60.032" y1="8.688" x2="57.659" y2="8.688" gradientUnits="userSpaceOnUse"><stop stop-color="#A268F9"/><stop offset="1" stop-color="#B88BFB"/></linearGradient><linearGradient id="paint15_linear_107_753" x1="60.032" y1="31.188" x2="57.659" y2="31.188" gradientUnits="userSpaceOnUse"><stop stop-color="#A268F9"/><stop offset="1" stop-color="#B88BFB"/></linearGradient><linearGradient id="paint16_linear_107_753" x1="60.032" y1="38.687" x2="57.659" y2="38.687" gradientUnits="userSpaceOnUse"><stop stop-color="#A268F9"/><stop offset="1" stop-color="#B88BFB"/></linearGradient><linearGradient id="paint17_linear_107_753" x1="60.032" y1="46.187" x2="57.659" y2="46.187" gradientUnits="userSpaceOnUse"><stop stop-color="#A268F9"/><stop offset="1" stop-color="#B88BFB"/></linearGradient><linearGradient id="paint18_linear_107_753" x1="66.595" y1="23.688" x2="64.222" y2="23.688" gradientUnits="userSpaceOnUse"><stop stop-color="#A268F9"/><stop offset="1" stop-color="#B88BFB"/></linearGradient><linearGradient id="paint19_linear_107_753" x1="66.595" y1="16.188" x2="64.222" y2="16.188" gradientUnits="userSpaceOnUse"><stop stop-color="#A268F9"/><stop offset="1" stop-color="#B88BFB"/></linearGradient><linearGradient id="paint20_linear_107_753" x1="66.595" y1="8.688" x2="64.222" y2="8.688" gradientUnits="userSpaceOnUse"><stop stop-color="#A268F9"/><stop offset="1" stop-color="#B88BFB"/></linearGradient><linearGradient id="paint21_linear_107_753" x1="66.595" y1="31.188" x2="64.222" y2="31.188" gradientUnits="userSpaceOnUse"><stop stop-color="#A268F9"/><stop offset="1" stop-color="#B88BFB"/></linearGradient><linearGradient id="paint22_linear_107_753" x1="66.595" y1="38.687" x2="64.222" y2="38.687" gradientUnits="userSpaceOnUse"><stop stop-color="#A268F9"/><stop offset="1" stop-color="#B88BFB"/></linearGradient><linearGradient id="paint23_linear_107_753" x1="66.595" y1="46.187" x2="64.222" y2="46.187" gradientUnits="userSpaceOnUse"><stop stop-color="#A268F9"/><stop offset="1" stop-color="#B88BFB"/></linearGradient><linearGradient id="paint24_linear_107_753" x1="73.157" y1="23.688" x2="70.784" y2="23.688" gradientUnits="userSpaceOnUse"><stop stop-color="#A268F9"/><stop offset="1" stop-color="#B88BFB"/></linearGradient><linearGradient id="paint25_linear_107_753" x1="73.157" y1="16.188" x2="70.784" y2="16.188" gradientUnits="userSpaceOnUse"><stop stop-color="#A268F9"/><stop offset="1" stop-color="#B88BFB"/></linearGradient><linearGradient id="paint26_linear_107_753" x1="73.157" y1="8.688" x2="70.784" y2="8.688" gradientUnits="userSpaceOnUse"><stop stop-color="#A268F9"/><stop offset="1" stop-color="#B88BFB"/></linearGradient><linearGradient id="paint27_linear_107_753" x1="73.157" y1="31.188" x2="70.784" y2="31.188" gradientUnits="userSpaceOnUse"><stop stop-color="#A268F9"/><stop offset="1" stop-color="#B88BFB"/></linearGradient><linearGradient id="paint28_linear_107_753" x1="73.157" y1="38.687" x2="70.784" y2="38.687" gradientUnits="userSpaceOnUse"><stop stop-color="#A268F9"/><stop offset="1" stop-color="#B88BFB"/></linearGradient><linearGradient id="paint29_linear_107_753" x1="73.157" y1="46.187" x2="70.784" y2="46.187" gradientUnits="userSpaceOnUse"><stop stop-color="#A268F9"/><stop offset="1" stop-color="#B88BFB"/></linearGradient><linearGradient id="paint30_linear_107_753" x1="35.696" y1="57.75" x2="34.324" y2="57.75" gradientUnits="userSpaceOnUse"><stop stop-color="#A268F9"/><stop offset="1" stop-color="#B88BFB"/></linearGradient><linearGradient id="paint31_linear_107_753" x1="60.696" y1="57.75" x2="59.324" y2="57.75" gradientUnits="userSpaceOnUse"><stop stop-color="#A268F9"/><stop offset="1" stop-color="#B88BFB"/></linearGradient><linearGradient id="paint32_linear_107_753" x1="22.476" y1="62.75" x2="21.104" y2="62.75" gradientUnits="userSpaceOnUse"><stop stop-color="#A268F9"/><stop offset="1" stop-color="#B88BFB"/></linearGradient><linearGradient id="paint33_linear_107_753" x1="83.946" y1="62.75" x2="82.574" y2="62.75" gradientUnits="userSpaceOnUse"><stop stop-color="#A268F9"/><stop offset="1" stop-color="#B88BFB"/></linearGradient><linearGradient id="paint34_linear_107_753" x1="79.177" y1="32" x2="48.392" y2="32" gradientUnits="userSpaceOnUse"><stop stop-color="#A268F9"/><stop offset="1" stop-color="#B88BFB"/></linearGradient></defs></svg>