<svg width="84" height="74" fill="none" xmlns="http://www.w3.org/2000/svg"><circle cx="32" cy="42" r="32" fill="#F4E19C" fill-opacity=".5"/><g clip-path="url(#clip0_107_637)"><path d="M24.737 51.363a4.69 4.69 0 003.054-1.114c1.482.66 3.09 1.036 4.718 1.102v4.932c-6.8 2.694-10.118 5.365-10.283 5.499A1.25 1.25 0 0023.017 64H56.78a1.25 1.25 0 000-2.5H27.273a51.13 51.13 0 015.245-2.52 1.25 1.25 0 002.491-.142v-.83c9.29-3.397 19.277-4.73 29.134-4.791 6.165-.039 12.33.427 18.434 1.282A1.265 1.265 0 0084 53.261V6.411c0-.69-.56-1.25-1.25-1.25H63.475c-.69 0-1.25.56-1.25 1.25v44.334c-1.07.025-2.13.065-3.181.12V20.922c0-.69-.56-1.25-1.25-1.25h-3.458v-2.65c0-.691-.56-1.25-1.25-1.25h-8.701c-.69 0-1.25.559-1.25 1.25v2.65h-3.457c-.69 0-1.25.56-1.25 1.25v5.93a12.775 12.775 0 00-5.4-1.191c-7.086 0-12.851 5.765-12.851 12.85a12.7 12.7 0 001.005 4.986A4.75 4.75 0 0020 46.626a4.743 4.743 0 004.737 4.737zm12.367 3.292c-.726.229-1.423.462-2.095.697v-4.143a12.816 12.816 0 003.419-1.036v4.08c-.444.13-.886.264-1.324.402zm27.746-3.942h-.125v-4.747H81.5v5.865c-5.519-.717-11.084-1.118-16.65-1.118zM81.5 7.66v35.805H64.725V7.661H81.5zM40.928 22.172h3.457c.69 0 1.25-.56 1.25-1.25v-2.65h6.201v2.65c0 .69.56 1.25 1.25 1.25h3.458v28.853c-5.262.405-10.504 1.214-15.616 2.535v-2.946a6.792 6.792 0 006.649-2.23h5.057a1.25 1.25 0 100-2.5h-3.727a6.71 6.71 0 00-.251-4.394h3.978a1.25 1.25 0 100-2.5h-5.768a6.716 6.716 0 00-.99-.72 12.839 12.839 0 00-.608-3.676h7.366a1.25 1.25 0 000-2.5h-7.967c-.162 0-.316.032-.458.088a12.89 12.89 0 00-3.282-3.807v-6.203zM23.813 43.225a10.234 10.234 0 01-1.136-4.713c0-5.708 4.643-10.351 10.35-10.351 5.816 0 10.594 5.011 10.34 10.81-.021.485.24.935.664 1.16 1.133.6 2.021 1.366 2.428 2.63a4.255 4.255 0 01-.764 3.98c-1.43 1.734-4.056 2.035-5.836.667a1.25 1.25 0 00-1.417-.074 10.302 10.302 0 01-3.433 1.337v-7.443c0-.694.27-1.347.761-1.838l1.117-1.116a1.25 1.25 0 00-1.768-1.768l-1.116 1.116a5.065 5.065 0 00-1.494 3.605v1.186l-1.801-1.802a1.25 1.25 0 10-1.768 1.768l2.576 2.576c.64.64.993 1.492.993 2.398v1.495a10.355 10.355 0 01-4.393-1.223 1.261 1.261 0 00-1.592.346 2.222 2.222 0 01-1.787.892 2.24 2.24 0 01-2.237-2.238c0-.716.348-1.395.932-1.816a1.25 1.25 0 00.381-1.584z" fill="url(#paint0_linear_107_637)"/><path d="M82.75 61.5H67.774a1.25 1.25 0 100 2.5H82.75a1.25 1.25 0 000-2.5z" fill="url(#paint1_linear_107_637)"/><path d="M33.745 0a6.01 6.01 0 00-5.072 2.766 4.668 4.668 0 00-5.214 4.63 4.668 4.668 0 004.663 4.663H43.06a1.25 1.25 0 100-2.5h-4.431a5.995 5.995 0 001.145-3.53A6.036 6.036 0 0033.744 0zm-7.786 7.396a2.165 2.165 0 012.926-2.023 1.25 1.25 0 001.597-.691A3.52 3.52 0 0133.745 2.5a3.533 3.533 0 013.53 3.53 3.534 3.534 0 01-3.53 3.529H28.12a2.165 2.165 0 01-2.162-2.162z" fill="url(#paint2_linear_107_637)"/><path d="M44.667 27.699h7.967a1.25 1.25 0 100-2.5h-7.967a1.25 1.25 0 000 2.5z" fill="url(#paint3_linear_107_637)"/><path d="M68.473 18.848h9.516c.69 0 1.25-.56 1.25-1.25v-4.724c0-.69-.56-1.25-1.25-1.25h-9.516c-.69 0-1.25.56-1.25 1.25v4.724c0 .69.56 1.25 1.25 1.25zm1.25-4.724h7.016v2.224h-7.016v-2.224z" fill="url(#paint4_linear_107_637)"/><path d="M68.473 29.337h9.516c.69 0 1.25-.56 1.25-1.25v-4.725c0-.69-.56-1.25-1.25-1.25h-9.516c-.69 0-1.25.56-1.25 1.25v4.725c0 .69.56 1.25 1.25 1.25zm1.25-4.725h7.016v2.225h-7.016v-2.225z" fill="url(#paint5_linear_107_637)"/><path d="M68.473 39.825h9.516c.69 0 1.25-.56 1.25-1.25V33.85c0-.69-.56-1.25-1.25-1.25h-9.516c-.69 0-1.25.56-1.25 1.25v4.725c0 .69.56 1.25 1.25 1.25zm1.25-4.725h7.016v2.225h-7.016V35.1z" fill="url(#paint6_linear_107_637)"/><path d="M48.491 9.584c-.535.108-.944.56-1 1.102-.055.54.266 1.07.767 1.278a1.26 1.26 0 001.424-.339c.336-.393.396-.963.149-1.417a1.261 1.261 0 00-1.34-.624z" fill="url(#paint7_linear_107_637)"/><path d="M61.234 63.444c.606.924 2.082.601 2.27-.48.2-1.146-1.21-1.919-2.07-1.14a1.263 1.263 0 00-.2 1.62z" fill="url(#paint8_linear_107_637)"/></g><defs><linearGradient id="paint0_linear_107_637" x1="82.644" y1="34.581" x2="47.932" y2="34.581" gradientUnits="userSpaceOnUse"><stop stop-color="#A268F9"/><stop offset="1" stop-color="#B88BFB"/></linearGradient><linearGradient id="paint1_linear_107_637" x1="83.63" y1="62.75" x2="74.151" y2="62.75" gradientUnits="userSpaceOnUse"><stop stop-color="#A268F9"/><stop offset="1" stop-color="#B88BFB"/></linearGradient><linearGradient id="paint2_linear_107_637" x1="43.868" y1="6.029" x2="32.559" y2="6.029" gradientUnits="userSpaceOnUse"><stop stop-color="#A268F9"/><stop offset="1" stop-color="#B88BFB"/></linearGradient><linearGradient id="paint3_linear_107_637" x1="53.662" y1="26.449" x2="47.985" y2="26.449" gradientUnits="userSpaceOnUse"><stop stop-color="#A268F9"/><stop offset="1" stop-color="#B88BFB"/></linearGradient><linearGradient id="paint4_linear_107_637" x1="78.984" y1="15.236" x2="72.467" y2="15.236" gradientUnits="userSpaceOnUse"><stop stop-color="#A268F9"/><stop offset="1" stop-color="#B88BFB"/></linearGradient><linearGradient id="paint5_linear_107_637" x1="78.984" y1="25.724" x2="72.467" y2="25.724" gradientUnits="userSpaceOnUse"><stop stop-color="#A268F9"/><stop offset="1" stop-color="#B88BFB"/></linearGradient><linearGradient id="paint6_linear_107_637" x1="78.984" y1="36.213" x2="72.467" y2="36.213" gradientUnits="userSpaceOnUse"><stop stop-color="#A268F9"/><stop offset="1" stop-color="#B88BFB"/></linearGradient><linearGradient id="paint7_linear_107_637" x1="49.929" y1="10.808" x2="48.575" y2="10.808" gradientUnits="userSpaceOnUse"><stop stop-color="#A268F9"/><stop offset="1" stop-color="#B88BFB"/></linearGradient><linearGradient id="paint8_linear_107_637" x1="63.47" y1="62.747" x2="62.117" y2="62.747" gradientUnits="userSpaceOnUse"><stop stop-color="#A268F9"/><stop offset="1" stop-color="#B88BFB"/></linearGradient><clipPath id="clip0_107_637"><path fill="#fff" transform="translate(20)" d="M0 0h64v64H0z"/></clipPath></defs></svg>