<svg width="84" height="74" fill="none" xmlns="http://www.w3.org/2000/svg"><circle cx="32" cy="42" r="32" fill="#F4E19C" fill-opacity=".5"/><g clip-path="url(#clip0_107_767)"><path d="M83.263 23.557L52.596 8.223a1.334 1.334 0 00-1.192 0L20.737 23.557a1.333 1.333 0 000 2.385l10.152 5.076v10.189c0 6.293 9.273 11.222 21.111 11.222 11.838 0 21.111-4.929 21.111-11.222v-10.19l3.543-1.77v9.724a4.151 4.151 0 00-2.811 3.924 4.15 4.15 0 002.366 3.743l-2.832 7.473a1.333 1.333 0 001.247 1.806h6.729a1.334 1.334 0 001.247-1.806l-2.833-7.473a4.151 4.151 0 002.367-3.743 4.152 4.152 0 00-2.813-3.925V27.913l3.942-1.971a1.333 1.333 0 000-2.385zm-17.874 23.45c-3.554 1.777-8.31 2.756-13.389 2.756-5.08 0-9.835-.979-13.389-2.756-3.212-1.606-5.055-3.72-5.055-5.8v-8.856l17.848 8.924a1.334 1.334 0 001.192 0l17.848-8.924v8.856c0 2.08-1.842 4.194-5.055 5.8zm11.166 6.244l1.433-3.782 1.433 3.782h-2.866zm2.911-10.356a1.48 1.48 0 01-1.478 1.479 1.48 1.48 0 01-1.479-1.48c0-.812.66-1.474 1.472-1.477h.013a1.48 1.48 0 011.472 1.478zm-1.749-17.162L52.12 23.422a1.333 1.333 0 10-.24 2.656L73.18 28 52 38.592 24.315 24.75 52 10.907 79.685 24.75l-1.968.983z" fill="url(#paint0_linear_107_767)"/></g><defs><linearGradient id="paint0_linear_107_767" x1="82.644" y1="32" x2="47.932" y2="32" gradientUnits="userSpaceOnUse"><stop stop-color="#A268F9"/><stop offset="1" stop-color="#B88BFB"/></linearGradient><clipPath id="clip0_107_767"><path fill="#fff" transform="translate(20)" d="M0 0h64v64H0z"/></clipPath></defs></svg>