<svg width="84" height="74" fill="none" xmlns="http://www.w3.org/2000/svg"><circle cx="32" cy="42" r="32" fill="#F4E19C" fill-opacity=".5"/><path d="M84 21.25A6.257 6.257 0 0077.75 15h-8.5V8.75A6.257 6.257 0 0063 2.5H41a6.257 6.257 0 00-6.25 6.25V15h-8.5A6.257 6.257 0 0020 21.25v34a6.257 6.257 0 006.25 6.25h51.5A6.257 6.257 0 0084 55.25v-34zM41 5h22a3.756 3.756 0 013.674 3H37.325C37.674 6.29 39.19 5 41 5zM26.25 17.5h20.14a1.25 1.25 0 000-2.5h-9.14v-4.5h29.5V15h-9.11a1.25 1.25 0 100 2.5h20.11a3.754 3.754 0 013.75 3.75v9.72L52 39.901 22.5 30.97v-9.72a3.754 3.754 0 013.75-3.75zM77.75 59h-51.5a3.754 3.754 0 01-3.75-3.75V33.581l29.138 8.824a1.249 1.249 0 00.724 0L81.5 33.58v21.67A3.754 3.754 0 0177.75 59z" fill="url(#paint0_linear_107_1017)"/><path d="M46 32.25h12c.69 0 1.25-.56 1.25-1.25v-6c0-.69-.56-1.25-1.25-1.25H46c-.69 0-1.25.56-1.25 1.25v6c0 .69.56 1.25 1.25 1.25zm1.25-6h9.5v3.5h-9.5v-3.5z" fill="url(#paint1_linear_107_1017)"/><path d="M52.016 17.5c.329 0 .651-.134.884-.366a1.26 1.26 0 00.366-.884 1.26 1.26 0 00-.366-.884 1.26 1.26 0 00-.884-.366c-.328 0-.651.134-.885.366a1.258 1.258 0 00-.365.884c0 .329.133.651.365.884.234.232.556.366.885.366z" fill="url(#paint2_linear_107_1017)"/><defs><linearGradient id="paint0_linear_107_1017" x1="82.644" y1="32" x2="47.932" y2="32" gradientUnits="userSpaceOnUse"><stop stop-color="#A268F9"/><stop offset="1" stop-color="#B88BFB"/></linearGradient><linearGradient id="paint1_linear_107_1017" x1="58.943" y1="28" x2="51.078" y2="28" gradientUnits="userSpaceOnUse"><stop stop-color="#A268F9"/><stop offset="1" stop-color="#B88BFB"/></linearGradient><linearGradient id="paint2_linear_107_1017" x1="53.213" y1="16.25" x2="51.857" y2="16.25" gradientUnits="userSpaceOnUse"><stop stop-color="#A268F9"/><stop offset="1" stop-color="#B88BFB"/></linearGradient></defs></svg>