<svg width="84" height="74" fill="none" xmlns="http://www.w3.org/2000/svg"><circle cx="32" cy="42" r="32" fill="#F4E19C" fill-opacity=".5"/><g clip-path="url(#clip0_107_777)"><path d="M52 17.25c.329 0 .651-.134.884-.366A1.26 1.26 0 0053.25 16a1.26 1.26 0 00-.366-.884A1.26 1.26 0 0052 14.75a1.26 1.26 0 00-.884.366 1.26 1.26 0 00-.366.884c0 .329.134.651.366.884.233.232.555.366.884.366z" fill="url(#paint0_linear_107_777)"/><path d="M82.75 56.5h-1.5v-3.75c0-.69-.56-1.25-1.25-1.25h-.75v-1.979a3.276 3.276 0 00-2-3.014v-4.215a1.25 1.25 0 10-2.5 0v3.958h-2.5V28.5h2.5v4.044a1.25 1.25 0 102.5 0v-4.3a3.276 3.276 0 002-3.015V23.25H80c.69 0 1.25-.56 1.25-1.25v-4.75h.125a1.25 1.25 0 00.561-2.367L52.561.133a1.25 1.25 0 00-1.122 0l-29.375 14.75a1.25 1.25 0 00.561 2.367h.125V22c0 .69.56 1.25 1.25 1.25h.75v1.979c0 1.353.826 2.517 2 3.014v18.264c-1.174.497-2 1.66-2 3.014V51.5H24c-.69 0-1.25.56-1.25 1.25v3.75h-1.5c-.69 0-1.25.56-1.25 1.25v5c0 .69.56 1.25 1.25 1.25h61.5c.69 0 1.25-.56 1.25-1.25v-5c0-.69-.56-1.25-1.25-1.25zm-6.771-7.75c.425 0 .771.346.771.771V51.5h-6.5v-1.979c0-.425.346-.771.771-.771h4.958zM64.916 51.5v-1.979a3.276 3.276 0 00-2-3.014V28.243a3.276 3.276 0 002-3.014V23.25h2.834v1.979c0 1.353.826 2.517 2 3.014v18.264c-1.174.497-2 1.66-2 3.014V51.5h-2.834zm-14.332 0v-1.979a3.277 3.277 0 00-2-3.014V28.243a3.277 3.277 0 002-3.014V23.25h2.833v1.979c0 1.353.826 2.517 2 3.014v18.264c-1.174.497-2 1.66-2 3.014V51.5h-2.834zm-14.334 0v-1.979a3.276 3.276 0 00-2-3.014V28.243a3.276 3.276 0 002-3.014V23.25h2.834v1.979c0 1.353.825 2.517 2 3.014v18.264c-1.175.497-2 1.66-2 3.014V51.5H36.25zm-7-23h2.5v17.75h-2.5V28.5zm14.334 0h2.5v17.75h-2.5V28.5zm4.5-3.271a.772.772 0 01-.772.771h-4.958a.772.772 0 01-.771-.771V23.25h6.5v1.979zm-6.5 24.292c0-.425.345-.771.77-.771h4.959c.424 0 .77.346.77.771V51.5h-6.5v-1.979zM57.916 28.5h2.5v17.75h-2.5V28.5zm4.5-3.271a.772.772 0 01-.77.771h-4.959a.772.772 0 01-.77-.771V23.25h6.5v1.979zm-6.5 24.292c0-.425.346-.771.772-.771h4.958c.425 0 .771.346.771.771V51.5h-6.5v-1.979zM76.75 25.229a.772.772 0 01-.771.771H71.02a.772.772 0 01-.77-.771V23.25h6.5v1.979zM45.791 17.25a1.25 1.25 0 100-2.5H27.9L52 2.649 76.1 14.75H58.625a1.25 1.25 0 100 2.5H78.75v3.5h-53.5v-3.5h20.541zm-12.041 6v1.979a.772.772 0 01-.771.771h-4.958a.772.772 0 01-.771-.771V23.25h6.5zm-6.5 26.271c0-.425.346-.771.771-.771h4.959c.424 0 .77.346.77.771V51.5h-6.5v-1.979zm-2 4.479h53.5v2.5h-53.5V54zm56.25 7.5h-59V59h59v2.5z" fill="url(#paint1_linear_107_777)"/><path d="M76 36.125a1.26 1.26 0 00-.884.366 1.26 1.26 0 00-.366.884c0 .329.134.651.366.884.233.232.555.366.884.366.329 0 .651-.134.884-.366a1.26 1.26 0 00.366-.884 1.26 1.26 0 00-.366-.884 1.26 1.26 0 00-.884-.366z" fill="url(#paint2_linear_107_777)"/></g><defs><linearGradient id="paint0_linear_107_777" x1="53.197" y1="16" x2="51.841" y2="16" gradientUnits="userSpaceOnUse"><stop stop-color="#A268F9"/><stop offset="1" stop-color="#B88BFB"/></linearGradient><linearGradient id="paint1_linear_107_777" x1="82.644" y1="32" x2="47.932" y2="32" gradientUnits="userSpaceOnUse"><stop stop-color="#A268F9"/><stop offset="1" stop-color="#B88BFB"/></linearGradient><linearGradient id="paint2_linear_107_777" x1="77.197" y1="37.375" x2="75.841" y2="37.375" gradientUnits="userSpaceOnUse"><stop stop-color="#A268F9"/><stop offset="1" stop-color="#B88BFB"/></linearGradient><clipPath id="clip0_107_777"><path fill="#fff" transform="translate(20)" d="M0 0h64v64H0z"/></clipPath></defs></svg>