<svg width="466" height="248" fill="none" xmlns="http://www.w3.org/2000/svg"><path d="M297.141-86.337c-35-9.5-71.963-8.391-106.215 3.188a181.66 181.66 0 00-86.216 61.864C82.75 7.473 69.82 42.164 67.554 78.405c-2.266 36.24 6.235 72.402 24.427 103.911 18.192 31.51 45.259 56.953 77.777 73.111a183.971 183.971 0 0020.407 8.649l10.111 93.628 67.044-84.025c2.597-.1 5.061-.29 7.349-.586a181.666 181.666 0 0096.684-43.732c27.154-23.874 46.597-55.33 55.869-90.391l-53.089-14.411c-6.49 24.542-20.1 46.562-39.108 63.273a127.158 127.158 0 01-67.678 30.613c-25.119 3.248-50.675-1.055-73.438-12.366-22.763-11.311-41.709-29.121-54.444-51.177-12.734-22.057-18.685-47.37-17.099-72.739 1.586-25.368 10.637-49.653 26.009-69.782a127.162 127.162 0 0160.351-43.305c23.977-8.106 49.851-8.882 74.351-2.232l14.064-53.181z" fill="#995FEF"/><path d="M271.504-14.245a103.232 103.232 0 00-105.034 42.81 103.239 103.239 0 00-2.339 113.398 103.24 103.24 0 0044.541 38.992 103.24 103.24 0 00112.093-17.321 103.237 103.237 0 0030.695-50.617l-47.959-12.468a53.685 53.685 0 01-43.758 39.547 53.681 53.681 0 112.181-105.723l9.58-48.618z" fill="#995FEF"/></svg>