<svg width="320" height="434" fill="none" xmlns="http://www.w3.org/2000/svg"><g opacity=".8" fill="#995FEF"><path d="M240.755-39.57c-42.383-11.505-87.143-10.161-128.62 3.86A219.98 219.98 0 007.733 39.205c-26.592 34.822-42.25 76.832-44.994 120.717-2.743 43.885 7.55 87.675 29.58 125.831 22.03 38.156 54.806 68.966 94.183 88.532a222.5 222.5 0 0024.712 10.474l12.243 113.378 81.187-101.749c3.145-.121 6.129-.352 8.899-.71a219.983 219.983 0 00117.079-52.957c32.882-28.91 56.425-67.002 67.653-109.458l-64.287-17.451c-7.859 29.72-24.34 56.384-47.357 76.621a153.991 153.991 0 01-81.955 37.07c-30.417 3.933-61.364-1.278-88.929-14.975-27.564-13.697-50.507-35.263-65.928-61.973-15.42-26.709-22.626-57.362-20.706-88.081 1.92-30.72 12.881-60.127 31.496-84.502a153.987 153.987 0 0173.081-52.44c29.034-9.816 60.366-10.756 90.034-2.703l17.031-64.4z"/><path d="M209.711 47.73a125.01 125.01 0 1096.821 154.106l-58.075-15.098a65.007 65.007 0 11-50.347-80.135l11.601-58.874z"/></g></svg>