<svg width="68" height="85" fill="none" xmlns="http://www.w3.org/2000/svg"><path d="M68 11.743A39.754 39.754 0 0047.605.77 39.593 39.593 0 0024.59 3.052 39.89 39.89 0 006.713 17.819 40.281 40.281 0 000 40.094c0 7.93 2.336 15.682 6.713 22.276a40.064 40.064 0 002.91 3.856L1.327 85l21.81-8.553c.502.264.988.496 1.452.69a39.593 39.593 0 0023.015 2.281A39.754 39.754 0 0068 68.445l-8.45-8.505a27.827 27.827 0 01-14.277 7.681 27.716 27.716 0 01-16.11-1.597 27.924 27.924 0 01-12.514-10.337 28.197 28.197 0 01-4.699-15.593 28.197 28.197 0 014.7-15.592 27.924 27.924 0 0112.513-10.337 27.716 27.716 0 0116.11-1.597 27.827 27.827 0 0114.277 7.68L68 11.744z" fill="#fff"/><path d="M55.305 22.557a22.5 22.5 0 101.223 32.734l-7.693-7.58a11.7 11.7 0 11-.636-17.021l7.106-8.133z" fill="#EAC544"/></svg>