<svg xmlns="http://www.w3.org/2000/svg"><symbol viewBox="0 0 68 85" id="header-logo"><path d="M68 11.743A39.754 39.754 0 0047.605.77 39.593 39.593 0 0024.59 3.052 39.89 39.89 0 006.713 17.819 40.281 40.281 0 000 40.094c0 7.93 2.336 15.682 6.713 22.276a40.064 40.064 0 002.91 3.856L1.327 85l21.81-8.553c.502.264.988.496 1.452.69a39.593 39.593 0 0023.015 2.281A39.754 39.754 0 0068 68.445l-8.45-8.505a27.827 27.827 0 01-14.277 7.681 27.716 27.716 0 01-16.11-1.597 27.924 27.924 0 01-12.514-10.337 28.197 28.197 0 01-4.699-15.593 28.197 28.197 0 014.7-15.592 27.924 27.924 0 0112.513-10.337 27.716 27.716 0 0116.11-1.597 27.827 27.827 0 0114.277 7.68L68 11.744z" fill="#fff"/><path d="M55.305 22.557a22.5 22.5 0 101.223 32.734l-7.693-7.58a11.7 11.7 0 11-.636-17.021l7.106-8.133z" fill="#EAC544"/></symbol><symbol viewBox="0 0 18 19" id="header-btn"><path d="M6.675 6.17c.233-2.7 1.62-3.802 4.657-3.802h.098c3.353 0 4.695 1.342 4.695 4.695v4.89c0 3.352-1.342 4.695-4.695 4.695h-.098c-3.014 0-4.402-1.088-4.65-3.743M1.5 9.5h9.66" stroke="#fff" stroke-width="1.5" stroke-linecap="round" stroke-linejoin="round"/><path d="M9.488 6.987L12 9.5l-2.512 2.512" stroke="#fff" stroke-width="1.5" stroke-linecap="round" stroke-linejoin="round"/></symbol><symbol viewBox="0 0 24 24" id="add"><path d="M8 12h8m-4 4V8M9 22h6c5 0 7-2 7-7V9c0-5-2-7-7-7H9C4 2 2 4 2 9v6c0 5 2 7 7 7z" stroke="#fff" stroke-width="1.5" stroke-linecap="round" stroke-linejoin="round"/></symbol><symbol viewBox="0 0 16 16" id="see"><path d="M10.387 8A2.384 2.384 0 018 10.387 2.384 2.384 0 015.613 8 2.384 2.384 0 018 5.613 2.384 2.384 0 0110.387 8z" stroke="#777" stroke-width="1.5" stroke-linecap="round" stroke-linejoin="round"/><path d="M8 13.513c2.353 0 4.547-1.386 6.073-3.786.6-.94.6-2.52 0-3.46C12.547 3.867 10.353 2.48 8 2.48S3.453 3.867 1.927 6.267c-.6.94-.6 2.52 0 3.46 1.526 2.4 3.72 3.786 6.073 3.786z" stroke="#777" stroke-width="1.5" stroke-linecap="round" stroke-linejoin="round"/></symbol><symbol viewBox="0 0 36 45" id="decor"><path d="M36 6.217A21.046 21.046 0 0025.202.407a20.96 20.96 0 00-12.184 1.209 21.119 21.119 0 00-9.464 7.818A21.325 21.325 0 000 21.226a21.326 21.326 0 005.094 13.835L.703 45l11.547-4.528c.265.14.523.263.768.365a20.961 20.961 0 0012.184 1.208A21.047 21.047 0 0036 36.235l-4.474-4.502a14.732 14.732 0 01-7.558 4.066c-2.863.574-5.831.28-8.529-.845a14.783 14.783 0 01-6.625-5.473 14.928 14.928 0 01-2.488-8.255c0-2.938.866-5.811 2.488-8.254a14.783 14.783 0 016.625-5.473 14.673 14.673 0 018.53-.846 14.732 14.732 0 017.557 4.067L36 6.217z" fill="#fff" fill-opacity=".3"/><path d="M29.28 11.942a11.911 11.911 0 10.647 17.33l-4.073-4.013a6.195 6.195 0 11-.337-9.012l3.762-4.305z" fill="#fff" fill-opacity=".3"/></symbol><symbol viewBox="0 0 24 24" id="left"><path d="M15.09 20.67c.19 0 .38-.07.53-.22.29-.29.29-.77 0-1.06L9.1 12.87c-.48-.48-.48-1.26 0-1.74l6.52-6.52c.29-.29.29-.77 0-1.06a.754.754 0 00-1.06 0l-6.52 6.52c-.51.51-.8 1.2-.8 1.93s.28 1.42.8 1.93l6.52 6.52c.15.14.34.22.53.22z" fill="#292D32"/></symbol><symbol viewBox="0 0 24 24" id="right"><path d="M8.91 20.67c-.19 0-.38-.07-.53-.22a.754.754 0 010-1.06l6.52-6.52c.48-.48.48-1.26 0-1.74L8.38 4.61a.754.754 0 010-1.06c.29-.29.77-.29 1.06 0l6.52 6.52c.51.51.8 1.2.8 1.93s-.28 1.42-.8 1.93l-6.52 6.52c-.15.14-.34.22-.53.22z" fill="#292D32"/></symbol><symbol viewBox="0 0 32 32" id="social1"><path fill-rule="evenodd" clip-rule="evenodd" d="M0 16C0 7.163 7.163 0 16 0s16 7.163 16 16-7.163 16-16 16S0 24.837 0 16zm16-8c4.4 0 8 3.6 8 8 0 4-2.9 7.4-6.9 8v-5.7H19l.4-2.3h-2.2v-1.5c0-.6.3-1.2 1.3-1.2h1v-2s-.9-.2-1.8-.2c-1.8 0-3 1.1-3 3.1V16h-2v2.3h2v5.6C10.9 23.3 8 20 8 16c0-4.4 3.6-8 8-8z" fill="#fff"/></symbol><symbol viewBox="0 0 32 32" id="social2"><path fill-rule="evenodd" clip-rule="evenodd" d="M0 16C0 7.163 7.163 0 16 0s16 7.163 16 16-7.163 16-16 16S0 24.837 0 16zm22.1-4.5c.7-.1 1.3-.2 1.9-.5-.4.7-1 1.3-1.7 1.7.2 4.7-3.2 9.8-9.3 9.8-1.8 0-3.5-.6-5-1.5 1.7.2 3.5-.3 4.7-1.2-1.5 0-2.7-1-3.1-2.3.5.1 1 0 1.5-.1-1.5-.4-2.6-1.8-2.6-3.3.5.2 1 .4 1.5.4-1.4-1-1.9-2.9-1-4.4 1.7 2 4.1 3.3 6.8 3.4-.5-2 1.1-4 3.2-4 .9 0 1.8.4 2.4 1 .8-.2 1.5-.4 2.1-.8-.2.8-.7 1.4-1.4 1.8z" fill="#fff"/></symbol></svg>