<svg width="245" height="219" fill="none" xmlns="http://www.w3.org/2000/svg"><g clip-path="url(#clip0_22_604)"><path d="M240.75 157.646c-4.07-9.267-11.886-17.001-21.275-20.807-9.779-3.964-21.008-2.522-31.308-3.849-8.947-1.153-15.401-5.151-20.743-12.259-5.118-6.811-9.708-14.354-18.075-17.505-6.613-2.49-14.13-1.799-20.703.794-12.109 4.781-21.256 14.944-28.96 25.07-7.032 9.246-12.768 19.368-25.777 19.698-13.018.329-25.41-7.104-38.516-5.134-17.322 2.603-31.749 17.04-34.772 34.225-2.833 16.107 4.276 31.731 16.49 40.908h209.931c15.39-16.343 23.465-38.921 13.708-61.141z" fill="#E9E9E9"/><path d="M50.974 218.789h.577c4.01-4.414 7.153-9.768 9.15-15.711 3.231-9.621 3.096-19.718-.384-28.431-1.76-4.404-4.297-8.506-6.754-12.476-2.491-4.025-5.066-8.187-6.814-12.646a28.246 28.246 0 01-1.577-5.844c-.145-.019-.29-.034-.434-.053a28.565 28.565 0 001.62 6.051c1.76 4.495 4.348 8.673 6.848 12.714 2.447 3.952 4.977 8.041 6.72 12.41 3.444 8.619 3.577 18.612.376 28.139-2.023 6.017-5.23 11.423-9.328 15.847zm175.053-18.33c4.326.923 8.493 1.75 12.524 2.27.069-.133.137-.267.204-.4-4.064-.518-8.272-1.351-12.64-2.284-6.654-1.419-13.854-2.955-20.997-2.955-4.422 0-8.821.588-13.053 2.159a26.672 26.672 0 00-4.62 2.248 177.966 177.966 0 01-11.467-5.364 287.156 287.156 0 018.372-6.093c20.936-14.634 40.257-22.931 58.922-25.286l-.114-.411c-18.717 2.374-38.078 10.693-59.048 25.351a291.497 291.497 0 00-8.547 6.224c-4.279-2.213-8.507-4.645-12.601-7.33-7.423-4.868-16.251-11.818-23.961-21.053 29.88-3.355 60.3-7.583 85.143-24.206a52.348 52.348 0 003.072-2.219l-.362-.254a52.516 52.516 0 01-2.943 2.122c-24.836 16.617-55.314 20.813-85.231 24.168-5.449-6.598-10.317-14.347-13.7-23.318-5.27-13.975-4.991-27.689.764-37.627a29.9 29.9 0 01.785-1.276c-.24.11-.478.225-.716.34-.149.24-.294.481-.434.725-5.819 10.048-6.108 23.893-.794 37.987 3.366 8.922 8.19 16.641 13.594 23.225-1.733.194-3.465.386-5.191.577-6.229.688-12.673 1.399-18.928 2.206-2.283.294-4.605.637-6.916 1.068-4.953-10.466-10.394-20.675-17.427-29.431l-.304.297c6.973 8.689 12.38 18.824 17.304 29.215-10.078 1.924-19.864 5.542-25.088 13.96-4.88 7.863-4.875 18.731.013 32.302.17.47.343.931.52 1.391h.453a63.601 63.601 0 01-.574-1.535c-4.843-13.444-4.86-24.189-.052-31.936 5.163-8.319 14.895-11.888 24.917-13.79 1.749 3.702 3.438 7.437 5.116 11.147l.182.404c5.831 12.885 11.861 25.319 19.755 35.71h.527c-7.966-10.41-14.03-22.918-19.898-35.884l-.183-.404c-1.665-3.678-3.34-7.38-5.072-11.052 2.266-.419 4.544-.756 6.783-1.043 6.251-.806 12.692-1.518 18.921-2.206 1.818-.201 3.642-.403 5.466-.607 7.784 9.379 16.726 16.425 24.233 21.349 4.048 2.656 8.229 5.065 12.459 7.259-7.182 5.438-14.166 11.159-20.986 16.744-2.363 1.934-4.75 3.888-7.158 5.842h.668c2.271-1.844 4.526-3.688 6.756-5.514 6.868-5.624 13.903-11.387 21.135-16.856a177.727 177.727 0 0011.405 5.354c-5.199 3.31-9.438 8.437-11.999 14.662a33.501 33.501 0 00-.86 2.356h.444c.245-.735.507-1.469.806-2.196 2.568-6.241 6.842-11.363 12.082-14.621 10.624 4.519 21.065 7.873 30.038 10.53l.338.1c3.781 1.119 7.648 2.267 11.069 4.108l.287-.328c-3.477-1.888-7.4-3.051-11.236-4.186l-.338-.1c-8.88-2.63-19.203-5.943-29.713-10.394a26.183 26.183 0 014.286-2.056c10.946-4.06 23.092-1.471 33.808.815zM18.168 173.085c1.864 7.641 1.033 15.892-2.283 22.639-2.172 4.419-5.308 8.42-9.17 11.855l.234.357c3.924-3.481 7.11-7.539 9.314-12.026 3.359-6.835 4.201-15.191 2.313-22.926-1.474-6.044-4.439-11.162-8.537-14.866-.091.108-.183.216-.272.324 4.03 3.647 6.948 8.688 8.4 14.643z" fill="#fff"/><path d="M113.712 76.295c3.678 3.761 5.326 10.1 3.298 15.943-1.964 5.658-6.268 10.344-11.438 13.358-4.161 2.424-9.588 3.761-13.68 1.222-3.058-1.896-4.643-5.619-4.731-9.218-.088-3.6 1.121-7.108 2.615-10.384 2.108-4.617 4.943-9.095 9.168-11.903 5.824-3.871 11.234-2.636 14.768.982z" fill="#E9E9E9"/><path d="M220.255 90.803c-1.031-3.433-2.845-6.584-5.441-9.465-2.602-2.881-6.15-5.26-10.645-7.142-4.494-1.88-10.205-2.822-17.132-2.822-5.526 0-11.157.747-16.894 2.239-5.743 1.497-10.724 3.627-14.949 6.395l5.5 15.115-2.948 2.39 4.275 1.258c4.22-2.21 8.064-3.816 11.533-4.816 3.463-.994 7.144-1.492 11.046-1.492 3.897 0 6.848.94 8.852 2.822 2.003 1.886 3.003 4.151 3.003 6.811 0 3.211-1.031 6.06-3.083 8.552a121.91 121.91 0 01-6.827 7.557 119.96 119.96 0 00-5.034 5.476 39.345 39.345 0 00-4.304 6.065 32.984 32.984 0 00-3.003 6.973c-.761 2.493-1.137 5.287-1.137 8.385a85.721 85.721 0 00.118 4.323h-4.041l4.41 2.985h21.442c-.111-.665-.164-1.438-.164-2.324v-1.995c0-1.881.381-3.735 1.136-5.562a28.717 28.717 0 012.846-5.233 38.59 38.59 0 013.817-4.729 289.323 289.323 0 014.061-4.238 266.28 266.28 0 005.357-5.644 44.374 44.374 0 004.875-6.308 35.438 35.438 0 003.49-7.227c.92-2.6 1.386-5.449 1.386-8.552 0-3.1-.519-6.364-1.545-9.797z" fill="#C0A64B"/><path d="M180.06 91.408c-3.856 0-7.493.48-10.916 1.444-3.428.968-7.227 2.52-11.397 4.661L151 79.354c4.175-2.678 9.098-4.74 14.773-6.189 5.67-1.443 11.236-2.165 16.696-2.165 6.846 0 12.49.91 16.932 2.73 4.442 1.821 7.948 4.123 10.52 6.911 2.566 2.788 4.358 5.838 5.377 9.16 1.013 3.323 1.526 6.482 1.526 9.48 0 3.003-.461 5.76-1.369 8.276a34.056 34.056 0 01-3.449 6.995 43.17 43.17 0 01-4.818 6.105 257.512 257.512 0 01-5.294 5.461 286.723 286.723 0 00-4.014 4.102 37.638 37.638 0 00-3.773 4.578 27.694 27.694 0 00-2.812 5.064c-.747 1.768-1.123 3.562-1.123 5.382v1.931c0 .859.052 1.606.162 2.25h-21.191c-.22-1.072-.35-2.275-.402-3.615a80.032 80.032 0 01-.079-3.458c0-2.998.371-5.702 1.123-8.115a31.591 31.591 0 012.968-6.748 38.008 38.008 0 014.254-5.87 116.554 116.554 0 014.975-5.3 119.687 119.687 0 006.746-7.314c2.028-2.411 3.047-5.169 3.047-8.276 0-2.574-.987-4.766-2.968-6.591-1.98-1.82-4.896-2.73-8.747-2.73z" fill="#EAC544"/><path d="M196.463 173.248c0 3.87-1.251 6.856-3.755 8.963-2.502 2.111-5.331 3.162-8.49 3.162-3.163 0-5.992-1.051-8.494-3.162-2.499-2.107-3.75-5.093-3.75-8.963 0-3.866 1.251-6.853 3.75-8.964 3.853-3.255 9.553-3.98 14.063-1.695 4.003 2.027 6.676 6.143 6.676 10.659z" fill="#C0A64B"/><path d="M192.269 173.248c0 3.87-1.252 6.856-3.755 8.963-2.503 2.111-5.332 3.162-8.491 3.162-3.163 0-5.991-1.051-8.494-3.162-2.499-2.107-3.75-5.093-3.75-8.963 0-3.866 1.251-6.852 3.75-8.963 2.503-2.107 5.332-3.162 8.494-3.162 3.159 0 5.987 1.055 8.491 3.162 2.502 2.111 3.755 5.097 3.755 8.963z" fill="#EAC544"/><path d="M86.242 68.963a5.09 5.09 0 10-10.006-1.877 5.09 5.09 0 1010.006 1.877zm2.431 9.575a2.876 2.876 0 00-2.306-3.349 2.873 2.873 0 00-3.36 2.286 2.876 2.876 0 002.305 3.349 2.873 2.873 0 003.361-2.286zm-5.825-21.98c7.826-7.835 7.826-20.537 0-28.372-7.826-7.835-20.515-7.835-28.34 0-7.827 7.835-7.827 20.537 0 28.372 7.825 7.835 20.514 7.835 28.34 0z" fill="#DEC2FD"/><path d="M60.983 44.9a2.526 2.526 0 002.524-2.527 2.526 2.526 0 00-2.524-2.527 2.526 2.526 0 00-2.525 2.527 2.526 2.526 0 002.525 2.527zm7.696 0a2.526 2.526 0 002.524-2.527 2.526 2.526 0 00-2.524-2.527 2.526 2.526 0 00-2.525 2.527A2.526 2.526 0 0068.68 44.9zm7.694 0a2.526 2.526 0 002.524-2.527 2.526 2.526 0 00-2.524-2.527 2.526 2.526 0 00-2.525 2.527 2.526 2.526 0 002.525 2.527z" fill="#fff"/><path d="M54.322 206.58l1.872 7.228c.489 1.884 2.309 3.158 4.323 3.02 6.14-.417 18.896-1.923 26.218-7.327l-2.08-10.415c-10.067-.569-19.48-.008-27.631 2.738-2.044.69-3.226 2.738-2.702 4.756z" fill="#2F1048"/><path d="M66.055 212.333a.241.241 0 01-.234-.177l-2.514-9.012a.243.243 0 01.169-.3.243.243 0 01.3.169l2.514 9.012a.242.242 0 01-.235.308zm5.435-1.218a.241.241 0 01-.234-.177l-2.515-9.012a.243.243 0 01.17-.3.241.241 0 01.299.169l2.515 9.012a.242.242 0 01-.236.308z" fill="#fff"/><path d="M77.8 167.516l-23.396 6.952 17.374 23.833 24.944 1.987 34.407-14.565-13.074-19.696-40.255 1.489z" fill="#EAC544"/><path d="M106.643 170.826c51.381-15.226 59.637 30.234-20.529 38.51-2.832-3.19-6.14-8.724-7.454-13.352l42.334-19.585-14.351-5.573z" fill="#EAC544"/><path d="M108.825 203.409c-2.404-.77-4.706-2.292-4.706-2.292l-8.257 2.594 1.892 8.992 8.578 1.744c2.614-4.785 2.767-8.714 2.493-11.038z" fill="#F9B384"/><path d="M78.843 196.3l-.366-.632c8.832-5.138 31.454-17.482 50.729-21.124l.136.719c-19.166 3.618-41.7 15.918-50.5 21.037z" fill="#C0A64B"/><path d="M77.8 167.516c-47.825-9.104-60.212 36.909 19.956 45.185 2.832-3.19 5.051-6.959 6.365-11.587-12.315-8.248-26.084-16.089-41.172-23.558l14.85-10.04z" fill="#EAC544"/><path d="M103.924 201.422a1220.852 1220.852 0 01-7.155-4.604c-12.599-8.143-26.878-17.373-39.01-22.636l.29-.671c12.187 5.287 26.493 14.534 39.115 22.693 2.51 1.621 4.878 3.153 7.151 4.603l-.391.615zM42.71 190.329l-.639-.353c1.795-3.254 4.672-5.448 8.547-6.521l.195.703c-3.732 1.035-6.383 3.053-8.103 6.171zm99.819-2.768c-1.721-3.118-4.372-5.137-8.103-6.172l.195-.703c3.875 1.074 6.752 3.27 8.546 6.522l-.638.353z" fill="#C0A64B"/><path d="M93.277 212.297l-.533-.498c3.826-4.102 6.176-8.432 7.184-13.239l.714.15c-1.037 4.94-3.447 9.384-7.365 13.587z" fill="#C0A64B"/><path d="M132.678 200.729c-6.127-3.79-18.006 2.759-20.988 3.09-.87.098-1.874-.093-2.863-.411.273 2.325.121 6.253-2.493 11.039l1.458.296s10.072 3.696 20.758 1.545c9.862-1.987 8.944-12.58 4.128-15.559z" fill="#2F1048"/><path d="M124.326 213.125a.244.244 0 01-.233-.317c.728-2.308 1.045-6.848-1.063-9.897a.244.244 0 01.401-.277c2.207 3.194 1.884 7.921 1.127 10.32a.242.242 0 01-.232.171zm-4.805.913a.245.245 0 01-.234-.318c.728-2.307 1.045-6.847-1.063-9.897a.245.245 0 01.063-.339.243.243 0 01.338.063c2.208 3.193 1.885 7.921 1.127 10.319a.243.243 0 01-.231.172z" fill="#fff"/><path d="M69.339 108.19s12.044-10.253 11.598-12.201c-.319-1.394-3.731.648-3.731.648s4.784-5.683 4.54-6.373c-.433-1.234-3.744 1.066-3.744 1.066s2.236-3.223 1.168-3.75c-1.069-.526-3.4 1.462-3.4 1.462s1.362-1.789.722-2.258c-.64-.47-3.4 1.461-3.4 1.461s.99-2.256-1.114-1.401c-2.104.855-16.862 14.413-16.862 14.413l14.223 6.933z" fill="#F9B384"/><path d="M74.267 96.03a.24.24 0 01-.163-.065c-2.068-1.89-2.98-2.35-5.26-3.053a.244.244 0 01.142-.466c2.363.727 3.307 1.202 5.446 3.159a.244.244 0 01-.165.424zm-3.63 5.561c-.012 0-.023 0-.033-.002a.244.244 0 01-.206-.275c.237-1.695.77-2.755 1.629-3.238.736-.414 1.691-.373 2.843.126a.242.242 0 01.127.32.242.242 0 01-.32.126c-1.004-.434-1.815-.485-2.41-.148-.71.4-1.176 1.368-1.387 2.882a.247.247 0 01-.243.209zm-.568-10.25a.245.245 0 01-.177-.076.246.246 0 01.01-.344l3.022-2.851a.243.243 0 01.345.01.245.245 0 01-.01.344l-3.023 2.851a.25.25 0 01-.167.066zm2.799.975a.245.245 0 01-.177-.413l2.904-3.029a.243.243 0 01.344-.007c.097.093.1.247.008.344l-2.904 3.029a.237.237 0 01-.175.076zm2.859 1.704a.246.246 0 01-.177-.411l2.277-2.445a.245.245 0 01.344-.011.246.246 0 01.012.344l-2.277 2.446a.25.25 0 01-.18.078z" fill="#E28B6D"/><path d="M114.835 176.771l-44.037 1.705-4.866-40.189s14.742-13.998 20.414-19.154l9.576-.491c29.708 13.517 24.844 30.401 18.913 58.129z" fill="#B88BFB"/><path d="M95.922 118.642s33.988 2.909 44.703 26.222c10.485 22.811-32.602 30.933-32.602 30.933l-12.1-57.155zm-38.85 4.994l14.045-17.11-13.134-7.967c-5.479 3.813-16.073 12.451-25.052 22.233-1.981 2.159-3.53 4.68-4.31 7.457-.665 2.369-.786 4.709-.412 7.001.975 5.974 5.668 10.582 11.933 11.317 5.351.627 25.79-.974 42.334-5.846l4.867-18.801c-2.5-1.419-21.084-1.666-30.27 1.716z" fill="#B88BFB"/><path d="M124.287 127.892l.22-.05c-.153-.092-.307-.179-.461-.269-2.491.575-5.061 1.161-7.595 1.467-1.522.183-6.61.52-8.095-2.872-.739-1.687-.179-3.566.656-4.883l-.364-.105c-.856 1.395-1.407 3.353-.627 5.134 1.587 3.624 6.889 3.281 8.475 3.089 2.606-.314 5.242-.922 7.791-1.511zm15.862 26.294c-1.624-.627-3.302-1.278-5.065-1.11-3.093.292-5.74 3.355-5.901 6.825-.109 2.368.794 4.848 2.514 7.029l.31-.197c-1.684-2.12-2.568-4.527-2.46-6.816.151-3.297 2.651-6.204 5.57-6.479 1.676-.156 3.243.446 4.899 1.087.592.228 1.193.46 1.804.655.032-.117.063-.236.092-.355-.596-.191-1.183-.417-1.763-.639zm-85.788-11.621c-2.121-1.758-5.419-2.227-9.045-1.288-3.23.836-6.003 2.494-7.906 4.686.125.041.247.086.374.123 1.853-2.081 4.521-3.654 7.624-4.456 3.509-.91 6.69-.466 8.72 1.215.965.799 1.648 1.838 2.144 2.956l.378-.042c-.518-1.203-1.242-2.327-2.289-3.194zM35.18 118.403c3.976-.99 7.855-2.379 11.434-4.443 1.353-.779 2.88-1.773 3.954-3.233 1.142-1.553 1.522-3.402 1.016-4.945a3.852 3.852 0 00-.991-1.563l-.28.23c.41.392.74.885.924 1.448.47 1.432.111 3.157-.961 4.614-1.034 1.405-2.523 2.373-3.843 3.133-3.375 1.947-7.026 3.293-10.777 4.266-.16.163-.319.327-.477.493z" opacity=".8" fill="#fff"/><path d="M99.033 109.706l-.006.624-.1 9.69-.01 1.05a6.027 6.027 0 01-1.778 4.213 6.023 6.023 0 01-4.214 1.759 6.033 6.033 0 01-6.065-5.978l-.117-11.976 12.29.618z" fill="#F9B384"/><path d="M99.027 110.33l-.1 9.69c-5.38-2.192-7.594-8.022-7.594-8.022l7.694-1.668z" fill="#2F1048"/><path d="M101.156 93.42c1.927 2.317 7.558 15.441 1.851 19.918-6.42 5.039-16.194-3.242-16.194-3.242L85.501 94.81l8.483-2.24 7.172.85z" fill="#F9B384"/><path d="M81.18 92.579s-18.815 9.824-3.474 38.143c1.97 3.637 6.336 5.224 10.069 3.45 4.006-1.903 5.522-6.802 3.346-10.67-2.51-4.462-4.932-10.21-3.897-14.485L81.18 92.579z" fill="#2F1048"/><path d="M86.555 100.832a5.1 5.1 0 000-7.206 5.086 5.086 0 00-7.198 0 5.1 5.1 0 000 7.206 5.087 5.087 0 007.198 0z" fill="#EAC544"/><path d="M89.217 103.35c-.55-3.178-.885-5.358 2.324-6.997 0 0 11.311 2.06 13.469-2.214 2.159-4.27-1.13-11.013-8.019-6.33-17.634-3.45-19.999 13.072-14.652 18.579l5.276-.811a1.92 1.92 0 001.602-2.227zm8.759.762a.752.752 0 10-.001-1.504.752.752 0 000 1.504zm5.088-2.51a.75.75 0 100-1.502.75.75 0 000 1.502zm-.52 4.075a.214.214 0 01-.154-.361c.302-.318.633-.764.493-1.089-.144-.337-.753-.481-1.034-.481-.599 0-.887-1.068-.94-1.283a.213.213 0 01.158-.257.211.211 0 01.257.158c.109.452.358.957.525.957.288 0 1.166.136 1.425.74.185.431-.008.953-.576 1.551a.212.212 0 01-.154.065zm.039 2.856a.204.204 0 01-.119-.037c-1.415-.956-2.845-.153-2.859-.146a.212.212 0 01-.29-.078.213.213 0 01.078-.29c.068-.039 1.676-.941 3.311.162a.213.213 0 01-.121.389z" fill="#2F1048"/><path d="M97.645 100.1c.428.807-.317.968-1.191 1.432-.874.464-1.767.635-1.972.249-.204-.385.339-1.071 1.213-1.537.874-.466 1.62-.768 1.95-.144zm3.186-1.455c.189.719.724.405 1.503.2.778-.204 1.409-.596 1.32-.939-.09-.343-.795-.456-1.575-.251-.779.204-1.394.434-1.248.99z" fill="#2F1048"/><path opacity=".4" d="M96.014 108.503a2.22 2.22 0 00.126-3.136 2.215 2.215 0 00-3.132-.127 2.222 2.222 0 00-.127 3.137c.83.901 2.233.957 3.133.126z" fill="#EB5D60"/><path d="M88.787 108.96c1.014-1.315.626-3.315-.866-4.467-1.492-1.152-3.523-1.021-4.536.294-1.014 1.314-.626 3.314.866 4.467 1.492 1.152 3.523 1.021 4.536-.294z" fill="#F9B384"/><path d="M87.405 107.994a.213.213 0 01-.212-.213 1.87 1.87 0 00-.82-1.557c-.437-.296-.96-.364-1.399-.187a.215.215 0 01-.278-.117.213.213 0 01.117-.278c.568-.232 1.24-.148 1.796.228a2.294 2.294 0 011.008 1.909.212.212 0 01-.212.215zm-30.513 15.474l-7.682 8.319.358.33 7.681-8.319-.357-.33zm54.123 35.757l-.142-.466c5.592-1.706 11.02-3.747 15.939-9.904l.379.304c-5.006 6.265-10.508 8.336-16.176 10.066z" fill="#2F1048"/><path d="M114.415 140.361H66.841c-1.71 0-3.098 1.503-3.098 3.356v34.004c0 1.853 1.387 3.355 3.098 3.355h47.574c1.711 0 3.099-1.502 3.099-3.355v-34.004c-.002-1.853-1.388-3.356-3.099-3.356z" fill="#DEC2FD"/><path d="M93.14 158.569c.18 0 .326.157.326.354v3.589c0 .195-.146.355-.327.355h-5.023c-.181 0-.328-.158-.328-.355v-3.589c0-.195.147-.354.328-.354h5.023zm0-.975h-5.025c-.716 0-1.3.596-1.3 1.329v3.589c0 .733.584 1.329 1.3 1.329h5.024c.716 0 1.3-.596 1.3-1.329v-3.589c0-.733-.582-1.329-1.3-1.329z" fill="#B88BFB"/></g><defs><clipPath id="clip0_22_604"><path fill="#fff" d="M0 0h245v219H0z"/></clipPath></defs></svg>