<svg width="192" height="201" fill="none" xmlns="http://www.w3.org/2000/svg"><g clip-path="url(#clip0_22_692)"><path d="M94.27 190.859s-75.944-5.584-85.077-42.69C.06 111.063 20.3 106.014 27.211 85.231c6.91-20.783-24.438-33.04-3.456-61.32C44.737-4.366 75.68-4.858 88.717 8.46c13.039 13.319 28.069-8.14 52.273 3.947 24.202 12.086 30.126 36.506 22.475 55.581-7.652 19.073 23.724 37.315 27.659 58.941 3.935 21.624-31.581 73.466-96.853 63.931z" fill="#E9E9E9"/><path d="M17.32 201h45.508l3.775-10.156c1.338-3.598 4.074-6.49 7.573-8.071 3.296-1.49 7.732-4.196 12.032-9.018 8.368-9.385 12.808-19.453 12.808-19.453l-28.204-.139s2.539-15.764-11.478-36.7a11.846 11.846 0 01-1.95-7.616l1.328-15.27s9.526-10.637 3.68-23.834c0 0-5.587-7.731-7.804-4.901 0 0-16.88 40.167-18.418 46.14-1.536 5.973-3.586 9.728-1.536 28.498.543 4.968.737 9.112.73 12.521a44.403 44.403 0 01-4.274 18.912L17.32 201z" fill="#F8CCAF"/><path opacity=".2" d="M59.766 174.943c-4.224-4.686-10.092-3.946-16.264-6.083-6.17-2.138-8.15-17.549-8.15-17.549v-.002c.01.582.014 1.146.013 1.691a44.395 44.395 0 01-4.275 18.911L17.32 201h45.508l3.775-10.156c1.338-3.598 4.074-6.489 7.573-8.071 2.806-1.268 6.436-3.417 10.105-7.001-12.532 5.262-20.291 3.858-24.515-.829z" fill="#FFC0BB"/><path d="M150.628 40.608l-.983 7.408 5.266-3.843 16.118-8.227-12.467 1.14s-6.351 1.543-6.695 1.853c-.345.31-1.239 1.67-1.239 1.67z" fill="#F4E19C"/><path d="M145.108 36.133l25.921-.187-20.401 4.662-5.52-4.475zm13.854 11.928l-6.792-5.453 18.86-6.662-12.068 12.115z" fill="#EAC544"/><path d="M147.956 44.467c.992-.373 1.723-.453 1.731-.455l-.049-.46c-.032.004-.798.088-1.845.481l.163.434zm-16.334 41.26a29.485 29.485 0 003.001-1.74l.256.385a29.449 29.449 0 01-3.049 1.767l-.208-.412zm5.732-3.864a18.87 18.87 0 002.329-2.544l.369.278a19.186 19.186 0 01-2.387 2.609l-.311-.343zm4.119-5.489c.227-.476.435-.971.62-1.475.209-.569.395-1.164.551-1.767l.449.116a18.714 18.714 0 01-1.202 3.325l-.418-.199zm1.87-10.115l.463-.01a29.654 29.654 0 01-.114 3.522l-.46-.044a30.29 30.29 0 00.111-3.468zm-.66-6.933l.459-.065c.194 1.353.333 2.46.435 3.48l-.46.046a82.48 82.48 0 00-.434-3.461zm-.518-3.482c-.183-1.246-.243-2.428-.175-3.512l.462.03c-.065 1.051-.008 2.2.171 3.413l.003.028-.458.064-.003-.023zm.582-6.987a8.42 8.42 0 012.01-2.95l.318.335a7.946 7.946 0 00-1.899 2.79l-.429-.175zm-15.885 39.365a45.554 45.554 0 001.745-.645l-.169-.43a47.17 47.17 0 01-1.728.638l.152.437z" fill="#fff"/><path d="M124.462 39.06s9.638-6.448 11.841-2.2c2.201 4.247-12.523 19.276-12.523 19.276l.682-17.077zm0 28.088s9.638-6.446 11.841-2.2c2.201 4.247-12.523 19.276-12.523 19.276l.682-17.076zm0 19.136s9.638-6.445 11.841-2.199c2.201 4.247-12.523 19.277-12.523 19.277l.682-17.078z" fill="#F2BE9B"/><path d="M117.804 31.834H64.885a7.134 7.134 0 00-7.136 7.13v108.067c0 3.97 3.229 7.131 7.136 7.131h52.919c3.94 0 7.136-3.19 7.136-7.131V38.965c0-3.973-3.234-7.13-7.136-7.13z" fill="#2F1048"/><path d="M121.272 41.552H61v102.892h60.272V41.552z" fill="#A66EFA"/><path opacity=".5" d="M105.831 98.565H53.488a3.273 3.273 0 00-3.274 3.272v21.584a3.273 3.273 0 003.274 3.272h41.21c1.668 2.326 4.692 6.489 4.958 6.489.25 0-.232-3.933-.571-6.489h6.746a3.273 3.273 0 003.274-3.272v-21.584a3.273 3.273 0 00-3.274-3.272z" fill="#fff"/><path d="M103.77 38.32H79.017a.519.519 0 01-.52-.519v-.254a.52.52 0 01.52-.519h24.753a.52.52 0 01.519.519v.254a.517.517 0 01-.519.518z" fill="#fff"/><path d="M56.55 103.789s.364 1.351 1.186 2.015l.978-11.23s7.007-7.825 5.313-18.38c-.579-3.612-2.379-6.937-5.127-9.353-1.57-1.38-3.294-2.3-4.31-1.003 0 0-7.94 18.89-13.424 32.687l15.384 5.264z" fill="#F8CCAF"/><path d="M104.671 95.967H52.326a3.273 3.273 0 00-3.274 3.272v21.585a3.273 3.273 0 003.275 3.272h41.21c1.667 2.326 4.691 6.49 4.957 6.49.25 0-.231-3.934-.57-6.49h6.745a3.273 3.273 0 003.275-3.272V99.237a3.271 3.271 0 00-3.273-3.27zm16.81 42.392H61.21v6.085h60.271v-6.085z" fill="#EAC544"/><path d="M56.017 76.935c2.192-1.008 3.338-6.712 3.749-9.274-1.76-1.769-3.968-3.362-5.177-1.82 0 0-1.747 4.16-4.17 10 1.656.921 3.958 1.847 5.598 1.094z" fill="#E28B6D"/><path d="M111.285 111.319s-8.141.683-8.425 2.845c-.285 2.161.341 5.973 8.027 6.711h7.96s-2.382-6.599-2.268-6.826c.114-.228-5.294-2.73-5.294-2.73z" fill="#101010" fill-opacity=".2"/><path d="M111.285 109.319s-8.141.683-8.425 2.845c-.285 2.161.341 5.973 8.027 6.711h7.96s-2.382-6.599-2.268-6.826c.114-.228-5.294-2.73-5.294-2.73z" fill="#F2BE9B"/><path d="M98.225 141.562c-1.103.585-1.486 1.977-.86 3.057 3.746 6.455 18.641 32.111 19.984 34.198 1.537 2.389 5.294 8.02 17.761 10.92C147.578 192.637 152.7 201 152.7 201h38.424s-9.051-14.334-16.566-51.535c0 0-5.806-30.887-16.735-29.863 0 0-6.659-6.997-13.149-5.631 0 0-12.296-7.337-19.298-7.337l-16.819-19.86c-1.664-1.967-4.599-2.352-6.645-.787-.659.504-1.16 1.17-1.298 2.048-.513 3.242 3.757 11.432 10.588 21.331 6.83 9.897 23.737 41.296 16.394 55.118 0 0-7.514-5.631-14.004-14.675-5.435-7.575-11.828-10.123-15.367-8.247z" fill="#F8CCAF"/><path d="M125.438 106.642c2.231 1.909 4.323 3.979 6.299 6.154 2.669 2.9 6.036 7.202 8.013 10.523 2.495 4.108 4.141 7.709 4.919 12.231l-.051.01c-.895-4.248-3.236-8.824-5.276-11.985-1.525-2.472-4.351-6.399-7.911-10.515-1.788-2.06-4.057-4.496-6.028-6.382l.035-.036zm19.125 7.275c1.816.93 3.434 2.224 4.866 3.688 1.449 1.457 2.651 3.11 3.687 4.915a23.98 23.98 0 012.309 5.693c.44 1.855.726 3.115.773 6.052l-.05.004a29.76 29.76 0 00-1.108-5.942c-.576-1.873-1.387-3.887-2.369-5.556a26.399 26.399 0 00-3.539-4.894c-1.285-1.407-2.967-2.924-4.594-3.916l.025-.044zm13.118 5.543c1.605 1.213 3.232 3.361 4.02 4.814.992 1.705 1.777 3.682 2.295 5.851.381 1.385.477 2.732.536 4.14l-.051.007c-.237-1.366-.385-2.385-.873-4.038-.745-2.507-1.331-3.797-2.331-5.73-.597-1.192-2.149-3.552-3.619-5.007l.023-.037zm-51.7 30.046c.341-1.728-1.674-4.467-3.503-6.534-1.142-1.291-2.943-1.773-4.528-1.232a2.209 2.209 0 00-.586 2.879l4.956 8.534c1.601-.815 3.345-2.048 3.661-3.647zm1.614-54.939c.972-.194 5.378-1.66 5.109-2.461l-4.348-5.134a4.952 4.952 0 00-3.313-1.73l-.021-.001a2.107 2.107 0 00-.227-.008c-.582 0-2.018.166-2.335 1.744-.311 1.557 2.268 5.344 3.407 6.917.395.541 1.07.805 1.728.673z" fill="#E28B6D"/><path d="M30.433 174.167c4.816 2.956 20.318 11.796 36.348 13.681.94.111 1.599.97 1.322 1.713l-2.802 7.496c-.186.495-.744.786-1.369.709-4.724-.574-24.215-3.505-37.93-14.106-.467-.36-.664-.908-.49-1.376l2.859-7.649c.267-.72 1.277-.949 2.062-.468z" fill="#EAC544"/><path d="M29.025 181.334l-.052-.02a.544.544 0 01-.32-.699l.861-2.307a.544.544 0 01.7-.319l.054.019c.28.105.424.418.32.7l-.862 2.306a.545.545 0 01-.701.32zm2.885 1.777l-.053-.02a.544.544 0 01-.32-.699l.861-2.307a.545.545 0 01.7-.319l.053.019c.28.104.424.417.32.699l-.862 2.307a.546.546 0 01-.7.32zm2.887 1.762l-.052-.02a.544.544 0 01-.32-.699l.861-2.307a.545.545 0 01.7-.319l.052.019c.28.105.425.418.32.7l-.861 2.306a.544.544 0 01-.7.32zm2.973 1.434l-.053-.019a.544.544 0 01-.32-.699l.863-2.307a.545.545 0 01.7-.32l.052.02a.543.543 0 01.32.699l-.861 2.307a.546.546 0 01-.702.319zm2.923 1.668l-.054-.02a.544.544 0 01-.32-.699l.861-2.307a.545.545 0 01.7-.319l.054.019c.28.105.424.418.32.7l-.861 2.306a.545.545 0 01-.7.32zm3.052 1.322l-.052-.019a.545.545 0 01-.32-.7l.862-2.306a.545.545 0 01.7-.32l.052.02c.28.104.424.417.32.699l-.862 2.307a.544.544 0 01-.7.319zm3.113 1.161l-.054-.02a.544.544 0 01-.32-.699l.862-2.307a.545.545 0 01.7-.319l.053.019a.545.545 0 01.32.7l-.861 2.306a.543.543 0 01-.7.32zm3.173 1.001l-.054-.02a.544.544 0 01-.32-.699l.862-2.307a.545.545 0 01.7-.319l.054.019c.28.105.424.418.32.7l-.862 2.306a.545.545 0 01-.7.32zm3.302.655l-.054-.019a.545.545 0 01-.32-.7l.862-2.307a.545.545 0 01.7-.319l.052.019c.28.105.424.418.32.7l-.862 2.307a.54.54 0 01-.698.319zm3.216.888l-.054-.019a.545.545 0 01-.32-.7l.861-2.306a.545.545 0 01.7-.32l.054.02c.28.104.424.417.32.699l-.861 2.307a.544.544 0 01-.7.319zm3.338.56l-.054-.02a.544.544 0 01-.32-.699l.861-2.307a.544.544 0 01.7-.319l.054.019c.28.105.424.418.32.7l-.861 2.308a.546.546 0 01-.7.318zm3.343.546l-.054-.02a.544.544 0 01-.32-.699l.861-2.307a.545.545 0 01.7-.319l.054.019c.28.104.424.417.32.699l-.862 2.307a.544.544 0 01-.7.32z" fill="#E09613"/><path d="M39.947 191.522l.013-.036a.646.646 0 01-.151-.037l-3.793-1.415c-.374-.141-.557-.582-.405-.987l3.421-9.155c.152-.404.58-.619.953-.479l3.793 1.415a.706.706 0 01.432.497c.297.131.597.259.9.39.102-.77-.293-1.518-1-1.78l-3.792-1.415c-.832-.31-1.78.168-2.116 1.066l-3.421 9.155c-.335.898.068 1.88.898 2.191l3.793 1.415c.57.212 1.193.055 1.639-.352-.386-.157-.775-.313-1.164-.473z" fill="#E4F1F7"/><path d="M39.115 184.257l-1.65-.617c-.296-.11-.634.059-.753.379-.119.319.024.668.32.777l1.65.616.433-1.155z" fill="#fff"/><path opacity=".2" d="M152.699 201h38.423s-5.933-9.398-12.182-32.724c-2.74 17.175-17.867 16.184-23.869 17.138-6.911 1.097-33.741-4.493-37.5-6.253 1.672 2.549 5.635 7.807 17.538 10.578 12.467 2.9 17.59 11.261 17.59 11.261zm-39.468-88.522c7.534 12.096 21.051 39.881 14.363 52.005l4.439 4.377s11.215-12.414-6.631-39.792a182.244 182.244 0 00-12.171-16.59z" fill="#FFC0BB"/><path d="M68.392 111.345c.727-4.472-2.312-8.684-6.787-9.41-4.474-.726-8.69 2.311-9.416 6.782-.727 4.471 2.312 8.684 6.787 9.409 4.474.726 8.69-2.31 9.416-6.781z" fill="#fff"/><path d="M56.015 110.246s-.814-3.337 1.126-4.587c1.938-1.251 4.008-1.536 5.423-.815 1.96.997 2.767 3.695 2.139 5.187l-5.205-1.306-3.483 1.521z" fill="#2F1048"/><path d="M61.585 114.162h-2.41v2.405h2.41v-2.405z" fill="#FFC0BB"/><path d="M61.587 115.605v-1.441h-2.41v1.225c.517.278 1.285.437 2.41.216z" fill="#F99893"/><path d="M65.386 109.86c-.251-.124-.543-.101-.807.033a4.133 4.133 0 00-4.291-4.283 4.133 4.133 0 00-4.29 4.283c-.265-.134-.557-.157-.808-.033-.483.238-.633.918-.335 1.519.297.602.93.897 1.413.659a.785.785 0 00.181-.124c.276 1.961 1.917 3.431 3.84 3.404 1.924.027 3.565-1.443 3.84-3.404a.785.785 0 00.182.124c.483.238 1.114-.057 1.413-.659.293-.603.143-1.283-.338-1.519z" fill="#FFC0BB"/><path d="M61.864 112.662c-.106.476-.651.849-1.318.869-.668.02-1.235-.32-1.37-.787l2.688-.082z" fill="#fff"/><path d="M55.996 109.891s3.153-.955 4.533-2.548c0 0-.39 1.92-.682 2.227.092.062 3.15-1.425 3.565-2.796.416-1.371-3.126-1.863-3.126-1.863s-1.214.515-1.276.546c-.061.031-1.199.163-1.33.453-.169.378-.973.411-.973.411l-.508 1.054-.355 1.111.152 1.405z" fill="#2F1048"/><path d="M53.413 105.55c.697.28 1.501.409 2.335.153 1.84-.566 2.57-.346 2.814-.207a.6.6 0 00.483.062c.18-.06.35-.225.297-.639 0 0 .073-1.748-1.426-2.744a8.244 8.244 0 00-4.503 3.375z" fill="#2F1048"/><path d="M57.373 105.435a.155.155 0 01.037-.224c.307-.203 1.098-.657 2.048-.706a.154.154 0 01.163.156.155.155 0 01-.149.155c-.868.046-1.612.473-1.892.655a.151.151 0 01-.207-.036z" fill="#FEB546"/><path d="M80.412 104.39h-9.639a.678.678 0 01-.678-.676v-.07c0-.373.303-.677.678-.677h9.639c.373 0 .677.304.677.677v.07a.677.677 0 01-.677.676zm-3.568 3.76h-6.07a.679.679 0 01-.68-.677v-.07c0-.373.304-.676.68-.676h6.07c.373 0 .677.303.677.676v.07a.677.677 0 01-.677.677zm10.42 0H79.48a.677.677 0 01-.679-.677v-.07c0-.373.304-.676.68-.676h7.783c.375 0 .677.303.677.676v.07a.677.677 0 01-.677.677zm13.599 0H89.898a.679.679 0 01-.678-.677v-.07c0-.373.303-.676.678-.676h10.965c.374 0 .677.303.677.676v.07a.675.675 0 01-.677.677zm0-3.76H83.59a.677.677 0 01-.677-.676v-.07c0-.373.303-.677.677-.677h17.275c.373 0 .677.304.677.677v.07a.678.678 0 01-.679.676zm0 11.131h-30.09a.678.678 0 01-.678-.676v-.07c0-.373.303-.678.678-.678h30.092c.374 0 .677.303.677.678v.07a.677.677 0 01-.679.676zm-15.2-3.61h-14.89a.68.68 0 01-.678-.677v-.07c0-.373.303-.678.678-.678h14.89c.374 0 .677.303.677.678v.07a.678.678 0 01-.677.677zm15.2 0H89.394a.678.678 0 01-.677-.677v-.07c0-.373.304-.678.677-.678h11.469c.374 0 .677.303.677.678v.07a.675.675 0 01-.677.677z" fill="#fff"/><path d="M9.224 77.287c-1.563-7.903 10.236-10.56 12.135-2.73.171.707.282 1.498.316 2.38.367 9.409-5.33 19.653-11.394 17.928-6.064-1.724-2.573-8.15-.736-12.008.859-1.798.082-3.532-.32-5.57zm171.627-17.239c-3.457-1.207-7.242.634-8.542 4.052-1.012 2.66-2.17 6.368-2.275 9.63-.189 5.885 2.152 18.514 11.109 21.632 8.955 3.119 14.299-5.107 8.336-14.626-2.548-4.065-1.277-18.124-8.628-20.688z" fill="#E9E9E9"/><path d="M36.986 70.683s-.396 3.901-3.476 4.17c3.08.27 3.476 4.17 3.476 4.17s.397-3.9 3.477-4.17c-3.082-.27-3.477-4.17-3.477-4.17zm6.48-9.125s-.263 2.58-2.299 2.758c2.038.178 2.3 2.758 2.3 2.758s.262-2.58 2.298-2.758c-2.038-.178-2.299-2.758-2.299-2.758zM145.752 80.97s-.117 1.154-1.029 1.234c.912.08 1.029 1.234 1.029 1.234s.118-1.154 1.03-1.234c-.912-.08-1.03-1.234-1.03-1.234zM39.72 85.913s-.117 1.154-1.029 1.234c.912.08 1.03 1.234 1.03 1.234s.117-1.154 1.029-1.234c-.912-.08-1.03-1.234-1.03-1.234zm61.48-35.597a11.224 11.224 0 00-5.759-3.099 11.18 11.18 0 00-6.498.645 11.264 11.264 0 00-5.047 4.17A11.373 11.373 0 0082 58.32a11.373 11.373 0 002.717 7.378L82.375 71l6.158-2.415c.142.075.279.14.41.195a11.18 11.18 0 006.498.644 11.224 11.224 0 005.759-3.098l-2.386-2.402a7.856 7.856 0 01-4.031 2.169 7.825 7.825 0 01-4.549-.45 7.884 7.884 0 01-3.533-2.92 7.962 7.962 0 010-8.805A7.883 7.883 0 0190.234 51a7.825 7.825 0 014.549-.45 7.857 7.857 0 014.031 2.168l2.386-2.401z" fill="#fff"/><path d="M97.615 53.369a6.352 6.352 0 00-9.354 8.47 6.354 6.354 0 009.7.772l-2.172-2.14a3.303 3.303 0 11-.18-4.806l2.006-2.296z" fill="#EAC544"/><path d="M78.09 83v-1.06h1.59v-4.53l-1.23.74-.5-.94 2.1-1.26h.91v5.99h1.49V83h-4.36zm7.966.1c-.46 0-.907-.07-1.34-.21-.433-.147-.787-.343-1.06-.59l.42-.98c.607.467 1.26.7 1.96.7.42 0 .747-.107.98-.32.24-.22.36-.513.36-.88 0-.373-.113-.673-.34-.9-.227-.233-.537-.35-.93-.35-.56 0-1.023.223-1.39.67h-.86v-4.29h4.33v1.06h-3.08v1.91c.353-.267.787-.4 1.3-.4.447 0 .833.097 1.16.29.333.187.59.45.77.79.187.333.28.723.28 1.17 0 .46-.103.867-.31 1.22-.207.347-.503.62-.89.82-.38.193-.833.29-1.36.29zm3.616-2.28v-1h2.98v1h-2.98zM94.128 83v-.95l2.28-2.43c.307-.333.527-.627.66-.88.133-.26.2-.523.2-.79 0-.68-.41-1.02-1.23-1.02-.64 0-1.23.24-1.77.72l-.43-.96c.28-.253.63-.457 1.05-.61a3.8 3.8 0 011.31-.23c.754 0 1.33.17 1.73.51.407.34.61.827.61 1.46 0 .427-.103.837-.31 1.23-.2.393-.516.817-.95 1.27l-1.55 1.62h3.08V83h-4.68zm8.196.1c-.833 0-1.47-.313-1.91-.94-.44-.633-.66-1.533-.66-2.7 0-1.18.22-2.077.66-2.69.44-.613 1.077-.92 1.91-.92.84 0 1.477.307 1.91.92.44.613.66 1.507.66 2.68 0 1.173-.22 2.077-.66 2.71-.44.627-1.076.94-1.91.94zm0-1.05c.454 0 .787-.207 1-.62.22-.42.33-1.08.33-1.98 0-.893-.11-1.54-.33-1.94-.213-.407-.546-.61-1-.61-.446 0-.78.203-1 .61-.22.4-.33 1.047-.33 1.94 0 .9.11 1.56.33 1.98.22.413.554.62 1 .62z" fill="#fff"/></g><defs><clipPath id="clip0_22_692"><path fill="#fff" d="M0 0h192v201H0z"/></clipPath></defs></svg>