<svg width="84" height="74" viewBox="0 0 84 74" fill="none" xmlns="http://www.w3.org/2000/svg">
<circle cx="32" cy="42" r="32" fill="#F4E19C" fill-opacity="0.5"/>
<g clip-path="url(#clip0_105_405)">
<path d="M32.4011 18.7267C32.6449 18.9705 32.9644 19.0923 33.2839 19.0923C33.6033 19.0923 33.9228 18.9705 34.1666 18.7267L38.484 14.4093C38.9715 13.9218 38.9715 13.1313 38.484 12.6437C37.9963 12.1562 37.2061 12.1562 36.7184 12.6437L33.2837 16.0784L31.2434 14.038C30.7558 13.5505 29.9655 13.5505 29.4778 14.038C28.9903 14.5255 28.9903 15.316 29.4778 15.8036L32.4011 18.7267Z" fill="url(#paint0_linear_105_405)"/>
<path d="M83.9951 30.6443C83.966 30.3144 83.807 30.0097 83.5532 29.7971L73.1288 21.0668C72.6002 20.6243 71.813 20.6937 71.3701 21.2224C70.9274 21.751 70.9972 22.5383 71.5256 22.981L80.993 30.9098L77.7252 34.8117L52.8432 13.9733C52.3793 13.5849 51.7039 13.5848 51.24 13.9733L47.41 17.1809C47.7533 15.723 47.9292 14.2191 47.9292 12.6897V10.1076L52.0416 6.66345L62.9132 15.7682C63.147 15.964 63.4313 16.0596 63.7141 16.0596C64.0707 16.0596 64.4248 15.9076 64.6719 15.6127C65.1146 15.0841 65.0448 14.2968 64.5163 13.8541L52.8432 4.07807C52.3794 3.6897 51.7038 3.6897 51.24 4.07807L47.9292 6.85096V5.07152C47.9292 4.51912 47.5661 4.03238 47.0367 3.87495L34.3204 0.0933739C34.0883 0.0242139 33.8407 0.0242139 33.6087 0.0933739L20.8925 3.87495C20.363 4.03238 20 4.51912 20 5.07152V12.6897C20 16.8558 21.2998 20.8355 23.7587 24.1985C24.1988 24.8002 24.6701 25.3714 25.168 25.9128L20.5299 29.7972C20.2761 30.0098 20.1171 30.3144 20.088 30.6444C20.0589 30.9742 20.1619 31.302 20.3744 31.5558L25.2453 37.3719C25.4579 37.6258 25.7626 37.7847 26.0925 37.8138C26.1292 37.8171 26.1659 37.8187 26.2024 37.8187C26.4213 37.8187 26.6357 37.7611 26.8244 37.6528V62.7102C26.8244 63.3997 27.3834 63.9585 28.0727 63.9585H76.0104C76.6999 63.9585 77.2588 63.3997 77.2588 62.7102V37.6528C77.4518 37.764 77.6664 37.8188 77.8802 37.8188C78.2369 37.8188 78.5909 37.6668 78.838 37.3719L83.7089 31.5558C83.9212 31.3019 84.0242 30.9741 83.9951 30.6443ZM22.4968 12.6897V6.00269L33.9645 2.59237L45.4323 6.00269V12.6897C45.4323 19.9925 40.841 26.4029 33.9645 28.7657C27.0887 26.4025 22.4968 19.992 22.4968 12.6897ZM26.358 34.8117L23.0901 30.9098L26.9848 27.6482C28.3553 28.7968 29.8791 29.7493 31.5255 30.4838L26.358 34.8117ZM65.7737 61.4617H38.3094V57.9958C38.3094 54.8002 40.9092 52.2005 44.1049 52.2005H47.8097C48.2823 54.0978 50.0001 55.508 52.0416 55.508C54.0832 55.508 55.8008 54.0978 56.2734 52.2005H59.9784C63.174 52.2005 65.7737 54.8002 65.7737 57.9958V61.4617ZM54.3713 40.3652C55.3148 40.3652 56.2106 40.1599 57.0192 39.7944V41.5896C57.0192 44.8184 54.9257 47.162 52.0416 47.162C49.2969 47.162 47.0639 44.9291 47.0639 42.1844V40.3652H54.3713ZM47.0639 37.8685V35.5449C47.0639 33.3648 48.8375 31.5912 51.0177 31.5912H58.325V33.9148C58.325 36.0948 56.5515 37.8685 54.3713 37.8685H47.0639ZM53.9063 49.4248V51.1466C53.9063 52.1748 53.0699 53.0112 52.0416 53.0112C51.0134 53.0112 50.177 52.1746 50.177 51.1466V49.4232C50.7732 49.5769 51.398 49.6587 52.0416 49.6587C52.6901 49.6588 53.3139 49.5774 53.9063 49.4248ZM74.762 61.4617H68.2705V57.9958C68.2705 53.4235 64.5507 49.7037 59.9784 49.7037H56.4029V48.2249C58.312 46.7926 59.516 44.4037 59.516 41.5896V37.7987C60.3344 36.7174 60.8218 35.3724 60.8218 33.9148V30.3428C60.8218 29.6533 60.2629 29.0944 59.5734 29.0944H51.0177C47.4609 29.0944 44.5672 31.9881 44.5672 35.5449V42.1844C44.5672 44.6789 45.7967 46.8903 47.6802 48.2486V49.7037H44.1049C39.5326 49.7037 35.8127 53.4235 35.8127 57.9958V61.4617H29.3211V35.5867L34.5658 31.1944C38.4396 29.9112 41.7577 27.498 44.1704 24.1985C44.6946 23.4816 45.1656 22.7364 45.5831 21.9677L52.0416 16.5587L74.762 35.5868V61.4617Z" fill="url(#paint1_linear_105_405)"/>
<path d="M68.0203 19.6661C68.3487 19.6661 68.6708 19.5325 68.9028 19.3003C69.1363 19.0681 69.2687 18.746 69.2687 18.4177C69.2687 18.0894 69.1363 17.7673 68.9028 17.5351C68.6708 17.3016 68.3487 17.1693 68.0203 17.1693C67.692 17.1693 67.3699 17.3016 67.1377 17.5351C66.9055 17.7673 66.772 18.0894 66.772 18.4177C66.772 18.746 66.9054 19.0681 67.1377 19.3003C67.3699 19.5325 67.692 19.6661 68.0203 19.6661Z" fill="url(#paint2_linear_105_405)"/>
</g>
<defs>
<linearGradient id="paint0_linear_105_405" x1="38.6433" y1="15.6852" x2="33.362" y2="15.6852" gradientUnits="userSpaceOnUse">
<stop stop-color="#A268F9"/>
<stop offset="1" stop-color="#B88BFB"/>
</linearGradient>
<linearGradient id="paint1_linear_105_405" x1="82.644" y1="32" x2="47.9322" y2="32" gradientUnits="userSpaceOnUse">
<stop stop-color="#A268F9"/>
<stop offset="1" stop-color="#B88BFB"/>
</linearGradient>
<linearGradient id="paint2_linear_105_405" x1="69.2158" y1="18.4177" x2="67.8617" y2="18.4177" gradientUnits="userSpaceOnUse">
<stop stop-color="#A268F9"/>
<stop offset="1" stop-color="#B88BFB"/>
</linearGradient>
<clipPath id="clip0_105_405">
<rect width="64" height="64" fill="white" transform="translate(20)"/>
</clipPath>
</defs>
</svg>
