<svg width="75" height="74" viewBox="0 0 75 74" fill="none" xmlns="http://www.w3.org/2000/svg">
<circle cx="32" cy="42" r="32" fill="#F4E19C" fill-opacity="0.5"/>
<path d="M45.8125 64H40.1875C38.1198 64 36.4375 62.3177 36.4375 60.25C36.4375 58.5059 37.6344 57.036 39.25 56.6186V55.0629C39.25 54.7072 38.9916 54.3991 38.6355 54.3299C35.6414 53.748 32.8376 52.5868 30.3021 50.8784C29.9986 50.6736 29.5957 50.7079 29.344 50.9594L28.2342 52.069C29.0082 53.4163 28.9105 55.152 27.8927 56.3671C27.216 57.175 26.227 57.6648 25.179 57.7109C24.1311 57.756 23.1035 57.3581 22.3615 56.6162L18.3839 52.6387C17.6756 51.9305 17.2856 50.9889 17.2856 49.9871C17.2856 48.9854 17.6756 48.0436 18.3839 47.3354C19.0922 46.6271 20.0339 46.2371 21.0356 46.2371C21.7168 46.2371 22.3702 46.4174 22.9412 46.7555L24.0407 45.656C24.2924 45.4045 24.3264 45.0015 24.1217 44.6979C22.4134 42.1624 21.2521 39.3586 20.6702 36.3646C20.601 36.0084 20.2928 35.75 19.9373 35.75H18.3829C18.2131 36.4146 17.8619 37.0208 17.354 37.511C16.615 38.2243 15.643 38.5949 14.6144 38.5602C12.5876 38.488 11 36.8155 11 34.7526V29.1875C11 28.1621 11.406 27.2048 12.1432 26.4918C12.8805 25.779 13.8534 25.4054 14.8775 25.4398C16.5357 25.495 17.9373 26.6831 18.3655 28.25H19.9371C20.2928 28.25 20.601 27.9916 20.6701 27.6355C21.252 24.6414 22.4132 21.8376 24.1216 19.3021C24.3263 18.9985 24.2921 18.5955 24.0406 18.344L22.9411 17.2445C22.3701 17.5826 21.7166 17.7629 21.0355 17.7629C20.0337 17.7629 19.0921 17.3729 18.3837 16.6646C16.9216 15.2025 16.9216 12.8234 18.3837 11.3611L22.3612 7.38375C23.8234 5.9215 26.2024 5.92175 27.6646 7.38375C28.3729 8.09212 28.7629 9.03375 28.7629 10.0355C28.7629 10.7165 28.5826 11.37 28.2445 11.9411L29.344 13.0406C29.5957 13.2924 29.9985 13.3263 30.302 13.1216C32.8376 11.4132 35.6414 10.252 38.6354 9.67013C38.9916 9.60087 39.25 9.29263 39.25 8.93713V7.38137C37.6344 6.964 36.4375 5.49412 36.4375 3.75C36.4375 1.68225 38.1198 0 40.1875 0H45.8125C47.8802 0 49.5625 1.68225 49.5625 3.75C49.5625 5.49412 48.3656 6.964 46.75 7.38137V8.93713C46.75 9.29275 47.0084 9.601 47.3645 9.67013C50.3586 10.252 53.1624 11.4132 55.6979 13.1216C56.0014 13.3263 56.4044 13.2922 56.656 13.0406L57.7565 11.9403C56.9091 10.5024 57.1023 8.61687 58.3354 7.38375C59.7974 5.92175 62.1765 5.9215 63.6387 7.38375L67.6162 11.3611C69.0784 12.8232 69.0784 15.2024 67.6162 16.6646C66.9079 17.3729 65.9663 17.7629 64.9645 17.7629C64.2835 17.7629 63.63 17.5826 63.0589 17.2445L61.9594 18.344C61.7077 18.5955 61.6738 18.9985 61.8784 19.3021C63.5868 21.8376 64.748 24.6414 65.3299 27.6354C65.3991 27.9916 65.7074 28.25 66.0629 28.25H67.6319C68.0373 26.7499 69.3339 25.5918 70.9129 25.4524H70.913C71.963 25.3588 73.0084 25.7129 73.782 26.4212C74.556 27.13 75 28.1383 75 29.1875V34.8125C75 35.8618 74.556 36.87 73.782 37.5788C73.0084 38.2871 71.9618 38.6401 70.913 38.5476C69.3339 38.4083 68.0373 37.2501 67.6319 35.75H66.0629C65.7072 35.75 65.3991 36.0084 65.3299 36.3645C64.748 39.3586 63.5868 42.1624 61.8784 44.6979C61.6738 45.0015 61.7079 45.4045 61.9594 45.656L63.0589 46.7555C63.63 46.4174 64.2835 46.2371 64.9645 46.2371C65.9663 46.2371 66.9079 46.6271 67.6162 47.3354C68.3245 48.0436 68.7145 48.9854 68.7145 49.9871C68.7145 50.9889 68.3245 51.9305 67.6161 52.6387L63.6387 56.6162C62.8967 57.3582 61.8704 57.7573 60.8211 57.7109C59.7731 57.6648 58.7841 57.175 58.1074 56.3672C57.0896 55.152 56.9916 53.4164 57.7659 52.069L56.6561 50.9594C56.4045 50.7077 56.0016 50.6736 55.6981 50.8784C53.1625 52.5868 50.3587 53.748 47.3647 54.3299C47.0085 54.3991 46.7501 54.7074 46.7501 55.0629V56.6186C48.3657 57.036 49.5626 58.5059 49.5626 60.25C49.5625 62.3177 47.8802 64 45.8125 64ZM29.87 48.2463C30.504 48.2463 31.1424 48.4299 31.6992 48.8051C33.955 50.325 36.4492 51.3582 39.1125 51.8758C40.6406 52.1726 41.75 53.513 41.75 55.0629V57.4375C41.75 58.2991 41.0491 59 40.1875 59C39.4982 59 38.9375 59.5607 38.9375 60.25C38.9375 60.9393 39.4982 61.5 40.1875 61.5H45.8125C46.5018 61.5 47.0625 60.9393 47.0625 60.25C47.0625 59.5607 46.5018 59 45.8125 59C44.9509 59 44.25 58.2991 44.25 57.4375V55.0629C44.25 53.5131 45.3594 52.1726 46.8877 51.8758C49.5509 51.3581 52.0451 50.325 54.301 48.8051C55.5944 47.9336 57.3284 48.096 58.4239 49.1916L60.1432 50.911C60.7304 51.4981 60.7304 52.4536 60.1432 53.0407C59.6669 53.5171 59.6145 54.273 60.0239 54.762C60.2547 55.0374 60.577 55.1978 60.9313 55.2134C61.2879 55.2281 61.6201 55.0995 61.8711 54.8485L65.8485 50.871C66.0848 50.6349 66.2146 50.3211 66.2146 49.9873C66.2146 49.6533 66.0846 49.3394 65.8485 49.1034C65.3611 48.616 64.568 48.6162 64.0807 49.1034L64.0407 49.1434C63.4537 49.7305 62.4982 49.7306 61.911 49.1434L60.1916 47.424C59.0961 46.3285 58.9336 44.5945 59.8051 43.3011C61.325 41.0452 62.3582 38.551 62.8758 35.8877C63.1726 34.3594 64.513 33.25 66.0629 33.25H68.4939C69.3242 33.25 70 33.9256 70 34.7561C70 35.4298 70.4975 36.0013 71.1328 36.0574C71.4905 36.0886 71.8321 35.9744 72.0935 35.7349C72.3556 35.495 72.4999 35.1674 72.4999 34.8125V29.1875C72.4999 28.8326 72.3556 28.505 72.0935 28.2651C71.8319 28.0254 71.4889 27.9107 71.1328 27.9426C70.4975 27.9988 70 28.5703 70 29.2439C70 30.0743 69.3244 30.75 68.4939 30.75H66.0629C64.5131 30.75 63.1726 29.6406 62.8758 28.1122C62.3581 25.4491 61.325 22.9549 59.8051 20.699C58.9335 19.4055 59.0961 17.6715 60.1916 16.5761L61.871 14.8968C62.4804 14.2875 63.4715 14.2876 64.0809 14.8968C64.5681 15.384 65.3613 15.3843 65.8486 14.8968C66.336 14.4094 66.336 13.6164 65.8486 13.1289L61.8711 9.1515C61.3841 8.66437 60.591 8.66387 60.1034 9.1515C59.616 9.63875 59.616 10.4319 60.1034 10.9192C60.7126 11.5285 60.7126 12.5199 60.1034 13.1291L58.424 14.8085C57.3284 15.904 55.5945 16.0665 54.301 15.195C52.0452 13.6751 49.551 12.6419 46.8877 12.1244C45.3594 11.8274 44.25 10.487 44.25 8.93713V6.5625C44.25 5.70087 44.9509 5 45.8125 5C46.5018 5 47.0625 4.43925 47.0625 3.75C47.0625 3.06075 46.5018 2.5 45.8125 2.5H40.1875C39.4982 2.5 38.9375 3.06075 38.9375 3.75C38.9375 4.43925 39.4982 5 40.1875 5C41.0491 5 41.75 5.70087 41.75 6.5625V8.93713C41.75 10.4869 40.6406 11.8274 39.1122 12.1243C36.4491 12.6419 33.9549 13.675 31.699 15.1949C30.4056 16.0664 28.6716 15.904 27.5761 14.8084L25.8968 13.129C25.6018 12.8339 25.4391 12.4415 25.4391 12.0241C25.4391 11.6065 25.6019 11.214 25.8973 10.9189C26.3843 10.4319 26.3843 9.63875 25.8968 9.15137C25.4094 8.66375 24.6163 8.664 24.129 9.15137L20.1515 13.1287C19.6641 13.6161 19.6641 14.4091 20.1515 14.8966C20.3876 15.1327 20.7015 15.2627 21.0354 15.2627C21.3692 15.2627 21.6831 15.1329 21.9191 14.8968C22.5282 14.2874 23.5196 14.2875 24.129 14.8966L25.8084 16.576C26.9039 17.6715 27.0664 19.4055 26.1949 20.6989C24.675 22.9548 23.6418 25.449 23.1243 28.1122C22.8274 29.6406 21.487 30.75 19.9371 30.75H17.497C16.6715 30.75 16 30.0785 16 29.253C16 28.5503 15.459 27.9604 14.7941 27.9382C14.452 27.9256 14.1267 28.051 13.8812 28.2889C13.6354 28.5265 13.5 28.8458 13.5 29.1875V34.7526C13.5 35.4509 14.0397 36.0381 14.7032 36.0617C15.0476 36.0744 15.3716 35.9499 15.6178 35.7122C15.8643 35.4744 16 35.1548 16 34.8125C16 33.9509 16.7009 33.25 17.5625 33.25H19.9371C21.4869 33.25 22.8274 34.3594 23.1243 35.8877C23.6419 38.5509 24.675 41.0451 26.1949 43.301C27.0665 44.5945 26.9039 46.3285 25.8084 47.4239L24.089 49.1432C23.5019 49.7305 22.5464 49.7304 21.9593 49.1432L21.9192 49.1032C21.6831 48.867 21.3694 48.7371 21.0355 48.7371C20.7016 48.7371 20.3876 48.8671 20.1516 49.1032C19.9155 49.3394 19.7855 49.6531 19.7855 49.9871C19.7855 50.321 19.9154 50.6349 20.1515 50.8709L24.1291 54.8484C24.3801 55.0992 24.7146 55.229 25.0689 55.2132C25.4231 55.1976 25.7454 55.0373 25.9762 54.7617C26.3856 54.273 26.3333 53.517 25.857 53.0406C25.2698 52.4535 25.2698 51.498 25.8569 50.9109L27.5763 49.1915C28.2001 48.5676 29.0312 48.2463 29.87 48.2463Z" fill="url(#paint0_linear_125_83)"/>
<path d="M38.1718 26.7349C35.2769 26.7349 32.9218 24.3797 32.9218 21.4849C32.9218 18.59 35.2769 16.2349 38.1718 16.2349C41.0666 16.2349 43.4218 18.59 43.4218 21.4849C43.4218 24.3797 41.0666 26.7349 38.1718 26.7349ZM38.1718 18.7349C36.6554 18.7349 35.4218 19.9685 35.4218 21.4849C35.4218 23.0012 36.6554 24.2349 38.1718 24.2349C39.6881 24.2349 40.9218 23.0012 40.9218 21.4849C40.9218 19.9685 39.6881 18.7349 38.1718 18.7349Z" fill="url(#paint1_linear_125_83)"/>
<path d="M34.625 44.4757C32.1207 44.4757 30.0834 42.4383 30.0834 39.9341C30.0834 37.4298 32.1207 35.3923 34.625 35.3923C37.1292 35.3923 39.1666 37.4298 39.1666 39.9341C39.1666 42.4383 37.1292 44.4757 34.625 44.4757ZM34.625 37.8923C33.4992 37.8923 32.5834 38.8082 32.5834 39.9341C32.5834 41.0598 33.4992 41.9757 34.625 41.9757C35.7507 41.9757 36.6666 41.0598 36.6666 39.9341C36.6666 38.8082 35.7507 37.8923 34.625 37.8923Z" fill="url(#paint2_linear_125_83)"/>
<path d="M51.7292 43.2318C47.8117 43.2318 44.5154 40.3012 44.0618 36.415C43.9817 35.7293 44.4728 35.1086 45.1584 35.0285C45.8443 34.949 46.4648 35.4393 46.5449 36.1252C46.8514 38.7515 49.0802 40.7318 51.7292 40.7318C54.6073 40.7318 56.949 38.3902 56.949 35.512C56.949 32.8462 54.9545 30.6157 52.3097 30.3238C51.6235 30.2482 51.1285 29.6305 51.2043 28.9443C51.28 28.2581 51.8984 27.7646 52.5838 27.839C56.4977 28.2708 59.449 31.5696 59.449 35.512C59.449 39.7687 55.9859 43.2318 51.7292 43.2318Z" fill="url(#paint3_linear_125_83)"/>
<path d="M50.125 22.7351C49.7962 22.7351 49.4737 22.6014 49.2412 22.3689C49.0087 22.1364 48.875 21.8139 48.875 21.4851C48.875 21.1551 49.0086 20.8339 49.2412 20.6014C49.4737 20.369 49.7962 20.2351 50.125 20.2351C50.4538 20.2351 50.7763 20.3689 51.0086 20.6014C51.2411 20.8339 51.375 21.1564 51.375 21.4851C51.375 21.8139 51.2413 22.1364 51.0086 22.3689C50.7763 22.6014 50.4538 22.7351 50.125 22.7351Z" fill="url(#paint4_linear_125_83)"/>
<path d="M43 48.125C42.6712 48.125 42.3487 47.9913 42.1162 47.7586C41.8837 47.5263 41.75 47.2038 41.75 46.875C41.75 46.5462 41.8836 46.2237 42.1162 45.9912C42.3487 45.7587 42.67 45.625 43 45.625C43.3288 45.625 43.6513 45.7586 43.8836 45.9912C44.1161 46.2237 44.25 46.5462 44.25 46.875C44.25 47.2038 44.1163 47.5263 43.8836 47.7586C43.6513 47.9913 43.3288 48.125 43 48.125Z" fill="url(#paint5_linear_125_83)"/>
<path d="M28.9587 33.2664C28.6287 33.2664 28.3075 33.1326 28.075 32.9001C27.8412 32.6676 27.7087 32.3451 27.7087 32.0164C27.7087 31.6864 27.8412 31.3651 28.075 31.1326C28.3064 30.8989 28.6289 30.7664 28.9587 30.7664C29.2875 30.7664 29.61 30.8989 29.8425 31.1326C30.0749 31.3651 30.2087 31.6876 30.2087 32.0164C30.2087 32.3451 30.075 32.6664 29.8425 32.9001C29.61 33.1326 29.2875 33.2664 28.9587 33.2664Z" fill="url(#paint6_linear_125_83)"/>
<path d="M47.14 32.2024C46.8113 32.2024 46.4888 32.0686 46.2563 31.836C46.0238 31.6036 45.89 31.2811 45.89 30.9524C45.89 30.6223 46.0236 30.3011 46.2563 30.0674C46.4888 29.8349 46.8113 29.7024 47.14 29.7024C47.4688 29.7024 47.7913 29.8349 48.0236 30.0674C48.2561 30.3011 48.39 30.6224 48.39 30.9524C48.39 31.2811 48.2563 31.6023 48.0236 31.836C47.7913 32.0686 47.4688 32.2024 47.14 32.2024Z" fill="url(#paint7_linear_125_83)"/>
<defs>
<linearGradient id="paint0_linear_125_83" x1="73.6441" y1="32" x2="38.9322" y2="32" gradientUnits="userSpaceOnUse">
<stop stop-color="#A268F9"/>
<stop offset="1" stop-color="#B88BFB"/>
</linearGradient>
<linearGradient id="paint1_linear_125_83" x1="43.1993" y1="21.4849" x2="37.5044" y2="21.4849" gradientUnits="userSpaceOnUse">
<stop stop-color="#A268F9"/>
<stop offset="1" stop-color="#B88BFB"/>
</linearGradient>
<linearGradient id="paint2_linear_125_83" x1="38.9742" y1="39.934" x2="34.0477" y2="39.934" gradientUnits="userSpaceOnUse">
<stop stop-color="#A268F9"/>
<stop offset="1" stop-color="#B88BFB"/>
</linearGradient>
<linearGradient id="paint3_linear_125_83" x1="59.1229" y1="35.5317" x2="50.7726" y2="35.5317" gradientUnits="userSpaceOnUse">
<stop stop-color="#A268F9"/>
<stop offset="1" stop-color="#B88BFB"/>
</linearGradient>
<linearGradient id="paint4_linear_125_83" x1="51.322" y1="21.4851" x2="49.9661" y2="21.4851" gradientUnits="userSpaceOnUse">
<stop stop-color="#A268F9"/>
<stop offset="1" stop-color="#B88BFB"/>
</linearGradient>
<linearGradient id="paint5_linear_125_83" x1="44.197" y1="46.875" x2="42.8411" y2="46.875" gradientUnits="userSpaceOnUse">
<stop stop-color="#A268F9"/>
<stop offset="1" stop-color="#B88BFB"/>
</linearGradient>
<linearGradient id="paint6_linear_125_83" x1="30.1558" y1="32.0164" x2="28.7998" y2="32.0164" gradientUnits="userSpaceOnUse">
<stop stop-color="#A268F9"/>
<stop offset="1" stop-color="#B88BFB"/>
</linearGradient>
<linearGradient id="paint7_linear_125_83" x1="48.337" y1="30.9524" x2="46.9811" y2="30.9524" gradientUnits="userSpaceOnUse">
<stop stop-color="#A268F9"/>
<stop offset="1" stop-color="#B88BFB"/>
</linearGradient>
</defs>
</svg>
