<svg width="84" height="74" viewBox="0 0 84 74" fill="none" xmlns="http://www.w3.org/2000/svg">
<circle cx="32" cy="42" r="32" fill="#F4E19C" fill-opacity="0.5"/>
<path d="M71.7509 18.5938C72.4411 18.5938 73.0009 18.0341 73.0009 17.3438V3.75C73.0009 1.68225 71.3186 0 69.2509 0H23.7509C21.6831 0 20.0009 1.68225 20.0009 3.75V60.25C20.0009 62.3177 21.6831 64 23.7509 64H69.2509C71.3186 64 73.0009 62.3177 73.0009 60.25V51.041C73.0009 50.3506 72.4411 49.791 71.7509 49.791C71.0606 49.791 70.5009 50.3506 70.5009 51.041V60.25C70.5009 60.9393 69.9401 61.5 69.2509 61.5H23.7509C23.0616 61.5 22.5009 60.9393 22.5009 60.25V3.75C22.5009 3.06075 23.0616 2.5 23.7509 2.5H69.2509C69.9401 2.5 70.5009 3.06075 70.5009 3.75V17.3438C70.5009 18.0341 71.0606 18.5938 71.7509 18.5938Z" fill="url(#paint0_linear_107_1070)"/>
<path d="M46.5009 6.75C40.1597 6.75 35.0009 11.9089 35.0009 18.25C35.0009 21.5396 36.3896 24.5106 38.6111 26.6086C38.6527 26.6531 38.697 26.6952 38.7454 26.7336C40.7917 28.606 43.5151 29.7499 46.5007 29.7499C49.4864 29.7499 52.2097 28.6059 54.2561 26.7336C54.3045 26.6952 54.3487 26.653 54.3904 26.6086C56.6121 24.5106 58.0009 21.5396 58.0009 18.25C58.0009 11.9089 52.842 6.75 46.5009 6.75ZM46.5009 27.25C44.4597 27.25 42.576 26.566 41.0645 25.4165C42.1631 23.4684 44.2132 22.25 46.5009 22.25C48.7885 22.25 50.8386 23.4684 51.9372 25.4165C50.4256 26.566 48.542 27.25 46.5009 27.25ZM44.5009 17.75V16.9375C44.5009 15.8348 45.3981 14.9375 46.5009 14.9375C47.6036 14.9375 48.5009 15.8348 48.5009 16.9375V17.75C48.5009 18.8527 47.6036 19.75 46.5009 19.75C45.3981 19.75 44.5009 18.8527 44.5009 17.75ZM53.7434 23.5854C52.8215 22.2181 51.5439 21.1547 50.0605 20.4982C50.6492 19.7374 51.0009 18.7843 51.0009 17.75V16.9375C51.0009 14.4561 48.9822 12.4375 46.5009 12.4375C44.0195 12.4375 42.0009 14.4561 42.0009 16.9375V17.75C42.0009 18.7843 42.3525 19.7374 42.9412 20.4982C41.4579 21.1547 40.1802 22.2181 39.2584 23.5854C38.1547 22.0912 37.5009 20.2459 37.5009 18.25C37.5009 13.2874 41.5382 9.25 46.5009 9.25C51.4635 9.25 55.5009 13.2874 55.5009 18.25C55.5009 20.2459 54.847 22.0912 53.7434 23.5854Z" fill="url(#paint1_linear_107_1070)"/>
<path d="M53.2509 54.75H46.5009C45.8106 54.75 45.2509 55.3096 45.2509 56C45.2509 56.6904 45.8106 57.25 46.5009 57.25H53.2509C53.9411 57.25 54.5009 56.6904 54.5009 56C54.5009 55.3096 53.9411 54.75 53.2509 54.75Z" fill="url(#paint2_linear_107_1070)"/>
<path d="M53.2509 47.75H35.5009C34.8106 47.75 34.2509 48.3096 34.2509 49C34.2509 49.6904 34.8106 50.25 35.5009 50.25H53.2509C53.9411 50.25 54.5009 49.6904 54.5009 49C54.5009 48.3096 53.9411 47.75 53.2509 47.75Z" fill="url(#paint3_linear_107_1070)"/>
<path d="M53.2509 40.75H35.5009C34.8106 40.75 34.2509 41.3096 34.2509 42C34.2509 42.6904 34.8106 43.25 35.5009 43.25H53.2509C53.9411 43.25 54.5009 42.6904 54.5009 42C54.5009 41.3096 53.9411 40.75 53.2509 40.75Z" fill="url(#paint4_linear_107_1070)"/>
<path d="M31.0458 34.1162C30.8134 33.8837 30.4909 33.75 30.1609 33.75C29.832 33.75 29.5095 33.8837 29.2771 34.1162C29.0446 34.3487 28.9109 34.6712 28.9109 35C28.9109 35.3288 29.0445 35.6513 29.2771 35.8838C29.5109 36.1163 29.832 36.25 30.1609 36.25C30.4909 36.25 30.8121 36.1163 31.0458 35.8838C31.2783 35.6513 31.4121 35.3288 31.4121 35C31.4121 34.6712 31.2784 34.3487 31.0458 34.1162Z" fill="url(#paint5_linear_107_1070)"/>
<path d="M31.0458 41.1162C30.8121 40.8837 30.4909 40.75 30.1609 40.75C29.832 40.75 29.5109 40.8837 29.2771 41.1162C29.0446 41.3487 28.9109 41.6712 28.9109 42C28.9109 42.3288 29.0445 42.6513 29.2771 42.8838C29.5109 43.1163 29.832 43.25 30.1609 43.25C30.4909 43.25 30.8121 43.1163 31.0458 42.8838C31.2783 42.6513 31.4121 42.3288 31.4121 42C31.4121 41.6712 31.2784 41.3487 31.0458 41.1162Z" fill="url(#paint6_linear_107_1070)"/>
<path d="M31.0458 48.1162C30.8121 47.8837 30.4909 47.75 30.1609 47.75C29.832 47.75 29.5109 47.8837 29.2771 48.1162C29.0446 48.3487 28.9109 48.6712 28.9109 49C28.9109 49.3288 29.0445 49.6513 29.2771 49.8838C29.5095 50.1163 29.832 50.25 30.1609 50.25C30.4909 50.25 30.8134 50.1163 31.0458 49.8838C31.2783 49.6513 31.4121 49.3288 31.4121 49C31.4121 48.6712 31.2784 48.3487 31.0458 48.1162Z" fill="url(#paint7_linear_107_1070)"/>
<path d="M53.2509 33.75H35.5009C34.8106 33.75 34.2509 34.3096 34.2509 35C34.2509 35.6904 34.8106 36.25 35.5009 36.25H53.2509C53.9411 36.25 54.5009 35.6904 54.5009 35C54.5009 34.3096 53.9411 33.75 53.2509 33.75Z" fill="url(#paint8_linear_107_1070)"/>
<path d="M81.3752 16.29C80.1608 15.5889 78.7461 15.4026 77.3913 15.7655C76.0368 16.1285 74.9046 16.9973 74.2036 18.2116L58.4733 45.457C58.3872 45.6064 58.3327 45.772 58.3136 45.9434L57.2063 55.8614C57.1513 56.3549 57.3936 56.8343 57.8236 57.0826C58.0177 57.1946 58.2333 57.2501 58.4485 57.2501C58.71 57.2501 58.9705 57.1683 59.1898 57.0066L67.2253 51.0886C67.3642 50.9864 67.4805 50.8565 67.5666 50.7071L83.2967 23.4618C84.7442 20.9548 83.8822 17.7375 81.3752 16.29ZM60.0078 53.2993L60.5861 48.1203L64.2038 50.209L60.0078 53.2993ZM66.0266 48.3745L61.2635 45.6245L73.8866 23.7608L78.6497 26.5108L66.0266 48.3745ZM81.1317 22.2116L79.8996 24.3458L75.1365 21.5958L76.3686 19.4616C76.7358 18.8255 77.3288 18.3705 78.0383 18.1804C78.7481 17.9901 79.4891 18.0879 80.1251 18.4551C80.7612 18.8224 81.2162 19.4154 81.4063 20.1249C81.5965 20.8344 81.499 21.5755 81.1317 22.2116Z" fill="url(#paint9_linear_107_1070)"/>
<defs>
<linearGradient id="paint0_linear_107_1070" x1="71.878" y1="32" x2="43.1322" y2="32" gradientUnits="userSpaceOnUse">
<stop stop-color="#A268F9"/>
<stop offset="1" stop-color="#B88BFB"/>
</linearGradient>
<linearGradient id="paint1_linear_107_1070" x1="57.5136" y1="18.2499" x2="45.039" y2="18.2499" gradientUnits="userSpaceOnUse">
<stop stop-color="#A268F9"/>
<stop offset="1" stop-color="#B88BFB"/>
</linearGradient>
<linearGradient id="paint2_linear_107_1070" x1="54.3049" y1="56" x2="49.2879" y2="56" gradientUnits="userSpaceOnUse">
<stop stop-color="#A268F9"/>
<stop offset="1" stop-color="#B88BFB"/>
</linearGradient>
<linearGradient id="paint3_linear_107_1070" x1="54.0718" y1="49" x2="43.0888" y2="49" gradientUnits="userSpaceOnUse">
<stop stop-color="#A268F9"/>
<stop offset="1" stop-color="#B88BFB"/>
</linearGradient>
<linearGradient id="paint4_linear_107_1070" x1="54.0718" y1="42" x2="43.0888" y2="42" gradientUnits="userSpaceOnUse">
<stop stop-color="#A268F9"/>
<stop offset="1" stop-color="#B88BFB"/>
</linearGradient>
<linearGradient id="paint5_linear_107_1070" x1="31.3591" y1="35" x2="30.0025" y2="35" gradientUnits="userSpaceOnUse">
<stop stop-color="#A268F9"/>
<stop offset="1" stop-color="#B88BFB"/>
</linearGradient>
<linearGradient id="paint6_linear_107_1070" x1="31.3591" y1="42" x2="30.0025" y2="42" gradientUnits="userSpaceOnUse">
<stop stop-color="#A268F9"/>
<stop offset="1" stop-color="#B88BFB"/>
</linearGradient>
<linearGradient id="paint7_linear_107_1070" x1="31.3591" y1="49" x2="30.0025" y2="49" gradientUnits="userSpaceOnUse">
<stop stop-color="#A268F9"/>
<stop offset="1" stop-color="#B88BFB"/>
</linearGradient>
<linearGradient id="paint8_linear_107_1070" x1="54.0718" y1="35" x2="43.0888" y2="35" gradientUnits="userSpaceOnUse">
<stop stop-color="#A268F9"/>
<stop offset="1" stop-color="#B88BFB"/>
</linearGradient>
<linearGradient id="paint9_linear_107_1070" x1="83.4313" y1="36.4173" x2="68.8954" y2="36.4173" gradientUnits="userSpaceOnUse">
<stop stop-color="#A268F9"/>
<stop offset="1" stop-color="#B88BFB"/>
</linearGradient>
</defs>
</svg>
