<svg width="84" height="74" viewBox="0 0 84 74" fill="none" xmlns="http://www.w3.org/2000/svg">
<circle cx="32" cy="42" r="32" fill="#F4E19C" fill-opacity="0.5"/>
<g clip-path="url(#clip0_107_646)">
<path d="M67.2056 29.4086V32.8461C67.2056 33.5311 67.7607 34.0863 68.4458 34.0863C69.1309 34.0863 69.6865 33.5311 69.6865 32.8461V29.4086C69.6865 28.724 69.1309 28.1688 68.4458 28.1688C67.7607 28.1688 67.2056 28.724 67.2056 29.4086Z" fill="url(#paint0_linear_107_646)"/>
<path d="M72.6357 27.3183C72.1508 27.8027 72.1508 28.5878 72.6352 29.0722L75.0668 31.5029C75.309 31.7451 75.6264 31.8661 75.9438 31.8661C76.2612 31.8661 76.5786 31.7451 76.8212 31.5034C77.3056 31.019 77.3056 30.2338 76.8212 29.7495L74.3901 27.3183C73.9052 26.8344 73.1201 26.8339 72.6357 27.3183Z" fill="url(#paint1_linear_107_646)"/>
<path d="M62.6533 27.3183L60.2222 29.7495C59.7378 30.2338 59.7378 31.019 60.2222 31.5034C60.4644 31.7455 60.7817 31.8661 61.0996 31.8661C61.417 31.8661 61.7344 31.7451 61.9766 31.5029L64.4077 29.0722C64.8921 28.5878 64.8921 27.8027 64.4077 27.3183C63.9233 26.8339 63.1377 26.8344 62.6533 27.3183Z" fill="url(#paint2_linear_107_646)"/>
<path d="M78.0093 61.5184H74.7856C74.7197 60.391 74.3179 59.0624 73.5088 57.9549C72.6392 56.7645 71.0191 55.4315 68.1621 55.4925C67.0381 53.7499 65.085 52.663 62.9746 52.663C61.6743 52.663 60.4507 53.0697 59.4405 53.7748V44.1327C59.4405 43.4481 58.8853 42.893 58.2002 42.893H55.9971L56.0313 16.5068L56.0176 13.603C56.3174 10.897 57.7891 9.23729 59.9634 9.15917C61.3658 9.10985 62.9781 9.82274 63.6734 11.2456C60.6621 12.7602 58.6275 15.6079 58.6275 18.8667C58.6275 19.5517 59.1831 20.1069 59.8682 20.1069H62.6348C63.2095 22.8886 65.6787 24.9863 68.6289 24.9863C71.5396 24.9863 74.0391 22.9428 74.625 20.1069H77.3935C78.0786 20.1069 78.6338 19.5517 78.6338 18.8667C78.6338 18.3183 78.5762 17.7705 78.4624 17.2407C77.9101 14.6406 76.0674 12.4199 73.4058 11.147C72.9639 10.937 72.5044 10.7573 72.0317 10.6084C71.5752 7.4912 70.0283 4.75097 67.6162 2.82324C65.229 0.915533 62.084 -0.110343 58.9849 0.00928569C55.8335 0.131356 52.9566 1.40284 50.8843 3.58984C48.5445 6.05956 47.3028 9.60301 47.2945 13.8413L47.3121 23.8159C47.3135 24.4999 47.8682 25.0537 48.5523 25.0537H48.5548C49.2398 25.0522 49.794 24.496 49.793 23.8115L49.775 13.8418C49.7916 5.72607 54.7984 2.65332 59.0806 2.4878C63.4209 2.31885 68.2344 4.93457 69.4204 10.1142C69.4155 10.1138 69.4111 10.1147 69.4063 10.1147C69.148 10.0972 68.8887 10.0874 68.6289 10.0874C67.7232 10.0874 66.8467 10.1953 66.0117 10.394C66.0098 10.3935 66.0078 10.3926 66.0059 10.3921C65.0005 8.11376 62.5708 6.58251 59.8741 6.68114C57.2647 6.77489 54.0406 8.59422 53.5425 13.4131C53.5381 13.457 53.5362 13.5014 53.5362 13.5464L53.5503 16.5117L53.5162 42.893H49.8087L49.793 34.1601C49.7921 33.476 49.2369 32.9223 48.5528 32.9223C48.5523 32.9223 48.5513 32.9223 48.5508 32.9223C47.8653 32.9238 47.3111 33.4799 47.3126 34.1645L47.3106 42.893H45.5372C44.8526 42.893 44.2969 43.4486 44.2969 44.1332V53.868C43.2628 53.1053 41.9893 52.6634 40.6329 52.6634C38.5221 52.6634 36.5685 53.7509 35.4444 55.494C32.9171 55.4466 31.3981 56.5311 30.5519 57.5028C29.482 58.7318 29.0255 60.2987 28.9093 61.5189H25.8654C25.1808 61.5189 24.6251 62.0741 24.6251 62.7591C24.6251 63.4437 25.1808 63.9989 25.8654 63.9989H30.1461C30.1544 63.9989 30.1632 63.9998 30.172 63.9998C30.1778 63.9998 30.1837 63.9989 30.1896 63.9989H73.4033C73.4053 63.9989 73.4077 63.9994 73.4102 63.9994C73.4121 63.9994 73.4136 63.9989 73.415 63.9989H78.0093C78.6943 63.9989 79.25 63.4437 79.25 62.7591C79.2495 62.0736 78.6943 61.5184 78.0093 61.5184ZM68.6289 22.5063C67.0571 22.5063 65.7149 21.5048 65.2066 20.1064H72.0552C71.542 21.5268 70.1836 22.5063 68.6289 22.5063ZM68.6289 12.5669C69.9312 12.5669 71.2139 12.8501 72.3369 13.3852C74.25 14.2998 75.5806 15.8393 76.0068 17.6264H61.2549C61.9439 14.7446 64.9883 12.5669 68.6289 12.5669ZM31.4005 61.5184C31.5021 60.807 31.7848 59.848 32.4469 59.1034C33.2428 58.2084 34.4435 57.8417 36.0152 58.0135C36.5475 58.0707 37.0553 57.7826 37.2779 57.2967C37.8766 55.9886 39.1934 55.1429 40.6324 55.1429C42.316 55.1429 43.7852 56.2797 44.2056 57.9071C44.3472 58.4549 44.8414 58.8373 45.4068 58.8373H45.4122C46.1241 58.8319 46.8321 59.1878 47.3697 59.8085C47.7882 60.2914 48.0611 60.891 48.1651 61.5184H31.4005ZM54.3379 58.1971C53.5181 59.1419 53.0274 60.3045 52.9107 61.5184H50.6675C50.5538 60.2977 50.065 59.1302 49.2452 58.1844C48.5626 57.3968 47.7037 56.8387 46.7774 56.5599V45.3729H56.96V56.5223C55.9761 56.7875 55.0596 57.3656 54.3379 58.1971ZM55.4107 61.5184C55.5147 60.8993 55.7876 60.3114 56.2115 59.8226C56.7554 59.1957 57.4742 58.8373 58.1856 58.8373H58.2002C58.7657 58.8373 59.2598 58.4549 59.4009 57.9071C59.8213 56.2797 61.291 55.1429 62.9746 55.1429C64.4136 55.1429 65.7305 55.9886 66.3291 57.2967C66.5513 57.7826 67.0606 58.0707 67.5918 58.0135C69.2998 57.8265 70.5855 58.2587 71.4121 59.2962C71.9961 60.0287 72.2285 60.8983 72.293 61.5184H55.4107Z" fill="url(#paint3_linear_107_646)"/>
<path d="M48.5522 30.4554C49.2373 30.4554 49.793 29.9003 49.793 29.2152V29.1908C49.793 28.5057 49.2373 27.9506 48.5522 27.9506C47.8677 27.9506 47.312 28.5057 47.312 29.1908V29.2152C47.312 29.9003 47.8677 30.4554 48.5522 30.4554Z" fill="url(#paint4_linear_107_646)"/>
</g>
<defs>
<linearGradient id="paint0_linear_107_646" x1="69.634" y1="31.1276" x2="68.2884" y2="31.1276" gradientUnits="userSpaceOnUse">
<stop stop-color="#A268F9"/>
<stop offset="1" stop-color="#B88BFB"/>
</linearGradient>
<linearGradient id="paint1_linear_107_646" x1="77.0804" y1="29.4107" x2="74.416" y2="29.4107" gradientUnits="userSpaceOnUse">
<stop stop-color="#A268F9"/>
<stop offset="1" stop-color="#B88BFB"/>
</linearGradient>
<linearGradient id="paint2_linear_107_646" x1="64.6669" y1="29.4107" x2="62.0027" y2="29.4107" gradientUnits="userSpaceOnUse">
<stop stop-color="#A268F9"/>
<stop offset="1" stop-color="#B88BFB"/>
</linearGradient>
<linearGradient id="paint3_linear_107_646" x1="78.0927" y1="31.9999" x2="48.4656" y2="31.9999" gradientUnits="userSpaceOnUse">
<stop stop-color="#A268F9"/>
<stop offset="1" stop-color="#B88BFB"/>
</linearGradient>
<linearGradient id="paint4_linear_107_646" x1="49.7404" y1="29.203" x2="48.3948" y2="29.203" gradientUnits="userSpaceOnUse">
<stop stop-color="#A268F9"/>
<stop offset="1" stop-color="#B88BFB"/>
</linearGradient>
<clipPath id="clip0_107_646">
<rect width="64" height="64" fill="white" transform="translate(20)"/>
</clipPath>
</defs>
</svg>
