<svg width="84" height="74" viewBox="0 0 84 74" fill="none" xmlns="http://www.w3.org/2000/svg">
<circle cx="32" cy="42" r="32" fill="#F4E19C" fill-opacity="0.5"/>
<path d="M37.1564 50.498V54.8742C37.1564 56.4427 38.4324 57.7189 40.0009 57.7189H63.9991C65.5676 57.7189 66.8436 56.4427 66.8436 54.8742V50.498C66.8436 48.9315 65.5676 47.6569 63.9991 47.6569H40.0009C38.4324 47.657 37.1564 48.9315 37.1564 50.498ZM64.3436 50.498V54.8742C64.3436 55.061 64.1859 55.2189 63.9991 55.2189H40.0009C39.8109 55.2189 39.6564 55.0644 39.6564 54.8742V50.498C39.6564 50.3131 39.8141 50.1569 40.0009 50.1569H63.9991C64.1859 50.157 64.3436 50.3132 64.3436 50.498Z" fill="url(#paint0_linear_105_484)"/>
<path d="M80.6879 35.3433H80.06V30.0306C80.06 30.028 80.06 30.0259 80.06 30.0233C80.06 30.0216 80.06 30.0199 80.06 30.0182C80.0596 29.9029 80.0536 29.8404 80.0405 29.8158C80.0041 29.6061 79.9149 29.4029 79.7684 29.228L76.8611 25.7569C77.7648 24.3109 77.6861 22.3865 76.5326 21.0095L75.3689 19.623C74.679 18.7966 73.7051 18.2885 72.6265 18.1924C71.5452 18.096 70.4944 18.425 69.6664 19.1186C69.666 19.119 69.6655 19.1194 69.665 19.1199C67.9561 20.556 67.7335 23.1136 69.1669 24.8194L70.3296 26.209C71.0221 27.0356 71.9977 27.5434 73.0765 27.6384C73.1984 27.6491 73.3196 27.6545 73.4404 27.6545C73.9619 27.6545 74.4709 27.5548 74.9456 27.3634L77.5601 30.485V35.3434H67.508C67.408 28.323 66.3516 24.8355 61.2998 22.413L59.2938 20.3604C60.7716 18.8689 61.8089 17.0325 61.8089 15.0983V12.0542V9.81112C61.8088 4.40125 57.4077 0 51.9981 0C46.5885 0 42.1877 4.40125 42.1877 9.81112V12.0541V15.0981C42.1877 17.033 43.2256 18.8697 44.7043 20.3615L42.6973 22.4126C37.645 24.8352 36.5886 28.3228 36.4886 35.3433H26.4365V30.4849L29.051 27.3633C29.5259 27.5546 30.0351 27.6544 30.5569 27.6544C30.6792 27.6544 30.8022 27.6489 30.9256 27.6379C32.0044 27.5417 32.9784 27.0338 33.6663 26.2096L34.8313 24.8214C35.5241 23.9969 35.8537 22.9485 35.7594 21.8692C35.6649 20.7885 35.1572 19.8118 34.33 19.1186C33.5034 18.4261 32.454 18.0971 31.3756 18.192C30.2969 18.287 29.3214 18.7946 28.6295 19.6205L27.4616 21.0121C26.3138 22.3874 26.2359 24.3098 27.1365 25.7555L24.228 29.2281C24.0515 29.4389 23.9576 29.6909 23.9404 29.9456C23.9385 29.9649 23.9372 29.9864 23.9367 30.0104C23.9366 30.0154 23.9364 30.0204 23.9364 30.0254C23.9364 30.0273 23.9362 30.0287 23.9362 30.0308V35.3434H23.3119C21.4859 35.3433 20 36.8291 20 38.6555V40.81C20 42.6364 21.4859 44.1222 23.3121 44.1222H24.8429L29.3816 61.8887C29.498 62.3491 29.8524 63.75 31.4722 63.75H72.5276C74.1365 63.75 74.4979 62.3541 74.6175 61.8918L79.157 44.1224H80.6879C82.5141 44.1224 84 42.6365 84 40.8101V38.6556C84 36.8291 82.5141 35.3433 80.6879 35.3433ZM74.4248 24.7954C74.1099 25.0592 73.7096 25.1841 73.2956 25.1479C72.8822 25.1115 72.5094 24.9181 72.2463 24.604L71.0822 23.2129C70.5341 22.5606 70.6196 21.5833 71.2728 21.0339C71.5879 20.7703 71.9897 20.6449 72.4043 20.6822C72.8169 20.719 73.1881 20.9118 73.4515 21.2274L74.6165 22.6155C75.1646 23.2699 75.0786 24.2476 74.4248 24.7954ZM29.379 22.6168L30.5455 21.2269C30.809 20.9121 31.1819 20.7189 31.5951 20.6825C31.6421 20.6784 31.6889 20.6763 31.7354 20.6763C32.0985 20.6763 32.4454 20.8013 32.7244 21.035C33.0394 21.2987 33.2326 21.6725 33.2689 22.0871C33.305 22.5005 33.1803 22.9004 32.9169 23.2138L31.7491 24.6054C31.4877 24.9185 31.1164 25.1112 30.7037 25.148C30.2887 25.1855 29.8869 25.0597 29.5729 24.7967C28.9205 24.2481 28.8344 23.2691 29.379 22.6168ZM51.9981 2.5C56.0291 2.5 59.3086 5.77975 59.3086 9.81112V10.7491C56.8071 10.536 54.745 9.74362 52.8955 9.033C51.2358 8.39513 49.6184 7.77362 48.0191 7.77362C46.924 7.77362 45.8372 8.06525 44.7514 8.84275C45.2267 5.26737 48.2954 2.5 51.9981 2.5ZM44.6877 15.0981V12.4531C46.9144 9.41288 48.5486 10.0407 51.9988 11.3666C53.9643 12.1219 56.353 13.0389 59.3086 13.256V15.0983C59.3086 18.1691 54.5547 21.4172 51.9981 21.4172C49.4416 21.4171 44.6877 18.1691 44.6877 15.0981ZM58.7654 23.3966L55.3309 26.5644L53.8722 23.6296C55.0117 23.3074 56.2295 22.7275 57.3605 21.9592L58.7654 23.3966ZM50.124 23.6295L48.6655 26.5643L45.2315 23.397L46.6374 21.9601C47.768 22.728 48.9851 23.3075 50.124 23.6295ZM43.2216 24.9444L48.1956 29.532C48.4285 29.7469 48.7319 29.8631 49.0431 29.8631C49.1185 29.8631 49.1944 29.8562 49.2698 29.8424C49.6567 29.7711 49.9875 29.5217 50.1626 29.1694L51.9982 25.4757L53.834 29.1694C54.009 29.5217 54.3399 29.771 54.7269 29.8424C55.1143 29.9137 55.5116 29.7985 55.801 29.532L60.775 24.9444C63.9999 26.6581 64.9121 28.9224 65.0081 35.3433H38.9886C39.0846 28.9224 39.9969 26.6581 43.2216 24.9444ZM81.5 40.81C81.5 41.2579 81.1357 41.6222 80.6879 41.6222H57.6071C56.9169 41.6222 56.3571 42.182 56.3571 42.8722C56.3571 43.5625 56.9169 44.1222 57.6071 44.1222H76.5768L72.2012 61.25L31.7987 61.2499L27.4231 44.1224H46.3786C47.0689 44.1224 47.6286 43.5626 47.6286 42.8724C47.6286 42.1821 47.0689 41.6224 46.3786 41.6224H23.3121C22.872 41.6224 22.5 41.2504 22.5 40.8101V38.6556C22.5 38.2154 22.872 37.8434 23.3121 37.8434H80.6879C81.128 37.8434 81.5 38.2154 81.5 38.6556V40.81Z" fill="url(#paint1_linear_105_484)"/>
<path d="M51.9946 44.1223H51.9981C52.6884 44.1223 53.2464 43.5626 53.2464 42.8723C53.2464 42.1821 52.6849 41.6223 51.9945 41.6223C51.3041 41.6223 50.7445 42.1821 50.7445 42.8723C50.7445 43.5626 51.3044 44.1223 51.9946 44.1223Z" fill="url(#paint2_linear_105_484)"/>
<defs>
<linearGradient id="paint0_linear_105_484" x1="66.2147" y1="52.6879" x2="50.1131" y2="52.6879" gradientUnits="userSpaceOnUse">
<stop stop-color="#A268F9"/>
<stop offset="1" stop-color="#B88BFB"/>
</linearGradient>
<linearGradient id="paint1_linear_105_484" x1="82.6441" y1="31.875" x2="47.9322" y2="31.875" gradientUnits="userSpaceOnUse">
<stop stop-color="#A268F9"/>
<stop offset="1" stop-color="#B88BFB"/>
</linearGradient>
<linearGradient id="paint2_linear_105_484" x1="53.1934" y1="42.8723" x2="51.8364" y2="42.8723" gradientUnits="userSpaceOnUse">
<stop stop-color="#A268F9"/>
<stop offset="1" stop-color="#B88BFB"/>
</linearGradient>
</defs>
</svg>
