<svg width="84" height="74" viewBox="0 0 84 74" fill="none" xmlns="http://www.w3.org/2000/svg">
<circle cx="32" cy="42" r="32" fill="#F4E19C" fill-opacity="0.5"/>
<path d="M82.2051 31.8773H79.1161V26.5396C79.1161 25.7636 78.4871 25.1346 77.7111 25.1346H69.3809C68.5844 21.4076 66.5961 18.0145 63.7 15.4795C60.805 12.9455 57.176 11.4306 53.3609 11.1383V9.48337H61.8788C62.6548 9.48337 63.2838 8.85437 63.2838 8.07837V1.405C63.2838 0.629 62.6548 0 61.8788 0H51.9559C51.1799 0 50.5509 0.629 50.5509 1.405V4.87063V8.0785V11.1454C46.768 11.4541 43.1726 12.9653 40.3 15.4796C37.4039 18.0146 35.4155 21.4076 34.6191 25.1348H26.289C25.513 25.1348 24.884 25.7637 24.884 26.5397V31.8774H21.795C21.019 31.8774 20.39 32.5064 20.39 33.2824V62.595C20.39 63.371 21.019 64 21.795 64H47.419H56.581H82.205C82.981 64 83.61 63.371 83.61 62.595V33.2822C83.61 32.5062 82.9811 31.8773 82.2051 31.8773ZM53.361 4.8705V2.80988H60.474V6.6735H53.361V4.8705ZM52.0001 13.8951C58.8556 13.8951 64.8219 18.6252 66.4953 25.1348H37.5049C39.1785 18.6252 45.1448 13.8951 52.0001 13.8951ZM27.694 27.9445H35.7955H68.2049H76.3064V31.8773H27.694V27.9445ZM55.1761 61.1901H48.8241V50.6586H55.1761V61.1901ZM80.8001 61.1901H63.9423V43.2554C63.9423 42.4794 63.3133 41.8504 62.5373 41.8504C61.7613 41.8504 61.1323 42.4794 61.1323 43.2554V61.1901H57.986V49.2537C57.986 48.4777 57.357 47.8488 56.581 47.8488H47.419C46.643 47.8488 46.014 48.4777 46.014 49.2537V61.1901H42.8678V43.2554C42.8678 42.4794 42.2388 41.8504 41.4628 41.8504C40.6868 41.8504 40.0578 42.4794 40.0578 43.2554V61.1901H23.2V34.6871H26.2891H77.7111H80.8003V61.1901H80.8001Z" fill="url(#paint0_linear_107_734)"/>
<path d="M63.9155 38.3448C63.8971 38.255 63.8691 38.1662 63.834 38.0821C63.7988 37.9964 63.7553 37.9149 63.7047 37.8391C63.6541 37.7619 63.5951 37.6902 63.5304 37.6256C63.4658 37.561 63.3942 37.502 63.317 37.4513C63.2411 37.4007 63.1596 37.3572 63.074 37.3221C62.9897 37.287 62.9012 37.2602 62.8112 37.242C62.6299 37.2055 62.4446 37.2055 62.2633 37.242C62.1734 37.2602 62.085 37.287 62.0006 37.3221C61.9148 37.3572 61.8335 37.4007 61.7576 37.4513C61.6803 37.502 61.6087 37.561 61.5441 37.6256C61.4795 37.6902 61.4205 37.7619 61.3698 37.8391C61.3192 37.915 61.2757 37.9965 61.2406 38.0821C61.2054 38.1664 61.1773 38.2548 61.1604 38.3448C61.1422 38.4347 61.1323 38.5275 61.1323 38.6188C61.1323 38.7102 61.1422 38.8028 61.1604 38.8942C61.1773 38.9827 61.2054 39.0712 61.2406 39.157C61.2757 39.2412 61.3192 39.3227 61.3698 39.3986C61.4205 39.4758 61.4795 39.5475 61.5441 39.6121C61.6087 39.6767 61.6803 39.7357 61.7576 39.7877C61.8335 39.8383 61.915 39.8818 62.0006 39.917C62.0848 39.9521 62.1734 39.9788 62.2633 39.9971C62.3532 40.0153 62.446 40.0239 62.5373 40.0239C62.6287 40.0239 62.7213 40.0155 62.8113 39.9971C62.9013 39.9787 62.9897 39.9521 63.0741 39.917C63.1598 39.8818 63.2413 39.8383 63.3171 39.7877C63.3943 39.7357 63.4659 39.6767 63.5306 39.6121C63.5952 39.5475 63.6542 39.4758 63.7048 39.3986C63.7555 39.3227 63.799 39.2412 63.8341 39.157C63.8692 39.0712 63.8973 38.9827 63.9156 38.8942C63.9338 38.8028 63.9423 38.7102 63.9423 38.6188C63.9422 38.5275 63.9337 38.4347 63.9155 38.3448Z" fill="url(#paint1_linear_107_734)"/>
<path d="M42.8399 38.3448C42.8229 38.255 42.7949 38.1662 42.7597 38.0821C42.7246 37.9964 42.6811 37.9149 42.6305 37.8391C42.5799 37.7619 42.5209 37.6902 42.4562 37.6256C42.3916 37.561 42.32 37.502 42.2427 37.4513C42.1669 37.4007 42.0854 37.3572 42.0011 37.3221C41.9154 37.287 41.8269 37.2602 41.737 37.242C41.5571 37.2055 41.3702 37.2055 41.1891 37.242C41.0992 37.2602 41.0107 37.287 40.9264 37.3221C40.8406 37.3572 40.7592 37.4007 40.6834 37.4513C40.6061 37.502 40.5345 37.561 40.4699 37.6256C40.4052 37.6902 40.3462 37.7619 40.2956 37.8391C40.245 37.915 40.2015 37.9965 40.1664 38.0821C40.1312 38.1664 40.1031 38.2548 40.0862 38.3448C40.068 38.4347 40.0581 38.5275 40.0581 38.6188C40.0581 38.9897 40.2085 39.3508 40.4697 39.6121C40.5344 39.6767 40.606 39.7357 40.6832 39.7877C40.7591 39.8383 40.8406 39.8818 40.9262 39.917C41.0105 39.9521 41.099 39.9788 41.189 39.9971C41.2789 40.0153 41.3716 40.0239 41.463 40.0239C41.5544 40.0239 41.647 40.0155 41.737 39.9971C41.827 39.9787 41.9154 39.9521 42.0011 39.917C42.0854 39.8818 42.1669 39.8383 42.2427 39.7877C42.32 39.7357 42.3916 39.6767 42.4562 39.6121C42.7176 39.3507 42.8679 38.9897 42.8679 38.6188C42.868 38.5275 42.8581 38.4347 42.8399 38.3448Z" fill="url(#paint2_linear_107_734)"/>
<path d="M36.1072 36.8647H28.1689C27.3929 36.8647 26.7639 37.4937 26.7639 38.2697V44.311C26.7639 45.087 27.3929 45.716 28.1689 45.716H36.1072C36.8832 45.716 37.5122 45.087 37.5122 44.311V38.2697C37.5121 37.4937 36.8832 36.8647 36.1072 36.8647ZM34.7022 42.906H29.5737V39.6746H34.7022V42.906Z" fill="url(#paint3_linear_107_734)"/>
<path d="M36.1072 49.3967H28.1689C27.3929 49.3967 26.7639 50.0257 26.7639 50.8017V56.843C26.7639 57.619 27.3929 58.248 28.1689 58.248H36.1072C36.8832 58.248 37.5122 57.619 37.5122 56.843V50.8017C37.5121 50.0257 36.8832 49.3967 36.1072 49.3967ZM34.7022 55.438H29.5737V52.2066H34.7022V55.438Z" fill="url(#paint4_linear_107_734)"/>
<path d="M55.9694 36.8647H48.0309C47.2549 36.8647 46.6259 37.4937 46.6259 38.2697V44.311C46.6259 45.087 47.2549 45.716 48.0309 45.716H55.9694C56.7454 45.716 57.3744 45.087 57.3744 44.311V38.2697C57.3744 37.4937 56.7454 36.8647 55.9694 36.8647ZM54.5645 42.906H49.4359V39.6746H54.5645V42.906Z" fill="url(#paint5_linear_107_734)"/>
<path d="M75.8313 36.8647H67.8929C67.1169 36.8647 66.4879 37.4937 66.4879 38.2697V44.311C66.4879 45.087 67.1169 45.716 67.8929 45.716H75.8313C76.6073 45.716 77.2363 45.087 77.2363 44.311V38.2697C77.2363 37.4937 76.6073 36.8647 75.8313 36.8647ZM74.4264 42.906H69.2979V39.6746H74.4264V42.906Z" fill="url(#paint6_linear_107_734)"/>
<path d="M75.8313 49.3967H67.8929C67.1169 49.3967 66.4879 50.0257 66.4879 50.8017V56.843C66.4879 57.619 67.1169 58.248 67.8929 58.248H75.8313C76.6073 58.248 77.2363 57.619 77.2363 56.843V50.8017C77.2363 50.0257 76.6073 49.3967 75.8313 49.3967ZM74.4264 55.438H69.2979V52.2066H74.4264V55.438Z" fill="url(#paint7_linear_107_734)"/>
<defs>
<linearGradient id="paint0_linear_107_734" x1="82.2706" y1="32" x2="47.9818" y2="32" gradientUnits="userSpaceOnUse">
<stop stop-color="#A268F9"/>
<stop offset="1" stop-color="#B88BFB"/>
</linearGradient>
<linearGradient id="paint1_linear_107_734" x1="63.8828" y1="38.6192" x2="62.3587" y2="38.6192" gradientUnits="userSpaceOnUse">
<stop stop-color="#A268F9"/>
<stop offset="1" stop-color="#B88BFB"/>
</linearGradient>
<linearGradient id="paint2_linear_107_734" x1="42.8083" y1="38.6192" x2="41.2844" y2="38.6192" gradientUnits="userSpaceOnUse">
<stop stop-color="#A268F9"/>
<stop offset="1" stop-color="#B88BFB"/>
</linearGradient>
<linearGradient id="paint3_linear_107_734" x1="37.2845" y1="41.2904" x2="31.4549" y2="41.2904" gradientUnits="userSpaceOnUse">
<stop stop-color="#A268F9"/>
<stop offset="1" stop-color="#B88BFB"/>
</linearGradient>
<linearGradient id="paint4_linear_107_734" x1="37.2845" y1="53.8224" x2="31.4549" y2="53.8224" gradientUnits="userSpaceOnUse">
<stop stop-color="#A268F9"/>
<stop offset="1" stop-color="#B88BFB"/>
</linearGradient>
<linearGradient id="paint5_linear_107_734" x1="57.1466" y1="41.2904" x2="51.3169" y2="41.2904" gradientUnits="userSpaceOnUse">
<stop stop-color="#A268F9"/>
<stop offset="1" stop-color="#B88BFB"/>
</linearGradient>
<linearGradient id="paint6_linear_107_734" x1="77.0086" y1="41.2904" x2="71.1789" y2="41.2904" gradientUnits="userSpaceOnUse">
<stop stop-color="#A268F9"/>
<stop offset="1" stop-color="#B88BFB"/>
</linearGradient>
<linearGradient id="paint7_linear_107_734" x1="77.0086" y1="53.8224" x2="71.1789" y2="53.8224" gradientUnits="userSpaceOnUse">
<stop stop-color="#A268F9"/>
<stop offset="1" stop-color="#B88BFB"/>
</linearGradient>
</defs>
</svg>
