<svg width="84" height="74" viewBox="0 0 84 74" fill="none" xmlns="http://www.w3.org/2000/svg">
<circle cx="32" cy="42" r="32" fill="#F4E19C" fill-opacity="0.5"/>
<path d="M81.875 31.7604H78.125V24.2709C78.125 22.1121 77.0247 20.2057 75.3558 19.0825L56.6394 0.366125C56.1512 -0.121875 55.3596 -0.121875 54.8716 0.366125L51.064 4.17362L47.2565 0.366125C47.0221 0.13175 46.7041 0 46.3726 0C46.0411 0 45.7231 0.13175 45.4888 0.366125L27.8339 18.0209H27.125C23.6788 18.0209 20.875 20.8246 20.875 24.2709V35.3854C20.875 36.0756 21.4346 36.6354 22.125 36.6354C22.8154 36.6354 23.375 36.0756 23.375 35.3854V24.2709C23.375 22.2031 25.0573 20.5209 27.125 20.5209H71.875C73.9427 20.5209 75.625 22.2031 75.625 24.2709V31.7604H56.625C51.5245 31.7604 47.375 35.9099 47.375 41.0104C47.375 46.1109 51.5245 50.2604 56.625 50.2604H75.625V57.75C75.625 59.8177 73.9427 61.5 71.875 61.5H27.125C25.0573 61.5 23.375 59.8177 23.375 57.75V46.6354C23.375 45.945 22.8154 45.3854 22.125 45.3854C21.4346 45.3854 20.875 45.945 20.875 46.6354V57.75C20.875 61.1963 23.6788 64 27.125 64H71.875C75.3213 64 78.125 61.1963 78.125 57.75V50.2604H81.875C82.5654 50.2604 83.125 49.7006 83.125 49.0104V33.0104C83.125 32.32 82.5654 31.7604 81.875 31.7604ZM31.3695 18.0209L46.3726 3.01787L49.2961 5.9415L37.2166 18.021H31.3695V18.0209ZM40.7524 18.0209L55.7554 3.01787L70.7585 18.0209H40.7524ZM80.625 47.7604H56.625C52.903 47.7604 49.875 44.7323 49.875 41.0104C49.875 37.2885 52.903 34.2604 56.625 34.2604H80.625V47.7604Z" fill="url(#paint0_linear_107_1236)"/>
<path d="M56.625 37.2604C54.5573 37.2604 52.875 38.9426 52.875 41.0104C52.875 43.0781 54.5573 44.7604 56.625 44.7604C58.6927 44.7604 60.375 43.0781 60.375 41.0104C60.375 38.9426 58.6927 37.2604 56.625 37.2604ZM56.625 42.2604C55.9358 42.2604 55.375 41.6996 55.375 41.0104C55.375 40.3211 55.9358 39.7604 56.625 39.7604C57.3142 39.7604 57.875 40.3211 57.875 41.0104C57.875 41.6996 57.3142 42.2604 56.625 42.2604Z" fill="url(#paint1_linear_107_1236)"/>
<path d="M22.125 42.26C22.4538 42.26 22.7763 42.1274 23.0087 41.8936C23.2413 41.6613 23.375 41.3388 23.375 41.01C23.375 40.6813 23.2413 40.3588 23.0087 40.1263C22.7763 39.8938 22.4538 39.76 22.125 39.76C21.7962 39.76 21.4738 39.8936 21.2413 40.1263C21.0088 40.3588 20.875 40.6813 20.875 41.01C20.875 41.3388 21.0088 41.6613 21.2413 41.8936C21.4738 42.1275 21.7962 42.26 22.125 42.26Z" fill="url(#paint2_linear_107_1236)"/>
<defs>
<linearGradient id="paint0_linear_107_1236" x1="81.8061" y1="32" x2="48.0434" y2="32" gradientUnits="userSpaceOnUse">
<stop stop-color="#A268F9"/>
<stop offset="1" stop-color="#B88BFB"/>
</linearGradient>
<linearGradient id="paint1_linear_107_1236" x1="60.2161" y1="41.0104" x2="56.1483" y2="41.0104" gradientUnits="userSpaceOnUse">
<stop stop-color="#A268F9"/>
<stop offset="1" stop-color="#B88BFB"/>
</linearGradient>
<linearGradient id="paint2_linear_107_1236" x1="23.322" y1="41.01" x2="21.9661" y2="41.01" gradientUnits="userSpaceOnUse">
<stop stop-color="#A268F9"/>
<stop offset="1" stop-color="#B88BFB"/>
</linearGradient>
</defs>
</svg>
