<svg width="82" height="74" viewBox="0 0 82 74" fill="none" xmlns="http://www.w3.org/2000/svg">
<circle cx="32" cy="42" r="32" fill="#F4E19C" fill-opacity="0.5"/>
<g clip-path="url(#clip0_125_81)">
<path d="M70.5293 48.6333C76.8545 48.6333 82 43.4878 82 37.1626C82 32.8828 79.5781 28.959 75.8486 26.999C76.5327 25.5068 76.8896 23.8789 76.8896 22.2202C76.8896 15.8955 71.7441 10.75 65.4194 10.75C62.6465 10.75 60.0405 11.7295 58 13.4658V7.4751C58.5703 7.35889 59 6.85449 59 6.25V1.25C59 0.55957 58.4404 0 57.75 0H19.25C18.5596 0 18 0.55957 18 1.25V6.25C18 6.85449 18.4297 7.35889 19 7.4751V62.75C19 63.4404 19.5596 64 20.25 64H69.2456C69.6157 64 69.9663 63.8364 70.2041 63.5527C70.9731 62.6343 71.397 61.4688 71.397 60.2705C71.397 57.5811 69.3091 55.3711 66.6694 55.1729V47.9653C67.9019 48.4048 69.209 48.6333 70.5293 48.6333ZM65.4194 13.25C70.3657 13.25 74.3896 17.2739 74.3896 22.2207C74.3896 23.8901 73.9277 25.5195 73.0537 26.9326C72.8569 27.2505 72.8125 27.6401 72.9336 27.9941C73.0542 28.3481 73.3271 28.6294 73.6777 28.7607C77.1602 30.0659 79.5 33.4429 79.5 37.1626C79.5 42.1089 75.4761 46.1333 70.5293 46.1333C69.1895 46.1333 67.8687 45.8325 66.6694 45.2612V41.0181L72.3433 35.3438C72.8315 34.8555 72.8315 34.064 72.3433 33.5757C71.8555 33.0879 71.064 33.0879 70.5757 33.5757L66.6694 37.4824V34.501C66.6694 34.5005 66.6694 34.5 66.6694 34.4995V25.542C66.6694 24.8516 66.1094 24.292 65.4194 24.292C64.729 24.292 64.1694 24.8516 64.1694 25.542V31.4824L63.1353 30.4482C62.647 29.9604 61.856 29.9604 61.3672 30.4482C60.8794 30.9365 60.8794 31.728 61.3672 32.2163L64.1694 35.0181V40.4995V40.501V45.2612C62.9697 45.8325 61.6489 46.1333 60.3091 46.1333C59.5225 46.1333 58.749 46.0317 58 45.8325V17.1772C59.6763 14.7119 62.4238 13.25 65.4194 13.25ZM64.1694 54.0688C62.9004 52.6621 61.0728 51.8125 59.0884 51.8125C58.7197 51.8125 58.3564 51.8428 58 51.8999V48.3979C58.7559 48.5527 59.5273 48.6333 60.3091 48.6333C61.6299 48.6333 62.9365 48.4048 64.1694 47.9653V54.0688ZM21.5 7.5H32.8335C33.5234 7.5 34.0835 6.94043 34.0835 6.25C34.0835 5.55957 33.5234 5 32.8335 5H20.5V2.5H56.5V5H44.083C43.3931 5 42.833 5.55957 42.833 6.25C42.833 6.94043 43.3931 7.5 44.083 7.5H55.5V52.8296C54.5615 53.4077 53.7632 54.2114 53.1899 55.1855C53.1265 55.1924 53.063 55.2012 53 55.2104V49C53 48.3096 52.4404 47.75 51.75 47.75H46.25C45.5596 47.75 45 48.3096 45 49V56C45 56.6904 45.5596 57.25 46.25 57.25H49.6128C48.9907 58.0972 48.6221 59.1411 48.6221 60.2705C48.6221 60.6875 48.6743 61.1001 48.7734 61.5H21.5V7.5ZM50.5 54.75H47.5V50.25H50.5V54.75ZM68.897 60.2705C68.897 60.7012 68.79 61.124 68.5894 61.5H51.4297C51.2295 61.124 51.1221 60.7012 51.1221 60.2705C51.1221 58.8296 52.2944 57.6572 53.7354 57.6572C53.7876 57.6572 53.8398 57.6592 53.8911 57.6621C54.4146 57.6919 54.8989 57.395 55.1089 56.9155C55.8013 55.3345 57.3633 54.3125 59.0884 54.3125C60.9653 54.3125 62.6221 55.5093 63.2114 57.291C63.3291 57.645 63.5981 57.9287 63.9458 58.0635C64.2935 58.1987 64.6836 58.1714 65.0093 57.9888C65.397 57.772 65.8374 57.6572 66.2837 57.6572C67.7246 57.6572 68.897 58.8296 68.897 60.2705Z" fill="url(#paint0_linear_125_81)"/>
<path d="M30.75 47.75H25.25C24.5596 47.75 24 48.3096 24 49V56C24 56.6904 24.5596 57.25 25.25 57.25H30.75C31.4404 57.25 32 56.6904 32 56V49C32 48.3096 31.4404 47.75 30.75 47.75ZM29.5 54.75H26.5V50.25H29.5V54.75Z" fill="url(#paint1_linear_125_81)"/>
<path d="M41.25 47.75H35.75C35.0596 47.75 34.5 48.3096 34.5 49V56C34.5 56.6904 35.0596 57.25 35.75 57.25H41.25C41.9404 57.25 42.5 56.6904 42.5 56V49C42.5 48.3096 41.9404 47.75 41.25 47.75ZM40 54.75H37V50.25H40V54.75Z" fill="url(#paint2_linear_125_81)"/>
<path d="M30.75 35.75H25.25C24.5596 35.75 24 36.3096 24 37V44C24 44.6904 24.5596 45.25 25.25 45.25H30.75C31.4404 45.25 32 44.6904 32 44V37C32 36.3096 31.4404 35.75 30.75 35.75ZM29.5 42.75H26.5V38.25H29.5V42.75Z" fill="url(#paint3_linear_125_81)"/>
<path d="M41.25 35.75H35.75C35.0596 35.75 34.5 36.3096 34.5 37V44C34.5 44.6904 35.0596 45.25 35.75 45.25H41.25C41.9404 45.25 42.5 44.6904 42.5 44V37C42.5 36.3096 41.9404 35.75 41.25 35.75ZM40 42.75H37V38.25H40V42.75Z" fill="url(#paint4_linear_125_81)"/>
<path d="M46.25 45.25H51.75C52.4404 45.25 53 44.6904 53 44V37C53 36.3096 52.4404 35.75 51.75 35.75H46.25C45.5596 35.75 45 36.3096 45 37V44C45 44.6904 45.5596 45.25 46.25 45.25ZM47.5 38.25H50.5V42.75H47.5V38.25Z" fill="url(#paint5_linear_125_81)"/>
<path d="M30.75 23.75H25.25C24.5596 23.75 24 24.3096 24 25V32C24 32.6904 24.5596 33.25 25.25 33.25H30.75C31.4404 33.25 32 32.6904 32 32V25C32 24.3096 31.4404 23.75 30.75 23.75ZM29.5 30.75H26.5V26.25H29.5V30.75Z" fill="url(#paint6_linear_125_81)"/>
<path d="M41.25 23.75H35.75C35.0596 23.75 34.5 24.3096 34.5 25V32C34.5 32.6904 35.0596 33.25 35.75 33.25H41.25C41.9404 33.25 42.5 32.6904 42.5 32V25C42.5 24.3096 41.9404 23.75 41.25 23.75ZM40 30.75H37V26.25H40V30.75Z" fill="url(#paint7_linear_125_81)"/>
<path d="M46.25 33.25H51.75C52.4404 33.25 53 32.6904 53 32V25C53 24.3096 52.4404 23.75 51.75 23.75H46.25C45.5596 23.75 45 24.3096 45 25V32C45 32.6904 45.5596 33.25 46.25 33.25ZM47.5 26.25H50.5V30.75H47.5V26.25Z" fill="url(#paint8_linear_125_81)"/>
<path d="M30.75 11.75H25.25C24.5596 11.75 24 12.3096 24 13V20C24 20.6904 24.5596 21.25 25.25 21.25H30.75C31.4404 21.25 32 20.6904 32 20V13C32 12.3096 31.4404 11.75 30.75 11.75ZM29.5 18.75H26.5V14.25H29.5V18.75Z" fill="url(#paint9_linear_125_81)"/>
<path d="M41.25 11.75H35.75C35.0596 11.75 34.5 12.3096 34.5 13V20C34.5 20.6904 35.0596 21.25 35.75 21.25H41.25C41.9404 21.25 42.5 20.6904 42.5 20V13C42.5 12.3096 41.9404 11.75 41.25 11.75ZM40 18.75H37V14.25H40V18.75Z" fill="url(#paint10_linear_125_81)"/>
<path d="M46.25 21.25H51.75C52.4404 21.25 53 20.6904 53 20V13C53 12.3096 52.4404 11.75 51.75 11.75H46.25C45.5596 11.75 45 12.3096 45 13V20C45 20.6904 45.5596 21.25 46.25 21.25ZM47.5 14.25H50.5V18.75H47.5V14.25Z" fill="url(#paint11_linear_125_81)"/>
<path d="M38.459 7.5C38.7876 7.5 39.1099 7.36621 39.3423 7.13379C39.5747 6.90137 39.709 6.57861 39.709 6.25C39.709 5.92139 39.5752 5.59863 39.3423 5.36621C39.1099 5.13379 38.7876 5 38.459 5C38.1284 5 37.8076 5.13379 37.5752 5.36621C37.3413 5.59863 37.209 5.92139 37.209 6.25C37.209 6.57861 37.3413 6.90137 37.5752 7.13379C37.8076 7.36621 38.1284 7.5 38.459 7.5Z" fill="url(#paint12_linear_125_81)"/>
</g>
<defs>
<linearGradient id="paint0_linear_125_81" x1="80.6441" y1="32" x2="45.9322" y2="32" gradientUnits="userSpaceOnUse">
<stop stop-color="#A268F9"/>
<stop offset="1" stop-color="#B88BFB"/>
</linearGradient>
<linearGradient id="paint1_linear_125_81" x1="31.8305" y1="52.5" x2="27.4915" y2="52.5" gradientUnits="userSpaceOnUse">
<stop stop-color="#A268F9"/>
<stop offset="1" stop-color="#B88BFB"/>
</linearGradient>
<linearGradient id="paint2_linear_125_81" x1="42.3305" y1="52.5" x2="37.9915" y2="52.5" gradientUnits="userSpaceOnUse">
<stop stop-color="#A268F9"/>
<stop offset="1" stop-color="#B88BFB"/>
</linearGradient>
<linearGradient id="paint3_linear_125_81" x1="31.8305" y1="40.5" x2="27.4915" y2="40.5" gradientUnits="userSpaceOnUse">
<stop stop-color="#A268F9"/>
<stop offset="1" stop-color="#B88BFB"/>
</linearGradient>
<linearGradient id="paint4_linear_125_81" x1="42.3305" y1="40.5" x2="37.9915" y2="40.5" gradientUnits="userSpaceOnUse">
<stop stop-color="#A268F9"/>
<stop offset="1" stop-color="#B88BFB"/>
</linearGradient>
<linearGradient id="paint5_linear_125_81" x1="52.8305" y1="40.5" x2="48.4915" y2="40.5" gradientUnits="userSpaceOnUse">
<stop stop-color="#A268F9"/>
<stop offset="1" stop-color="#B88BFB"/>
</linearGradient>
<linearGradient id="paint6_linear_125_81" x1="31.8305" y1="28.5" x2="27.4915" y2="28.5" gradientUnits="userSpaceOnUse">
<stop stop-color="#A268F9"/>
<stop offset="1" stop-color="#B88BFB"/>
</linearGradient>
<linearGradient id="paint7_linear_125_81" x1="42.3305" y1="28.5" x2="37.9915" y2="28.5" gradientUnits="userSpaceOnUse">
<stop stop-color="#A268F9"/>
<stop offset="1" stop-color="#B88BFB"/>
</linearGradient>
<linearGradient id="paint8_linear_125_81" x1="52.8305" y1="28.5" x2="48.4915" y2="28.5" gradientUnits="userSpaceOnUse">
<stop stop-color="#A268F9"/>
<stop offset="1" stop-color="#B88BFB"/>
</linearGradient>
<linearGradient id="paint9_linear_125_81" x1="31.8305" y1="16.5" x2="27.4915" y2="16.5" gradientUnits="userSpaceOnUse">
<stop stop-color="#A268F9"/>
<stop offset="1" stop-color="#B88BFB"/>
</linearGradient>
<linearGradient id="paint10_linear_125_81" x1="42.3305" y1="16.5" x2="37.9915" y2="16.5" gradientUnits="userSpaceOnUse">
<stop stop-color="#A268F9"/>
<stop offset="1" stop-color="#B88BFB"/>
</linearGradient>
<linearGradient id="paint11_linear_125_81" x1="52.8305" y1="16.5" x2="48.4915" y2="16.5" gradientUnits="userSpaceOnUse">
<stop stop-color="#A268F9"/>
<stop offset="1" stop-color="#B88BFB"/>
</linearGradient>
<linearGradient id="paint12_linear_125_81" x1="39.656" y1="6.25" x2="38.3001" y2="6.25" gradientUnits="userSpaceOnUse">
<stop stop-color="#A268F9"/>
<stop offset="1" stop-color="#B88BFB"/>
</linearGradient>
<clipPath id="clip0_125_81">
<rect width="64" height="64" fill="white" transform="translate(18)"/>
</clipPath>
</defs>
</svg>
