<svg width="84" height="74" viewBox="0 0 84 74" fill="none" xmlns="http://www.w3.org/2000/svg">
<circle cx="32" cy="42" r="32" fill="#F4E19C" fill-opacity="0.5"/>
<g clip-path="url(#clip0_107_767)">
<path d="M83.2629 23.5569L52.5962 8.22348C52.2209 8.03586 51.779 8.03586 51.4037 8.22348L20.7371 23.5569C20.2854 23.7827 20 24.2445 20 24.7494C20 25.2545 20.2854 25.7161 20.7371 25.9419L30.889 31.0177V41.207C30.889 47.4997 40.1621 52.4292 52.0001 52.4292C63.8381 52.4292 73.1111 47.5 73.1111 41.207V31.0177L76.6544 29.2461V38.9705C75.021 39.5271 73.8426 41.0752 73.8426 42.8946C73.8426 44.5441 74.8111 45.9711 76.2091 46.6382L73.3768 54.1111C73.2215 54.5209 73.2774 54.9807 73.5264 55.3412C73.7754 55.7017 74.1855 55.917 74.6236 55.917H81.3527C81.7909 55.917 82.201 55.7017 82.4501 55.3412C82.699 54.9807 82.7549 54.5209 82.5998 54.1112L79.7674 46.6384C81.1651 45.9712 82.1336 44.5442 82.1336 42.8947C82.1336 41.0752 80.9549 39.527 79.3213 38.9705V27.9129L83.2632 25.942C83.715 25.7161 84.0003 25.2544 84.0003 24.7495C84 24.2445 83.7146 23.7827 83.2629 23.5569ZM65.3886 47.0071C61.8348 48.784 57.0799 49.7627 52 49.7627C46.9201 49.7627 42.1654 48.7841 38.6114 47.0071C35.3985 45.4006 33.5556 43.2866 33.5556 41.2071V32.3512L51.4037 41.2754C51.5915 41.3692 51.7957 41.4161 52 41.4161C52.2043 41.4161 52.4085 41.3692 52.5962 41.2754L70.4444 32.3512V41.2071C70.4444 43.2866 68.6016 45.4006 65.3886 47.0071ZM76.5546 53.2506L77.988 49.469L79.4212 53.2506H76.5546ZM79.4665 42.8949C79.4666 43.7104 78.8032 44.3736 77.988 44.3736C77.1725 44.3736 76.5093 43.7102 76.5093 42.8949C76.5093 42.0816 77.1691 41.4201 77.9814 41.4165C77.9835 41.4165 77.9855 41.4167 77.9876 41.4167C77.9899 41.4167 77.992 41.4165 77.9941 41.4165C78.8065 41.42 79.4665 42.0815 79.4665 42.8949ZM77.717 25.7335L52.1195 23.422C51.3861 23.3552 50.7379 23.8966 50.6716 24.63C50.6054 25.3635 51.1462 26.0116 51.8796 26.0779L73.1811 28.0014L52 38.5921L24.3148 24.7494L52 10.9069L79.6852 24.7495L77.717 25.7335Z" fill="url(#paint0_linear_107_767)"/>
</g>
<defs>
<linearGradient id="paint0_linear_107_767" x1="82.6443" y1="31.9999" x2="47.9323" y2="31.9999" gradientUnits="userSpaceOnUse">
<stop stop-color="#A268F9"/>
<stop offset="1" stop-color="#B88BFB"/>
</linearGradient>
<clipPath id="clip0_107_767">
<rect width="64" height="64" fill="white" transform="translate(20)"/>
</clipPath>
</defs>
</svg>
