<svg width="84" height="74" viewBox="0 0 84 74" fill="none" xmlns="http://www.w3.org/2000/svg">
<circle cx="32" cy="42" r="32" fill="#F4E19C" fill-opacity="0.5"/>
<g clip-path="url(#clip0_103_292)">
<path d="M43.6329 26.1652C43.877 26.4093 44.1969 26.5313 44.5167 26.5313C44.8366 26.5313 45.1566 26.4093 45.4006 26.1652C45.8887 25.677 45.8887 24.8855 45.4006 24.3973C43.6379 22.6345 42.667 20.2909 42.667 17.798C42.667 15.3052 43.6379 12.9614 45.4006 11.1988C45.8887 10.7107 45.8887 9.91916 45.4006 9.43091C44.9125 8.94279 44.121 8.94279 43.6327 9.43091C41.3979 11.6659 40.167 14.6374 40.167 17.798C40.167 20.9587 41.398 23.9302 43.6329 26.1652Z" fill="url(#paint0_linear_103_292)"/>
<path d="M39.1078 30.6903C39.3519 30.9344 39.6718 31.0564 39.9917 31.0564C40.3116 31.0564 40.6316 30.9343 40.8756 30.6903C41.3637 30.2022 41.3637 29.4107 40.8756 28.9225C34.7414 22.7885 34.7414 12.8078 40.8756 6.67367C41.3637 6.18554 41.3637 5.39404 40.8756 4.90592C40.3874 4.41792 39.5959 4.41792 39.1077 4.90592C31.9991 12.0147 31.9991 23.5815 39.1078 30.6903Z" fill="url(#paint1_linear_103_292)"/>
<path d="M29.8474 17.7981C29.8474 11.881 32.1517 6.31784 36.3358 2.13384C36.8239 1.64572 36.8239 0.854219 36.3358 0.366094C35.8475 -0.122031 35.0562 -0.122031 34.5679 0.366094C29.9117 5.02234 27.3473 11.2132 27.3473 17.7982C27.3473 24.3832 29.9117 30.5741 34.5679 35.2303C34.812 35.4745 35.1319 35.5965 35.4518 35.5965C35.7717 35.5965 36.0917 35.4745 36.3357 35.2303C36.8238 34.7422 36.8238 33.9507 36.3357 33.4626C32.1517 29.2783 29.8474 23.7153 29.8474 17.7981Z" fill="url(#paint2_linear_103_292)"/>
<path d="M58.5993 26.1652C58.8434 26.4093 59.1632 26.5313 59.4831 26.5313C59.803 26.5313 60.123 26.4093 60.367 26.1652C62.6019 23.9302 63.8327 20.9587 63.8327 17.798C63.8327 14.6374 62.6019 11.6659 60.367 9.43091C59.8789 8.94279 59.0874 8.94279 58.5991 9.43091C58.111 9.91904 58.111 10.7105 58.5991 11.1988C60.3619 12.9615 61.3327 15.3052 61.3327 17.798C61.3327 20.2909 60.3619 22.6347 58.5991 24.3973C58.1113 24.8855 58.1113 25.677 58.5993 26.1652Z" fill="url(#paint3_linear_103_292)"/>
<path d="M63.1244 28.9225C62.6363 29.4107 62.6363 30.2022 63.1244 30.6903C63.3685 30.9344 63.6884 31.0564 64.0083 31.0564C64.3282 31.0564 64.6481 30.9343 64.8921 30.6903C72.0009 23.5815 72.0009 12.0147 64.8921 4.90592C64.404 4.41792 63.6125 4.41792 63.1243 4.90592C62.6361 5.39404 62.6361 6.18554 63.1243 6.67367C69.2585 12.8077 69.2585 22.7885 63.1244 28.9225Z" fill="url(#paint4_linear_103_292)"/>
<path d="M69.4322 0.366094C68.9441 -0.122031 68.1526 -0.122031 67.6643 0.366094C67.1762 0.854219 67.1762 1.64572 67.6643 2.13384C71.8484 6.31784 74.1527 11.881 74.1527 17.7981C74.1527 23.7152 71.8484 29.2783 67.6643 33.4623C67.1762 33.9505 67.1762 34.742 67.6643 35.2301C67.9084 35.4742 68.2283 35.5962 68.5482 35.5962C68.8681 35.5962 69.1881 35.4742 69.4321 35.2301C74.0883 30.5738 76.6527 24.383 76.6527 17.798C76.6527 11.213 74.0884 5.02234 69.4322 0.366094Z" fill="url(#paint5_linear_103_292)"/>
<path d="M60.3883 39.406C60.1989 38.7421 59.5074 38.3576 58.8434 38.5467C58.1796 38.7361 57.7948 39.4277 57.9842 40.0916L58.6019 42.2577H45.3982L50.8594 23.1083C51.2274 23.1873 51.6088 23.2298 52.0001 23.2298C52.3913 23.2298 52.7727 23.1873 53.1407 23.1083L54.8984 29.2717C55.0551 29.8211 55.5557 30.1792 56.0999 30.1792C56.2134 30.1792 56.3288 30.1636 56.4434 30.131C57.1073 29.9416 57.4921 29.25 57.3027 28.5861L55.4269 22.0087C56.6494 21.0118 57.4319 19.4948 57.4319 17.7981C57.4319 14.8031 54.9952 12.3663 52.0002 12.3663C49.0052 12.3663 46.5684 14.803 46.5684 17.7981C46.5684 19.4948 47.3509 21.0118 48.5734 22.0086L37.0523 62.4071C36.8997 62.9421 37.1192 63.5136 37.5906 63.8091C37.7948 63.9371 38.0251 64 38.2542 64C38.5539 64 38.8518 63.8925 39.0869 63.6825L52.0001 52.1541L64.9134 63.6825C65.1487 63.8925 65.4464 64 65.7462 64C65.9753 64 66.2056 63.9371 66.4098 63.8091C66.8812 63.5136 67.1006 62.9421 66.9481 62.4071L60.3883 39.406ZM52.0001 14.8665C53.6167 14.8665 54.9318 16.1816 54.9318 17.7982C54.9318 19.4148 53.6167 20.7298 52.0001 20.7298C50.3834 20.7298 49.0683 19.4147 49.0683 17.7981C49.0683 16.1815 50.3834 14.8665 52.0001 14.8665ZM56.5311 44.7577L52.0001 48.8028L47.4691 44.7577H56.5311ZM40.6391 58.9452L44.4883 45.4481L50.1231 50.4785L40.6391 58.9452ZM53.8771 50.4785L59.5118 45.4481L63.3611 58.9452L53.8771 50.4785Z" fill="url(#paint6_linear_103_292)"/>
<path d="M57.6362 35.5908C58.3266 35.5908 58.8862 35.0312 58.8862 34.3408C58.8862 33.6505 58.3266 33.0908 57.6362 33.0908C56.9459 33.0908 56.3862 33.6505 56.3862 34.3408C56.3862 35.0312 56.9459 35.5908 57.6362 35.5908Z" fill="url(#paint7_linear_103_292)"/>
</g>
<defs>
<linearGradient id="paint0_linear_103_292" x1="45.6481" y1="17.7981" x2="42.6109" y2="17.7981" gradientUnits="userSpaceOnUse">
<stop stop-color="#A268F9"/>
<stop offset="1" stop-color="#B88BFB"/>
</linearGradient>
<linearGradient id="paint1_linear_103_292" x1="41.0835" y1="17.7982" x2="37.0345" y2="17.7982" gradientUnits="userSpaceOnUse">
<stop stop-color="#A268F9"/>
<stop offset="1" stop-color="#B88BFB"/>
</linearGradient>
<linearGradient id="paint2_linear_103_292" x1="36.5037" y1="17.7982" x2="31.43" y2="17.7982" gradientUnits="userSpaceOnUse">
<stop stop-color="#A268F9"/>
<stop offset="1" stop-color="#B88BFB"/>
</linearGradient>
<linearGradient id="paint3_linear_103_292" x1="63.7141" y1="17.7981" x2="60.677" y2="17.7981" gradientUnits="userSpaceOnUse">
<stop stop-color="#A268F9"/>
<stop offset="1" stop-color="#B88BFB"/>
</linearGradient>
<linearGradient id="paint4_linear_103_292" x1="70.0655" y1="17.7982" x2="66.0164" y2="17.7982" gradientUnits="userSpaceOnUse">
<stop stop-color="#A268F9"/>
<stop offset="1" stop-color="#B88BFB"/>
</linearGradient>
<linearGradient id="paint5_linear_103_292" x1="76.4545" y1="17.7981" x2="71.3809" y2="17.7981" gradientUnits="userSpaceOnUse">
<stop stop-color="#A268F9"/>
<stop offset="1" stop-color="#B88BFB"/>
</linearGradient>
<linearGradient id="paint6_linear_103_292" x1="66.3606" y1="38.1831" x2="50.0939" y2="38.1831" gradientUnits="userSpaceOnUse">
<stop stop-color="#A268F9"/>
<stop offset="1" stop-color="#B88BFB"/>
</linearGradient>
<linearGradient id="paint7_linear_103_292" x1="58.8333" y1="34.3408" x2="57.4773" y2="34.3408" gradientUnits="userSpaceOnUse">
<stop stop-color="#A268F9"/>
<stop offset="1" stop-color="#B88BFB"/>
</linearGradient>
<clipPath id="clip0_103_292">
<rect width="64" height="64" fill="white" transform="translate(20)"/>
</clipPath>
</defs>
</svg>
