<svg width="84" height="74" viewBox="0 0 84 74" fill="none" xmlns="http://www.w3.org/2000/svg">
<circle cx="32" cy="42" r="32" fill="#F4E19C" fill-opacity="0.5"/>
<g clip-path="url(#clip0_107_777)">
<path d="M52 17.25C52.3286 17.25 52.6514 17.1162 52.8838 16.8838C53.1162 16.6514 53.25 16.3286 53.25 16C53.25 15.6714 53.1162 15.3486 52.8838 15.1162C52.6514 14.8838 52.3286 14.75 52 14.75C51.6714 14.75 51.3486 14.8838 51.1162 15.1162C50.8838 15.3486 50.75 15.6714 50.75 16C50.75 16.3286 50.8838 16.6514 51.1162 16.8838C51.3486 17.1162 51.6714 17.25 52 17.25Z" fill="url(#paint0_linear_107_777)"/>
<path d="M82.75 56.5H81.25V52.75C81.25 52.0596 80.6904 51.5 80 51.5H79.25V49.521C79.25 48.1675 78.4243 47.0039 77.25 46.5068V42.2915C77.25 41.6011 76.6904 41.0415 76 41.0415C75.3096 41.0415 74.75 41.6011 74.75 42.2915V46.25H72.25V28.5H74.75V32.5444C74.75 33.2349 75.3096 33.7944 76 33.7944C76.6904 33.7944 77.25 33.2349 77.25 32.5444V28.2432C78.4243 27.7461 79.25 26.582 79.25 25.229V23.25H80C80.6904 23.25 81.25 22.6904 81.25 22V17.25H81.375C81.9546 17.25 82.4575 16.8521 82.5913 16.2881C82.7251 15.7246 82.4536 15.1426 81.936 14.8828L52.561 0.132813C52.208 -0.0444336 51.792 -0.0444336 51.439 0.132813L22.064 14.8828C21.5464 15.1431 21.2749 15.7246 21.4087 16.2881C21.5425 16.8521 22.0454 17.25 22.625 17.25H22.75V22C22.75 22.6904 23.3096 23.25 24 23.25H24.75V25.229C24.75 26.582 25.5757 27.7461 26.75 28.2427V46.5068C25.5757 47.0039 24.75 48.1675 24.75 49.5205V51.5H24C23.3096 51.5 22.75 52.0596 22.75 52.75V56.5H21.25C20.5596 56.5 20 57.0596 20 57.75V62.75C20 63.4404 20.5596 64 21.25 64H82.75C83.4404 64 84 63.4404 84 62.75V57.75C84 57.0596 83.4404 56.5 82.75 56.5ZM75.979 48.75C76.4043 48.75 76.75 49.0957 76.75 49.521V51.5H70.25V49.521C70.25 49.0957 70.5957 48.75 71.021 48.75H75.979ZM64.9165 51.5V49.521C64.9165 48.168 64.0908 47.0039 62.9165 46.5068V28.2432C64.0908 27.7461 64.9165 26.582 64.9165 25.229V23.25H67.75V25.229C67.75 26.582 68.5757 27.7461 69.75 28.2427V46.5068C68.5757 47.0039 67.75 48.1675 67.75 49.5205V51.5H64.9165ZM50.5835 51.5V49.521C50.5835 48.1675 49.7573 47.0039 48.5835 46.5068V28.2432C49.7573 27.7461 50.5835 26.582 50.5835 25.229V23.25H53.417V25.229C53.417 26.582 54.2427 27.7461 55.417 28.2427V46.5068C54.2427 47.0039 53.417 48.1675 53.417 49.5205V51.5H50.5835ZM36.25 51.5V49.521C36.25 48.1675 35.4243 47.0039 34.25 46.5068V28.2432C35.4243 27.7461 36.25 26.582 36.25 25.229V23.25H39.0835V25.229C39.0835 26.582 39.9092 27.7461 41.0835 28.2427V46.5068C39.9092 47.0039 39.0835 48.1675 39.0835 49.5205V51.5H36.25ZM29.25 28.5H31.75V46.25H29.25V28.5ZM43.5835 28.5H46.0835V46.25H43.5835V28.5ZM48.0835 25.229C48.0835 25.6543 47.7378 26 47.3125 26H42.354C41.9292 26 41.583 25.6543 41.583 25.229V23.25H48.083V25.229H48.0835ZM41.5835 49.521C41.5835 49.0957 41.9292 48.75 42.3545 48.75H47.3125C47.7373 48.75 48.0835 49.0957 48.0835 49.521V51.5H41.5835V49.521ZM57.9165 28.5H60.4165V46.25H57.9165V28.5ZM62.4165 25.229C62.4165 25.6543 62.0708 26 61.6455 26H56.6875C56.2627 26 55.9165 25.6543 55.9165 25.229V23.25H62.4165V25.229ZM55.9165 49.521C55.9165 49.0957 56.2622 48.75 56.6875 48.75H61.646C62.0708 48.75 62.417 49.0957 62.417 49.521V51.5H55.917V49.521H55.9165ZM76.75 25.229C76.75 25.6543 76.4043 26 75.979 26H71.0205C70.5957 26 70.25 25.6543 70.25 25.229V23.25H76.75V25.229ZM45.7915 17.25C46.4819 17.25 47.0415 16.6904 47.0415 16C47.0415 15.3096 46.4819 14.75 45.7915 14.75H27.8999L52 2.64893L76.1001 14.75H58.625C57.9346 14.75 57.375 15.3096 57.375 16C57.375 16.6904 57.9346 17.25 58.625 17.25H78.75V20.75H25.25V17.25H45.7915ZM33.75 23.25V25.229C33.75 25.6543 33.4043 26 32.979 26H28.021C27.5957 26 27.25 25.6543 27.25 25.229V23.25H33.75ZM27.25 49.521C27.25 49.0957 27.5957 48.75 28.021 48.75H32.9795C33.4043 48.75 33.75 49.0957 33.75 49.521V51.5H27.25V49.521ZM25.25 54H78.75V56.5H25.25V54ZM81.5 61.5H22.5V59H81.5V61.5Z" fill="url(#paint1_linear_107_777)"/>
<path d="M76 36.125C75.6714 36.125 75.3486 36.2588 75.1162 36.4912C74.8838 36.7236 74.75 37.0464 74.75 37.375C74.75 37.7036 74.8838 38.0264 75.1162 38.2588C75.3486 38.4912 75.6714 38.625 76 38.625C76.3286 38.625 76.6514 38.4912 76.8838 38.2588C77.1162 38.0264 77.25 37.7036 77.25 37.375C77.25 37.0464 77.1162 36.7236 76.8838 36.4912C76.6514 36.2588 76.3286 36.125 76 36.125Z" fill="url(#paint2_linear_107_777)"/>
</g>
<defs>
<linearGradient id="paint0_linear_107_777" x1="53.197" y1="16" x2="51.8411" y2="16" gradientUnits="userSpaceOnUse">
<stop stop-color="#A268F9"/>
<stop offset="1" stop-color="#B88BFB"/>
</linearGradient>
<linearGradient id="paint1_linear_107_777" x1="82.6441" y1="31.9999" x2="47.9322" y2="31.9999" gradientUnits="userSpaceOnUse">
<stop stop-color="#A268F9"/>
<stop offset="1" stop-color="#B88BFB"/>
</linearGradient>
<linearGradient id="paint2_linear_107_777" x1="77.197" y1="37.375" x2="75.8411" y2="37.375" gradientUnits="userSpaceOnUse">
<stop stop-color="#A268F9"/>
<stop offset="1" stop-color="#B88BFB"/>
</linearGradient>
<clipPath id="clip0_107_777">
<rect width="64" height="64" fill="white" transform="translate(20)"/>
</clipPath>
</defs>
</svg>
