<svg width="84" height="74" viewBox="0 0 84 74" fill="none" xmlns="http://www.w3.org/2000/svg">
<circle cx="32" cy="42" r="32" fill="#F4E19C" fill-opacity="0.5"/>
<g clip-path="url(#clip0_107_626)">
<path d="M52 64C52.6904 64 53.25 63.4404 53.25 62.75C53.25 62.0596 52.6904 61.5 52 61.5C51.3096 61.5 50.75 62.0596 50.75 62.75C50.75 63.4404 51.3096 64 52 64Z" fill="url(#paint0_linear_107_626)"/>
<path d="M82.75 61.5H72V57C72 54.9323 70.3177 53.25 68.25 53.25H67.8464L60.75 35.5091V25.375H73.25V27.875C73.25 28.5653 73.8097 29.125 74.5 29.125C75.1903 29.125 75.75 28.5653 75.75 27.875V25.375H78.25C78.9403 25.375 79.5 24.8153 79.5 24.125C79.5 23.4347 78.9403 22.875 78.25 22.875H60.75V13.75H69.5V16.25C69.5 16.9403 70.0597 17.5 70.75 17.5C71.4403 17.5 72 16.9403 72 16.25V13.75H74.5C75.1903 13.75 75.75 13.1903 75.75 12.5C75.75 11.8097 75.1903 11.25 74.5 11.25H60.169L53.04 0.556625C52.8083 0.208875 52.418 0 52 0C51.582 0 51.1917 0.208875 50.96 0.556625L43.831 11.25H29.5C28.8097 11.25 28.25 11.8097 28.25 12.5C28.25 13.1903 28.8097 13.75 29.5 13.75H32V16.25C32 16.9403 32.5597 17.5 33.25 17.5C33.9403 17.5 34.5 16.9403 34.5 16.25V13.75H43.25V22.875H25.75C25.0598 22.875 24.5 23.4347 24.5 24.125C24.5 24.8153 25.0598 25.375 25.75 25.375H28.25V27.875C28.25 28.5653 28.8097 29.125 29.5 29.125C30.1903 29.125 30.75 28.5653 30.75 27.875V25.375H43.25V35.5091L36.1536 53.25H35.75C33.6823 53.25 32 54.9323 32 57V61.5H21.25C20.5598 61.5 20 62.0597 20 62.75C20 63.4403 20.5598 64 21.25 64H46.375C47.0653 64 47.625 63.4403 47.625 62.75C47.625 62.0597 47.0653 61.5 46.375 61.5H34.5V57C34.5 56.3107 35.0608 55.75 35.75 55.75H68.25C68.9393 55.75 69.5 56.3107 69.5 57V61.5H57.625C56.9347 61.5 56.375 62.0597 56.375 62.75C56.375 63.4403 56.9347 64 57.625 64H82.75C83.4403 64 84 63.4403 84 62.75C84 62.0597 83.4403 61.5 82.75 61.5ZM45.3464 37H50.75V42.625L39.8162 50.8254L45.3464 37ZM58.6536 37L64.1838 50.8254L53.25 42.625V37H58.6536ZM52 44.8125L63.25 53.25H40.75L52 44.8125ZM58.25 34.5H53.25V25.375H58.25V34.5ZM58.25 22.875H53.25V13.75H58.25V22.875ZM52 3.50338L57.1644 11.25H46.8356L52 3.50338ZM45.75 13.75H50.75V22.875H45.75V13.75ZM50.75 25.375V34.5H45.75V25.375H50.75Z" fill="url(#paint1_linear_107_626)"/>
</g>
<defs>
<linearGradient id="paint0_linear_107_626" x1="53.197" y1="62.75" x2="51.8411" y2="62.75" gradientUnits="userSpaceOnUse">
<stop stop-color="#A268F9"/>
<stop offset="1" stop-color="#B88BFB"/>
</linearGradient>
<linearGradient id="paint1_linear_107_626" x1="82.6441" y1="32" x2="47.9322" y2="32" gradientUnits="userSpaceOnUse">
<stop stop-color="#A268F9"/>
<stop offset="1" stop-color="#B88BFB"/>
</linearGradient>
<clipPath id="clip0_107_626">
<rect width="64" height="64" fill="white" transform="translate(20)"/>
</clipPath>
</defs>
</svg>
