<svg width="84" height="74" viewBox="0 0 84 74" fill="none" xmlns="http://www.w3.org/2000/svg">
<circle cx="32" cy="42" r="32" fill="#F4E19C" fill-opacity="0.5"/>
<g clip-path="url(#clip0_104_344)">
<path d="M26.25 35.8872C25.5601 35.8872 25 36.4473 25 37.1372C25 37.8272 25.5601 38.3872 26.25 38.3872C26.9399 38.3872 27.5 37.8272 27.5 37.1372C27.5 36.4473 26.9399 35.8872 26.25 35.8872Z" fill="url(#paint0_linear_104_344)"/>
<path d="M77.4523 40.2217L65.6681 44.273C65.7203 43.9829 65.7496 43.687 65.7496 43.3867C65.7496 40.6299 63.5069 38.3867 60.7496 38.3867H52.6548C52.44 38.3867 52.2281 38.3316 52.0411 38.2261L45.4371 34.5117C44.1314 33.7759 42.6475 33.3867 41.146 33.3867H32.2847C31.7691 31.9321 30.3794 30.8872 28.75 30.8872H21.25C20.5596 30.8872 20 31.4468 20 32.1372V54.6368C20 55.3272 20.5596 55.8868 21.25 55.8868H28.75C30.3423 55.8868 31.7075 54.8863 32.2495 53.481C33.6646 53.6568 35.3018 54.0752 36.3306 54.6924L42.8677 58.6148C45.3443 60.1011 48.1797 60.8868 51.0684 60.8868C53.3575 60.8868 55.5753 60.4063 57.6607 59.459L80.9913 49.1861C83.5753 48.1377 84.8512 45.0376 83.3741 42.3052C82.2877 40.2945 79.7433 39.3999 77.4523 40.2217ZM30 52.1426C29.9971 52.8291 29.437 53.3868 28.75 53.3868H22.5V33.3872H28.75C29.439 33.3872 30 33.9478 30 34.6372V52.1426ZM80.0416 46.8741C80.0284 46.8789 80.0153 46.8848 80.0021 46.8902C80.0021 46.8902 56.6368 57.1783 56.6324 57.1802C54.8721 57.981 53.0001 58.3868 51.0684 58.3868C48.6329 58.3868 46.2422 57.7247 44.1543 56.4712L37.6167 52.5489C36.2173 51.7095 34.2134 51.1978 32.5 50.9927V35.8872H41.146C42.2183 35.8872 43.2779 36.1646 44.211 36.6904L50.815 40.4048C51.3746 40.7202 52.0113 40.8872 52.6548 40.8872H60.7496C62.128 40.8872 63.2496 42.0083 63.2496 43.3872C63.2496 44.7608 62.1275 45.8872 60.7496 45.8872H48.0425C47.3521 45.8872 46.7925 46.4468 46.7925 47.1372C46.7925 47.8272 47.3521 48.3868 48.0425 48.3868H60.7496C61.5694 48.3868 62.3765 48.1831 63.0929 47.8013C63.0929 47.8013 78.2858 42.5786 78.2916 42.5767C79.4117 42.1724 80.6783 42.5747 81.1749 43.4937C81.9196 44.8711 81.3038 46.3687 80.0416 46.8741Z" fill="url(#paint1_linear_104_344)"/>
<path d="M56.4058 33.4444C56.6412 33.648 56.9327 33.7496 57.2247 33.7496C57.5167 33.7496 57.8087 33.648 58.0435 33.4444C68.2423 24.6055 74.5509 20.1324 74.5509 13.1812C74.5509 7.68214 70.6578 3.125 65.1886 3.125C61.5968 3.125 58.8463 5.19532 57.0748 8.30226C55.3072 5.20215 52.5597 3.125 48.9625 3.125C44.7755 3.125 41.275 5.83838 40.0445 10.0371C39.8502 10.6997 40.23 11.3941 40.8926 11.5884C41.5552 11.7827 42.2496 11.4028 42.4434 10.7402C43.3541 7.63282 45.9127 5.625 48.9625 5.625C52.5284 5.625 55.0299 8.79151 55.8702 11.7398C56.0201 12.2813 56.5133 12.6563 57.0748 12.6563C57.6368 12.6563 58.1295 12.2813 58.2794 11.7398C58.2965 11.6787 60.0328 5.625 65.1886 5.625C69.1007 5.625 72.0509 8.87306 72.0509 13.1812C72.0509 18.7417 66.6153 22.7505 57.2237 30.8482C51.5015 25.9341 46.9561 22.4751 44.3726 19.0913C43.9537 18.5425 43.1695 18.437 42.6207 18.856C42.0718 19.2749 41.9669 20.0591 42.3853 20.6084C45.2974 24.4224 50.2135 28.0767 56.4058 33.4444Z" fill="url(#paint2_linear_104_344)"/>
<path d="M41.1251 14.1372C40.4351 14.1372 39.8751 14.6973 39.8751 15.3872C39.8751 16.0772 40.4351 16.6372 41.1251 16.6372C41.815 16.6372 42.3751 16.0772 42.3751 15.3872C42.3751 14.6973 41.815 14.1372 41.1251 14.1372Z" fill="url(#paint3_linear_104_344)"/>
</g>
<defs>
<linearGradient id="paint0_linear_104_344" x1="27.447" y1="37.1372" x2="26.0911" y2="37.1372" gradientUnits="userSpaceOnUse">
<stop stop-color="#A268F9"/>
<stop offset="1" stop-color="#B88BFB"/>
</linearGradient>
<linearGradient id="paint1_linear_104_344" x1="82.6439" y1="45.887" x2="47.9321" y2="45.887" gradientUnits="userSpaceOnUse">
<stop stop-color="#A268F9"/>
<stop offset="1" stop-color="#B88BFB"/>
</linearGradient>
<linearGradient id="paint2_linear_104_344" x1="73.8188" y1="18.4373" x2="55.0758" y2="18.4373" gradientUnits="userSpaceOnUse">
<stop stop-color="#A268F9"/>
<stop offset="1" stop-color="#B88BFB"/>
</linearGradient>
<linearGradient id="paint3_linear_104_344" x1="42.3221" y1="15.3872" x2="40.9662" y2="15.3872" gradientUnits="userSpaceOnUse">
<stop stop-color="#A268F9"/>
<stop offset="1" stop-color="#B88BFB"/>
</linearGradient>
<clipPath id="clip0_104_344">
<rect width="64" height="64" fill="white" transform="translate(20)"/>
</clipPath>
</defs>
</svg>
