<svg width="84" height="74" viewBox="0 0 84 74" fill="none" xmlns="http://www.w3.org/2000/svg">
<circle cx="32" cy="42" r="32" fill="#F4E19C" fill-opacity="0.5"/>
<path d="M62.0068 5C61.3168 5 60.7568 5.56 60.7568 6.25C60.7568 6.94 61.3168 7.5 62.0068 7.5C62.6968 7.5 63.2568 6.94 63.2568 6.25C63.2568 5.56 62.6968 5 62.0068 5Z" fill="url(#paint0_linear_107_1197)"/>
<path d="M42.0068 5C41.3168 5 40.7568 5.56 40.7568 6.25C40.7568 6.94 41.3168 7.5 42.0068 7.5C42.6968 7.5 43.2568 6.94 43.2568 6.25C43.2568 5.56 42.6968 5 42.0068 5Z" fill="url(#paint1_linear_107_1197)"/>
<path d="M78.0048 61.8856L69.7333 53.2443C73.0749 53.1245 75.7569 50.3704 75.7569 47V9.90875C75.7569 7.88912 75.051 5.91687 73.769 4.35525C72.4861 2.794 70.6889 1.71813 68.709 1.3265C64.2725 0.44625 59.7303 0 55.2083 0H48.6045C44.3036 0 39.8238 0.412 35.2905 1.318C31.2149 2.13337 28.2569 5.74225 28.2569 9.89875V47C28.2569 50.3988 30.9844 53.1706 34.3653 53.2464L26.0004 61.8802C25.651 62.2407 25.5513 62.7752 25.7471 63.2374C25.9428 63.6996 26.3961 64 26.8981 64H35.8356C36.2364 64 36.6128 63.8079 36.8479 63.4834L40.6396 58.25H63.4854L67.2771 63.4835C67.5123 63.8079 67.8888 64 68.2894 64H77.1019C77.6025 64 78.0548 63.7013 78.2514 63.241C78.448 62.7805 78.351 62.2474 78.0048 61.8856ZM30.7569 47V9.89875C30.7569 6.92963 32.8698 4.35188 35.7806 3.76938C39.861 2.95388 44.1727 2.5 48.6044 2.5H55.2082C59.5673 2.5 63.9458 2.93012 68.2229 3.77863C69.6371 4.0585 70.9209 4.827 71.8369 5.94187C72.7525 7.05725 73.2568 8.466 73.2568 9.90862V47C73.2568 49.0677 71.5745 50.75 69.5068 50.75H34.5068C32.4391 50.75 30.7569 49.0677 30.7569 47ZM35.1978 61.5H29.8496L37.8425 53.25H41.1753L35.1978 61.5ZM42.451 55.75L44.2624 53.25H59.8628L61.674 55.75H42.451ZM68.9273 61.5L62.95 53.25H66.2781L74.175 61.5H68.9273Z" fill="url(#paint2_linear_107_1197)"/>
<path d="M69.5069 10H34.5069C33.8166 10 33.2569 10.5598 33.2569 11.25V32C33.2569 32.6903 33.8166 33.25 34.5069 33.25H69.5069C70.1971 33.25 70.7569 32.6903 70.7569 32V11.25C70.7569 10.5598 70.1971 10 69.5069 10ZM50.7569 30.75H35.7569V12.5H50.7569V30.75ZM68.2569 30.75H53.2569V12.5H68.2569V30.75Z" fill="url(#paint3_linear_107_1197)"/>
<path d="M57.0068 5H47.0068C46.3166 5 45.7568 5.55975 45.7568 6.25C45.7568 6.94025 46.3166 7.5 47.0068 7.5H57.0068C57.6971 7.5 58.2568 6.94025 58.2568 6.25C58.2568 5.55975 57.6971 5 57.0068 5Z" fill="url(#paint4_linear_107_1197)"/>
<path d="M65.7568 37C62.9998 37 60.7568 39.243 60.7568 42C60.7568 44.757 62.9998 47 65.7568 47C68.5138 47 70.7568 44.757 70.7568 42C70.7568 39.243 68.5138 37 65.7568 37ZM65.7568 44.5C64.3783 44.5 63.2568 43.3785 63.2568 42C63.2568 40.6215 64.3783 39.5 65.7568 39.5C67.1353 39.5 68.2568 40.6215 68.2568 42C68.2568 43.3785 67.1353 44.5 65.7568 44.5Z" fill="url(#paint5_linear_107_1197)"/>
<path d="M38.2569 37C35.4999 37 33.2569 39.243 33.2569 42C33.2569 44.757 35.5 47 38.2569 47C41.0139 47 43.2569 44.757 43.2569 42C43.2569 39.243 41.0139 37 38.2569 37ZM38.2569 44.5C36.8784 44.5 35.7569 43.3785 35.7569 42C35.7569 40.6215 36.8784 39.5 38.2569 39.5C39.6354 39.5 40.7569 40.6215 40.7569 42C40.7569 43.3785 39.6354 44.5 38.2569 44.5Z" fill="url(#paint6_linear_107_1197)"/>
<path d="M57.0068 38.25H47.0068C46.3166 38.25 45.7568 38.8098 45.7568 39.5C45.7568 40.1902 46.3166 40.75 47.0068 40.75H57.0068C57.6971 40.75 58.2568 40.1902 58.2568 39.5C58.2568 38.8098 57.6972 38.25 57.0068 38.25Z" fill="url(#paint7_linear_107_1197)"/>
<path d="M57.0068 43.25H47.0068C46.3166 43.25 45.7568 43.8098 45.7568 44.5C45.7568 45.1902 46.3166 45.75 47.0068 45.75H57.0068C57.6971 45.75 58.2568 45.1902 58.2568 44.5C58.2568 43.8098 57.6972 43.25 57.0068 43.25Z" fill="url(#paint8_linear_107_1197)"/>
<defs>
<linearGradient id="paint0_linear_107_1197" x1="63.2039" y1="6.25" x2="61.8479" y2="6.25" gradientUnits="userSpaceOnUse">
<stop stop-color="#A268F9"/>
<stop offset="1" stop-color="#B88BFB"/>
</linearGradient>
<linearGradient id="paint1_linear_107_1197" x1="43.2039" y1="6.25" x2="41.8479" y2="6.25" gradientUnits="userSpaceOnUse">
<stop stop-color="#A268F9"/>
<stop offset="1" stop-color="#B88BFB"/>
</linearGradient>
<linearGradient id="paint2_linear_107_1197" x1="77.2353" y1="32" x2="48.6502" y2="32" gradientUnits="userSpaceOnUse">
<stop stop-color="#A268F9"/>
<stop offset="1" stop-color="#B88BFB"/>
</linearGradient>
<linearGradient id="paint3_linear_107_1197" x1="69.9624" y1="21.625" x2="49.6234" y2="21.625" gradientUnits="userSpaceOnUse">
<stop stop-color="#A268F9"/>
<stop offset="1" stop-color="#B88BFB"/>
</linearGradient>
<linearGradient id="paint4_linear_107_1197" x1="57.992" y1="6.25" x2="51.2123" y2="6.25" gradientUnits="userSpaceOnUse">
<stop stop-color="#A268F9"/>
<stop offset="1" stop-color="#B88BFB"/>
</linearGradient>
<linearGradient id="paint5_linear_107_1197" x1="70.545" y1="42" x2="65.1212" y2="42" gradientUnits="userSpaceOnUse">
<stop stop-color="#A268F9"/>
<stop offset="1" stop-color="#B88BFB"/>
</linearGradient>
<linearGradient id="paint6_linear_107_1197" x1="43.045" y1="42" x2="37.6213" y2="42" gradientUnits="userSpaceOnUse">
<stop stop-color="#A268F9"/>
<stop offset="1" stop-color="#B88BFB"/>
</linearGradient>
<linearGradient id="paint7_linear_107_1197" x1="57.992" y1="39.5" x2="51.2123" y2="39.5" gradientUnits="userSpaceOnUse">
<stop stop-color="#A268F9"/>
<stop offset="1" stop-color="#B88BFB"/>
</linearGradient>
<linearGradient id="paint8_linear_107_1197" x1="57.992" y1="44.5" x2="51.2123" y2="44.5" gradientUnits="userSpaceOnUse">
<stop stop-color="#A268F9"/>
<stop offset="1" stop-color="#B88BFB"/>
</linearGradient>
</defs>
</svg>
