<svg width="84" height="74" viewBox="0 0 84 74" fill="none" xmlns="http://www.w3.org/2000/svg">
<circle cx="32" cy="42" r="32" fill="#F4E19C" fill-opacity="0.5"/>
<path d="M32 25.875H33.875C34.5654 25.875 35.125 25.3153 35.125 24.625V22.7502C35.125 22.0598 34.5654 21.5002 33.875 21.5002H32C31.3095 21.5002 30.75 22.0598 30.75 22.7502V24.625C30.75 25.3153 31.3095 25.875 32 25.875Z" fill="url(#paint0_linear_107_753)"/>
<path d="M32 33.3751H33.875C34.5654 33.3751 35.125 32.8154 35.125 32.1251V30.2499C35.125 29.5595 34.5654 28.9999 33.875 28.9999H32C31.3095 28.9999 30.75 29.5595 30.75 30.2499V32.1251C30.75 32.8154 31.3095 33.3751 32 33.3751Z" fill="url(#paint1_linear_107_753)"/>
<path d="M32 40.8749H33.875C34.5654 40.8749 35.125 40.3152 35.125 39.6249V37.75C35.125 37.0597 34.5654 36.5 33.875 36.5H32C31.3095 36.5 30.75 37.0597 30.75 37.75V39.6249C30.75 40.3151 31.3095 40.8749 32 40.8749Z" fill="url(#paint2_linear_107_753)"/>
<path d="M32 48.3744H33.875C34.5654 48.3744 35.125 47.8147 35.125 47.1244V45.2497C35.125 44.5594 34.5654 43.9997 33.875 43.9997H32C31.3095 43.9997 30.75 44.5594 30.75 45.2497V47.1244C30.75 47.8147 31.3095 48.3744 32 48.3744Z" fill="url(#paint3_linear_107_753)"/>
<path d="M38.5624 25.875H40.4375C41.1277 25.875 41.6875 25.3153 41.6875 24.625V22.7502C41.6875 22.0598 41.1277 21.5002 40.4375 21.5002H38.5624C37.872 21.5002 37.3124 22.0598 37.3124 22.7502V24.625C37.3124 25.3153 37.872 25.875 38.5624 25.875Z" fill="url(#paint4_linear_107_753)"/>
<path d="M38.5624 33.3751H40.4375C41.1277 33.3751 41.6875 32.8154 41.6875 32.1251V30.2499C41.6875 29.5595 41.1277 28.9999 40.4375 28.9999H38.5624C37.872 28.9999 37.3124 29.5595 37.3124 30.2499V32.1251C37.3124 32.8154 37.872 33.3751 38.5624 33.3751Z" fill="url(#paint5_linear_107_753)"/>
<path d="M38.5624 40.8749H40.4375C41.1277 40.8749 41.6875 40.3152 41.6875 39.6249V37.75C41.6875 37.0597 41.1277 36.5 40.4375 36.5H38.5624C37.872 36.5 37.3124 37.0597 37.3124 37.75V39.6249C37.3124 40.3151 37.872 40.8749 38.5624 40.8749Z" fill="url(#paint6_linear_107_753)"/>
<path d="M38.5624 48.3744H40.4375C41.1277 48.3744 41.6875 47.8147 41.6875 47.1244V45.2497C41.6875 44.5594 41.1277 43.9997 40.4375 43.9997H38.5624C37.872 43.9997 37.3124 44.5594 37.3124 45.2497V47.1244C37.3124 47.8147 37.872 48.3744 38.5624 48.3744Z" fill="url(#paint7_linear_107_753)"/>
<path d="M45.125 25.875H47.0001C47.6905 25.875 48.2501 25.3153 48.2501 24.625V22.7502C48.2501 22.0598 47.6905 21.5002 47.0001 21.5002H45.125C44.4347 21.5002 43.875 22.0598 43.875 22.7502V24.625C43.875 25.3153 44.4346 25.875 45.125 25.875Z" fill="url(#paint8_linear_107_753)"/>
<path d="M45.125 33.3751H47.0001C47.6905 33.3751 48.2501 32.8154 48.2501 32.1251V30.2499C48.2501 29.5595 47.6905 28.9999 47.0001 28.9999H45.125C44.4347 28.9999 43.875 29.5595 43.875 30.2499V32.1251C43.875 32.8154 44.4346 33.3751 45.125 33.3751Z" fill="url(#paint9_linear_107_753)"/>
<path d="M45.125 40.8749H47.0001C47.6905 40.8749 48.2501 40.3152 48.2501 39.6249V37.75C48.2501 37.0597 47.6905 36.5 47.0001 36.5H45.125C44.4347 36.5 43.875 37.0597 43.875 37.75V39.6249C43.875 40.3151 44.4346 40.8749 45.125 40.8749Z" fill="url(#paint10_linear_107_753)"/>
<path d="M45.125 48.3744H47.0001C47.6905 48.3744 48.2501 47.8147 48.2501 47.1244V45.2497C48.2501 44.5594 47.6905 43.9997 47.0001 43.9997H45.125C44.4347 43.9997 43.875 44.5594 43.875 45.2497V47.1244C43.875 47.8147 44.4346 48.3744 45.125 48.3744Z" fill="url(#paint11_linear_107_753)"/>
<path d="M56.9999 25.875H58.8749C59.5652 25.875 60.1249 25.3153 60.1249 24.625V22.7502C60.1249 22.0598 59.5652 21.5002 58.8749 21.5002H56.9999C56.3094 21.5002 55.7499 22.0598 55.7499 22.7502V24.625C55.7499 25.3153 56.3094 25.875 56.9999 25.875Z" fill="url(#paint12_linear_107_753)"/>
<path d="M56.9999 18.3753H58.8749C59.5652 18.3753 60.1249 17.8155 60.1249 17.1253V15.2505C60.1249 14.5603 59.5652 14.0005 58.8749 14.0005H56.9999C56.3094 14.0005 55.7499 14.5603 55.7499 15.2505V17.1253C55.7499 17.8155 56.3094 18.3753 56.9999 18.3753Z" fill="url(#paint13_linear_107_753)"/>
<path d="M56.9999 10.8757H58.8749C59.5652 10.8757 60.1249 10.316 60.1249 9.62573V7.75036C60.1249 7.06011 59.5652 6.50037 58.8749 6.50037H56.9999C56.3094 6.50037 55.7499 7.06011 55.7499 7.75036V9.62573C55.7499 10.316 56.3094 10.8757 56.9999 10.8757Z" fill="url(#paint14_linear_107_753)"/>
<path d="M56.9999 33.3751H58.8749C59.5652 33.3751 60.1249 32.8154 60.1249 32.1251V30.2499C60.1249 29.5595 59.5652 28.9999 58.8749 28.9999H56.9999C56.3094 28.9999 55.7499 29.5595 55.7499 30.2499V32.1251C55.7499 32.8154 56.3094 33.3751 56.9999 33.3751Z" fill="url(#paint15_linear_107_753)"/>
<path d="M56.9999 40.8749H58.8749C59.5652 40.8749 60.1249 40.3152 60.1249 39.6249V37.75C60.1249 37.0597 59.5652 36.5 58.8749 36.5H56.9999C56.3094 36.5 55.7499 37.0597 55.7499 37.75V39.6249C55.7499 40.3151 56.3094 40.8749 56.9999 40.8749Z" fill="url(#paint16_linear_107_753)"/>
<path d="M56.9999 48.3744H58.8749C59.5652 48.3744 60.1249 47.8147 60.1249 47.1244V45.2497C60.1249 44.5594 59.5652 43.9997 58.8749 43.9997H56.9999C56.3094 43.9997 55.7499 44.5594 55.7499 45.2497V47.1244C55.7499 47.8147 56.3094 48.3744 56.9999 48.3744Z" fill="url(#paint17_linear_107_753)"/>
<path d="M63.5624 25.875H65.4374C66.1277 25.875 66.6874 25.3153 66.6874 24.625V22.7502C66.6874 22.0598 66.1277 21.5002 65.4374 21.5002H63.5624C62.8721 21.5002 62.3124 22.0598 62.3124 22.7502V24.625C62.3124 25.3153 62.8721 25.875 63.5624 25.875Z" fill="url(#paint18_linear_107_753)"/>
<path d="M63.5624 18.3753H65.4374C66.1277 18.3753 66.6874 17.8155 66.6874 17.1253V15.2505C66.6874 14.5603 66.1277 14.0005 65.4374 14.0005H63.5624C62.8721 14.0005 62.3124 14.5603 62.3124 15.2505V17.1253C62.3124 17.8155 62.8721 18.3753 63.5624 18.3753Z" fill="url(#paint19_linear_107_753)"/>
<path d="M63.5624 10.8757H65.4374C66.1277 10.8757 66.6874 10.316 66.6874 9.62573V7.75036C66.6874 7.06011 66.1277 6.50037 65.4374 6.50037H63.5624C62.8721 6.50037 62.3124 7.06011 62.3124 7.75036V9.62573C62.3124 10.316 62.8721 10.8757 63.5624 10.8757Z" fill="url(#paint20_linear_107_753)"/>
<path d="M63.5624 33.3751H65.4374C66.1277 33.3751 66.6874 32.8154 66.6874 32.1251V30.2499C66.6874 29.5595 66.1277 28.9999 65.4374 28.9999H63.5624C62.8721 28.9999 62.3124 29.5595 62.3124 30.2499V32.1251C62.3124 32.8154 62.8721 33.3751 63.5624 33.3751Z" fill="url(#paint21_linear_107_753)"/>
<path d="M63.5624 40.8749H65.4374C66.1277 40.8749 66.6874 40.3152 66.6874 39.6249V37.75C66.6874 37.0597 66.1277 36.5 65.4374 36.5H63.5624C62.8721 36.5 62.3124 37.0597 62.3124 37.75V39.6249C62.3124 40.3151 62.8721 40.8749 63.5624 40.8749Z" fill="url(#paint22_linear_107_753)"/>
<path d="M63.5624 48.3744H65.4374C66.1277 48.3744 66.6874 47.8147 66.6874 47.1244V45.2497C66.6874 44.5594 66.1277 43.9997 65.4374 43.9997H63.5624C62.8721 43.9997 62.3124 44.5594 62.3124 45.2497V47.1244C62.3124 47.8147 62.8721 48.3744 63.5624 48.3744Z" fill="url(#paint23_linear_107_753)"/>
<path d="M70.1248 25.875H71.9996C72.6899 25.875 73.2496 25.3153 73.2496 24.625V22.7502C73.2496 22.0598 72.6899 21.5002 71.9996 21.5002H70.1248C69.4345 21.5002 68.8748 22.0598 68.8748 22.7502V24.625C68.8748 25.3153 69.4345 25.875 70.1248 25.875Z" fill="url(#paint24_linear_107_753)"/>
<path d="M70.1248 18.3753H71.9996C72.6899 18.3753 73.2496 17.8155 73.2496 17.1253V15.2505C73.2496 14.5603 72.6899 14.0005 71.9996 14.0005H70.1248C69.4345 14.0005 68.8748 14.5603 68.8748 15.2505V17.1253C68.8748 17.8155 69.4345 18.3753 70.1248 18.3753Z" fill="url(#paint25_linear_107_753)"/>
<path d="M70.1248 10.8757H71.9996C72.6899 10.8757 73.2496 10.316 73.2496 9.62573V7.75036C73.2496 7.06011 72.6899 6.50037 71.9996 6.50037H70.1248C69.4345 6.50037 68.8748 7.06011 68.8748 7.75036V9.62573C68.8748 10.316 69.4345 10.8757 70.1248 10.8757Z" fill="url(#paint26_linear_107_753)"/>
<path d="M70.1248 33.3751H71.9996C72.6899 33.3751 73.2496 32.8154 73.2496 32.1251V30.2499C73.2496 29.5595 72.6899 28.9999 71.9996 28.9999H70.1248C69.4345 28.9999 68.8748 29.5595 68.8748 30.2499V32.1251C68.8748 32.8154 69.4345 33.3751 70.1248 33.3751Z" fill="url(#paint27_linear_107_753)"/>
<path d="M70.1248 40.8749H71.9996C72.6899 40.8749 73.2496 40.3152 73.2496 39.6249V37.75C73.2496 37.0597 72.6899 36.5 71.9996 36.5H70.1248C69.4345 36.5 68.8748 37.0597 68.8748 37.75V39.6249C68.8748 40.3151 69.4345 40.8749 70.1248 40.8749Z" fill="url(#paint28_linear_107_753)"/>
<path d="M70.1248 48.3744H71.9996C72.6899 48.3744 73.2496 47.8147 73.2496 47.1244V45.2497C73.2496 44.5594 72.6899 43.9997 71.9996 43.9997H70.1248C69.4345 43.9997 68.8748 44.5594 68.8748 45.2497V47.1244C68.8748 47.8147 69.4345 48.3744 70.1248 48.3744Z" fill="url(#paint29_linear_107_753)"/>
<path d="M34.4705 56.5001C33.7801 56.5001 33.2205 57.0599 33.2205 57.7501C33.2205 58.4405 33.7801 59.0001 34.4705 59.0001H34.5C35.1902 59.0001 35.7499 58.4405 35.7499 57.7501C35.7499 57.0597 35.1902 56.5001 34.5 56.5001H34.4705Z" fill="url(#paint30_linear_107_753)"/>
<path d="M59.4703 56.5001C58.78 56.5001 58.2203 57.0599 58.2203 57.7501C58.2203 58.4405 58.78 59.0001 59.4703 59.0001H59.4997C60.19 59.0001 60.7497 58.4405 60.7497 57.7501C60.7497 57.0599 60.19 56.5001 59.4997 56.5001H59.4703Z" fill="url(#paint31_linear_107_753)"/>
<path d="M21.2795 61.4999H21.25C20.5595 61.4999 20 62.0596 20 62.7499C20 63.4401 20.5595 63.9999 21.25 63.9999H21.2795C21.9697 63.9999 22.5295 63.4401 22.5295 62.7499C22.5295 62.0595 21.9699 61.4999 21.2795 61.4999Z" fill="url(#paint32_linear_107_753)"/>
<path d="M82.75 61.4999H82.7202C82.0298 61.4999 81.4702 62.0596 81.4702 62.7499C81.4702 63.4401 82.0298 63.9999 82.7202 63.9999H82.75C83.4403 63.9999 84 63.4401 84 62.7499C84 62.0595 83.4402 61.4999 82.75 61.4999Z" fill="url(#paint33_linear_107_753)"/>
<path d="M79.129 61.4999H78.2494V1.25012C78.2494 0.559745 77.6896 0.00012207 76.9994 0.00012207H51.9999C51.3094 0.00012207 50.7499 0.559745 50.7499 1.25012V16.5004H27C26.3095 16.5004 25.75 17.0602 25.75 17.7504V61.4999H24.8708C24.1805 61.4999 23.6208 62.0596 23.6208 62.7499C23.6208 63.4401 24.1805 63.9999 24.8708 63.9999H27H39.4999H47.0001H51.9999H64.4998H71.9997H76.9994H76.9995H76.9998H79.129C79.8194 63.9999 80.379 63.4401 80.379 62.7499C80.379 62.0595 79.8194 61.4999 79.129 61.4999ZM45.7501 61.4999H40.7499V56.5003H45.7501V61.4999ZM50.7499 61.4999H48.2501V55.2503C48.2501 54.56 47.6905 54.0003 47.0001 54.0003H39.4999C38.8094 54.0003 38.2499 54.56 38.2499 55.2503V61.4999H28.25V59.0001H30.8792C31.5694 59.0001 32.1292 58.4405 32.1292 57.7501C32.1292 57.0599 31.5694 56.5001 30.8792 56.5001H28.25V19.0004H50.7499V61.4999ZM70.7497 61.4999H65.7498V56.5003H70.7497V61.4999ZM75.7494 61.4999H73.2496V55.2503C73.2496 54.56 72.6899 54.0003 71.9997 54.0003H64.4998C63.8094 54.0003 63.2498 54.56 63.2498 55.2503V61.4999H53.2499V59.0001H55.879C56.5693 59.0001 57.129 58.4405 57.129 57.7501C57.129 57.0599 56.5693 56.5001 55.879 56.5001H53.2499V17.7504V2.50011H75.7494V61.4999Z" fill="url(#paint34_linear_107_753)"/>
<defs>
<linearGradient id="paint0_linear_107_753" x1="35.0323" y1="23.6876" x2="32.6594" y2="23.6876" gradientUnits="userSpaceOnUse">
<stop stop-color="#A268F9"/>
<stop offset="1" stop-color="#B88BFB"/>
</linearGradient>
<linearGradient id="paint1_linear_107_753" x1="35.0323" y1="31.1875" x2="32.6594" y2="31.1875" gradientUnits="userSpaceOnUse">
<stop stop-color="#A268F9"/>
<stop offset="1" stop-color="#B88BFB"/>
</linearGradient>
<linearGradient id="paint2_linear_107_753" x1="35.0323" y1="38.6874" x2="32.6594" y2="38.6874" gradientUnits="userSpaceOnUse">
<stop stop-color="#A268F9"/>
<stop offset="1" stop-color="#B88BFB"/>
</linearGradient>
<linearGradient id="paint3_linear_107_753" x1="35.0323" y1="46.1871" x2="32.6594" y2="46.1871" gradientUnits="userSpaceOnUse">
<stop stop-color="#A268F9"/>
<stop offset="1" stop-color="#B88BFB"/>
</linearGradient>
<linearGradient id="paint4_linear_107_753" x1="41.5948" y1="23.6876" x2="39.2219" y2="23.6876" gradientUnits="userSpaceOnUse">
<stop stop-color="#A268F9"/>
<stop offset="1" stop-color="#B88BFB"/>
</linearGradient>
<linearGradient id="paint5_linear_107_753" x1="41.5948" y1="31.1875" x2="39.2219" y2="31.1875" gradientUnits="userSpaceOnUse">
<stop stop-color="#A268F9"/>
<stop offset="1" stop-color="#B88BFB"/>
</linearGradient>
<linearGradient id="paint6_linear_107_753" x1="41.5948" y1="38.6874" x2="39.2219" y2="38.6874" gradientUnits="userSpaceOnUse">
<stop stop-color="#A268F9"/>
<stop offset="1" stop-color="#B88BFB"/>
</linearGradient>
<linearGradient id="paint7_linear_107_753" x1="41.5948" y1="46.1871" x2="39.2219" y2="46.1871" gradientUnits="userSpaceOnUse">
<stop stop-color="#A268F9"/>
<stop offset="1" stop-color="#B88BFB"/>
</linearGradient>
<linearGradient id="paint8_linear_107_753" x1="48.1574" y1="23.6876" x2="45.7845" y2="23.6876" gradientUnits="userSpaceOnUse">
<stop stop-color="#A268F9"/>
<stop offset="1" stop-color="#B88BFB"/>
</linearGradient>
<linearGradient id="paint9_linear_107_753" x1="48.1574" y1="31.1875" x2="45.7845" y2="31.1875" gradientUnits="userSpaceOnUse">
<stop stop-color="#A268F9"/>
<stop offset="1" stop-color="#B88BFB"/>
</linearGradient>
<linearGradient id="paint10_linear_107_753" x1="48.1574" y1="38.6874" x2="45.7845" y2="38.6874" gradientUnits="userSpaceOnUse">
<stop stop-color="#A268F9"/>
<stop offset="1" stop-color="#B88BFB"/>
</linearGradient>
<linearGradient id="paint11_linear_107_753" x1="48.1574" y1="46.1871" x2="45.7845" y2="46.1871" gradientUnits="userSpaceOnUse">
<stop stop-color="#A268F9"/>
<stop offset="1" stop-color="#B88BFB"/>
</linearGradient>
<linearGradient id="paint12_linear_107_753" x1="60.0322" y1="23.6876" x2="57.6593" y2="23.6876" gradientUnits="userSpaceOnUse">
<stop stop-color="#A268F9"/>
<stop offset="1" stop-color="#B88BFB"/>
</linearGradient>
<linearGradient id="paint13_linear_107_753" x1="60.0322" y1="16.1879" x2="57.6593" y2="16.1879" gradientUnits="userSpaceOnUse">
<stop stop-color="#A268F9"/>
<stop offset="1" stop-color="#B88BFB"/>
</linearGradient>
<linearGradient id="paint14_linear_107_753" x1="60.0322" y1="8.68805" x2="57.6593" y2="8.68805" gradientUnits="userSpaceOnUse">
<stop stop-color="#A268F9"/>
<stop offset="1" stop-color="#B88BFB"/>
</linearGradient>
<linearGradient id="paint15_linear_107_753" x1="60.0322" y1="31.1875" x2="57.6593" y2="31.1875" gradientUnits="userSpaceOnUse">
<stop stop-color="#A268F9"/>
<stop offset="1" stop-color="#B88BFB"/>
</linearGradient>
<linearGradient id="paint16_linear_107_753" x1="60.0322" y1="38.6874" x2="57.6593" y2="38.6874" gradientUnits="userSpaceOnUse">
<stop stop-color="#A268F9"/>
<stop offset="1" stop-color="#B88BFB"/>
</linearGradient>
<linearGradient id="paint17_linear_107_753" x1="60.0322" y1="46.1871" x2="57.6593" y2="46.1871" gradientUnits="userSpaceOnUse">
<stop stop-color="#A268F9"/>
<stop offset="1" stop-color="#B88BFB"/>
</linearGradient>
<linearGradient id="paint18_linear_107_753" x1="66.5947" y1="23.6876" x2="64.2218" y2="23.6876" gradientUnits="userSpaceOnUse">
<stop stop-color="#A268F9"/>
<stop offset="1" stop-color="#B88BFB"/>
</linearGradient>
<linearGradient id="paint19_linear_107_753" x1="66.5947" y1="16.1879" x2="64.2218" y2="16.1879" gradientUnits="userSpaceOnUse">
<stop stop-color="#A268F9"/>
<stop offset="1" stop-color="#B88BFB"/>
</linearGradient>
<linearGradient id="paint20_linear_107_753" x1="66.5947" y1="8.68805" x2="64.2218" y2="8.68805" gradientUnits="userSpaceOnUse">
<stop stop-color="#A268F9"/>
<stop offset="1" stop-color="#B88BFB"/>
</linearGradient>
<linearGradient id="paint21_linear_107_753" x1="66.5947" y1="31.1875" x2="64.2218" y2="31.1875" gradientUnits="userSpaceOnUse">
<stop stop-color="#A268F9"/>
<stop offset="1" stop-color="#B88BFB"/>
</linearGradient>
<linearGradient id="paint22_linear_107_753" x1="66.5947" y1="38.6874" x2="64.2218" y2="38.6874" gradientUnits="userSpaceOnUse">
<stop stop-color="#A268F9"/>
<stop offset="1" stop-color="#B88BFB"/>
</linearGradient>
<linearGradient id="paint23_linear_107_753" x1="66.5947" y1="46.1871" x2="64.2218" y2="46.1871" gradientUnits="userSpaceOnUse">
<stop stop-color="#A268F9"/>
<stop offset="1" stop-color="#B88BFB"/>
</linearGradient>
<linearGradient id="paint24_linear_107_753" x1="73.1569" y1="23.6876" x2="70.7841" y2="23.6876" gradientUnits="userSpaceOnUse">
<stop stop-color="#A268F9"/>
<stop offset="1" stop-color="#B88BFB"/>
</linearGradient>
<linearGradient id="paint25_linear_107_753" x1="73.1569" y1="16.1879" x2="70.7841" y2="16.1879" gradientUnits="userSpaceOnUse">
<stop stop-color="#A268F9"/>
<stop offset="1" stop-color="#B88BFB"/>
</linearGradient>
<linearGradient id="paint26_linear_107_753" x1="73.1569" y1="8.68805" x2="70.7841" y2="8.68805" gradientUnits="userSpaceOnUse">
<stop stop-color="#A268F9"/>
<stop offset="1" stop-color="#B88BFB"/>
</linearGradient>
<linearGradient id="paint27_linear_107_753" x1="73.1569" y1="31.1875" x2="70.7841" y2="31.1875" gradientUnits="userSpaceOnUse">
<stop stop-color="#A268F9"/>
<stop offset="1" stop-color="#B88BFB"/>
</linearGradient>
<linearGradient id="paint28_linear_107_753" x1="73.1569" y1="38.6874" x2="70.7841" y2="38.6874" gradientUnits="userSpaceOnUse">
<stop stop-color="#A268F9"/>
<stop offset="1" stop-color="#B88BFB"/>
</linearGradient>
<linearGradient id="paint29_linear_107_753" x1="73.1569" y1="46.1871" x2="70.7841" y2="46.1871" gradientUnits="userSpaceOnUse">
<stop stop-color="#A268F9"/>
<stop offset="1" stop-color="#B88BFB"/>
</linearGradient>
<linearGradient id="paint30_linear_107_753" x1="35.6964" y1="57.7501" x2="34.3244" y2="57.7501" gradientUnits="userSpaceOnUse">
<stop stop-color="#A268F9"/>
<stop offset="1" stop-color="#B88BFB"/>
</linearGradient>
<linearGradient id="paint31_linear_107_753" x1="60.6961" y1="57.7501" x2="59.3243" y2="57.7501" gradientUnits="userSpaceOnUse">
<stop stop-color="#A268F9"/>
<stop offset="1" stop-color="#B88BFB"/>
</linearGradient>
<linearGradient id="paint32_linear_107_753" x1="22.4759" y1="62.7499" x2="21.104" y2="62.7499" gradientUnits="userSpaceOnUse">
<stop stop-color="#A268F9"/>
<stop offset="1" stop-color="#B88BFB"/>
</linearGradient>
<linearGradient id="paint33_linear_107_753" x1="83.9464" y1="62.7499" x2="82.5743" y2="62.7499" gradientUnits="userSpaceOnUse">
<stop stop-color="#A268F9"/>
<stop offset="1" stop-color="#B88BFB"/>
</linearGradient>
<linearGradient id="paint34_linear_107_753" x1="79.1765" y1="32" x2="48.3924" y2="32" gradientUnits="userSpaceOnUse">
<stop stop-color="#A268F9"/>
<stop offset="1" stop-color="#B88BFB"/>
</linearGradient>
</defs>
</svg>
