<svg width="84" height="74" viewBox="0 0 84 74" fill="none" xmlns="http://www.w3.org/2000/svg">
<circle cx="32" cy="42" r="32" fill="#F4E19C" fill-opacity="0.5"/>
<g clip-path="url(#clip0_107_657)">
<path d="M83.7392 27.2949L73.0273 13.3799C72.6308 12.8652 71.9077 12.7383 71.3593 13.0869L64.4433 17.4853H55.4233C55.3066 17.4853 55.1904 17.5102 55.0781 17.5429L48.0844 19.5561L40.8276 17.5713L33.7763 13.0869C33.2373 12.7441 32.5273 12.8603 32.1264 13.3574L20.2783 28.0332C19.8525 28.5605 19.9228 29.3305 20.4365 29.7724L26.6464 35.1167L32.2177 42.6245C30.5883 44.3603 30.6201 47.0981 32.3154 48.7939C33.0668 49.5449 34.0224 49.9692 35.0053 50.0679C34.9711 50.2905 34.9536 50.5166 34.9536 50.7461C34.9536 51.9306 35.415 53.0444 36.2524 53.8818C37.0903 54.7197 38.2041 55.1811 39.3886 55.1811C39.4047 55.1811 39.4204 55.1802 39.436 55.1797C39.4355 55.2099 39.434 55.2397 39.434 55.27C39.434 56.4546 39.8955 57.5683 40.7329 58.4062C41.5708 59.2436 42.6845 59.7051 43.8691 59.7051C44.103 59.7051 44.3344 59.686 44.5615 59.6509C44.6577 60.6372 45.083 61.5972 45.8369 62.3511C46.7011 63.2158 47.8369 63.6479 48.9726 63.6479C50.1084 63.6479 51.2441 63.2158 52.1088 62.3511L52.7871 61.6728L53.0717 61.9023C53.9292 62.7329 55.0424 63.1479 56.1557 63.1479C57.2915 63.1479 58.4272 62.7158 59.2915 61.8511C60.1738 60.9687 60.6059 59.8042 60.5879 58.6455C61.7461 58.6631 62.9111 58.2314 63.7934 57.3496C64.6748 56.4678 65.1069 55.3042 65.0898 54.146C66.2963 54.165 67.4409 53.7016 68.2949 52.8476C69.1772 51.9653 69.6093 50.8008 69.5913 49.6421C70.7505 49.6597 71.9145 49.228 72.7968 48.3457C74.3027 46.8398 74.4965 44.5122 73.3798 42.7939L77.4477 34.2744L83.5634 29.0117C84.0688 28.5766 84.146 27.8227 83.7392 27.2949ZM33.375 15.8061L38.4453 19.0303L27.4155 32.4678L22.9956 28.6636L33.375 15.8061ZM34.0903 44.2964L35.6206 42.7661C35.6669 42.7197 35.7158 42.6758 35.7656 42.6347C36.0649 42.3906 36.4272 42.2451 36.811 42.2104C36.8217 42.2095 36.833 42.2095 36.8437 42.209C36.8984 42.2046 36.9531 42.2016 37.0083 42.2021C37.5327 42.2095 38.02 42.4238 38.3813 42.8052C39.0903 43.5547 39.0522 44.7793 38.2963 45.5351L36.8125 47.019C36.062 47.7695 34.8408 47.7695 34.0903 47.019C33.3398 46.2681 33.3398 45.0469 34.0903 44.2964ZM38.0273 52.1069C37.6635 51.7436 37.4633 51.2602 37.4633 50.7461C37.4633 50.2319 37.6635 49.7485 38.0273 49.3848L40.9946 46.4175C41.5629 45.8491 42.4565 45.6933 43.1831 46.0395C43.9321 46.3965 44.3535 47.2095 44.2436 48.0273C44.185 48.4639 43.9819 48.875 43.6704 49.187L40.75 52.1069C40.3862 52.4707 39.9028 52.6709 39.3886 52.6709C38.8745 52.6709 38.3911 52.4707 38.0273 52.1069ZM42.5078 56.6308C42.144 56.2676 41.9438 55.7842 41.9438 55.27C41.9438 54.7558 42.144 54.2724 42.5078 53.9087L45.4746 50.9414C46.0825 50.334 47.0576 50.2031 47.8017 50.6362C48.4814 51.0317 48.8374 51.8081 48.7207 52.5815C48.6567 53.0068 48.4545 53.4067 48.1503 53.7109L45.2304 56.6308C44.8667 56.9946 44.3833 57.1948 43.8691 57.1948C43.3549 57.1948 42.8715 56.9946 42.5078 56.6308ZM47.6113 60.5762C46.8608 59.8257 46.8608 58.6045 47.6113 57.854L49.1416 56.3237C49.1879 56.2773 49.2363 56.2339 49.2861 56.1929C49.2876 56.1919 49.2885 56.1909 49.2895 56.1899C49.5385 55.9878 49.831 55.8525 50.143 55.7934C50.1503 55.7925 50.1577 55.7915 50.165 55.7905C50.2187 55.7808 50.2734 55.7729 50.3281 55.7681C50.3501 55.7661 50.372 55.7661 50.3945 55.7646C50.4394 55.7622 50.4838 55.7593 50.5293 55.7598C51.0532 55.7671 51.541 55.9809 51.9023 56.3628C51.9467 56.4097 51.9882 56.4585 52.0263 56.5088C52.6035 57.2632 52.5258 58.3838 51.8095 59.1006L50.3335 60.5766C49.583 61.3271 48.3618 61.3266 47.6113 60.5762ZM71.0219 46.5708C70.2714 47.3218 69.0503 47.3213 68.2998 46.5708C68.2724 46.5434 68.2436 46.5181 68.2143 46.4941L60.145 38.3398C59.6572 37.8471 58.8628 37.8432 58.3701 38.331C57.8774 38.8183 57.8735 39.6128 58.3608 40.1054L66.5175 48.3472C66.5185 48.3481 66.5195 48.3491 66.5205 48.3501C67.271 49.1006 67.271 50.3223 66.5205 51.0727C66.1567 51.4365 65.6733 51.6367 65.1591 51.6367C64.6445 51.6367 64.1611 51.4365 63.7978 51.0727L58.3413 45.5596C57.854 45.0669 57.0595 45.063 56.5669 45.5503C56.0742 46.0381 56.0703 46.8325 56.5576 47.3252L61.9306 52.7539C61.958 52.7881 61.9873 52.8208 62.0185 52.852C62.769 53.6025 62.769 54.8242 62.0185 55.5747C61.2675 56.3252 60.0459 56.3247 59.2954 55.5742L56.3173 52.5649C55.8295 52.0723 55.0351 52.0679 54.5424 52.5556C54.0498 53.043 54.0459 53.8374 54.5332 54.3301L57.4282 57.2549C57.4555 57.2891 57.4848 57.3223 57.5166 57.3535C58.267 58.104 58.267 59.3257 57.5166 60.0762C56.7661 60.8271 55.5449 60.8266 54.7944 60.0762C54.708 59.9897 54.6064 59.9233 54.5097 59.8491C54.4277 59.7866 54.4062 59.7432 54.4472 59.6435C54.4887 59.5425 54.5507 59.4512 54.5922 59.3496C54.6381 59.2363 54.6753 59.1196 54.7114 59.0024C54.9038 58.3823 54.9604 57.7153 54.874 57.0718C54.708 55.8369 54.0288 54.7226 52.9995 54.0176C52.4433 53.6372 51.7998 53.3877 51.1328 53.2939C51.456 51.8681 51.0678 50.3223 50.0581 49.2554C49.227 48.3774 48.1045 47.8848 46.8969 47.8681C46.853 47.8677 46.809 47.8677 46.7646 47.8681C46.7915 46.7158 46.3725 45.5708 45.5781 44.7314C44.7465 43.8535 43.624 43.3608 42.4169 43.3442C42.0581 43.3393 41.6958 43.3774 41.3461 43.458C41.1967 42.4184 40.6728 41.4565 39.8793 40.7685C39.0908 40.0859 38.0991 39.707 37.0429 39.6924C35.9311 39.6763 34.8388 40.0864 34.0131 40.832L29.1621 34.2954L40.7675 20.1567L44.4663 21.1684L39.6357 29.6924C39.0517 30.7231 38.9043 31.9194 39.2202 33.061C39.5361 34.2031 40.2773 35.1533 41.3081 35.7373C41.3725 35.7739 41.4375 35.8086 41.5034 35.8418C41.5083 35.8442 41.5131 35.8467 41.5185 35.8491C41.6919 35.9355 41.8701 36.0097 42.0507 36.0722C42.892 36.3638 43.8007 36.3955 44.6772 36.1533C45.8188 35.8374 46.769 35.0957 47.353 34.0654L50.4921 28.5259L56.0971 28.9233L71.0224 43.8481C71.7724 44.5991 71.7724 45.8203 71.0219 46.5708ZM71.542 40.8183L57.5405 26.8174C57.5141 26.7905 57.4863 26.7651 57.4575 26.7412C57.2558 26.5732 57.0058 26.4717 56.7421 26.4531L49.8794 25.9663C49.4047 25.9336 48.9331 26.186 48.6987 26.5996L45.1694 32.8281C44.916 33.2754 44.5034 33.5971 44.0078 33.7344C43.5127 33.8716 42.9931 33.8071 42.5454 33.5537C42.0981 33.3003 41.7763 32.8877 41.6391 32.3921C41.5019 31.8965 41.5659 31.3769 41.8198 30.9297L46.5312 22.6147L48.4404 22.0654C48.4531 22.0615 48.4653 22.0566 48.478 22.0527L55.6035 19.9951H64.2129L74.9609 33.6582L71.542 40.8183ZM76.6049 31.6885L66.6655 19.0464L71.7382 15.8203L81.0258 27.8843L76.6049 31.6885Z" fill="url(#paint0_linear_107_657)"/>
<path d="M58.7729 15.1289C59.0942 15.1289 59.4155 15.0063 59.6606 14.7612L68.2329 6.18897C68.7231 5.69873 68.7231 4.9043 68.2329 4.41406C67.7427 3.92383 66.9482 3.92383 66.458 4.41406L57.8857 12.9863C57.3955 13.4766 57.3955 14.271 57.8857 14.7612C58.1309 15.0063 58.4521 15.1289 58.7729 15.1289Z" fill="url(#paint1_linear_107_657)"/>
<path d="M44.3394 14.7612C44.5845 15.0063 44.9058 15.1289 45.2271 15.1289C45.5479 15.1289 45.8691 15.0063 46.1143 14.7612C46.6045 14.271 46.6045 13.4766 46.1143 12.9863L37.542 4.41406C37.0518 3.92383 36.2573 3.92383 35.7671 4.41406C35.2769 4.9043 35.2769 5.69873 35.7671 6.18897L44.3394 14.7612Z" fill="url(#paint2_linear_107_657)"/>
<path d="M52 15.1289C52.6929 15.1289 53.2549 14.5669 53.2549 13.874V6.77979C53.2549 6.08691 52.6929 5.5249 52 5.5249C51.3071 5.5249 50.7451 6.08691 50.7451 6.77979V13.874C50.7451 14.5669 51.3071 15.1289 52 15.1289Z" fill="url(#paint3_linear_107_657)"/>
<path d="M50.8418 2.23143C51.041 2.71434 51.5376 3.03124 52.0615 3.0039C52.5791 2.97704 53.0337 2.62743 53.1938 2.13476C53.3545 1.63817 53.1797 1.07225 52.7637 0.755848C52.3394 0.432606 51.7476 0.41454 51.3037 0.707997C50.8086 1.03515 50.6167 1.68651 50.8418 2.23143Z" fill="url(#paint4_linear_107_657)"/>
</g>
<defs>
<linearGradient id="paint0_linear_107_657" x1="82.644" y1="38.2693" x2="47.9321" y2="38.2693" gradientUnits="userSpaceOnUse">
<stop stop-color="#A268F9"/>
<stop offset="1" stop-color="#B88BFB"/>
</linearGradient>
<linearGradient id="paint1_linear_107_657" x1="68.3658" y1="9.58765" x2="62.3549" y2="9.58765" gradientUnits="userSpaceOnUse">
<stop stop-color="#A268F9"/>
<stop offset="1" stop-color="#B88BFB"/>
</linearGradient>
<linearGradient id="paint2_linear_107_657" x1="46.2471" y1="9.58765" x2="40.2363" y2="9.58765" gradientUnits="userSpaceOnUse">
<stop stop-color="#A268F9"/>
<stop offset="1" stop-color="#B88BFB"/>
</linearGradient>
<linearGradient id="paint3_linear_107_657" x1="53.2017" y1="10.3269" x2="51.8405" y2="10.3269" gradientUnits="userSpaceOnUse">
<stop stop-color="#A268F9"/>
<stop offset="1" stop-color="#B88BFB"/>
</linearGradient>
<linearGradient id="paint4_linear_107_657" x1="53.1998" y1="1.75277" x2="51.8414" y2="1.75277" gradientUnits="userSpaceOnUse">
<stop stop-color="#A268F9"/>
<stop offset="1" stop-color="#B88BFB"/>
</linearGradient>
<clipPath id="clip0_107_657">
<rect width="64" height="64" fill="white" transform="translate(20)"/>
</clipPath>
</defs>
</svg>
