<svg width="84" height="74" viewBox="0 0 84 74" fill="none" xmlns="http://www.w3.org/2000/svg">
<circle cx="32" cy="42" r="32" fill="#F4E19C" fill-opacity="0.5"/>
<path d="M52 17.5C52.6899 17.5 53.25 16.9399 53.25 16.25C53.25 15.5601 52.6899 15 52 15C51.3101 15 50.75 15.5601 50.75 16.25C50.75 16.9399 51.3101 17.5 52 17.5Z" fill="url(#paint0_linear_107_1485)"/>
<path d="M28.25 13.75V47.3076C28.25 49.5762 29.4814 51.6699 31.4644 52.7715L51.3931 63.8428C51.5815 63.9478 51.7905 64 52 64C52.209 64 52.418 63.9478 52.6069 63.8428L72.5356 52.7715C74.5186 51.6699 75.75 49.5762 75.75 47.3076V13.75C75.75 11.6821 74.0679 10 72 10H66.563L52.7207 0.228516C52.2886 -0.0761719 51.7114 -0.0761719 51.2793 0.228516L37.437 10H32C29.9321 10 28.25 11.6821 28.25 13.75H28.25ZM73.25 13.75V47.3076C73.25 48.6689 72.5112 49.9253 71.3218 50.5859L52 61.3198L32.6782 50.5859C31.4888 49.9253 30.75 48.6689 30.75 47.3076V13.75C30.75 13.0605 31.3105 12.5 32 12.5H72C72.6895 12.5 73.25 13.0605 73.25 13.75ZM52 2.77979L62.228 10H41.772L52 2.77979Z" fill="url(#paint1_linear_107_1485)"/>
<path d="M57 15C56.3096 15 55.75 15.5596 55.75 16.25C55.75 16.9404 56.3096 17.5 57 17.5H68.25V46.5718L52 55.6001L35.75 46.5718V17.5H47C47.6904 17.5 48.25 16.9404 48.25 16.25C48.25 15.5596 47.6904 15 47 15H34.5C33.8096 15 33.25 15.5596 33.25 16.25V47.3076C33.25 47.7617 33.4961 48.1797 33.8931 48.4004L51.3931 58.1226C51.5815 58.2275 51.791 58.2798 52 58.2798C52.209 58.2798 52.4185 58.2275 52.6069 58.1226L70.1069 48.4004C70.5039 48.1797 70.75 47.7617 70.75 47.3076V16.25C70.75 15.5596 70.1904 15 69.5 15H57Z" fill="url(#paint2_linear_107_1485)"/>
<path d="M41.8951 31.54C41.7481 31.9927 41.8706 32.4893 42.2115 32.8213L46.1983 36.7075L45.2578 42.1948C45.1778 42.6641 45.3706 43.1377 45.7554 43.4175C46.1382 43.6958 46.6485 43.7354 47.0718 43.5127L51.9986 40.9224L56.9258 43.5127C57.3467 43.7339 57.857 43.6968 58.2422 43.4175C58.627 43.1377 58.8199 42.6641 58.7393 42.1948L57.7993 36.7075L61.7862 32.8198C62.127 32.4878 62.2495 31.9907 62.1026 31.5386C61.9556 31.0859 61.564 30.7563 61.0933 30.688L55.5826 29.8882L53.1201 24.8955C52.9092 24.4688 52.4746 24.1987 51.9991 24.1987C51.523 24.1987 51.0884 24.4688 50.878 24.8955L48.4141 29.8887L42.9043 30.689C42.4331 30.7578 42.042 31.0874 41.8951 31.54ZM49.4234 32.2681C49.8306 32.209 50.1826 31.9536 50.3648 31.5845L51.9986 28.2739L53.6314 31.584C53.8135 31.9531 54.1656 32.209 54.5733 32.2681L58.2276 32.7983L55.5835 35.3765C55.2891 35.6636 55.1548 36.0767 55.2242 36.4824L55.8477 40.1216L52.5806 38.4038C52.2163 38.2119 51.7813 38.2119 51.4175 38.4038L48.1499 40.1216L48.7735 36.4824C48.8428 36.0767 48.7085 35.6631 48.4141 35.376L45.7701 32.7988L49.4234 32.2681Z" fill="url(#paint3_linear_107_1485)"/>
<defs>
<linearGradient id="paint0_linear_107_1485" x1="53.197" y1="16.25" x2="51.8411" y2="16.25" gradientUnits="userSpaceOnUse">
<stop stop-color="#A268F9"/>
<stop offset="1" stop-color="#B88BFB"/>
</linearGradient>
<linearGradient id="paint1_linear_107_1485" x1="74.7436" y1="32" x2="48.9809" y2="32" gradientUnits="userSpaceOnUse">
<stop stop-color="#A268F9"/>
<stop offset="1" stop-color="#B88BFB"/>
</linearGradient>
<linearGradient id="paint2_linear_107_1485" x1="69.9555" y1="36.6399" x2="49.6165" y2="36.6399" gradientUnits="userSpaceOnUse">
<stop stop-color="#A268F9"/>
<stop offset="1" stop-color="#B88BFB"/>
</linearGradient>
<linearGradient id="paint3_linear_107_1485" x1="61.733" y1="33.9275" x2="50.7067" y2="33.9275" gradientUnits="userSpaceOnUse">
<stop stop-color="#A268F9"/>
<stop offset="1" stop-color="#B88BFB"/>
</linearGradient>
</defs>
</svg>
