<svg width="84" height="74" viewBox="0 0 84 74" fill="none" xmlns="http://www.w3.org/2000/svg">
<circle cx="32" cy="42" r="32" fill="#F4E19C" fill-opacity="0.5"/>
<g clip-path="url(#clip0_107_637)">
<path d="M24.7372 51.3628C25.8766 51.3628 26.9465 50.9659 27.7914 50.2494C29.2735 50.9099 30.8805 51.285 32.5094 51.3511V56.2833C25.7081 58.9768 22.3907 61.6476 22.2262 61.782C21.817 62.1164 21.6624 62.672 21.8399 63.1699C22.0174 63.6678 22.4887 64 23.0173 64H56.7803C57.4706 64 58.0303 63.4404 58.0303 62.75C58.0303 62.0596 57.4706 61.5 56.7803 61.5H27.2729C28.6192 60.7501 30.3647 59.8746 32.518 58.9795C32.5886 59.6029 33.1171 60.0875 33.7594 60.0875C34.4497 60.0875 35.0094 59.5279 35.0094 58.8375V58.0075C44.2986 54.6106 54.2864 53.2785 64.1429 53.2165C70.3075 53.1781 76.4731 53.644 82.5766 54.4994C83.3149 54.6029 84.0001 54.008 84.0001 53.2611V6.41125C84.0001 5.72088 83.4405 5.16125 82.7501 5.16125H63.475C62.7846 5.16125 62.225 5.72088 62.225 6.41125V50.7455C61.1556 50.7703 60.095 50.8098 59.0438 50.8649V20.9225C59.0438 20.2321 58.4841 19.6725 57.7938 19.6725H54.3363V17.0213C54.3363 16.3309 53.7766 15.7713 53.0863 15.7713H44.385C43.6946 15.7713 43.135 16.3309 43.135 17.0213V19.6725H39.6775C38.9871 19.6725 38.4275 20.2321 38.4275 20.9225V26.8516C36.7849 26.0879 34.9555 25.6606 33.0279 25.6606C25.9418 25.6606 20.1768 31.4256 20.1768 38.5118C20.1768 40.2466 20.5146 41.9193 21.1824 43.4968C20.4297 44.3538 20 45.4661 20 46.6255C20 49.2376 22.1251 51.3628 24.7372 51.3628ZM37.1041 54.6549C36.3781 54.884 35.6805 55.1169 35.0094 55.3519V51.2093C36.1919 51.0253 37.342 50.6764 38.4275 50.1734V54.2526C37.9835 54.3836 37.5416 54.5169 37.1041 54.6549ZM64.85 50.7129C64.8084 50.7129 64.7666 50.7129 64.725 50.7129V45.9663H81.5V51.8311C75.9813 51.1143 70.4162 50.7129 64.85 50.7129ZM81.5 7.66125V43.4663H64.725V7.66125H81.5ZM40.9275 22.1725H44.385C45.0754 22.1725 45.635 21.6129 45.635 20.9225V18.2713H51.8363V20.9225C51.8363 21.6129 52.3959 22.1725 53.0863 22.1725H56.5438V51.0246C51.2815 51.4299 46.0396 52.2393 40.9275 53.5605V50.6139C43.3647 51.169 45.965 50.296 47.577 48.3849H52.6336C53.324 48.3849 53.8836 47.8253 53.8836 47.1349C53.8836 46.4445 53.324 45.8849 52.6336 45.8849H48.9069C49.0721 45.3019 49.1625 44.6878 49.1625 44.0525C49.1625 43.1558 48.9846 42.2878 48.6558 41.4896H52.6336C53.324 41.4896 53.8836 40.93 53.8836 40.2396C53.8836 39.5493 53.324 38.9896 52.6336 38.9896H46.8656C46.5608 38.7226 46.2306 38.4811 45.8768 38.2704C45.8536 37.0243 45.6486 35.781 45.2679 34.5943H52.6336C53.324 34.5943 53.8836 34.0346 53.8836 33.3443C53.8836 32.6539 53.324 32.0943 52.6336 32.0943H44.6667C44.5049 32.0943 44.3506 32.126 44.2086 32.1821C43.3791 30.7145 42.2565 29.4125 40.9275 28.3755V22.1725ZM23.8133 43.2251C23.0591 41.7541 22.6767 40.1684 22.6767 38.5118C22.6767 32.8041 27.3203 28.1606 33.0279 28.1606C38.8431 28.1606 43.6211 33.172 43.3671 38.9711C43.3457 39.4559 43.6066 39.906 44.0305 40.1305C45.1639 40.7314 46.052 41.4973 46.4594 42.7609C46.897 44.1181 46.6031 45.642 45.6954 46.7416C44.2641 48.4751 41.6392 48.7765 39.8587 47.4079C39.4475 47.0918 38.8839 47.0625 38.442 47.3343C37.3837 47.9853 36.2207 48.435 35.0094 48.6706V47.3528V41.2276C35.0094 40.5336 35.2796 39.8811 35.7705 39.3903L36.887 38.2738C37.3751 37.7856 37.3751 36.9941 36.887 36.5059C36.3989 36.0176 35.6074 36.0178 35.1191 36.5059L34.0026 37.6224C33.0396 38.5854 32.5094 39.8658 32.5094 41.2275V42.4128L30.7078 40.6113C30.2196 40.1231 29.4281 40.1231 28.94 40.6113C28.4519 41.0994 28.4519 41.8909 28.94 42.379L31.5161 44.9551C32.1566 45.5955 32.5092 46.447 32.5092 47.3528V48.8485C30.9724 48.7713 29.4634 48.353 28.1159 47.6249C27.5786 47.3345 26.8916 47.4846 26.5241 47.9714C26.0965 48.5378 25.4451 48.8626 24.7372 48.8626C23.5036 48.8626 22.5 47.859 22.5 46.6254C22.5 45.9089 22.8484 45.2299 23.4319 44.8093C23.933 44.448 24.095 43.7749 23.8133 43.2251Z" fill="url(#paint0_linear_107_637)"/>
<path d="M82.7501 61.5H67.7738C67.0834 61.5 66.5238 62.0596 66.5238 62.75C66.5238 63.4404 67.0834 64 67.7738 64H82.7501C83.4404 64 84.0001 63.4404 84.0001 62.75C84.0001 62.0596 83.4404 61.5 82.7501 61.5Z" fill="url(#paint1_linear_107_637)"/>
<path d="M33.7447 0C31.6622 0 29.7687 1.05762 28.673 2.76625C28.4907 2.74462 28.3066 2.73375 28.1215 2.73375C25.5505 2.73375 23.4589 4.82538 23.4589 7.39638C23.4589 9.96737 25.5505 12.059 28.1215 12.059H43.06C43.7504 12.059 44.31 11.4994 44.31 10.809C44.31 10.1186 43.7504 9.559 43.06 9.559H38.6287C39.3484 8.566 39.7742 7.34688 39.7742 6.0295C39.7742 2.70487 37.0694 0 33.7447 0V0ZM25.9587 7.3965C25.9587 6.204 26.9289 5.23387 28.1214 5.23387C28.3839 5.23387 28.6409 5.28075 28.8854 5.37313C29.5166 5.6115 30.2239 5.30562 30.4821 4.68162C31.0305 3.35637 32.3111 2.5 33.7447 2.5C35.691 2.5 37.2742 4.08337 37.2742 6.0295C37.2742 7.97563 35.6909 9.559 33.7447 9.559H28.1214C26.9289 9.55912 25.9587 8.58887 25.9587 7.3965Z" fill="url(#paint2_linear_107_637)"/>
<path d="M44.6667 27.6987H52.6336C53.324 27.6987 53.8836 27.1391 53.8836 26.4487C53.8836 25.7584 53.324 25.1987 52.6336 25.1987H44.6667C43.9764 25.1987 43.4167 25.7584 43.4167 26.4487C43.4167 27.1391 43.9764 27.6987 44.6667 27.6987Z" fill="url(#paint3_linear_107_637)"/>
<path d="M68.473 18.8483H77.9889C78.6793 18.8483 79.2389 18.2887 79.2389 17.5983V12.8738C79.2389 12.1834 78.6793 11.6238 77.9889 11.6238H68.473C67.7826 11.6238 67.223 12.1834 67.223 12.8738V17.5982C67.223 18.2887 67.7826 18.8483 68.473 18.8483ZM69.723 14.1238H76.7389V16.3482H69.723V14.1238Z" fill="url(#paint4_linear_107_637)"/>
<path d="M68.473 29.3366H77.9889C78.6793 29.3366 79.2389 28.7769 79.2389 28.0866V23.3621C79.2389 22.6717 78.6793 22.1121 77.9889 22.1121H68.473C67.7826 22.1121 67.223 22.6717 67.223 23.3621V28.0866C67.223 28.7769 67.7826 29.3366 68.473 29.3366ZM69.723 24.6121H76.7389V26.8366H69.723V24.6121Z" fill="url(#paint5_linear_107_637)"/>
<path d="M68.473 39.8248H77.9889C78.6793 39.8248 79.2389 39.2652 79.2389 38.5748V33.8503C79.2389 33.16 78.6793 32.6003 77.9889 32.6003H68.473C67.7826 32.6003 67.223 33.16 67.223 33.8503V38.5748C67.223 39.2652 67.7826 39.8248 68.473 39.8248ZM69.723 35.1003H76.7389V37.3248H69.723V35.1003Z" fill="url(#paint6_linear_107_637)"/>
<path d="M48.4912 9.5837C47.9563 9.69233 47.5472 10.1431 47.4913 10.6863C47.4357 11.2268 47.7571 11.7563 48.2575 11.9637C48.7487 12.1673 49.3353 12.0295 49.6818 11.625C50.0182 11.2321 50.0782 10.6623 49.831 10.2082C49.5742 9.73695 49.018 9.4767 48.4912 9.5837Z" fill="url(#paint7_linear_107_637)"/>
<path d="M61.2338 63.4437C61.8398 64.3683 63.3156 64.0453 63.5041 62.9635C63.7037 61.8177 62.2936 61.0455 61.4331 61.824C60.9797 62.2343 60.8956 62.9361 61.2338 63.4437Z" fill="url(#paint8_linear_107_637)"/>
</g>
<defs>
<linearGradient id="paint0_linear_107_637" x1="82.6442" y1="34.5806" x2="47.9323" y2="34.5806" gradientUnits="userSpaceOnUse">
<stop stop-color="#A268F9"/>
<stop offset="1" stop-color="#B88BFB"/>
</linearGradient>
<linearGradient id="paint1_linear_107_637" x1="83.6298" y1="62.75" x2="74.1511" y2="62.75" gradientUnits="userSpaceOnUse">
<stop stop-color="#A268F9"/>
<stop offset="1" stop-color="#B88BFB"/>
</linearGradient>
<linearGradient id="paint2_linear_107_637" x1="43.8682" y1="6.0295" x2="32.5591" y2="6.0295" gradientUnits="userSpaceOnUse">
<stop stop-color="#A268F9"/>
<stop offset="1" stop-color="#B88BFB"/>
</linearGradient>
<linearGradient id="paint3_linear_107_637" x1="53.6619" y1="26.4487" x2="47.9849" y2="26.4487" gradientUnits="userSpaceOnUse">
<stop stop-color="#A268F9"/>
<stop offset="1" stop-color="#B88BFB"/>
</linearGradient>
<linearGradient id="paint4_linear_107_637" x1="78.9843" y1="15.236" x2="72.4672" y2="15.236" gradientUnits="userSpaceOnUse">
<stop stop-color="#A268F9"/>
<stop offset="1" stop-color="#B88BFB"/>
</linearGradient>
<linearGradient id="paint5_linear_107_637" x1="78.9843" y1="25.7243" x2="72.4672" y2="25.7243" gradientUnits="userSpaceOnUse">
<stop stop-color="#A268F9"/>
<stop offset="1" stop-color="#B88BFB"/>
</linearGradient>
<linearGradient id="paint6_linear_107_637" x1="78.9843" y1="36.2126" x2="72.4672" y2="36.2126" gradientUnits="userSpaceOnUse">
<stop stop-color="#A268F9"/>
<stop offset="1" stop-color="#B88BFB"/>
</linearGradient>
<linearGradient id="paint7_linear_107_637" x1="49.9294" y1="10.8083" x2="48.575" y2="10.8083" gradientUnits="userSpaceOnUse">
<stop stop-color="#A268F9"/>
<stop offset="1" stop-color="#B88BFB"/>
</linearGradient>
<linearGradient id="paint8_linear_107_637" x1="63.4703" y1="62.7473" x2="62.1165" y2="62.7473" gradientUnits="userSpaceOnUse">
<stop stop-color="#A268F9"/>
<stop offset="1" stop-color="#B88BFB"/>
</linearGradient>
<clipPath id="clip0_107_637">
<rect width="64" height="64" fill="white" transform="translate(20)"/>
</clipPath>
</defs>
</svg>
