<svg width="84" height="74" viewBox="0 0 84 74" fill="none" xmlns="http://www.w3.org/2000/svg">
<circle cx="32" cy="42" r="32" fill="#F4E19C" fill-opacity="0.5"/>
<g clip-path="url(#clip0_107_746)">
<path d="M83.917 29.786L81.284 18.3003C80.9432 16.8127 79.6403 15.7737 78.1152 15.7737H64.4403V12.7254H67.9039C68.5941 12.7254 69.1539 12.1658 69.1539 11.4754C69.1539 10.785 68.5941 10.2254 67.9039 10.2254H58.7486C58.2329 10.2254 57.77 10.5422 57.5834 11.023L56.2236 14.5257H47.2106C46.5203 14.5257 45.9606 15.0853 45.9606 15.7757C45.9606 16.466 46.5203 17.0257 47.2106 17.0257H57.0791C57.5949 17.0257 58.0577 16.7089 58.2444 16.228L59.6041 12.7254H61.9401V17.014C61.9401 17.0173 61.9396 17.0204 61.9396 17.0237V39.9712H56.2948L54.1548 37.9722V22.9207C54.1548 22.2303 53.595 21.6707 52.9048 21.6707C52.2145 21.6707 51.6548 22.2303 51.6548 22.9207V37.2649H44.5545V22.9207C44.5545 22.2303 43.9949 21.6707 43.3045 21.6707C42.6141 21.6707 42.0545 22.2303 42.0545 22.9207V37.2649H34.9543V22.9207C34.9543 22.2303 34.3946 21.6707 33.7043 21.6707C33.0139 21.6707 32.4543 22.2303 32.4543 22.9207V37.2649H22.5003V29.9689L27.2356 17.0255H36.2248C36.9151 17.0255 37.4748 16.4659 37.4748 15.7755C37.4748 15.0852 36.9151 14.5255 36.2248 14.5255H26.362C25.8372 14.5255 25.3684 14.8533 25.1881 15.346L20.0764 29.3179C20.026 29.4555 20.0003 29.6009 20.0003 29.7474V38.5094C20.0003 38.5114 20 38.5134 20 38.5154V46.8584C20 47.5488 20.5596 48.1084 21.25 48.1084H25.114C25.1579 51.2399 27.7175 53.7744 30.8593 53.7744C32.6785 53.7744 34.3019 52.9238 35.3558 51.6004C36.4196 52.9354 38.0568 53.7749 39.8495 53.7748C42.9482 53.7738 45.5619 51.216 45.5999 48.1085H65.5617C65.6056 51.24 68.1652 53.7745 71.307 53.7745C74.4487 53.7745 77.0084 51.2402 77.0522 48.1085H79.3838C81.9291 48.1085 84 46.0378 84 43.4924V30.5133C84 30.2714 83.9721 30.0273 83.917 29.786ZM78.1152 18.2737C78.4673 18.2737 78.7682 18.5142 78.8471 18.8587L80.9825 28.1758H72.764C72.0349 28.1758 71.4417 27.5827 71.4417 26.8535V18.2737H78.1152ZM22.5 39.7654H52.412L54.9486 42.1347C55.1771 42.348 55.4893 42.4712 55.8019 42.4712H61.9399V45.6085H45.0711C44.1469 43.5983 42.086 42.2839 39.8759 42.2799C38.1292 42.2765 36.4465 43.085 35.359 44.4519C34.277 43.0938 32.5961 42.2798 30.8593 42.2798C28.6483 42.2798 26.5754 43.6018 25.6441 45.6085H22.5V39.7654ZM30.8593 51.2744C29.0686 51.2744 27.6119 49.8177 27.6119 48.027C27.6119 46.2587 29.0934 44.7797 30.8591 44.7797C32.63 44.7797 34.1035 46.2619 34.1065 48.0304C34.1046 49.8195 32.6488 51.2744 30.8593 51.2744ZM42.3699 50.08C41.8215 50.752 41.0443 51.1704 40.1812 51.2578C38.2965 51.4493 36.6088 49.9218 36.6065 48.0285C36.6065 46.287 38.0429 44.8222 39.7836 44.7813C41.4552 44.7428 42.9164 46.0382 43.0846 47.6995C43.1721 48.5625 42.9182 49.4079 42.3699 50.08ZM71.307 51.2744C69.5165 51.2744 68.0596 49.8177 68.0596 48.027C68.0596 46.2574 69.5429 44.7797 71.3068 44.7797C73.0698 44.7797 74.5542 46.257 74.5542 48.027C74.5544 49.8177 73.0975 51.2744 71.307 51.2744ZM79.3838 45.6084H76.5218C75.59 43.6007 73.5177 42.28 71.3076 42.2797C69.0961 42.2797 67.0239 43.5997 66.0918 45.6084H64.4398L64.4403 18.2737H68.9417V26.8535C68.9417 28.9612 70.6564 30.6758 72.764 30.6758H81.5V43.4923C81.5 44.6591 80.5506 45.6084 79.3838 45.6084Z" fill="url(#paint0_linear_107_746)"/>
<path d="M72.9702 34.157H70.8076C70.1174 34.157 69.5576 34.7167 69.5576 35.407C69.5576 36.0974 70.1174 36.657 70.8076 36.657H72.9702C73.6605 36.657 74.2202 36.0974 74.2202 35.407C74.2202 34.7167 73.6605 34.157 72.9702 34.157Z" fill="url(#paint1_linear_107_746)"/>
<path d="M40.6425 16.2538C40.9043 16.8822 41.6451 17.1917 42.275 16.93C42.904 16.6688 43.2118 15.9269 42.9513 15.2975C42.6909 14.6688 41.9478 14.3603 41.3188 14.6213C40.6881 14.883 40.3839 15.623 40.6425 16.2538Z" fill="url(#paint2_linear_107_746)"/>
</g>
<defs>
<linearGradient id="paint0_linear_107_746" x1="82.6441" y1="32.0001" x2="47.9322" y2="32.0001" gradientUnits="userSpaceOnUse">
<stop stop-color="#A268F9"/>
<stop offset="1" stop-color="#B88BFB"/>
</linearGradient>
<linearGradient id="paint1_linear_107_746" x1="74.1215" y1="35.407" x2="71.5926" y2="35.407" gradientUnits="userSpaceOnUse">
<stop stop-color="#A268F9"/>
<stop offset="1" stop-color="#B88BFB"/>
</linearGradient>
<linearGradient id="paint2_linear_107_746" x1="42.9912" y1="15.7758" x2="41.6387" y2="15.7758" gradientUnits="userSpaceOnUse">
<stop stop-color="#A268F9"/>
<stop offset="1" stop-color="#B88BFB"/>
</linearGradient>
<clipPath id="clip0_107_746">
<rect width="64" height="64" fill="white" transform="translate(20)"/>
</clipPath>
</defs>
</svg>
