<svg width="84" height="74" viewBox="0 0 84 74" fill="none" xmlns="http://www.w3.org/2000/svg">
<circle cx="32" cy="42" r="32" fill="#F4E19C" fill-opacity="0.5"/>
<path d="M63.25 39.875C62.5597 39.875 62 40.4346 62 41.125V49.75C62 53.1963 59.1963 56 55.75 56H42.254C41.5639 56 41.0045 56.5591 41.004 57.2491L41.0023 59.7344L38.0187 56.751C37.8256 56.3076 37.3836 56 36.8724 56H28.75C25.3038 56 22.5 53.1963 22.5 49.75V30.5C22.5 27.0538 25.3038 24.25 28.75 24.25H41.375C42.0653 24.25 42.625 23.6904 42.625 23C42.625 22.3096 42.0653 21.75 41.375 21.75H28.75C23.9253 21.75 20 25.6753 20 30.5V49.75C20 54.5747 23.9253 58.5 28.75 58.5H36.2323L41.3661 63.6339C41.6052 63.873 41.9249 64 42.2502 64C42.4111 64 42.5735 63.9689 42.7279 63.905C43.195 63.7118 43.4996 63.2562 43.5 62.7509L43.503 58.5H55.75C60.5747 58.5 64.5 54.5747 64.5 49.75V41.125C64.5 40.4346 63.9403 39.875 63.25 39.875Z" fill="url(#paint0_linear_107_1282)"/>
<path d="M65.8319 0H62.6683C52.6503 0 44.5 8.15025 44.5 18.1682C44.5 28.1862 52.6503 36.3364 62.6681 36.3364H65.8317C67.3954 36.3364 68.943 36.1378 70.443 35.7453L75.1164 40.416C75.3555 40.6549 75.675 40.7819 76.0003 40.7819C76.1614 40.7819 76.3239 40.7508 76.4785 40.6866C76.9455 40.4931 77.25 40.0374 77.25 39.5319V32.2999C79.2286 30.6975 80.8722 28.6734 82.0257 26.4121C83.3359 23.8439 84 21.0702 84 18.1682C84 8.15025 75.8498 0 65.8319 0ZM75.2479 30.6919C74.9345 30.928 74.75 31.2977 74.75 31.6904V36.5154L71.6911 33.4581C71.4531 33.2204 71.1339 33.0923 70.8074 33.0923C70.6849 33.0923 70.5611 33.1104 70.4404 33.1475C68.9525 33.6047 67.402 33.8365 65.8319 33.8365H62.6683C54.0286 33.8365 47 26.8077 47 18.1682C47 9.52875 54.0288 2.5 62.6683 2.5H65.8319C74.4714 2.5 81.5 9.52875 81.5 18.1682C81.5 23.1346 79.2212 27.6994 75.2479 30.6919Z" fill="url(#paint1_linear_107_1282)"/>
<path d="M69.8792 13.6776C69.6989 11.0608 67.5894 8.95126 64.9724 8.77088C63.4889 8.66901 62.0731 9.16938 60.9895 10.181C59.9207 11.1786 59.3079 12.5889 59.3079 14.0503C59.3079 14.7406 59.8676 15.3003 60.5579 15.3003C61.2481 15.3003 61.8079 14.7406 61.8079 14.0503C61.8079 13.2679 62.1231 12.5428 62.6954 12.0086C63.2671 11.475 64.0144 11.2109 64.8006 11.2651C66.1791 11.3601 67.2902 12.4713 67.3852 13.8496C67.4812 15.2418 66.5679 16.472 65.2136 16.775C64.1164 17.0205 63.3501 17.974 63.3501 19.0936V22.0968C63.3501 22.7871 63.9099 23.3468 64.6001 23.3468C65.2905 23.3468 65.8501 22.7871 65.85 22.0968V19.1935C68.3687 18.585 70.0586 16.2803 69.8792 13.6776Z" fill="url(#paint2_linear_107_1282)"/>
<path d="M65.4838 26.1575C65.2513 25.925 64.9288 25.7913 64.6001 25.7913C64.2713 25.7913 63.9489 25.925 63.7164 26.1575C63.4839 26.39 63.3501 26.7125 63.3501 27.0413C63.3501 27.3713 63.484 27.6938 63.7164 27.9263C63.9489 28.1588 64.2713 28.2913 64.6001 28.2913C64.9288 28.2913 65.2513 28.1588 65.4838 27.9263C65.7163 27.6925 65.8501 27.3713 65.8501 27.0413C65.8501 26.7125 65.7162 26.39 65.4838 26.1575Z" fill="url(#paint3_linear_107_1282)"/>
<path d="M54.375 38.75H28C27.3098 38.75 26.75 39.3096 26.75 40C26.75 40.6904 27.3098 41.25 28 41.25H54.375C55.0654 41.25 55.625 40.6904 55.625 40C55.625 39.3096 55.0653 38.75 54.375 38.75Z" fill="url(#paint4_linear_107_1282)"/>
<path d="M55.2586 46.1162C55.0263 45.8837 54.7038 45.75 54.375 45.75C54.0462 45.75 53.7237 45.8837 53.4912 46.1162C53.2586 46.3487 53.125 46.6712 53.125 47C53.125 47.3288 53.2587 47.6513 53.4912 47.8838C53.7237 48.1163 54.0462 48.25 54.375 48.25C54.7038 48.25 55.0263 48.1163 55.2586 47.8838C55.4913 47.6513 55.625 47.33 55.625 47C55.625 46.6712 55.4911 46.3487 55.2586 46.1162Z" fill="url(#paint5_linear_107_1282)"/>
<path d="M49.4584 45.75H28C27.3098 45.75 26.75 46.3096 26.75 47C26.75 47.6904 27.3098 48.25 28 48.25H49.4584C50.1488 48.25 50.7084 47.6904 50.7084 47C50.7084 46.3096 50.1486 45.75 49.4584 45.75Z" fill="url(#paint6_linear_107_1282)"/>
<path d="M46.25 31.75H28C27.3098 31.75 26.75 32.3096 26.75 33C26.75 33.6904 27.3098 34.25 28 34.25H46.25C46.9404 34.25 47.5 33.6904 47.5 33C47.5 32.3096 46.9403 31.75 46.25 31.75Z" fill="url(#paint7_linear_107_1282)"/>
<defs>
<linearGradient id="paint0_linear_107_1282" x1="63.5572" y1="42.875" x2="39.4216" y2="42.875" gradientUnits="userSpaceOnUse">
<stop stop-color="#A268F9"/>
<stop offset="1" stop-color="#B88BFB"/>
</linearGradient>
<linearGradient id="paint1_linear_107_1282" x1="83.1631" y1="20.3909" x2="61.7394" y2="20.3909" gradientUnits="userSpaceOnUse">
<stop stop-color="#A268F9"/>
<stop offset="1" stop-color="#B88BFB"/>
</linearGradient>
<linearGradient id="paint2_linear_107_1282" x1="69.668" y1="16.0523" x2="63.9273" y2="16.0523" gradientUnits="userSpaceOnUse">
<stop stop-color="#A268F9"/>
<stop offset="1" stop-color="#B88BFB"/>
</linearGradient>
<linearGradient id="paint3_linear_107_1282" x1="65.7971" y1="27.0413" x2="64.4412" y2="27.0413" gradientUnits="userSpaceOnUse">
<stop stop-color="#A268F9"/>
<stop offset="1" stop-color="#B88BFB"/>
</linearGradient>
<linearGradient id="paint4_linear_107_1282" x1="55.0132" y1="40" x2="39.3522" y2="40" gradientUnits="userSpaceOnUse">
<stop stop-color="#A268F9"/>
<stop offset="1" stop-color="#B88BFB"/>
</linearGradient>
<linearGradient id="paint5_linear_107_1282" x1="55.572" y1="47" x2="54.2161" y2="47" gradientUnits="userSpaceOnUse">
<stop stop-color="#A268F9"/>
<stop offset="1" stop-color="#B88BFB"/>
</linearGradient>
<linearGradient id="paint6_linear_107_1282" x1="50.2008" y1="47" x2="37.2064" y2="47" gradientUnits="userSpaceOnUse">
<stop stop-color="#A268F9"/>
<stop offset="1" stop-color="#B88BFB"/>
</linearGradient>
<linearGradient id="paint7_linear_107_1282" x1="47.0604" y1="33" x2="35.8061" y2="33" gradientUnits="userSpaceOnUse">
<stop stop-color="#A268F9"/>
<stop offset="1" stop-color="#B88BFB"/>
</linearGradient>
</defs>
</svg>
