<svg width="57" height="64" viewBox="0 0 57 64" fill="none" xmlns="http://www.w3.org/2000/svg">
<circle cx="22" cy="42" r="32" fill="#F4E19C" fill-opacity="0.5"/>
<path d="M23.6329 26.1653C23.877 26.4094 24.1969 26.5314 24.5167 26.5314C24.8366 26.5314 25.1566 26.4094 25.4006 26.1653C25.8887 25.6772 25.8887 24.8857 25.4006 24.3974C23.6379 22.6347 22.667 20.291 22.667 17.7982C22.667 15.3053 23.6379 12.9615 25.4006 11.1989C25.8887 10.7108 25.8887 9.91929 25.4006 9.43104C24.9125 8.94291 24.121 8.94291 23.6327 9.43104C21.3979 11.666 20.167 14.6375 20.167 17.7982C20.167 20.9588 21.398 23.9303 23.6329 26.1653Z" fill="url(#paint0_linear_125_82)"/>
<path d="M19.1078 30.6904C19.3519 30.9345 19.6718 31.0565 19.9917 31.0565C20.3116 31.0565 20.6316 30.9344 20.8756 30.6904C21.3637 30.2023 21.3637 29.4108 20.8756 28.9227C14.7414 22.7887 14.7414 12.8079 20.8756 6.67379C21.3637 6.18566 21.3637 5.39416 20.8756 4.90604C20.3874 4.41804 19.5959 4.41804 19.1077 4.90604C11.9991 12.0148 11.9991 23.5817 19.1078 30.6904Z" fill="url(#paint1_linear_125_82)"/>
<path d="M9.84741 17.7981C9.84741 11.881 12.1517 6.31784 16.3358 2.13384C16.8239 1.64572 16.8239 0.854219 16.3358 0.366094C15.8475 -0.122031 15.0562 -0.122031 14.5679 0.366094C9.91166 5.02234 7.34729 11.2132 7.34729 17.7982C7.34729 24.3832 9.91166 30.5741 14.5679 35.2303C14.812 35.4745 15.1319 35.5965 15.4518 35.5965C15.7717 35.5965 16.0917 35.4745 16.3357 35.2303C16.8238 34.7422 16.8238 33.9507 16.3357 33.4626C12.1517 29.2783 9.84741 23.7153 9.84741 17.7981Z" fill="url(#paint2_linear_125_82)"/>
<path d="M38.5993 26.1653C38.8434 26.4094 39.1632 26.5314 39.4831 26.5314C39.803 26.5314 40.123 26.4094 40.367 26.1653C42.6019 23.9303 43.8327 20.9588 43.8327 17.7982C43.8327 14.6375 42.6019 11.666 40.367 9.43104C39.8789 8.94291 39.0874 8.94291 38.5991 9.43104C38.111 9.91916 38.111 10.7107 38.5991 11.1989C40.3619 12.9617 41.3327 15.3053 41.3327 17.7982C41.3327 20.291 40.3619 22.6348 38.5991 24.3974C38.1113 24.8857 38.1113 25.6772 38.5993 26.1653Z" fill="url(#paint3_linear_125_82)"/>
<path d="M43.1244 28.9227C42.6363 29.4108 42.6363 30.2023 43.1244 30.6904C43.3685 30.9345 43.6884 31.0565 44.0083 31.0565C44.3282 31.0565 44.6481 30.9344 44.8921 30.6904C52.0009 23.5817 52.0009 12.0148 44.8921 4.90604C44.404 4.41804 43.6125 4.41804 43.1243 4.90604C42.6361 5.39416 42.6361 6.18566 43.1243 6.67379C49.2585 12.8078 49.2585 22.7887 43.1244 28.9227Z" fill="url(#paint4_linear_125_82)"/>
<path d="M49.4322 0.366094C48.9441 -0.122031 48.1526 -0.122031 47.6643 0.366094C47.1762 0.854219 47.1762 1.64572 47.6643 2.13384C51.8484 6.31784 54.1527 11.881 54.1527 17.7981C54.1527 23.7152 51.8484 29.2783 47.6643 33.4623C47.1762 33.9505 47.1762 34.742 47.6643 35.2301C47.9084 35.4742 48.2283 35.5962 48.5482 35.5962C48.8681 35.5962 49.1881 35.4742 49.4321 35.2301C54.0883 30.5738 56.6527 24.383 56.6527 17.798C56.6527 11.213 54.0884 5.02234 49.4322 0.366094Z" fill="url(#paint5_linear_125_82)"/>
<path d="M40.3883 39.4061C40.1989 38.7422 39.5074 38.3577 38.8434 38.5468C38.1796 38.7362 37.7948 39.4278 37.9842 40.0917L38.6019 42.2578H25.3982L30.8594 23.1085C31.2274 23.1875 31.6088 23.23 32.0001 23.23C32.3913 23.23 32.7727 23.1875 33.1407 23.1085L34.8984 29.2718C35.0551 29.8212 35.5557 30.1793 36.0999 30.1793C36.2134 30.1793 36.3288 30.1637 36.4434 30.1311C37.1073 29.9417 37.4921 29.2501 37.3027 28.5862L35.4269 22.0088C36.6494 21.012 37.4319 19.495 37.4319 17.7982C37.4319 14.8032 34.9952 12.3665 32.0002 12.3665C29.0052 12.3665 26.5684 14.8031 26.5684 17.7982C26.5684 19.495 27.3509 21.012 28.5734 22.0087L17.0523 62.4072C16.8997 62.9422 17.1192 63.5137 17.5906 63.8092C17.7948 63.9372 18.0251 64.0001 18.2542 64.0001C18.5539 64.0001 18.8518 63.8926 19.0869 63.6826L32.0001 52.1542L44.9134 63.6826C45.1487 63.8926 45.4464 64.0001 45.7462 64.0001C45.9753 64.0001 46.2056 63.9372 46.4098 63.8092C46.8812 63.5137 47.1006 62.9422 46.9481 62.4072L40.3883 39.4061ZM32.0001 14.8666C33.6167 14.8666 34.9318 16.1817 34.9318 17.7983C34.9318 19.415 33.6167 20.73 32.0001 20.73C30.3834 20.73 29.0683 19.4148 29.0683 17.7982C29.0683 16.1816 30.3834 14.8666 32.0001 14.8666ZM36.5311 44.7578L32.0001 48.803L27.4691 44.7578H36.5311ZM20.6391 58.9453L24.4883 45.4482L30.1231 50.4786L20.6391 58.9453ZM33.8771 50.4786L39.5118 45.4482L43.3611 58.9453L33.8771 50.4786Z" fill="url(#paint6_linear_125_82)"/>
<path d="M37.6362 35.5908C38.3266 35.5908 38.8862 35.0312 38.8862 34.3408C38.8862 33.6505 38.3266 33.0908 37.6362 33.0908C36.9459 33.0908 36.3862 33.6505 36.3862 34.3408C36.3862 35.0312 36.9459 35.5908 37.6362 35.5908Z" fill="url(#paint7_linear_125_82)"/>
<defs>
<linearGradient id="paint0_linear_125_82" x1="25.6481" y1="17.7982" x2="22.6109" y2="17.7982" gradientUnits="userSpaceOnUse">
<stop stop-color="#A268F9"/>
<stop offset="1" stop-color="#B88BFB"/>
</linearGradient>
<linearGradient id="paint1_linear_125_82" x1="21.0835" y1="17.7983" x2="17.0345" y2="17.7983" gradientUnits="userSpaceOnUse">
<stop stop-color="#A268F9"/>
<stop offset="1" stop-color="#B88BFB"/>
</linearGradient>
<linearGradient id="paint2_linear_125_82" x1="16.5037" y1="17.7982" x2="11.43" y2="17.7982" gradientUnits="userSpaceOnUse">
<stop stop-color="#A268F9"/>
<stop offset="1" stop-color="#B88BFB"/>
</linearGradient>
<linearGradient id="paint3_linear_125_82" x1="43.7141" y1="17.7982" x2="40.677" y2="17.7982" gradientUnits="userSpaceOnUse">
<stop stop-color="#A268F9"/>
<stop offset="1" stop-color="#B88BFB"/>
</linearGradient>
<linearGradient id="paint4_linear_125_82" x1="50.0655" y1="17.7983" x2="46.0164" y2="17.7983" gradientUnits="userSpaceOnUse">
<stop stop-color="#A268F9"/>
<stop offset="1" stop-color="#B88BFB"/>
</linearGradient>
<linearGradient id="paint5_linear_125_82" x1="56.4545" y1="17.7981" x2="51.3809" y2="17.7981" gradientUnits="userSpaceOnUse">
<stop stop-color="#A268F9"/>
<stop offset="1" stop-color="#B88BFB"/>
</linearGradient>
<linearGradient id="paint6_linear_125_82" x1="46.3606" y1="38.1833" x2="30.0939" y2="38.1833" gradientUnits="userSpaceOnUse">
<stop stop-color="#A268F9"/>
<stop offset="1" stop-color="#B88BFB"/>
</linearGradient>
<linearGradient id="paint7_linear_125_82" x1="38.8333" y1="34.3408" x2="37.4773" y2="34.3408" gradientUnits="userSpaceOnUse">
<stop stop-color="#A268F9"/>
<stop offset="1" stop-color="#B88BFB"/>
</linearGradient>
</defs>
</svg>
