<svg width="84" height="74" viewBox="0 0 84 74" fill="none" xmlns="http://www.w3.org/2000/svg">
<circle cx="32" cy="42" r="32" fill="#F4E19C" fill-opacity="0.5"/>
<path d="M84 21.25C84 17.8038 81.1963 15 77.75 15H69.25V8.75C69.25 5.30375 66.4463 2.5 63 2.5H41C37.5537 2.5 34.75 5.30375 34.75 8.75V15H26.25C22.8038 15 20 17.8038 20 21.25V55.25C20 58.6963 22.8038 61.5 26.25 61.5H77.75C81.1963 61.5 84 58.6963 84 55.25V21.25ZM41 5H63C64.811 5 66.3261 6.29037 66.6745 8H37.3255C37.6739 6.29037 39.189 5 41 5ZM26.25 17.5H46.3909C47.0811 17.5 47.6409 16.9404 47.6409 16.25C47.6409 15.5596 47.0811 15 46.3909 15H37.25V10.5H66.75V15H57.6409C56.9505 15 56.3909 15.5596 56.3909 16.25C56.3909 16.9404 56.9505 17.5 57.6409 17.5H77.75C79.8177 17.5 81.5 19.1823 81.5 21.25V30.9691L52 39.9022L22.5 30.9691V21.25C22.5 19.1823 24.1823 17.5 26.25 17.5ZM77.75 59H26.25C24.1823 59 22.5 57.3177 22.5 55.25V33.5812L51.6378 42.4046C51.7559 42.4404 51.878 42.4582 52 42.4582C52.122 42.4582 52.2441 42.4404 52.3623 42.4046L81.5 33.5814V55.25C81.5 57.3177 79.8177 59 77.75 59Z" fill="url(#paint0_linear_107_1017)"/>
<path d="M46 32.25H58C58.6903 32.25 59.25 31.6904 59.25 31V25C59.25 24.3096 58.6903 23.75 58 23.75H46C45.3096 23.75 44.75 24.3096 44.75 25V31C44.75 31.6904 45.3096 32.25 46 32.25ZM47.25 26.25H56.75V29.75H47.25V26.25Z" fill="url(#paint1_linear_107_1017)"/>
<path d="M52.0162 17.5C52.345 17.5 52.6675 17.3663 52.9 17.1338C53.1324 16.9013 53.2662 16.5788 53.2662 16.25C53.2662 15.9212 53.1325 15.5988 52.9 15.3663C52.6675 15.1338 52.345 15 52.0162 15C51.6875 15 51.365 15.1338 51.1312 15.3663C50.8987 15.5988 50.7662 15.9212 50.7662 16.25C50.7662 16.5788 50.8987 16.9013 51.1312 17.1338C51.365 17.3663 51.6875 17.5 52.0162 17.5Z" fill="url(#paint2_linear_107_1017)"/>
<defs>
<linearGradient id="paint0_linear_107_1017" x1="82.6441" y1="32" x2="47.9322" y2="32" gradientUnits="userSpaceOnUse">
<stop stop-color="#A268F9"/>
<stop offset="1" stop-color="#B88BFB"/>
</linearGradient>
<linearGradient id="paint1_linear_107_1017" x1="58.9428" y1="28" x2="51.0784" y2="28" gradientUnits="userSpaceOnUse">
<stop stop-color="#A268F9"/>
<stop offset="1" stop-color="#B88BFB"/>
</linearGradient>
<linearGradient id="paint2_linear_107_1017" x1="53.2133" y1="16.25" x2="51.8573" y2="16.25" gradientUnits="userSpaceOnUse">
<stop stop-color="#A268F9"/>
<stop offset="1" stop-color="#B88BFB"/>
</linearGradient>
</defs>
</svg>
