<svg width="84" height="74" viewBox="0 0 84 74" fill="none" xmlns="http://www.w3.org/2000/svg">
<circle cx="32" cy="42" r="32" fill="#F4E19C" fill-opacity="0.5"/>
<g clip-path="url(#clip0_107_1027)">
<path d="M82.0739 62.5342L80.5755 53.9852C80.3072 52.2406 79.7224 50.5859 78.8359 49.0535L79.8256 47.755C80.6367 46.6908 80.4786 45.1734 79.4655 44.3005C75.229 40.6506 68.7617 38.9951 65.6804 38.809C64.499 38.7374 63.4371 39.4826 63.1019 40.62L62.7732 41.7313L59.9419 41.7316L59.337 36.7661C60.2059 36.2005 61.0169 35.53 61.7545 34.7599C62.232 34.2612 62.2149 33.47 61.7162 32.9925C61.2176 32.515 60.4264 32.5321 59.9489 33.0308C57.8824 35.1886 54.9764 36.4309 51.9872 36.4309C45.9864 36.4309 40.9644 31.4037 40.9644 25.4065V19.085C41.0125 19.1116 41.0609 19.1382 41.111 19.1647C43.5274 20.4445 47.1866 21.0934 51.9872 21.0934C56.8125 21.0934 60.4796 20.4441 62.887 19.1637C62.9291 19.1414 62.9695 19.1189 63.0102 19.0964V23.6959C63.0102 24.3862 63.5699 24.9459 64.2602 24.9459C64.9506 24.9459 65.5102 24.3862 65.5102 23.6959V18.7717C65.5102 18.1666 65.4695 17.5621 65.3895 16.9644L70.6456 12.6155C70.9099 12.3968 71.0727 12.0791 71.0959 11.737C71.1191 11.3948 71.0006 11.058 70.7682 10.8056L63.649 3.075C63.4834 2.89525 63.2687 2.76787 63.0316 2.70887L52.3014 0.037125C52.103 -0.012375 51.8956 -0.012375 51.6972 0.037125L40.9686 2.709C40.7315 2.76813 40.5167 2.89538 40.3512 3.07512L33.232 10.8057C33 11.0577 32.8815 11.3939 32.9042 11.7356C32.927 12.0774 33.0891 12.3949 33.3525 12.6138L38.5851 16.9632C38.505 17.5612 38.4642 18.1663 38.4642 18.7717V25.4062C38.4642 30.2017 40.973 34.4219 44.7466 36.8239L44.1705 41.7314L41.2479 41.731L40.9166 40.6099C40.5775 39.4781 39.517 38.7369 38.3409 38.8086C35.2609 38.9948 28.7965 40.6504 24.5614 44.3005C23.5486 45.1735 23.3907 46.6908 24.2017 47.7546L25.1761 49.033C24.2832 50.5715 23.6942 52.233 23.4245 53.9847L21.9261 62.534C21.8624 62.8978 21.9627 63.271 22.2002 63.5537C22.4377 63.8365 22.7881 63.9997 23.1574 63.9997H80.8426C81.2119 63.9997 81.5622 63.8365 81.7997 63.5537C82.0372 63.2712 82.1376 62.898 82.0739 62.5342ZM53.8632 12.0059C52.6064 11.9225 51.3442 11.9229 50.0875 12.0076V9.99575C50.0875 8.95475 50.9344 8.10787 51.9754 8.10787C53.0164 8.10787 53.8632 8.95475 53.8632 9.99575V12.0059ZM41.7542 16.6411C41.7841 16.6273 41.8144 16.6143 41.8442 16.6005C44.3845 15.4395 47.1736 14.7489 50.0102 14.5304H53.9616C56.8165 14.7499 59.6235 15.4473 62.1767 16.6215C62.1949 16.6299 62.2132 16.6378 62.2314 16.6461C61.0159 17.4628 58.2092 18.5933 51.9871 18.5933C45.7976 18.5934 42.982 17.4615 41.7542 16.6411ZM41.9364 5.04437L51.9992 2.53825L62.0637 5.0445L68.0362 11.5299L64.109 14.7794C62.2041 13.8057 60.1717 13.0896 58.0866 12.6167C57.5162 12.4874 56.941 12.377 56.3632 12.2855V9.99575C56.3632 7.57625 54.3949 5.60787 51.9754 5.60787C49.5559 5.60787 47.5875 7.57625 47.5875 9.99575V12.2894C45.512 12.6198 43.4787 13.193 41.5395 14.0035C40.9729 14.2402 40.4142 14.4989 39.8672 14.7782L35.9617 11.532L41.9364 5.04437ZM65.4994 41.328C65.5035 41.3141 65.5154 41.3044 65.528 41.3044H65.5295C67.8551 41.4449 73.9226 42.8251 77.8336 46.1944C77.8462 46.2052 77.8479 46.2255 77.8372 46.2395L75.8459 48.8521C72.0305 46.7105 71.2304 45.7984 64.6194 44.3073L65.4994 41.328ZM53.9895 48.2648L59.2582 44.2316H61.9287L59.0091 52.3104L53.9895 48.2648ZM45.0267 52.2995L42.0981 44.2316H44.849L49.9677 48.2585L45.0267 52.2995ZM53.7961 55.2961H50.1459L48.4262 52.749L51.9719 49.8495L55.5644 52.7448L53.7961 55.2961ZM48.2942 38.4183C51.1336 39.2209 54.222 39.0761 56.9676 37.9906L57.5076 42.4232L51.9761 46.6569L46.6056 42.432L47.1226 38.0283C47.5069 38.1761 47.8982 38.3055 48.2942 38.4183ZM26.1937 46.1944C30.1031 42.825 36.1675 41.4447 38.4919 41.3044C38.5046 41.3022 38.5176 41.3134 38.5205 41.323L39.4022 44.3096C35.6569 44.9511 30.8306 46.9255 28.1814 48.8521L26.1901 46.2395C26.1795 46.2254 26.1811 46.2052 26.1937 46.1944ZM25.8892 54.4034C25.8909 54.3945 25.8922 54.3855 25.8936 54.3766C26.0725 53.208 26.4239 52.0871 26.942 51.0281C27.824 51.5363 28.959 51.4539 29.7619 50.8304C32.4159 48.77 35.694 47.6105 38.9617 46.9658C39.4136 46.8766 39.892 46.8377 40.3212 46.6636L43.2781 54.8096C43.567 55.6055 44.5866 55.8886 45.2444 55.3507L46.4825 54.3382L48.1612 56.8247L47.3229 61.5H32.6987V58.357C32.6987 57.6666 32.1391 57.107 31.4487 57.107C30.7584 57.107 30.1987 57.6666 30.1987 58.357V61.5H24.6455L25.8892 54.4034ZM49.8627 61.5L50.527 57.7962H53.3986L54.0427 61.5H49.8627ZM73.693 61.5V58.357C73.693 57.6666 73.1334 57.107 72.443 57.107C71.7526 57.107 71.193 57.6666 71.193 58.357V61.5H56.5804L55.7695 56.8376L57.516 54.3176L58.8049 55.3564C59.4641 55.8879 60.478 55.6014 60.7649 54.808L63.7072 46.6661C64.0241 46.7934 64.3612 46.8339 64.6947 46.8951C68.0814 47.5179 71.52 48.6989 74.2656 50.8304C75.0614 51.4482 76.1851 51.5354 77.0644 51.0401C77.5792 52.095 77.9284 53.212 78.1062 54.3763C78.1076 54.3853 78.1091 54.3943 78.1107 54.4033L79.3545 61.4999H73.693V61.5Z" fill="url(#paint0_linear_107_1027)"/>
<path d="M52.4974 23.4444C51.854 23.1935 51.1295 23.512 50.8789 24.1552L49.3898 27.9766C49.2399 28.3612 49.2895 28.7951 49.5225 29.1359C49.7554 29.4767 50.1416 29.6805 50.5544 29.6805H53.0571C53.7475 29.6805 54.3071 29.1209 54.3071 28.4305C54.3071 27.7401 53.7475 27.1805 53.0571 27.1805H52.383L53.2081 25.063C53.4589 24.4197 53.1406 23.6951 52.4974 23.4444Z" fill="url(#paint1_linear_107_1027)"/>
<path d="M64.7487 28.3575C64.3754 27.7871 63.5792 27.6388 63.0162 28.0125C62.4486 28.3893 62.2944 29.1795 62.6712 29.745C63.0484 30.3111 63.8374 30.4696 64.4037 30.0913C64.9701 29.7128 65.1261 28.9239 64.7487 28.3575Z" fill="url(#paint2_linear_107_1027)"/>
</g>
<defs>
<linearGradient id="paint0_linear_107_1027" x1="80.8175" y1="31.9999" x2="48.1747" y2="31.9999" gradientUnits="userSpaceOnUse">
<stop stop-color="#A268F9"/>
<stop offset="1" stop-color="#B88BFB"/>
</linearGradient>
<linearGradient id="paint1_linear_107_1027" x1="54.2012" y1="26.5196" x2="51.4878" y2="26.5196" gradientUnits="userSpaceOnUse">
<stop stop-color="#A268F9"/>
<stop offset="1" stop-color="#B88BFB"/>
</linearGradient>
<linearGradient id="paint2_linear_107_1027" x1="64.902" y1="29.0522" x2="63.5517" y2="29.0522" gradientUnits="userSpaceOnUse">
<stop stop-color="#A268F9"/>
<stop offset="1" stop-color="#B88BFB"/>
</linearGradient>
<clipPath id="clip0_107_1027">
<rect width="64" height="64" fill="white" transform="translate(20)"/>
</clipPath>
</defs>
</svg>
