<svg width="84" height="74" viewBox="0 0 84 74" fill="none" xmlns="http://www.w3.org/2000/svg">
<circle cx="32" cy="42" r="32" fill="#F4E19C" fill-opacity="0.5"/>
<path d="M68.4912 64C69.1816 64 69.7412 63.4404 69.7412 62.75C69.7412 62.0596 69.1816 61.5 68.4912 61.5C67.8009 61.5 67.2412 62.0596 67.2412 62.75C67.2412 63.4404 67.8009 64 68.4912 64Z" fill="url(#paint0_linear_104_376)"/>
<path d="M83.3563 5C82.9438 4.025 82.3537 3.15 81.6012 2.39875C80.85 1.64625 79.975 1.05625 79 0.64375C77.99 0.21625 76.9175 0 75.8125 0H28.1875C27.0825 0 26.01 0.21625 25 0.64375C24.025 1.05625 23.15 1.64625 22.3988 2.39875C21.6463 3.15 21.0562 4.025 20.6438 5C20.2163 6.01 20 7.0825 20 8.1875V55.8125C20 56.9175 20.2163 57.99 20.6438 59C21.0562 59.975 21.6463 60.85 22.3988 61.6012C23.15 62.3537 24.025 62.9438 25 63.3563C26.01 63.7838 27.0825 64 28.1875 64H62.8662C63.555 64 64.1162 63.4388 64.1162 62.75C64.1162 62.0612 63.555 61.5 62.8662 61.5H28.1875C26.67 61.5 25.2413 60.9075 24.1663 59.8338C23.0925 58.7588 22.5 57.33 22.5 55.8125V8.1875C22.5 6.67 23.0925 5.24125 24.1663 4.16625C25.2413 3.0925 26.67 2.5 28.1875 2.5H75.8125C77.33 2.5 78.7588 3.0925 79.8338 4.16625C80.9075 5.24125 81.5 6.67 81.5 8.1875V55.8125C81.5 57.33 80.9075 58.7588 79.8338 59.8338C78.7588 60.9075 77.33 61.5 75.8125 61.5H74.1162C73.4263 61.5 72.8662 62.0612 72.8662 62.75C72.8662 63.4388 73.4263 64 74.1162 64H75.8125C76.9175 64 77.99 63.7838 79 63.3563C79.975 62.9438 80.85 62.3537 81.6012 61.6012C82.3537 60.85 82.9438 59.975 83.3563 59C83.7838 57.99 84 56.9175 84 55.8125V8.1875C84 7.0825 83.7838 6.01 83.3563 5Z" fill="url(#paint1_linear_104_376)"/>
<path d="M52 5.75C37.5258 5.75 25.75 17.5258 25.75 32C25.75 46.4743 37.5258 58.25 52 58.25C66.4743 58.25 78.25 46.4743 78.25 32C78.25 17.5258 66.4743 5.75 52 5.75ZM52 55.75C38.9041 55.75 28.25 45.0959 28.25 32C28.25 18.9041 38.9041 8.25 52 8.25C65.0959 8.25 75.75 18.9041 75.75 32C75.75 45.0959 65.0959 55.75 52 55.75Z" fill="url(#paint2_linear_104_376)"/>
<path d="M38.3343 30.9138C36.9662 30.4092 35.6938 29.8591 35.3252 29.6976C34.9647 29.4188 34.9762 29.0243 34.9996 28.8612C35.0307 28.6444 35.1863 28.1152 35.9577 27.8828C37.5688 27.3972 39.0496 28.5709 39.0897 28.6033C39.6182 29.0422 40.4025 28.9724 40.8451 28.4459C41.2893 27.9174 41.221 27.1289 40.6926 26.6848C40.5911 26.5994 38.1721 24.6051 35.2367 25.4891C33.7677 25.9317 32.7286 27.0877 32.5251 28.5061C32.3345 29.8339 32.91 31.1112 34.0268 31.8394C34.0821 31.8754 34.14 31.9071 34.2002 31.9338C34.2636 31.9621 35.7712 32.6332 37.4693 33.2596C37.9792 33.4476 39.1476 33.9828 38.9857 34.8891C38.8673 35.5517 38.0732 36.2371 36.9491 36.2371C35.8246 36.2371 34.7413 35.7824 34.0513 35.0209C33.5877 34.5094 32.7972 34.4707 32.2857 34.9341C31.7742 35.3977 31.7353 36.1882 32.1988 36.6997C33.355 37.9753 35.1307 38.7369 36.9491 38.7369C39.2026 38.7369 41.0942 37.3034 41.4468 35.3284C41.7112 33.8467 41.0325 31.9089 38.3343 30.9138Z" fill="url(#paint3_linear_104_376)"/>
<path d="M68.9584 30.9138C67.5902 30.4092 66.3179 29.8591 65.9492 29.6976C65.5887 29.4188 65.6002 29.0243 65.6236 28.8612C65.6547 28.6444 65.8104 28.1152 66.5817 27.8828C68.1925 27.3973 69.6735 28.5708 69.7137 28.6033C70.2422 29.0422 71.0265 28.9724 71.4691 28.4459C71.9134 27.9174 71.845 27.1289 71.3166 26.6848C71.2151 26.5994 68.7962 24.6051 65.8607 25.4891C64.3917 25.9317 63.3526 27.0877 63.1491 28.5061C62.9585 29.8339 63.534 31.1112 64.6509 31.8394C64.7061 31.8754 64.764 31.9071 64.8242 31.9338C64.8876 31.9621 66.3952 32.6332 68.0934 33.2596C68.6032 33.4476 69.7716 33.9828 69.6097 34.8891C69.4914 35.5517 68.6972 36.2371 67.5731 36.2371C66.4486 36.2371 65.3654 35.7824 64.6754 35.0209C64.2117 34.5094 63.4212 34.4707 62.9097 34.9341C62.3982 35.3977 62.3594 36.1882 62.8229 36.6997C63.979 37.9753 65.7547 38.7369 67.5731 38.7369C69.8266 38.7369 71.7182 37.3034 72.0708 35.3284C72.3353 33.8467 71.6566 31.9089 68.9584 30.9138Z" fill="url(#paint4_linear_104_376)"/>
<path d="M52.0138 25.2233C48.2771 25.2233 45.2371 28.2633 45.2371 32C45.2371 35.7368 48.2771 38.7768 52.0138 38.7768C55.7506 38.7768 58.7906 35.7368 58.7906 32C58.7906 28.2633 55.7506 25.2233 52.0138 25.2233ZM52.0138 36.2768C49.6556 36.2768 47.7371 34.3581 47.7371 32C47.7371 29.6419 49.6557 27.7233 52.0138 27.7233C54.3719 27.7233 56.2906 29.6419 56.2906 32C56.2906 34.3581 54.3721 36.2768 52.0138 36.2768Z" fill="url(#paint5_linear_104_376)"/>
<defs>
<linearGradient id="paint0_linear_104_376" x1="69.6882" y1="62.75" x2="68.3323" y2="62.75" gradientUnits="userSpaceOnUse">
<stop stop-color="#A268F9"/>
<stop offset="1" stop-color="#B88BFB"/>
</linearGradient>
<linearGradient id="paint1_linear_104_376" x1="82.6441" y1="32" x2="47.9322" y2="32" gradientUnits="userSpaceOnUse">
<stop stop-color="#A268F9"/>
<stop offset="1" stop-color="#B88BFB"/>
</linearGradient>
<linearGradient id="paint2_linear_104_376" x1="77.1377" y1="32" x2="48.6631" y2="32" gradientUnits="userSpaceOnUse">
<stop stop-color="#A268F9"/>
<stop offset="1" stop-color="#B88BFB"/>
</linearGradient>
<linearGradient id="paint3_linear_104_376" x1="41.2958" y1="32.0002" x2="36.0757" y2="32.0002" gradientUnits="userSpaceOnUse">
<stop stop-color="#A268F9"/>
<stop offset="1" stop-color="#B88BFB"/>
</linearGradient>
<linearGradient id="paint4_linear_104_376" x1="71.9199" y1="32.0002" x2="66.6997" y2="32.0002" gradientUnits="userSpaceOnUse">
<stop stop-color="#A268F9"/>
<stop offset="1" stop-color="#B88BFB"/>
</linearGradient>
<linearGradient id="paint5_linear_104_376" x1="58.5034" y1="32" x2="51.1524" y2="32" gradientUnits="userSpaceOnUse">
<stop stop-color="#A268F9"/>
<stop offset="1" stop-color="#B88BFB"/>
</linearGradient>
</defs>
</svg>
