<svg width="84" height="74" viewBox="0 0 84 74" fill="none" xmlns="http://www.w3.org/2000/svg">
<circle cx="32" cy="42" r="32" fill="#F4E19C" fill-opacity="0.5"/>
<path d="M64.5 53.625C63.81 53.625 63.25 54.185 63.25 54.875C63.25 55.565 63.81 56.125 64.5 56.125C65.19 56.125 65.75 55.565 65.75 54.875C65.75 54.185 65.19 53.625 64.5 53.625Z" fill="url(#paint0_linear_105_463)"/>
<path d="M39.5 53.625C38.81 53.625 38.25 54.185 38.25 54.875C38.25 55.565 38.81 56.125 39.5 56.125C40.19 56.125 40.75 55.565 40.75 54.875C40.75 54.185 40.19 53.625 39.5 53.625Z" fill="url(#paint1_linear_105_463)"/>
<path d="M75.9556 47.1512C74.5485 44.9732 72.6149 43.2426 70.3498 42.125C70.1587 41.9476 69.9131 41.8288 69.64 41.7984C68.0016 41.1029 66.2746 40.75 64.5 40.75H60.75V37.4521C62.9201 35.5901 64.4803 33.1239 65.2368 30.375H65.75C68.507 30.375 70.75 28.132 70.75 25.375C70.75 24.0685 70.2458 22.878 69.4222 21.9862C69.5009 21.9195 69.5776 21.85 69.6514 21.7764C70.3599 21.0679 70.75 20.1262 70.75 19.125C70.75 17.4796 69.6842 16.0793 68.2071 15.5755C67.7655 9.8275 63.7314 4.9155 58.177 3.376C57.8479 1.657 56.4293 0 54.5 0H49.5C47.5707 0 46.1521 1.657 45.823 3.376C40.2691 4.91537 36.2354 9.8265 35.793 15.5737C35.2552 15.7561 34.7621 16.0602 34.3486 16.4736C33.6401 17.1821 33.25 18.1238 33.25 19.125C33.25 20.2704 33.7667 21.2969 34.5787 21.9853C33.7547 22.877 33.25 24.068 33.25 25.375C33.25 28.132 35.493 30.375 38.25 30.375H38.7598C39.3913 32.6696 40.5886 34.7763 42.259 36.5164C42.5729 36.8436 42.9056 37.1554 43.25 37.4511V40.75H39.5C37.7253 40.75 35.9983 41.1029 34.36 41.7982C34.087 41.8287 33.8413 41.9475 33.6504 42.1249C31.385 43.2426 29.4515 44.9733 28.0444 47.1511C26.5434 49.4745 25.75 52.1454 25.75 54.875V62.75C25.75 63.4403 26.3096 64 27 64H77C77.6904 64 78.25 63.4403 78.25 62.75V54.875C78.25 52.1454 77.4566 49.4745 75.9556 47.1512ZM33.25 61.5H28.25V54.875C28.25 51.0729 30.1978 47.4286 33.25 45.2653V61.5ZM65.75 27.875H65.693C65.7303 27.4591 65.75 27.0417 65.75 26.625V22.875C67.1285 22.875 68.25 23.9965 68.25 25.375C68.25 26.7535 67.1285 27.875 65.75 27.875ZM45.75 6.01737V11.625C45.75 12.3154 46.3096 12.875 47 12.875C47.6904 12.875 48.25 12.3154 48.25 11.625V4.38287C48.25 4.37962 48.25 4.37638 48.25 4.37313V4.125C48.25 3.3505 48.9042 2.5 49.5 2.5H54.5C55.0958 2.5 55.75 3.3505 55.75 4.125V4.37313C55.75 4.37638 55.75 4.37962 55.75 4.38287V11.625C55.75 12.3154 56.3096 12.875 57 12.875C57.6904 12.875 58.25 12.3154 58.25 11.625V6.01737C62.2863 7.44575 65.2 11.0982 65.6801 15.375H38.3199C38.8 11.0982 41.7137 7.44575 45.75 6.01737ZM38.25 27.875C36.8715 27.875 35.75 26.7535 35.75 25.375C35.75 23.9965 36.8715 22.875 38.25 22.875V26.625C38.25 27.0417 38.2697 27.4592 38.307 27.875H38.25ZM38.25 20.375H37C36.3108 20.375 35.75 19.8143 35.75 19.125C35.75 18.7915 35.8801 18.4776 36.1164 18.2415C36.3527 18.0051 36.6665 17.875 37 17.875H67C67.6893 17.875 68.25 18.4357 68.25 19.125C68.25 19.4585 68.1199 19.7724 67.8836 20.0085C67.6474 20.2449 67.3335 20.375 67 20.375H65.75H64.5H39.5H38.25ZM40.9771 28.8979C40.9746 28.8843 40.9722 28.8707 40.9692 28.8574C40.8241 28.1237 40.75 27.3729 40.75 26.625V22.875H63.25V26.625C63.25 27.3722 63.1759 28.1226 63.0308 28.8569C63.0278 28.8704 63.0254 28.884 63.0229 28.8976C62.4643 31.686 60.9183 34.182 58.667 35.9277C56.7113 37.447 54.4059 38.25 52 38.25C49.5941 38.25 47.2887 37.447 45.3311 35.9264C44.883 35.5796 44.4565 35.196 44.063 34.7856C42.4861 33.1429 41.4196 31.1077 40.9771 28.8979ZM50.75 61.5H40.75V58.625C40.75 57.9346 40.1904 57.375 39.5 57.375C38.8096 57.375 38.25 57.9346 38.25 58.625V61.5H35.75V43.9342C36.5612 43.6284 37.397 43.4245 38.25 43.324V51.125C38.25 51.8154 38.8096 52.375 39.5 52.375C40.1904 52.375 40.75 51.8154 40.75 51.125V43.25H43.9644L50.75 50.375V61.5ZM45.75 41.5V39.1717C47.6789 40.2086 49.8034 40.75 52 40.75C54.1968 40.75 56.3214 40.2085 58.25 39.1719V41.5L52 48.0625L45.75 41.5ZM68.25 61.5H65.75V58.625C65.75 57.9346 65.1904 57.375 64.5 57.375C63.8096 57.375 63.25 57.9346 63.25 58.625V61.5H53.25V50.375L60.0356 43.25H63.25V51.125C63.25 51.8154 63.8096 52.375 64.5 52.375C65.1904 52.375 65.75 51.8154 65.75 51.125V43.324C66.603 43.4245 67.4386 43.6285 68.25 43.9344V61.5ZM75.75 61.5H70.75V45.2651C73.8022 47.4285 75.75 51.0728 75.75 54.875V61.5Z" fill="url(#paint2_linear_105_463)"/>
<defs>
<linearGradient id="paint0_linear_105_463" x1="65.697" y1="54.875" x2="64.3411" y2="54.875" gradientUnits="userSpaceOnUse">
<stop stop-color="#A268F9"/>
<stop offset="1" stop-color="#B88BFB"/>
</linearGradient>
<linearGradient id="paint1_linear_105_463" x1="40.697" y1="54.875" x2="39.3411" y2="54.875" gradientUnits="userSpaceOnUse">
<stop stop-color="#A268F9"/>
<stop offset="1" stop-color="#B88BFB"/>
</linearGradient>
<linearGradient id="paint2_linear_105_463" x1="77.1377" y1="32" x2="48.6631" y2="32" gradientUnits="userSpaceOnUse">
<stop stop-color="#A268F9"/>
<stop offset="1" stop-color="#B88BFB"/>
</linearGradient>
</defs>
</svg>
