<svg width="84" height="74" viewBox="0 0 84 74" fill="none" xmlns="http://www.w3.org/2000/svg">
<circle cx="32" cy="42" r="32" fill="#F4E19C" fill-opacity="0.5"/>
<g clip-path="url(#clip0_105_504)">
<path d="M83.9907 62.5985L76.4905 1.09862C76.414 0.471499 75.8815 0 75.2496 0H28.7503C28.1185 0 27.5861 0.471374 27.5095 1.09862L20.0091 62.5985C19.9657 62.9539 20.0768 63.3105 20.314 63.5785C20.5513 63.8465 20.8921 63.9999 21.25 63.9999H82.7498C83.1077 63.9999 83.4485 63.8464 83.6857 63.5785C83.923 63.3106 84.0341 62.9539 83.9907 62.5985ZM52.4377 2.49999V7.49999H49.9377V2.49999H52.4377ZM29.8572 2.49999H32.4792L30.2154 26.2819C30.1501 26.9692 30.6542 27.5793 31.3414 27.6447C31.3817 27.6484 31.4217 27.6504 31.4613 27.6504C32.0983 27.6504 32.6427 27.1657 32.7042 26.5187L34.9906 2.49999H47.4378V8.74998C47.4378 9.44023 47.9975 9.99998 48.6878 9.99998H53.6878C54.378 9.99998 54.9378 9.44023 54.9378 8.74998V2.49999H69.0096L74.6255 61.4999H29.3747L31.6383 37.7181C31.7037 37.0308 31.1996 36.4207 30.5123 36.3553C29.8249 36.2913 29.2148 36.7939 29.1496 37.4813L26.8633 61.4999H22.6617L29.8572 2.49999ZM77.1367 61.4999L71.5209 2.49999H74.1429L81.3382 61.4999H77.1367Z" fill="url(#paint0_linear_105_504)"/>
<path d="M48.6876 32.5002H53.6876C54.3779 32.5002 54.9376 31.9405 54.9376 31.2502V16.2502C54.9376 15.56 54.3779 15.0002 53.6876 15.0002H48.6876C47.9974 15.0002 47.4376 15.56 47.4376 16.2502V31.2502C47.4376 31.9406 47.9974 32.5002 48.6876 32.5002ZM49.9376 17.5002H52.4376V30.0002H49.9376V17.5002Z" fill="url(#paint1_linear_105_504)"/>
<path d="M48.6876 57.5006H53.6876C54.3779 57.5006 54.9376 56.9409 54.9376 56.2506V38.7505C54.9376 38.0602 54.3779 37.5005 53.6876 37.5005H48.6876C47.9974 37.5005 47.4376 38.0602 47.4376 38.7505V56.2506C47.4376 56.941 47.9974 57.5006 48.6876 57.5006ZM49.9376 40.0005H52.4376V55.0006H49.9376V40.0005Z" fill="url(#paint2_linear_105_504)"/>
<path d="M30.9268 33.25C31.617 33.25 32.1768 32.6902 32.1768 32C32.1768 31.3098 31.617 30.75 30.9268 30.75H30.9259C30.2356 30.75 29.6764 31.3098 29.6764 32C29.6764 32.6902 30.2365 33.25 30.9268 33.25Z" fill="url(#paint3_linear_105_504)"/>
</g>
<defs>
<linearGradient id="paint0_linear_105_504" x1="82.644" y1="31.9999" x2="47.9321" y2="31.9999" gradientUnits="userSpaceOnUse">
<stop stop-color="#A268F9"/>
<stop offset="1" stop-color="#B88BFB"/>
</linearGradient>
<linearGradient id="paint1_linear_105_504" x1="54.7787" y1="23.7502" x2="50.7109" y2="23.7502" gradientUnits="userSpaceOnUse">
<stop stop-color="#A268F9"/>
<stop offset="1" stop-color="#B88BFB"/>
</linearGradient>
<linearGradient id="paint2_linear_105_504" x1="54.7787" y1="47.5006" x2="50.7109" y2="47.5006" gradientUnits="userSpaceOnUse">
<stop stop-color="#A268F9"/>
<stop offset="1" stop-color="#B88BFB"/>
</linearGradient>
<linearGradient id="paint3_linear_105_504" x1="32.1238" y1="32" x2="30.7677" y2="32" gradientUnits="userSpaceOnUse">
<stop stop-color="#A268F9"/>
<stop offset="1" stop-color="#B88BFB"/>
</linearGradient>
<clipPath id="clip0_105_504">
<rect width="64" height="64" fill="white" transform="translate(20)"/>
</clipPath>
</defs>
</svg>
