<svg width="84" height="74" viewBox="0 0 84 74" fill="none" xmlns="http://www.w3.org/2000/svg">
<circle cx="32" cy="42" r="32" fill="#F4E19C" fill-opacity="0.5"/>
<g clip-path="url(#clip0_105_441)">
<path d="M65.6938 18.7164C66.3842 18.7164 66.9438 18.1568 66.9438 17.4664C66.9438 16.7761 66.3842 16.2164 65.6938 16.2164C65.0035 16.2164 64.4438 16.7761 64.4438 17.4664C64.4438 18.1568 65.0035 18.7164 65.6938 18.7164Z" fill="url(#paint0_linear_105_441)"/>
<path d="M46.1249 25.7926C46.8152 25.7926 47.3749 25.233 47.3749 24.5426C47.3749 23.8522 46.8152 23.2926 46.1249 23.2926C45.4345 23.2926 44.8749 23.8522 44.8749 24.5426C44.8749 25.233 45.4345 25.7926 46.1249 25.7926Z" fill="url(#paint1_linear_105_441)"/>
<path d="M38.6249 25.7505H41.1249C41.8136 25.7505 42.3749 25.1892 42.3749 24.5005C42.3749 23.8105 41.8136 23.2505 41.1249 23.2505H38.6249C37.9361 23.2505 37.3749 23.8105 37.3749 24.5005C37.3749 25.1892 37.9361 25.7505 38.6249 25.7505Z" fill="url(#paint2_linear_105_441)"/>
<path d="M77.8541 33.4553L75.6179 28.9622C75.4061 28.5387 74.9732 28.2505 74.4997 28.2505H56.5223L57.6235 26.0686L83.0731 19.2773C83.74 19.0987 84.1357 18.4185 83.957 17.7517L82.6629 12.9247C82.577 12.6045 82.3676 12.3327 82.0805 12.167C81.7933 12.0011 81.452 11.9571 81.132 12.0427L70.2021 14.9673C69.8796 15.0536 69.6096 15.2612 69.4421 15.55C69.2746 15.8387 69.2309 16.1751 69.3171 16.4976C69.4621 17.0438 69.9584 17.4228 70.5233 17.4228C70.632 17.4228 70.7407 17.3757 70.8471 17.3757H70.8484L74.5342 16.3943L75.1809 18.811L57.8479 23.4422L56.7066 21.1601L61.1859 19.9637C61.8507 19.7862 62.2484 19.1001 62.0708 18.4338C61.9245 17.8876 61.4283 17.5065 60.8634 17.5065C60.7559 17.5065 60.6471 17.5202 60.5409 17.549L55.5571 18.8597C55.3302 18.497 54.9331 18.2507 54.4996 18.2507H32.625C32.1515 18.2507 31.7188 18.5386 31.507 18.9622L29.007 23.9727C28.831 24.3246 28.831 24.7228 29.007 25.0747L29.9779 27.0006H27C25.665 27.0006 24.4095 27.5418 23.4649 28.4863C22.5202 29.431 22 30.7073 22 32.0423V34.3243C20.7941 35.247 20 36.6962 20 38.2918V39.5418C20 40.2321 20.5596 40.7502 21.25 40.7502H21.7019C21.6252 41.8752 21.7122 42.8991 22.0274 43.5667C24.587 48.9916 28.7502 52 33.75 52H70.2499C75.2497 52 79.4129 48.9916 81.9726 43.5666C82.2876 42.899 82.3746 41.8752 82.298 40.7502H82.7499C83.4401 40.7502 84.0001 40.2322 84.0001 39.5418V38.2918C84 35.751 80.3625 33.9821 77.8541 33.4553ZM80.5718 14.7816L81.2189 17.1963L77.5967 18.1668L76.9496 15.7521L80.5718 14.7816ZM73.7271 30.7505L74.9771 33.2505H33.25V30.7505H73.7271ZM33.3975 20.7506H53.7272L55.6022 24.5005L53.7272 28.2505H33.3975L31.5225 24.5005L33.3975 20.7506ZM24.5 32.0423C24.5 31.3751 24.7603 30.7265 25.2326 30.2541C25.7051 29.7816 26.3327 29.5005 27 29.5005H30.75V33.2503H24.5V32.0423ZM79.7115 42.4998C78.2092 45.6838 75.3481 49.5 70.2497 49.5H33.75C28.6516 49.5 25.7906 45.6838 24.2884 42.4998C24.1861 42.2831 24.1251 41.6252 24.2015 40.7502H28.1649C28.1392 41.0002 28.1251 41.1565 28.1251 41.3543C28.1251 43.7666 30.0877 45.7397 32.5001 45.7397C34.9125 45.7397 36.8751 43.7615 36.8751 41.3492C36.8751 41.1513 36.861 41.0002 36.8354 40.7502H39.4062C39.3862 41.0002 39.3751 41.1573 39.3751 41.3543C39.3751 44.456 41.8985 46.9896 45.0001 46.9896C48.1018 46.9896 50.6251 44.4507 50.6251 41.3491C50.6251 41.152 50.614 41.0001 50.594 40.7501H53.1564C53.1364 41.0001 53.1253 41.1572 53.1253 41.3542C53.1253 44.4558 55.6485 46.9895 58.7503 46.9895C61.852 46.9895 64.3753 44.4506 64.3753 41.349C64.3753 41.1518 64.3641 41 64.3441 40.75H67.165C67.1394 41 67.1254 41.1562 67.1254 41.3541C67.1254 43.7663 69.088 45.7395 71.5004 45.7395C73.9128 45.7395 75.8754 43.7612 75.8754 41.349C75.8754 41.1511 75.8613 41 75.8358 40.75H79.799C79.8747 41.6252 79.8137 42.2831 79.7115 42.4998ZM30.625 41.3543C30.625 41.1506 30.6587 41.0002 30.7191 40.7502H34.2809C34.3413 41.0002 34.375 41.1506 34.375 41.3543C34.375 42.3882 33.5339 43.2293 32.5 43.2293C31.4661 43.2293 30.625 42.3883 30.625 41.3543ZM41.8749 41.3543C41.8749 41.155 41.8939 41.0002 41.9298 40.7502H48.07C48.1059 41.0002 48.1249 41.1551 48.1249 41.3543C48.1249 43.0775 46.723 44.4792 44.9999 44.4792C43.2767 44.4793 41.8749 43.0775 41.8749 41.3543ZM55.6249 41.3543C55.6249 41.155 55.6439 41.0002 55.6797 40.7502H61.82C61.8559 41.0002 61.8749 41.1551 61.8749 41.3543C61.8749 43.0775 60.473 44.4792 58.7499 44.4792C57.0267 44.4792 55.6249 43.0775 55.6249 41.3543ZM69.6247 41.3543C69.6247 41.1506 69.6585 41.0002 69.7189 40.7502H73.2806C73.341 41.0002 73.3747 41.1506 73.3747 41.3543C73.3747 42.3882 72.5336 43.2293 71.4997 43.2293C70.4659 43.2293 69.6247 42.3883 69.6247 41.3543ZM22.5 38.2502C22.5 37.1252 23.5691 35.7502 25 35.7502H76.4997C77.3419 35.7502 78.7039 36.164 79.8119 36.7567C81.0871 37.4388 81.4997 38.1252 81.4997 38.2502H22.5Z" fill="url(#paint3_linear_105_441)"/>
</g>
<defs>
<linearGradient id="paint0_linear_105_441" x1="66.8909" y1="17.4664" x2="65.5349" y2="17.4664" gradientUnits="userSpaceOnUse">
<stop stop-color="#A268F9"/>
<stop offset="1" stop-color="#B88BFB"/>
</linearGradient>
<linearGradient id="paint1_linear_105_441" x1="47.3219" y1="24.5426" x2="45.966" y2="24.5426" gradientUnits="userSpaceOnUse">
<stop stop-color="#A268F9"/>
<stop offset="1" stop-color="#B88BFB"/>
</linearGradient>
<linearGradient id="paint2_linear_105_441" x1="42.2689" y1="24.5005" x2="39.5571" y2="24.5005" gradientUnits="userSpaceOnUse">
<stop stop-color="#A268F9"/>
<stop offset="1" stop-color="#B88BFB"/>
</linearGradient>
<linearGradient id="paint3_linear_105_441" x1="82.6442" y1="32" x2="47.9323" y2="32" gradientUnits="userSpaceOnUse">
<stop stop-color="#A268F9"/>
<stop offset="1" stop-color="#B88BFB"/>
</linearGradient>
<clipPath id="clip0_105_441">
<rect width="64" height="64" fill="white" transform="translate(20)"/>
</clipPath>
</defs>
</svg>
