<svg width="84" height="74" viewBox="0 0 84 74" fill="none" xmlns="http://www.w3.org/2000/svg">
<circle cx="32" cy="42" r="32" fill="#F4E19C" fill-opacity="0.5"/>
<path d="M70.3525 13.25C70.3525 8.9005 67.5062 2 59.8687 2C56.7307 2 54.0911 3.47938 52 6.40363C49.9088 3.47938 47.2691 2 44.1312 2C36.4936 2 33.6475 8.9005 33.6475 13.25C33.6475 20.7491 39.5002 25.44 47.4958 32.2771C48.6707 33.2816 49.8856 34.3205 51.1808 35.4442C51.4158 35.6481 51.7078 35.75 52 35.75C52.2921 35.75 52.5841 35.6481 52.8191 35.4442C54.1143 34.3205 55.3292 33.2816 56.5041 32.2771C64.8748 25.1193 70.3525 20.5906 70.3525 13.25ZM52 32.847C51.0011 31.985 50.0485 31.1704 49.1206 30.3769C40.7553 23.224 36.1475 19.2838 36.1475 13.25C36.1475 9.15712 38.8251 4.5 44.1312 4.5C46.9003 4.5 49.1155 6.09 50.9032 9.36075C51.1223 9.76175 51.543 10.0112 52 10.0112C52.457 10.0112 52.8776 9.76175 53.0967 9.36075C54.8845 6.09 57.0996 4.5 59.8687 4.5C65.1007 4.5 67.8525 9.088 67.8525 13.25C67.8525 19.2838 63.2446 23.224 54.8793 30.377C53.9515 31.1704 52.9988 31.985 52 32.847Z" fill="url(#paint0_linear_105_393)"/>
<path d="M28.9823 51.0143L35 54.0226V60.75C35 61.4403 35.5597 62 36.25 62H49.5C50.1903 62 50.75 61.4403 50.75 60.75V44.4313C50.75 40.6015 47.8771 37.4256 44.0769 37.0446L43.9746 37.0336C41.775 36.8131 37.8802 35.3086 36.3424 33.7709L33.5351 30.9648C32.5905 30.0203 31.3351 29.5 30 29.5V19.5C30 16.743 27.757 14.5 25 14.5C22.243 14.5 20 16.743 20 19.5V36.48C20 42.6318 23.4748 48.2599 28.9823 51.0143ZM22.5 19.5C22.5 18.1215 23.6215 17 25 17C26.3785 17 27.5 18.1215 27.5 19.5V30.1701C25.9755 31.0516 25 32.6951 25 34.5C25 35.8351 25.5203 37.0905 26.4649 38.035L32.8661 44.4375C33.3541 44.9258 34.1456 44.9258 34.6339 44.4376C35.122 43.9496 35.1221 43.1581 34.634 42.6699L28.2327 36.2673C27.7601 35.7949 27.5 35.1672 27.5 34.5C27.5 33.442 28.1696 32.4945 29.1665 32.1424C29.1666 32.1424 29.1669 32.1423 29.167 32.1421C29.1672 32.142 29.1676 32.142 29.1679 32.1419C30.0301 31.8359 31.0529 32.0181 31.7675 32.7329L34.5747 35.539C37.473 38.4373 43.8051 39.5278 43.8178 39.5312C46.3445 39.7845 48.2499 41.8911 48.2499 44.4313V59.5H37.4999V53.25C37.4999 52.7765 37.2322 52.3436 36.8089 52.132L30.1003 48.7783C25.4124 46.4336 22.5 41.7212 22.5 36.48V19.5Z" fill="url(#paint1_linear_105_393)"/>
<path d="M77.375 49.25C78.0654 49.25 78.625 48.6904 78.625 48C78.625 47.3096 78.0654 46.75 77.375 46.75C76.6846 46.75 76.125 47.3096 76.125 48C76.125 48.6904 76.6846 49.25 77.375 49.25Z" fill="url(#paint2_linear_105_393)"/>
<path d="M79 14.5C76.243 14.5 74 16.743 74 19.5V29.5C72.6649 29.5 71.4095 30.0203 70.4651 30.9648L67.6574 33.7711C66.1198 35.3088 62.225 36.8133 60.0156 37.0346L59.9329 37.0436C56.1229 37.4256 53.25 40.6016 53.25 44.4313V60.75C53.25 61.4403 53.8098 62 54.5 62H67.75C68.4403 62 69 61.4403 69 60.75V54.0226L73.0913 51.9774C73.7086 51.6686 73.959 50.9179 73.6504 50.3004C73.3416 49.683 72.5907 49.4324 71.9734 49.7412L67.191 52.132C66.7676 52.3436 66.5 52.7765 66.5 53.25V59.5H55.75V44.4313C55.75 41.8911 57.6554 39.7845 60.1919 39.5303L60.2746 39.5213C62.986 39.2494 67.4754 37.4886 69.4249 35.5391L72.2326 32.7327C72.9492 32.0159 73.974 31.8375 74.832 32.1419C74.8323 32.142 74.8326 32.142 74.8329 32.1421C74.833 32.1421 74.8332 32.1423 74.8334 32.1424C75.8304 32.4945 76.5 33.442 76.5 34.5C76.5 35.1672 76.2399 35.7949 75.7674 36.2675L69.3661 42.67C68.878 43.1581 68.8781 43.9496 69.3662 44.4378C69.8541 44.9259 70.6459 44.9259 71.134 44.4376L77.5353 38.0353C78.4798 37.0905 79 35.8351 79 34.5C79 32.6951 78.0245 31.0516 76.5 30.1701V19.5C76.5 18.1215 77.6215 17 79 17C80.3785 17 81.5 18.1215 81.5 19.5V36.48C81.5 38.767 80.9229 41.0375 79.8309 43.046C79.501 43.6526 79.7254 44.4115 80.332 44.7412C80.9384 45.071 81.6976 44.8469 82.0272 44.2401C83.3179 41.8662 84 39.1829 84 36.48V19.5C84 16.743 81.757 14.5 79 14.5Z" fill="url(#paint3_linear_105_393)"/>
<defs>
<linearGradient id="paint0_linear_105_393" x1="69.5748" y1="18.875" x2="49.667" y2="18.875" gradientUnits="userSpaceOnUse">
<stop stop-color="#A268F9"/>
<stop offset="1" stop-color="#B88BFB"/>
</linearGradient>
<linearGradient id="paint1_linear_105_393" x1="50.0985" y1="38.25" x2="33.4206" y2="38.25" gradientUnits="userSpaceOnUse">
<stop stop-color="#A268F9"/>
<stop offset="1" stop-color="#B88BFB"/>
</linearGradient>
<linearGradient id="paint2_linear_105_393" x1="78.572" y1="48" x2="77.2161" y2="48" gradientUnits="userSpaceOnUse">
<stop stop-color="#A268F9"/>
<stop offset="1" stop-color="#B88BFB"/>
</linearGradient>
<linearGradient id="paint3_linear_105_393" x1="83.3485" y1="38.25" x2="66.6706" y2="38.25" gradientUnits="userSpaceOnUse">
<stop stop-color="#A268F9"/>
<stop offset="1" stop-color="#B88BFB"/>
</linearGradient>
</defs>
</svg>
