<svg width="84" height="74" viewBox="0 0 84 74" fill="none" xmlns="http://www.w3.org/2000/svg">
<circle cx="32" cy="42" r="32" fill="#F4E19C" fill-opacity="0.5"/>
<g clip-path="url(#clip0_103_329)">
<path d="M83.139 27.5791C83.0237 27.147 82.6862 26.8097 82.2542 26.6942C78.0859 25.5812 73.6745 25.5632 69.4971 26.642C67.1235 27.255 64.86 28.2183 62.7761 29.4874C63.8892 26.7031 64.471 23.7153 64.471 20.6862C64.471 16.4541 63.341 12.3002 61.2032 8.67369C59.1287 5.1546 56.1633 2.21338 52.6276 0.168021C52.2405 -0.0560069 51.7633 -0.0560069 51.3762 0.168021C47.8405 2.21338 44.8751 5.15472 42.8006 8.67369C40.6628 12.3002 39.5328 16.4542 39.5328 20.6862C39.5328 23.7153 40.1146 26.7031 41.2277 29.4874C39.1438 28.2183 36.8803 27.255 34.5067 26.642C30.3293 25.5632 25.9179 25.5812 21.7496 26.6942C21.3176 26.8095 20.9802 27.147 20.8648 27.5791C19.7518 31.7473 19.7336 36.1586 20.8125 40.3361C21.9243 44.6411 24.1827 48.5873 27.3433 51.7478C30.504 54.9086 34.4501 57.1668 38.755 58.2786C40.8103 58.8095 42.922 59.0747 45.0337 59.0747C46.9543 59.0747 48.8747 58.8547 50.7524 58.416V62.7506C50.7524 63.4407 51.3118 64.0001 52.0018 64.0001C52.6919 64.0001 53.2513 63.4407 53.2513 62.7506V58.4158C55.1285 58.8541 57.0404 59.0707 58.9472 59.0707C63.5266 59.0707 68.0733 57.8235 72.0145 55.4118C72.603 55.0516 72.7883 54.2825 72.4281 53.6938C72.068 53.1052 71.2987 52.9202 70.7101 53.2803C66.1216 56.0882 60.6207 57.1401 55.3214 56.2786L68.2565 43.3438C68.7444 42.8559 68.7444 42.0648 68.2565 41.5767C67.7686 41.0887 66.9774 41.0888 66.4894 41.5767L53.554 54.5121C52.3992 47.4099 54.7147 40.0775 59.8525 34.9398C65.3474 29.4449 73.3524 27.1773 80.9015 28.9317C82.2355 34.6741 81.2628 40.7817 78.1927 45.7985C77.8325 46.387 78.0176 47.1562 78.6063 47.5164C79.1949 47.8767 79.964 47.6916 80.3241 47.1028C83.8762 41.2985 84.9023 34.1823 83.139 27.5791ZM52.002 2.70754C58.1704 6.56686 61.9722 13.3888 61.9722 20.6862C61.9722 27.4767 58.6791 33.8541 53.2514 37.8171V20.6862C53.2514 19.9961 52.692 19.4368 52.002 19.4368C51.3119 19.4368 50.7525 19.9961 50.7525 20.6862V37.8171C45.325 33.8541 42.0317 27.4767 42.0317 20.6862C42.0317 13.3888 45.8335 6.56686 52.002 2.70754ZM29.1104 49.9808C23.6155 44.4858 21.3481 36.4807 23.1024 28.9317C30.6518 27.1775 38.6567 29.4449 44.1514 34.9396C49.2893 40.0775 51.6046 47.4099 50.4499 54.5121L37.5145 41.5767C37.0266 41.0888 36.2355 41.0888 35.7474 41.5767C35.2594 42.0646 35.2595 42.8558 35.7474 43.3438L48.6828 56.2792C41.5805 57.4339 34.2481 55.1186 29.1104 49.9808Z" fill="url(#paint0_linear_103_329)"/>
<path d="M75.7766 49.615C75.4479 49.615 75.1256 49.7487 74.8932 49.9811C74.6608 50.2135 74.5271 50.5358 74.5271 50.8644C74.5271 51.1931 74.6608 51.5154 74.8932 51.7478C75.1256 51.9802 75.4479 52.1139 75.7766 52.1139C76.1064 52.1139 76.4275 51.9802 76.6599 51.7478C76.8936 51.5154 77.026 51.1931 77.026 50.8644C77.026 50.5358 76.8936 50.2135 76.6599 49.9811C76.4275 49.7487 76.1064 49.615 75.7766 49.615Z" fill="url(#paint1_linear_103_329)"/>
</g>
<defs>
<linearGradient id="paint0_linear_103_329" x1="82.6283" y1="32" x2="47.9343" y2="32" gradientUnits="userSpaceOnUse">
<stop stop-color="#A268F9"/>
<stop offset="1" stop-color="#B88BFB"/>
</linearGradient>
<linearGradient id="paint1_linear_103_329" x1="76.9731" y1="50.8644" x2="75.6177" y2="50.8644" gradientUnits="userSpaceOnUse">
<stop stop-color="#A268F9"/>
<stop offset="1" stop-color="#B88BFB"/>
</linearGradient>
<clipPath id="clip0_103_329">
<rect width="64" height="64" fill="white" transform="translate(20)"/>
</clipPath>
</defs>
</svg>
