<svg width="84" height="74" viewBox="0 0 84 74" fill="none" xmlns="http://www.w3.org/2000/svg">
<circle cx="32" cy="42" r="32" fill="#F4E19C" fill-opacity="0.5"/>
<g clip-path="url(#clip0_107_1226)">
<path d="M47.1513 2.92863C46.9176 2.69613 46.5964 2.56238 46.2664 2.56238C45.9376 2.56238 45.6151 2.69613 45.3826 2.92863C45.1501 3.16113 45.0164 3.48362 45.0164 3.81237C45.0164 4.14112 45.1501 4.46362 45.3826 4.69612C45.6151 4.92862 45.9376 5.06237 46.2664 5.06237C46.5964 5.06237 46.9176 4.92862 47.1513 4.69612C47.3838 4.46362 47.5163 4.14112 47.5163 3.81237C47.5163 3.48362 47.3838 3.16113 47.1513 2.92863Z" fill="url(#paint0_linear_107_1226)"/>
<path d="M64.12 23.3532L63.0844 18.1016C62.6622 15.9596 61.6217 14.0125 60.0755 12.4708L58.3048 10.705V3.81237C58.3048 3.122 57.7452 2.56238 57.0548 2.56238C56.3644 2.56238 55.8048 3.122 55.8048 3.81237V11.2237C55.8048 11.5558 55.9371 11.8743 56.1722 12.1088L58.3103 14.241C59.5031 15.4305 60.3058 16.9326 60.6317 18.5851L61.6673 23.8367C61.7077 24.0417 61.6649 24.2495 61.5468 24.4219C61.4287 24.5943 61.2502 24.7093 61.0444 24.7455C60.6463 24.8165 60.2578 24.5629 60.1613 24.1695L59.6262 21.9871C59.4375 21.2181 58.7303 20.7284 57.9442 20.8238C57.1582 20.9188 56.5877 21.5624 56.5877 22.3542V32.5218C56.5877 32.923 56.2612 33.2495 55.8599 33.2495C55.4911 33.2495 55.1862 32.9735 55.1392 32.6174V27.308C55.1392 26.6177 54.5796 26.058 53.8892 26.058C53.8879 26.058 53.8868 26.0582 53.8857 26.0582C53.8846 26.0582 53.8833 26.058 53.8822 26.058C53.1918 26.058 52.6322 26.6177 52.6322 27.308V32.5218C52.6322 32.5899 52.6351 32.6574 52.6392 32.7244V34.3896C52.6392 34.7909 52.3127 35.1174 51.9115 35.1174C51.5102 35.1174 51.1837 34.7909 51.1837 34.3896V32.7236C51.1878 32.6568 51.1907 32.5896 51.1907 32.5218V27.308C51.1907 26.6177 50.6311 26.058 49.9407 26.058C49.9396 26.058 49.9383 26.0582 49.9372 26.0582C49.9361 26.0582 49.9348 26.058 49.9337 26.058C49.2433 26.058 48.6837 26.6177 48.6837 27.308V32.617C48.6368 32.9734 48.3318 33.2496 47.9628 33.2496C47.5616 33.2496 47.2351 32.9231 47.2351 32.5219V30.6571C47.2392 30.5903 47.2421 30.5231 47.2421 30.4553V27.308C47.2421 26.6177 46.6825 26.058 45.9921 26.058C45.991 26.058 45.9897 26.0582 45.9886 26.0582C45.9875 26.0582 45.9862 26.058 45.9851 26.058C45.2947 26.058 44.7351 26.6177 44.7351 27.308V30.5504C44.6882 30.9068 44.3832 31.183 44.0142 31.183C43.613 31.183 43.2865 30.8565 43.2865 30.4553V26.0764V23.1098V19.4643C43.2865 17.2051 44.1675 15.0822 45.7674 13.487L47.1493 12.109C47.3845 11.8745 47.5167 11.556 47.5167 11.2238V8.26998C47.5167 7.57961 46.9571 7.01999 46.2667 7.01999C45.5764 7.01999 45.0167 7.57961 45.0167 8.26998V10.705L44.0021 11.7166C41.9285 13.7843 40.7865 16.5358 40.7865 19.4642V23.1097V26.0763V30.4551C40.7865 32.2349 42.2345 33.6829 44.0142 33.6829C44.3236 33.6829 44.6226 33.6383 44.9061 33.5565C45.3385 34.8301 46.5449 35.7494 47.9627 35.7494C48.2965 35.7494 48.6185 35.6985 48.9215 35.604C49.4023 36.7835 50.561 37.6172 51.9112 37.6172C53.2614 37.6172 54.4204 36.7836 54.9013 35.6041C55.2043 35.6986 55.5263 35.7495 55.8601 35.7495C57.6398 35.7495 59.0878 34.3015 59.0878 32.5218V26.6989C59.7679 27.1559 60.6174 27.3593 61.4787 27.2077C62.3514 27.0538 63.108 26.5663 63.609 25.8352C64.11 25.104 64.2914 24.2227 64.12 23.3532Z" fill="url(#paint1_linear_107_1226)"/>
<path d="M51.1341 48.6492C50.981 48.3839 50.7938 48.1462 50.5796 47.9389C51.4658 46.9274 51.6585 45.4236 50.9497 44.196C50.7832 43.9076 50.5786 43.6546 50.3458 43.4397C50.6075 43.1036 50.802 42.7156 50.9155 42.2918C51.1386 41.459 51.0241 40.5892 50.593 39.8425C49.918 38.6734 48.617 38.0869 47.3554 38.2599C47.2844 37.9469 47.1661 37.6429 47.001 37.357C46.57 36.6104 45.8739 36.0762 45.0411 35.8531C44.2083 35.6299 43.3385 35.7444 42.5918 36.1756L37.549 39.087C37.6047 38.2695 37.3564 37.4322 36.7942 36.7622C36.2244 36.0832 35.424 35.6717 34.5404 35.6034C33.6573 35.5357 32.8027 35.8186 32.1353 36.4019L28.1051 39.9246C26.4612 41.3615 25.2952 43.236 24.7331 45.3457L24.0893 47.7622L20.6252 49.7622C20.0273 50.1073 19.8225 50.8718 20.1677 51.4697C20.3992 51.8707 20.8193 52.0949 21.2513 52.0948C21.4633 52.0948 21.6783 52.0408 21.8752 51.9272L25.7887 49.6677C26.0763 49.5016 26.2861 49.2279 26.3716 48.9071L27.1489 45.9892C27.5826 44.3616 28.4822 42.9153 29.7504 41.8068L33.7807 38.2841C33.938 38.1465 34.139 38.0797 34.3478 38.0959C34.5562 38.112 34.7448 38.209 34.8792 38.3691C35.1395 38.6792 35.1143 39.1417 34.8219 39.4219L33.1994 40.9766C32.6277 41.5243 32.5577 42.3815 33.0329 43.0148C33.5083 43.6482 34.3509 43.8206 35.0365 43.4245L43.8419 38.3407C44.0101 38.2435 44.2062 38.2177 44.3941 38.268C44.5819 38.3182 44.7389 38.4387 44.8361 38.6071C44.9332 38.7755 44.9591 38.9716 44.9089 39.1594C44.8649 39.3237 44.7646 39.4619 44.6279 39.5596L40.0509 42.2021C39.453 42.5472 39.2481 43.3117 39.5934 43.9096C39.594 43.9106 39.5946 43.9115 39.5953 43.9125C39.5959 43.9135 39.5963 43.9146 39.5969 43.9156C39.942 44.5135 40.7064 44.7182 41.3044 44.3731L45.8197 41.7662C45.8785 41.7323 45.9355 41.6961 45.9916 41.659L47.4339 40.8263C47.7814 40.6257 48.2274 40.7451 48.4281 41.0927C48.6287 41.4402 48.5092 41.8862 48.1617 42.087L46.7189 42.92C46.659 42.9498 46.5994 42.981 46.5406 43.0148L42.0253 45.6217C41.4274 45.9668 41.2225 46.7313 41.5678 47.3292C41.6146 47.4101 41.6719 47.4862 41.7354 47.5548C41.9751 47.8159 42.3104 47.9604 42.6549 47.9604C42.8669 47.9604 43.0819 47.9064 43.2788 47.7928L47.8764 45.1383C48.2084 45.0007 48.6001 45.1266 48.7847 45.4462C48.9854 45.7937 48.8659 46.2397 48.5184 46.4404L46.9041 47.3724C46.8439 47.4024 46.784 47.4338 46.7251 47.4677L43.9995 49.0413C43.4016 49.3864 43.1968 50.1509 43.542 50.7488C43.7645 51.1324 44.1849 51.3801 44.6291 51.3801C44.8411 51.3801 45.0561 51.3261 45.253 51.2124L48.0614 49.5911C48.2086 49.5298 48.3707 49.5181 48.5274 49.5601C48.7151 49.6104 48.872 49.7308 48.9692 49.8992C49.1699 50.2467 49.0504 50.6927 48.7029 50.8934L44.6967 53.2063L39.1844 56.3889C37.2278 57.5185 34.9488 57.8168 32.7674 57.229L30.8831 56.7212C30.5622 56.6347 30.2204 56.6795 29.9328 56.8457L26.0193 59.1051C25.4214 59.4503 25.2166 60.2148 25.5618 60.8126C25.7933 61.2136 26.2134 61.4379 26.6454 61.4378C26.8574 61.4378 27.0724 61.3838 27.2693 61.2701L30.7334 59.2701L32.1168 59.643C34.9442 60.4048 37.8981 60.0181 40.4343 58.554L43.5911 56.7314C43.5911 56.7314 43.5913 56.7314 43.5913 56.7313L45.9466 55.3714L46.1605 55.2479L49.9527 53.0584C51.4941 52.1686 52.024 50.1906 51.1341 48.6492Z" fill="url(#paint2_linear_107_1226)"/>
<path d="M83.3747 49.7619L79.9106 47.7619L79.5417 46.3774C78.7879 43.5477 76.976 41.183 74.44 39.7187L68.9276 36.5361L64.9215 34.2232C64.1748 33.7921 63.3049 33.6776 62.4723 33.9007C61.6395 34.1239 60.9434 34.658 60.5124 35.4046C60.3579 35.6721 60.2473 35.953 60.1763 36.2387C59.6957 36.1422 59.1957 36.1562 58.7083 36.287C57.8756 36.5101 57.1794 37.0442 56.7484 37.7908C56.5834 38.0767 56.4652 38.3807 56.3942 38.6936C55.1326 38.5207 53.8316 39.1073 53.1566 40.2763C52.4816 41.4455 52.6241 42.8654 53.4047 43.8716C53.1692 44.0896 52.965 44.3439 52.8 44.6298C51.9101 46.1712 52.4401 48.1492 53.9813 49.039L59.0241 51.9505C58.2884 52.3112 57.6872 52.9449 57.3881 53.7667C57.0849 54.5995 57.1287 55.4984 57.5113 56.2979C57.8941 57.0974 58.5667 57.6953 59.4054 57.9815L64.4712 59.7105C66.5375 60.4159 68.744 60.4883 70.852 59.9203L73.2666 59.2695L76.7307 61.2695C76.9276 61.3831 77.1425 61.4372 77.3546 61.4371C77.7866 61.4371 78.2067 61.213 78.4382 60.812C78.7835 60.2141 78.5786 59.4496 77.9807 59.1045L74.0672 56.845C73.7796 56.6789 73.4377 56.634 73.117 56.7206L70.2015 57.5063C68.5753 57.9446 66.8729 57.8886 65.2787 57.3445L60.2128 55.6155C60.0151 55.548 59.8564 55.407 59.7662 55.2185C59.6759 55.03 59.6657 54.818 59.7372 54.6216C59.8756 54.2411 60.2888 54.032 60.6775 54.1449L62.8352 54.7728C63.5955 54.9943 64.3728 54.6261 64.6837 53.8978C64.9944 53.1695 64.7224 52.3537 64.0367 51.9578L55.2313 46.8741C54.8838 46.6734 54.7643 46.2274 54.9649 45.8798C55.0622 45.7114 55.2191 45.5911 55.4068 45.5407C55.5636 45.4987 55.7256 45.5104 55.8727 45.5716L60.4709 48.2263C60.6678 48.3399 60.8827 48.394 61.0948 48.3939C61.4389 48.3939 61.7739 48.2497 62.0137 47.989C62.0775 47.9203 62.1349 47.8439 62.182 47.7627C62.5273 47.1648 62.3224 46.4003 61.7245 46.0552L57.2093 43.4483C57.1503 43.4143 57.0903 43.3829 57.0299 43.3528L55.5881 42.5204C55.2406 42.3198 55.1211 41.8738 55.3217 41.5262C55.4189 41.3578 55.5758 41.2374 55.7637 41.1871C55.9516 41.1368 56.1476 41.1627 56.3158 41.2598L57.7579 42.0924C57.8141 42.1297 57.8712 42.1658 57.9299 42.1998L62.4452 44.8067C62.642 44.9203 62.8569 44.9744 63.069 44.9743C63.4133 44.9743 63.7483 44.8299 63.988 44.5692C64.0519 44.5006 64.109 44.4242 64.1563 44.3431C64.5015 43.7452 64.2967 42.9807 63.6988 42.6356L59.1217 39.993C58.9851 39.8952 58.8849 39.7571 58.8408 39.5927C58.7906 39.405 58.8163 39.2088 58.9136 39.0405C59.0108 38.8721 59.1677 38.7516 59.3556 38.7013C59.5432 38.6511 59.7394 38.6768 59.9078 38.7741L61.5227 39.7065C61.5784 39.7435 61.6353 39.7795 61.694 39.8135L64.4197 41.3871C64.6165 41.5007 64.8314 41.5548 65.0435 41.5547C65.3877 41.5547 65.7228 41.4103 65.9624 41.1497C66.0263 41.0808 66.0833 41.0046 66.1307 40.9235C66.4759 40.3256 66.271 39.5611 65.6732 39.216L62.8652 37.5947C62.58 37.376 62.4933 36.9737 62.6777 36.6542C62.7749 36.4858 62.9318 36.3653 63.1195 36.3151C63.3075 36.265 63.5034 36.2906 63.6718 36.3878L67.464 38.5773L67.6779 38.7008L70.0333 40.0607C70.0333 40.0607 70.0334 40.0607 70.0334 40.0608L73.1902 41.8834C75.1469 43.0132 76.5446 44.8376 77.1262 47.0207L77.6287 48.9064C77.7142 49.2273 77.924 49.501 78.2116 49.667L82.1251 51.9265C82.322 52.0402 82.5368 52.0942 82.749 52.0942C83.181 52.0942 83.6011 51.87 83.8326 51.469C84.1775 50.8717 83.9726 50.1072 83.3747 49.7619Z" fill="url(#paint3_linear_107_1226)"/>
</g>
<defs>
<linearGradient id="paint0_linear_107_1226" x1="47.4634" y1="3.81237" x2="46.1075" y2="3.81237" gradientUnits="userSpaceOnUse">
<stop stop-color="#A268F9"/>
<stop offset="1" stop-color="#B88BFB"/>
</linearGradient>
<linearGradient id="paint1_linear_107_1226" x1="63.6873" y1="20.0898" x2="50.9977" y2="20.0898" gradientUnits="userSpaceOnUse">
<stop stop-color="#A268F9"/>
<stop offset="1" stop-color="#B88BFB"/>
</linearGradient>
<linearGradient id="paint2_linear_107_1226" x1="50.8971" y1="48.5157" x2="33.7766" y2="48.5157" gradientUnits="userSpaceOnUse">
<stop stop-color="#A268F9"/>
<stop offset="1" stop-color="#B88BFB"/>
</linearGradient>
<linearGradient id="paint3_linear_107_1226" x1="83.3299" y1="47.6132" x2="66.1736" y2="47.6132" gradientUnits="userSpaceOnUse">
<stop stop-color="#A268F9"/>
<stop offset="1" stop-color="#B88BFB"/>
</linearGradient>
<clipPath id="clip0_107_1226">
<rect width="64" height="64" fill="white" transform="translate(20)"/>
</clipPath>
</defs>
</svg>
