<svg width="84" height="74" viewBox="0 0 84 74" fill="none" xmlns="http://www.w3.org/2000/svg">
<circle cx="32" cy="42" r="32" fill="#F4E19C" fill-opacity="0.5"/>
<path d="M82.75 50.1196C72.3106 50.1196 62.0645 54.4019 54.6387 61.8682C54.1514 62.3579 54.1538 63.1494 54.6431 63.6357C54.8872 63.8784 55.2056 63.9995 55.5249 63.9995C55.8457 63.9995 56.1665 63.877 56.4111 63.6313C63.3711 56.6333 72.9712 52.6196 82.75 52.6196C83.4404 52.6196 84 52.0601 84 51.3696C84 50.6797 83.4404 50.1196 82.75 50.1196Z" fill="url(#paint0_linear_105_472)"/>
<path d="M56.6836 48.9619C56.2969 48.3896 55.52 48.2392 54.9482 48.6259C49.603 52.2363 45.0889 56.7538 41.5303 62.0527C41.1455 62.6259 41.2979 63.4028 41.8711 63.7875C42.0854 63.9311 42.3271 63.9999 42.5669 63.9999C42.9692 63.9999 43.3647 63.8056 43.606 63.4467C46.9839 58.416 51.2705 54.1264 56.3477 50.6972C56.9194 50.311 57.0698 49.5341 56.6836 48.9619Z" fill="url(#paint1_linear_105_472)"/>
<path d="M82.75 40.0571C77.1616 40.0571 71.6304 41.0117 66.3101 42.8945C65.6592 43.1245 65.3184 43.8389 65.5488 44.4897C65.73 45.0029 66.2124 45.3232 66.7271 45.3232C66.8653 45.3232 67.0059 45.2998 67.1441 45.251C72.1958 43.4634 77.4463 42.5571 82.75 42.5571C83.4404 42.5571 84 41.9976 84 41.3071C84 40.6167 83.4404 40.0571 82.75 40.0571Z" fill="url(#paint2_linear_105_472)"/>
<path d="M37.9097 55.4224C46.1333 44.7002 58.0376 37.2554 71.1733 34.4653C71.1758 34.4648 71.1782 34.4644 71.1802 34.4639C74.9551 33.6626 78.8306 33.2451 82.75 33.2451C83.4399 33.2451 84 32.6851 84 31.9951C84 31.3047 83.4399 30.7451 82.75 30.7451C79.1958 30.7451 75.6553 31.0703 72.1748 31.7065V29.0083C76.6929 25.1836 79.1729 20.1719 79.1729 14.835C79.1729 9.31689 76.522 4.14648 71.708 0.275879C71.2505 -0.0917969 70.5986 -0.0917969 70.1411 0.275879C65.3276 4.14648 62.6763 9.31689 62.6763 14.835C62.6763 20.1719 65.1567 25.1836 69.6743 29.0083V32.2178C67.2993 32.7583 64.9585 33.4473 62.6665 34.2769V26.958C62.6665 26.6143 62.5278 26.3032 62.3032 26.0771V26.0767L55.3032 19.0352C55.0684 18.7993 54.7495 18.6665 54.4165 18.6665H40.125C39.7925 18.6665 39.4731 18.7993 39.2388 19.0352L32.2388 26.0767V26.0771C32.0142 26.3032 31.875 26.6143 31.875 26.9585V31.7319C31.0039 31.5723 30.1289 31.4316 29.25 31.3115V26.8555C32.6665 23.9165 34.541 20.0835 34.541 16C34.541 11.7339 32.4961 7.74072 28.7832 4.75488C28.3257 4.38721 27.6743 4.38721 27.2168 4.75488C23.5039 7.74023 21.459 11.7339 21.459 16C21.459 20.083 23.3335 23.916 26.75 26.855V31.0239C24.9272 30.8535 23.0923 30.7656 21.25 30.7656C20.5596 30.7656 20 31.3252 20 32.0156C20 32.7061 20.5596 33.2656 21.25 33.2656C31.2451 33.2656 41.0215 35.9102 49.6401 40.9272C47.5752 42.3306 45.603 43.8633 43.7358 45.5132C36.7529 41.9556 28.9941 40.0781 21.25 40.0781C20.5601 40.0781 20 40.6377 20 41.3281C20 42.0186 20.5601 42.5781 21.25 42.5781C28.2964 42.5781 35.3569 44.2168 41.7715 47.3286C39.8711 49.167 38.0947 51.1338 36.4556 53.2129C31.5933 51.1738 26.4829 50.1406 21.25 50.1406C20.5601 50.1406 20 50.7002 20 51.3906C20 52.0811 20.5601 52.6406 21.25 52.6406C25.9375 52.6406 30.5205 53.5293 34.8984 55.2793C34.0347 56.4795 33.2139 57.7124 32.4419 58.978L30.5371 62.0986C30.1772 62.6875 30.3638 63.457 30.9526 63.8164C31.1562 63.9409 31.3809 64 31.603 64C32.0239 64 32.4355 63.7866 32.6709 63.4009L34.5757 60.2803C35.5688 58.6528 36.6421 57.0869 37.7861 55.5835C37.8311 55.5337 37.873 55.4805 37.9097 55.4224ZM65.1768 14.835C65.1768 10.3921 67.2095 6.18359 70.9248 2.88574C74.6401 6.18359 76.6729 10.3921 76.6729 14.835C76.6729 18.75 75.0928 22.4839 72.1748 25.5723V16C72.1748 15.3096 71.6152 14.75 70.9248 14.75C70.2344 14.75 69.6748 15.3096 69.6748 16V25.5723C66.7563 22.4839 65.1768 18.75 65.1768 14.835ZM23.959 16C23.959 12.8115 25.3862 9.7832 28 7.37695C30.6138 9.78271 32.041 12.8115 32.041 16C32.041 18.6353 31.0649 21.1616 29.25 23.3179V15C29.25 14.3096 28.6904 13.75 28 13.75C27.3101 13.75 26.75 14.3096 26.75 15V23.3179C24.9351 21.1616 23.959 18.6353 23.959 16ZM58.4116 25.708H47.645L43.1304 21.1665H53.897L58.4116 25.708ZM40.125 21.6895L44.1201 25.708H36.1304L40.125 21.6895ZM34.375 28.208H45.875V36.1572C45.2954 35.8906 44.7124 35.6328 44.125 35.3853V31.187C44.125 30.4971 43.5654 29.937 42.875 29.937H37.375C36.6851 29.937 36.125 30.4971 36.125 31.187V32.6733C35.5439 32.522 34.9609 32.3784 34.375 32.2446V28.208ZM41.625 34.3989C40.6338 34.0337 39.6338 33.6948 38.625 33.3838V32.437H41.625V34.3989ZM48.375 37.3804V28.208H60.167V35.2471C58.0259 36.1343 55.9336 37.147 53.9053 38.2856C53.2568 38.6494 52.6162 39.0273 51.9829 39.415C50.8013 38.6934 49.5981 38.0146 48.375 37.3804Z" fill="url(#paint3_linear_105_472)"/>
<path d="M70.9248 12.5C71.2534 12.5 71.5762 12.3662 71.8086 12.1333C72.041 11.9009 72.1748 11.5786 72.1748 11.25C72.1748 10.9209 72.0415 10.5986 71.8086 10.3662C71.5762 10.1333 71.2534 10 70.9248 10C70.5962 10 70.2734 10.1333 70.0415 10.3662C69.8086 10.5986 69.6748 10.9209 69.6748 11.25C69.6748 11.5786 69.8086 11.9009 70.0415 12.1333C70.2734 12.3657 70.5962 12.5 70.9248 12.5Z" fill="url(#paint4_linear_105_472)"/>
<path d="M60.0747 45.6587C59.8428 45.8911 59.7085 46.2134 59.7085 46.542C59.7085 46.8721 59.8423 47.1934 60.0747 47.4258C60.3076 47.6587 60.6299 47.792 60.9585 47.792C61.2876 47.792 61.6099 47.6587 61.8423 47.4258C62.0747 47.1934 62.2085 46.8721 62.2085 46.542C62.2085 46.2134 62.0747 45.8911 61.8423 45.6587C61.6099 45.4258 61.2876 45.292 60.9585 45.292C60.6299 45.292 60.3076 45.4258 60.0747 45.6587Z" fill="url(#paint5_linear_105_472)"/>
<defs>
<linearGradient id="paint0_linear_105_472" x1="83.3702" y1="57.0596" x2="67.248" y2="57.0596" gradientUnits="userSpaceOnUse">
<stop stop-color="#A268F9"/>
<stop offset="1" stop-color="#B88BFB"/>
</linearGradient>
<linearGradient id="paint1_linear_105_472" x1="56.5677" y1="56.2057" x2="48.1176" y2="56.2057" gradientUnits="userSpaceOnUse">
<stop stop-color="#A268F9"/>
<stop offset="1" stop-color="#B88BFB"/>
</linearGradient>
<linearGradient id="paint2_linear_105_472" x1="83.6076" y1="42.6902" x2="73.5611" y2="42.6902" gradientUnits="userSpaceOnUse">
<stop stop-color="#A268F9"/>
<stop offset="1" stop-color="#B88BFB"/>
</linearGradient>
<linearGradient id="paint3_linear_105_472" x1="82.6441" y1="32.0001" x2="47.9322" y2="32.0001" gradientUnits="userSpaceOnUse">
<stop stop-color="#A268F9"/>
<stop offset="1" stop-color="#B88BFB"/>
</linearGradient>
<linearGradient id="paint4_linear_105_472" x1="72.1218" y1="11.25" x2="70.7659" y2="11.25" gradientUnits="userSpaceOnUse">
<stop stop-color="#A268F9"/>
<stop offset="1" stop-color="#B88BFB"/>
</linearGradient>
<linearGradient id="paint5_linear_105_472" x1="62.1555" y1="46.542" x2="60.7996" y2="46.542" gradientUnits="userSpaceOnUse">
<stop stop-color="#A268F9"/>
<stop offset="1" stop-color="#B88BFB"/>
</linearGradient>
</defs>
</svg>
