<svg width="84" height="74" viewBox="0 0 84 74" fill="none" xmlns="http://www.w3.org/2000/svg">
<circle cx="32" cy="42" r="32" fill="#F4E19C" fill-opacity="0.5"/>
<path d="M82.4879 29.9458C81.5299 29.062 80.2266 28.5161 78.9122 28.4478C77.4195 28.3706 76.0211 28.9029 74.9796 29.9449L67.8634 36.9864C67.7227 36.7427 67.5621 36.5127 67.3819 36.2993C66.5064 35.2598 65.2261 34.6875 63.7774 34.6875H53.8155C51.9371 34.6875 50.1046 34.4439 48.3692 33.9639C43.8448 32.7124 39.5225 33.6265 35.8687 36.6089C34.3829 37.8218 33.2989 39.1411 32.6133 40.1031L30.8272 38.3697C30.5923 38.1416 30.274 38.0122 29.9464 38.0122C29.9434 38.0122 29.941 38.0122 29.938 38.0122C29.5987 38.0147 29.2706 38.1558 29.0352 38.3999L20.3521 47.4141C20.1197 47.6553 19.9932 47.9795 20.0005 48.3145C20.0079 48.6499 20.148 48.9683 20.3907 49.1993L35.0767 63.1831C35.3204 63.4151 35.6329 63.5308 35.9449 63.5308C36.2725 63.5308 36.6002 63.4034 36.8467 63.1504L45.4488 54.3252C45.6837 54.084 45.814 53.7544 45.8077 53.4175C45.8013 53.0855 45.6622 52.7652 45.4239 52.5337L44.6749 51.8072L46.3892 51.6143C47.4263 51.4937 48.481 51.4327 49.525 51.4327H64.6817C67.1446 51.4327 69.2364 50.8941 70.8995 49.8316C70.9132 49.8228 70.9268 49.8135 70.9405 49.8042C71.5362 49.3902 72.0767 48.8994 72.5465 48.3462L82.7603 36.3301C84.5084 34.274 84.399 31.708 82.4879 29.9458ZM35.9122 60.502L23.044 48.2491L29.9761 41.0523L42.7691 53.4668L35.9122 60.502ZM80.8419 34.6992L70.628 46.7159C70.3038 47.0972 69.9322 47.4361 69.5225 47.7232C68.274 48.5137 66.6456 48.9151 64.6817 48.9151H49.5245C48.3843 48.9151 47.2315 48.982 46.1031 49.1133L42.3345 49.5362L34.4439 41.8789C34.9923 41.0659 36.0006 39.752 37.461 38.5596C40.4971 36.0811 43.9415 35.3511 47.6978 36.3907C49.6519 36.9312 51.71 37.2056 53.8155 37.2056H63.7774C65.5665 37.2056 66.044 38.7554 66.044 39.6709C66.044 40.3399 65.8292 40.9766 65.4547 41.418C65.0484 41.896 64.4708 42.1382 63.7379 42.1382H55.066C54.3707 42.1382 53.8072 42.7022 53.8072 43.3975C53.8072 44.0928 54.3707 44.6563 55.066 44.6563H63.7379C65.2017 44.6563 66.4927 44.085 67.3736 43.0479C68.1065 42.1856 68.5245 41.0518 68.5596 39.8399L76.7554 31.73C77.9268 30.5586 79.7569 30.8526 80.7808 31.7969C81.3101 32.2852 82.0221 33.3111 80.8419 34.6992Z" fill="url(#paint0_linear_107_1078)"/>
<path d="M51.1396 43.062C50.9809 42.3847 50.3037 41.9653 49.6265 42.1235C48.9497 42.2822 48.5293 42.9595 48.6885 43.6367L48.7002 43.688C48.8364 44.268 49.3535 44.6597 49.9248 44.6597C50.02 44.6597 50.1167 44.6489 50.2134 44.6264C50.8906 44.4678 51.3105 43.79 51.1518 43.1133L51.1396 43.062Z" fill="url(#paint1_linear_107_1078)"/>
<path d="M28.5098 27.0625H40.7773C41.4453 27.0625 42.0635 26.8457 42.5664 26.4795C43.0693 26.8457 43.6875 27.0625 44.3555 27.0625H56.6235C57.2915 27.0625 57.9097 26.8457 58.4126 26.4795C58.9155 26.8457 59.5337 27.0625 60.2017 27.0625H72.4693C74.1499 27.0625 75.5171 25.6948 75.5171 24.0142V18.2935C75.5171 15.7241 74.0791 13.4922 71.9268 12.3911C72.9697 11.1333 73.5977 9.52002 73.5977 7.76221C73.5977 3.75781 70.3399 0.5 66.3355 0.5C62.3311 0.5 59.0733 3.75781 59.0733 7.76221C59.0733 9.52002 59.7012 11.1338 60.7442 12.3911C59.814 12.8677 59.0176 13.5557 58.4126 14.3901C57.8076 13.5552 57.0112 12.8672 56.0806 12.3911C57.1235 11.1338 57.7515 9.52002 57.7515 7.76221C57.7515 3.75781 54.4937 0.5 50.4893 0.5C46.4849 0.5 43.2271 3.75781 43.2271 7.76221C43.2271 9.52002 43.8555 11.1338 44.8984 12.3916C43.9678 12.8677 43.1714 13.5557 42.5664 14.3906C41.9614 13.5557 41.165 12.8677 40.2344 12.3911C41.2773 11.1338 41.9053 9.52002 41.9053 7.7627C41.9053 3.75781 38.6475 0.5 34.6431 0.5C30.6392 0.5 27.3813 3.75781 27.3813 7.7627C27.3813 9.52002 28.0093 11.1338 29.0522 12.3916C26.8999 13.4927 25.4614 15.7251 25.4614 18.294V24.0142C25.4614 25.6948 26.8291 27.0625 28.5098 27.0625ZM66.336 3.01807C68.9517 3.01807 71.0801 5.146 71.0801 7.76221C71.0801 10.3779 68.9517 12.5064 66.336 12.5064C63.7197 12.5064 61.5918 10.3784 61.5918 7.76221C61.5913 5.146 63.7197 3.01807 66.336 3.01807ZM63.065 14.2432C64.0488 14.7417 65.1597 15.0244 66.3355 15.0244C67.5117 15.0244 68.6226 14.7417 69.606 14.2432C71.5625 14.584 72.9995 16.27 72.9995 18.2935V24.0142C72.9995 24.3066 72.7617 24.5444 72.4693 24.5444H60.2017C59.9097 24.5444 59.6719 24.3066 59.6719 24.0142V18.2935C59.6714 16.2705 61.1089 14.584 63.065 14.2432ZM50.4898 3.01807C53.1055 3.01807 55.2339 5.146 55.2339 7.76221C55.2339 10.3779 53.1055 12.5064 50.4898 12.5064C47.8735 12.5064 45.7456 10.3784 45.7456 7.76221C45.7456 5.146 47.8735 3.01807 50.4898 3.01807ZM47.2192 14.2432C48.2026 14.7417 49.3135 15.0244 50.4898 15.0244C51.666 15.0244 52.7764 14.7417 53.7603 14.2432C55.7163 14.584 57.1538 16.27 57.1538 18.2935V24.0142C57.1538 24.3066 56.916 24.5444 56.6235 24.5444H44.356C44.0635 24.5444 43.8257 24.3066 43.8257 24.0142V18.2935C43.8257 16.2705 45.2632 14.584 47.2192 14.2432ZM34.6436 3.01807C37.2593 3.01807 39.3877 5.146 39.3877 7.76221C39.3877 10.3779 37.2593 12.5064 34.6436 12.5064C32.0278 12.5064 29.8994 10.3779 29.8994 7.76221C29.8994 5.146 32.0278 3.01807 34.6436 3.01807ZM27.9795 18.2935C27.9795 16.2705 29.417 14.584 31.373 14.2432C32.3569 14.7417 33.4673 15.0244 34.6436 15.0244C35.8198 15.0244 36.9302 14.7417 37.9141 14.2432C39.8706 14.584 41.3076 16.27 41.3076 18.2935V24.0142C41.3076 24.3066 41.0698 24.5444 40.7773 24.5444H28.5098C28.2173 24.5444 27.9795 24.3066 27.9795 24.0142V18.2935Z" fill="url(#paint2_linear_107_1078)"/>
<defs>
<linearGradient id="paint0_linear_107_1078" x1="82.6441" y1="45.9856" x2="47.9324" y2="45.9856" gradientUnits="userSpaceOnUse">
<stop stop-color="#A268F9"/>
<stop offset="1" stop-color="#B88BFB"/>
</linearGradient>
<linearGradient id="paint1_linear_107_1078" x1="51.1318" y1="43.3749" x2="49.7592" y2="43.3749" gradientUnits="userSpaceOnUse">
<stop stop-color="#A268F9"/>
<stop offset="1" stop-color="#B88BFB"/>
</linearGradient>
<linearGradient id="paint2_linear_107_1078" x1="74.4566" y1="13.7813" x2="47.3078" y2="13.7813" gradientUnits="userSpaceOnUse">
<stop stop-color="#A268F9"/>
<stop offset="1" stop-color="#B88BFB"/>
</linearGradient>
</defs>
</svg>
