<svg width="84" height="74" viewBox="0 0 84 74" fill="none" xmlns="http://www.w3.org/2000/svg">
<circle cx="32" cy="42" r="32" fill="#F4E19C" fill-opacity="0.5"/>
<g clip-path="url(#clip0_105_494)">
<path d="M54.2249 20.9861C54.713 20.498 54.713 19.7065 54.2248 19.2184C53.7368 18.7303 52.9451 18.7303 52.457 19.2184C52.3026 19.3729 52.1221 19.3959 52.0284 19.3959C51.9346 19.3959 51.7543 19.3728 51.5998 19.2184C51.1118 18.7303 50.3204 18.7303 49.832 19.2184C49.3438 19.7065 49.3438 20.498 49.8319 20.9861C50.4185 21.5729 51.1986 21.896 52.0283 21.896C52.8579 21.896 53.6383 21.5729 54.2249 20.9861Z" fill="url(#paint0_linear_105_494)"/>
<path d="M51.1213 56.5H39.5682C39.2367 56.5 38.9188 56.6317 38.6843 56.8661L33.6841 61.8662C33.196 62.3544 33.196 63.1459 33.6841 63.634C33.9282 63.8781 34.2481 64.0001 34.568 64.0001C34.8878 64.0001 35.2077 63.878 35.4518 63.634L40.0861 59H51.1213C51.8116 59 52.3713 58.4404 52.3713 57.75C52.3713 57.0596 51.8116 56.5 51.1213 56.5Z" fill="url(#paint1_linear_105_494)"/>
<path d="M83.951 38.8461C83.8245 37.4866 83.1214 36.2424 82.022 35.4326C80.0472 33.9779 77.3077 34.244 75.6498 36.0519L70.75 41.3947V40.4473C70.75 34.8456 66.7623 29.988 61.2682 28.8969L58.6592 28.3786C57.7905 28.2061 57.0375 27.7206 56.5235 27.037C59.7567 25.7543 62.3209 23.1388 63.5357 19.8722C63.7423 20.1388 63.9659 20.3949 64.2083 20.6373C65.7443 22.1731 67.7987 23.0165 69.946 23.0165C70.2275 23.0165 70.5108 23.002 70.7945 22.9726C71.1587 22.935 71.4879 22.7396 71.6955 22.4382C71.9032 22.1367 71.9682 21.7594 71.8734 21.4058L71.6424 20.544L72.5044 20.7749C72.8577 20.8696 73.2354 20.8048 73.5368 20.597C73.8383 20.3894 74.0337 20.0601 74.0713 19.696C74.3243 17.2475 73.473 14.847 71.7358 13.1097C69.7563 11.1302 66.9098 10.3281 64.2248 10.9229C63.5368 4.78638 58.3173 0 52 0C45.6828 0 40.4633 4.78638 39.7753 10.9229C37.0903 10.3281 34.2438 11.1301 32.2643 13.1097C30.527 14.8471 29.6758 17.2477 29.9289 19.696C29.9667 20.0601 30.1619 20.3894 30.4634 20.597C30.7648 20.8046 31.1422 20.8695 31.4958 20.7749L32.3577 20.544L32.1267 21.4058C32.0319 21.7594 32.0969 22.1367 32.3045 22.4382C32.5122 22.7397 32.8414 22.9351 33.2055 22.9726C33.4894 23.002 33.7724 23.0165 34.0542 23.0165C36.2015 23.0164 38.256 22.173 39.7918 20.6373C40.0342 20.3949 40.2578 20.1388 40.4644 19.8722C41.6793 23.1388 44.2435 25.7543 47.4767 27.037C46.9627 27.7206 46.2097 28.2061 45.3412 28.3786L42.7322 28.8969C37.2605 29.9835 33.2844 34.8059 33.2517 40.3781C31.6183 41.1641 30.1117 42.2285 28.792 43.548L20.3947 51.9454C19.9065 52.4335 19.9065 53.225 20.3947 53.7131C20.6388 53.9572 20.9587 54.0793 21.2785 54.0793C21.5984 54.0793 21.9183 53.9572 22.1624 53.7131L30.5597 45.3159C33.162 42.7134 36.6223 41.2801 40.3028 41.2801C42.7794 41.2801 45.1075 42.2445 46.8587 43.9958C47.0932 44.2301 47.411 44.3619 47.7425 44.3619H55.9398C57.153 44.3619 58.1402 45.3489 58.1402 46.5621C58.1402 47.7754 57.1532 48.7624 55.9398 48.7624H46.4374C45.7472 48.7624 45.1874 49.322 45.1874 50.0124C45.1874 50.7028 45.7472 51.2624 46.4374 51.2624H56.1935C61.8489 51.2624 67.2848 48.8719 71.1073 44.7039L77.4922 37.7416C78.2849 36.8773 79.5949 36.75 80.5393 37.4456C81.0727 37.8385 81.4003 38.4181 81.4615 39.0778C81.5229 39.7375 81.3079 40.3676 80.856 40.8522L72.759 49.5366C69.8615 52.6442 66.1505 54.8286 62.0273 55.8537C61.3573 56.0204 60.9492 56.6984 61.1157 57.3684C61.2572 57.9371 61.7672 58.3171 62.3278 58.3171C62.4277 58.3171 62.529 58.305 62.6303 58.2799C67.2245 57.1378 71.3593 54.704 74.5877 51.2415L82.6847 42.5571C83.616 41.5583 84.0774 40.2058 83.951 38.8461ZM64.522 13.4234C66.4518 12.9045 68.5374 13.4466 69.968 14.8775C70.8088 15.7181 71.3497 16.7835 71.5392 17.928L70.1982 17.5688C69.7665 17.4529 69.3065 17.5766 68.9908 17.8923C68.675 18.208 68.5517 18.6683 68.6673 19.0998L69.0265 20.4406C67.8822 20.251 66.8165 19.7101 65.976 18.8696C64.5453 17.4386 64.003 15.3531 64.522 13.4234ZM61.7647 11.4688C58.7493 11.188 55.894 9.88212 53.7089 7.77238C54.6609 6.436 55.3994 4.92975 55.8713 3.2985C59.1135 4.69775 61.4538 7.79813 61.7647 11.4688ZM52 2.5C52.4984 2.5 52.988 2.538 53.4667 2.61013C52.0093 7.63513 47.5059 11.2305 42.2324 11.5079C42.6387 6.47338 46.8628 2.5 52 2.5ZM38.024 18.8695C37.1834 19.7101 36.1182 20.251 34.9735 20.4405L35.3328 19.0996C35.4484 18.6682 35.325 18.208 35.0093 17.8921C34.7718 17.6546 34.4525 17.526 34.1253 17.526C34.0175 17.526 33.9089 17.5399 33.8019 17.5686L32.461 17.9279C32.6505 16.7834 33.1914 15.718 34.032 14.8774C35.4629 13.4464 37.549 12.9044 39.4782 13.4233C39.9973 15.3531 39.4549 17.4386 38.024 18.8695ZM42.1974 15.5961V14.0136C46.019 13.8555 49.5149 12.2466 52.0899 9.68175C54.7334 12.1819 58.1784 13.7063 61.8027 13.9814V15.5961C61.8027 21.0012 57.4052 25.3988 52 25.3988C46.5949 25.3988 42.1974 21.0012 42.1974 15.5961ZM52 27.8986C52.686 27.8986 53.3588 27.8412 54.0145 27.7327C54.3915 28.4469 54.9048 29.0713 55.5197 29.5758C54.662 30.6116 53.388 31.226 52.0002 31.226C50.6123 31.226 49.3383 30.6116 48.4808 29.5758C49.0957 29.0713 49.6089 28.4469 49.9859 27.7327C50.6414 27.8414 51.3142 27.8986 52 27.8986ZM55.94 41.8619H48.2442C46.0698 39.8706 43.2702 38.7803 40.303 38.7803C38.7618 38.7803 37.2535 38.994 35.8112 39.4056C36.2604 35.4446 39.2362 32.1401 43.2193 31.3491L45.8283 30.8309C45.9613 30.8045 46.0927 30.7734 46.2224 30.7385C47.5367 32.6039 49.6652 33.7261 52.0002 33.7261C54.3353 33.7261 56.4638 32.6039 57.778 30.7385C57.9078 30.7734 58.0392 30.8045 58.1722 30.8309L60.7812 31.3491C65.1089 32.2085 68.25 36.0349 68.25 40.4473V44.033C66.0072 46.1098 63.2653 47.5664 60.3162 48.2739C60.5245 47.743 60.6403 47.166 60.6403 46.5621C60.6403 43.9704 58.5318 41.8619 55.94 41.8619Z" fill="url(#paint2_linear_105_494)"/>
<path d="M56.7461 56.5C56.4172 56.5 56.0948 56.6337 55.8623 56.8662C55.6298 57.0987 55.4961 57.4212 55.4961 57.75C55.4961 58.0788 55.6297 58.4013 55.8623 58.6338C56.095 58.8663 56.4172 59 56.7461 59C57.0748 59 57.3973 58.8663 57.6297 58.6338C57.8622 58.4013 57.9961 58.0788 57.9961 57.75C57.9961 57.4212 57.8623 57.0987 57.6297 56.8662C57.3973 56.6337 57.0748 56.5 56.7461 56.5Z" fill="url(#paint3_linear_105_494)"/>
</g>
<defs>
<linearGradient id="paint0_linear_105_494" x1="54.4824" y1="20.3742" x2="51.7026" y2="20.3742" gradientUnits="userSpaceOnUse">
<stop stop-color="#A268F9"/>
<stop offset="1" stop-color="#B88BFB"/>
</linearGradient>
<linearGradient id="paint1_linear_105_494" x1="51.9677" y1="60.2501" x2="41.6336" y2="60.2501" gradientUnits="userSpaceOnUse">
<stop stop-color="#A268F9"/>
<stop offset="1" stop-color="#B88BFB"/>
</linearGradient>
<linearGradient id="paint2_linear_105_494" x1="82.6168" y1="29.1586" x2="47.9359" y2="29.1586" gradientUnits="userSpaceOnUse">
<stop stop-color="#A268F9"/>
<stop offset="1" stop-color="#B88BFB"/>
</linearGradient>
<linearGradient id="paint3_linear_105_494" x1="57.9431" y1="57.75" x2="56.5872" y2="57.75" gradientUnits="userSpaceOnUse">
<stop stop-color="#A268F9"/>
<stop offset="1" stop-color="#B88BFB"/>
</linearGradient>
<clipPath id="clip0_105_494">
<rect width="64" height="64" fill="white" transform="translate(20)"/>
</clipPath>
</defs>
</svg>
