<svg width="84" height="74" viewBox="0 0 84 74" fill="none" xmlns="http://www.w3.org/2000/svg">
<circle cx="32" cy="42" r="32" fill="#F4E19C" fill-opacity="0.5"/>
<path d="M71.9668 35.105C71.9668 34.4146 71.4058 33.855 70.7153 33.855C70.0249 33.855 69.4653 34.4146 69.4653 35.105C69.4653 35.7954 70.0249 36.355 70.7153 36.355H70.7183C71.4087 36.355 71.9668 35.7954 71.9668 35.105Z" fill="url(#paint0_linear_107_1247)"/>
<path d="M79.9448 51.7417C79.9448 51.7412 79.9448 51.7407 79.9448 51.7402C79.9438 51.7383 79.9434 51.7358 79.9429 51.7339L78.6646 47.4453C78.5137 46.939 78.1743 46.522 77.7095 46.2705C77.2446 46.0195 76.7104 45.9639 76.2036 46.1147L75.3755 46.3618L74.7827 44.3735L79.3525 43.0112C81.4595 42.3833 82.9263 40.4019 82.9194 38.1929C82.9058 33.8096 80.8545 28.9917 76.8228 23.8735C75.8647 22.6572 74.8589 21.5044 73.8496 20.4287C74.1987 19.9473 74.4019 19.3599 74.4019 18.7412V12.4365C74.4019 12.3086 74.3936 12.1826 74.377 12.0591H79.8809C81.5259 12.0591 82.8643 10.7207 82.8643 9.07568V3.24121C82.8643 1.4541 81.4106 0 79.623 0H66.6797C65.9297 0 65.2388 0.256348 64.689 0.685547C64.1392 0.256348 63.4478 0 62.6978 0H49.7544C47.9673 0 46.5132 1.4541 46.5132 3.24121V9.55908H41.2915C39.5044 9.55908 38.0508 11.0132 38.0508 12.8003V19.1406H32.8291C31.042 19.1406 29.5879 20.5947 29.5879 22.3818V28.6997H24.3662C22.5791 28.6997 21.125 30.1538 21.125 31.9409V37.8477C21.125 39.4531 22.4307 40.7593 24.0361 40.7593H54.5649C56.1699 40.7593 57.4761 39.4531 57.4761 37.8477V31.1997H59.3184C59.1108 36.687 60.0752 41.1108 62.1938 44.3711C63.1333 45.8164 64.7476 46.6543 66.4126 46.6543C66.8813 46.6543 67.354 46.5879 67.8169 46.4497L72.3867 45.0879L72.9795 47.0762L72.0586 47.3506C71.0137 47.6621 70.417 48.7656 70.7285 49.811L72.0054 54.0942L74.0283 61.042C74.5635 62.8369 76.2144 64 77.998 64C78.3887 64 78.7861 63.9443 79.1792 63.8271C81.3672 63.1748 82.6167 60.8643 81.9663 58.6836L79.9448 51.7417ZM71.9014 12.4365V18.4434C70.2456 16.8276 68.6646 15.4546 67.3711 14.3945C67.353 14.3794 67.3345 14.3643 67.3164 14.3496C66.7334 13.8726 66.0122 13.6211 65.2778 13.6201C64.9683 13.6201 64.6558 13.6641 64.3506 13.7554C63.3232 14.0615 62.5171 14.8545 62.1943 15.8765C62.1929 15.8823 62.1909 15.8882 62.189 15.894C62.1714 15.9497 62.1538 16.0059 62.1362 16.0625C62.1333 16.0708 62.1313 16.0786 62.1284 16.0864C61.8496 16.9805 61.5503 18.001 61.2549 19.1187H57.4761V12.0591H71.5244C71.7324 12.0591 71.9014 12.2285 71.9014 12.4365ZM59.5522 28.0601C59.5518 28.064 59.5518 28.0684 59.5508 28.0723C59.5439 28.1357 59.5376 28.1992 59.5308 28.2627C59.5298 28.2729 59.5283 28.2837 59.5273 28.2944C59.5215 28.3545 59.5151 28.415 59.5088 28.4756C59.5078 28.4873 59.5068 28.4995 59.5054 28.5117C59.4995 28.5718 59.4937 28.6323 59.4878 28.6924C59.4873 28.6953 59.4873 28.6973 59.4868 28.6997H49.0132V21.6406H60.6377C60.1919 23.6265 59.7979 25.8062 59.5522 28.0601ZM66.6797 2.5H79.623C80.0317 2.5 80.3643 2.83252 80.3643 3.24121V9.07568C80.3643 9.34229 80.1475 9.55908 79.8809 9.55908H65.939V3.24121C65.939 2.83252 66.271 2.5 66.6797 2.5ZM49.0132 3.24121C49.0132 2.83252 49.3457 2.5 49.7544 2.5H62.6978C63.1064 2.5 63.439 2.83252 63.439 3.24121V9.55908H49.0132V3.24121ZM40.5503 12.8003C40.5503 12.3916 40.8828 12.0591 41.2915 12.0591H54.9761V19.1187H40.5503V12.8003ZM32.0879 22.3818C32.0879 21.9731 32.4204 21.6406 32.8286 21.6406H46.5132V28.7002H32.0879V22.3818ZM23.625 37.8481V31.9409C23.625 31.5327 23.957 31.2002 24.3657 31.2002H38.0503V38.2593H24.0361C23.8096 38.2593 23.625 38.0747 23.625 37.8481ZM54.9761 37.8481C54.9761 38.0747 54.7915 38.2593 54.5649 38.2593H40.5503V31.2002H54.9761V37.8481ZM67.103 44.0542C66.0342 44.3726 64.9038 43.9526 64.2905 43.0088C62.3047 39.9536 61.4961 35.5942 61.8843 30.0435C61.8843 30.041 61.8848 30.0391 61.8848 30.0371C61.8936 29.9058 61.9038 29.7734 61.9141 29.6411C61.915 29.6304 61.916 29.6196 61.917 29.6089C61.9194 29.5771 61.9219 29.5454 61.9243 29.5137C61.9263 29.4927 61.9282 29.4717 61.9297 29.4507C61.9316 29.4297 61.9331 29.4087 61.9351 29.3877C61.938 29.3555 61.9404 29.3228 61.9434 29.29C61.9443 29.2793 61.9453 29.269 61.9463 29.2588C61.9492 29.228 61.9517 29.1968 61.9546 29.166C61.9551 29.1582 61.9561 29.1504 61.9565 29.1421C61.9736 28.957 61.9912 28.7725 62.0103 28.5879C62.0107 28.5835 62.0112 28.5791 62.0117 28.5742C62.0151 28.5435 62.0181 28.5122 62.0215 28.481C62.0229 28.4678 62.0244 28.4541 62.0259 28.4409C62.0288 28.4141 62.0312 28.3877 62.0342 28.3608C62.0361 28.3433 62.0381 28.3257 62.04 28.3081C62.0425 28.2847 62.0449 28.2612 62.0479 28.2378C62.0527 28.1948 62.0571 28.1519 62.0625 28.1089C62.0625 28.1089 62.0625 28.1089 62.0625 28.1084C62.3281 25.7705 62.7871 23.2847 63.4331 20.6929C63.4341 20.6899 63.4346 20.6865 63.4351 20.6831C63.4365 20.6792 63.4375 20.6753 63.4385 20.6709C63.7661 19.3574 64.1362 18.041 64.5386 16.7568C64.5396 16.7529 64.541 16.7485 64.5425 16.7446C64.5542 16.7061 64.5664 16.6675 64.5786 16.6289C64.5918 16.5874 64.6074 16.5493 64.625 16.5146C64.7485 16.2705 64.9673 16.1802 65.0649 16.1514C65.0703 16.1494 65.0762 16.1479 65.0825 16.146C65.0835 16.146 65.084 16.1455 65.0845 16.1455C65.0869 16.145 65.0894 16.1445 65.0913 16.144C65.0928 16.1436 65.0942 16.1431 65.0957 16.1426C65.0981 16.1421 65.1001 16.1416 65.1025 16.1411C65.104 16.1406 65.105 16.1406 65.1064 16.1401C65.1094 16.1396 65.1118 16.1392 65.1147 16.1382C65.1162 16.1382 65.1177 16.1377 65.1191 16.1372C65.1211 16.1372 65.123 16.1367 65.1255 16.1362C65.127 16.1357 65.1289 16.1357 65.1304 16.1353C65.1328 16.1348 65.1357 16.1343 65.1387 16.1338C65.1401 16.1333 65.1416 16.1328 65.1436 16.1328C65.146 16.1323 65.1479 16.1318 65.1504 16.1313C65.1533 16.1309 65.1558 16.1304 65.1587 16.1299C65.1602 16.1299 65.1621 16.1294 65.1636 16.1294C65.167 16.1289 65.1699 16.1284 65.1729 16.1279C65.1753 16.1279 65.1777 16.1274 65.1797 16.127C65.1821 16.127 65.1841 16.1265 65.186 16.126C65.188 16.126 65.1899 16.1255 65.1924 16.1255C65.1953 16.125 65.1987 16.1245 65.2021 16.1245C65.2041 16.124 65.2065 16.124 65.209 16.1235C65.2109 16.1235 65.2129 16.1235 65.2148 16.123C65.2188 16.123 65.2222 16.1226 65.2261 16.1221H65.2314C65.2354 16.1216 65.2388 16.1216 65.2422 16.1211H65.249C65.252 16.1211 65.2549 16.1206 65.2578 16.1206H65.2637H65.2759H65.2837H65.2871H65.2954H65.2974C65.3003 16.1206 65.3037 16.1206 65.3066 16.1211H65.3071C65.3213 16.1216 65.3354 16.1226 65.3496 16.124H65.3521C65.355 16.124 65.3584 16.1245 65.3613 16.125H65.3643C65.3667 16.1255 65.3696 16.126 65.3726 16.1265C65.374 16.1265 65.3755 16.1265 65.377 16.127C65.3799 16.1274 65.3823 16.1279 65.3853 16.1284H65.3867C65.3975 16.1299 65.4082 16.1318 65.4189 16.1343C65.4194 16.1343 65.4204 16.1343 65.4214 16.1348C65.4243 16.1353 65.4272 16.1357 65.4302 16.1362C65.4316 16.1367 65.4331 16.1372 65.4346 16.1372C65.4375 16.1382 65.4399 16.1387 65.4424 16.1392C65.4443 16.1396 65.4458 16.1401 65.4478 16.1406C65.4502 16.1411 65.4531 16.1416 65.4556 16.1426C65.4575 16.1426 65.459 16.1436 65.4604 16.1436C65.4634 16.1445 65.4658 16.145 65.4688 16.146C65.4702 16.1465 65.4712 16.1465 65.4727 16.147C65.478 16.1484 65.4829 16.1499 65.4883 16.1514C65.4902 16.1523 65.4922 16.1528 65.4941 16.1533C65.4966 16.1543 65.499 16.1548 65.501 16.1558C65.5034 16.1562 65.5054 16.1572 65.5078 16.1577C65.5098 16.1587 65.5122 16.1597 65.5146 16.1602C65.5166 16.1611 65.519 16.1621 65.5215 16.1626C65.5234 16.1636 65.5259 16.1646 65.5278 16.165C65.5303 16.166 65.5327 16.167 65.5356 16.168C65.5376 16.1689 65.5396 16.1694 65.5415 16.1704C65.5439 16.1714 65.5469 16.1724 65.5488 16.1733C65.5513 16.1743 65.5532 16.1753 65.5557 16.1763C65.5596 16.1777 65.5645 16.1802 65.5688 16.1821C65.5698 16.1826 65.5708 16.1831 65.5718 16.1831C65.5752 16.1851 65.5791 16.1865 65.5825 16.1885C65.584 16.189 65.5859 16.1899 65.5874 16.1909C65.5903 16.1924 65.5938 16.1938 65.5967 16.1953C65.5986 16.1963 65.6001 16.1968 65.6016 16.1978C65.605 16.1992 65.6079 16.2012 65.6108 16.2026C65.6128 16.2036 65.6143 16.2046 65.6162 16.2056C65.6191 16.207 65.6221 16.2085 65.625 16.2104C65.627 16.2114 65.6284 16.2124 65.6304 16.2134C65.6338 16.2153 65.6372 16.2173 65.6406 16.2192C65.6416 16.2202 65.6431 16.2207 65.6445 16.2217C65.6489 16.2241 65.6533 16.2271 65.6582 16.23C65.6592 16.231 65.6606 16.2314 65.6616 16.2324C65.665 16.2349 65.6685 16.2368 65.6724 16.2393C65.6738 16.2402 65.6753 16.2412 65.6768 16.2422C65.6797 16.2446 65.6831 16.2466 65.686 16.249C65.688 16.25 65.6899 16.2515 65.6914 16.2529C65.6943 16.2549 65.6973 16.2568 65.7002 16.2588C65.7017 16.2603 65.7036 16.2617 65.7056 16.2627C65.7085 16.2651 65.7119 16.2676 65.7148 16.27C65.7163 16.2715 65.7178 16.2725 65.7192 16.2734C65.7241 16.2769 65.7285 16.2808 65.7334 16.2847C65.7534 16.3013 65.7734 16.3179 65.7939 16.3345C65.7959 16.3359 65.7974 16.3374 65.7988 16.3384C67.1055 17.4102 69.0649 19.104 71.1001 21.1763C71.1162 21.1929 71.1328 21.2085 71.1494 21.2241C72.4023 22.5029 73.6709 23.9121 74.8584 25.4204C78.5361 30.0894 80.4072 34.3892 80.4189 38.2007C80.4224 39.3267 79.707 40.2969 78.6382 40.6157L74.0684 41.978L73.3408 39.5381C73.1436 38.8765 72.4478 38.4995 71.7861 38.6973C71.1245 38.8945 70.748 39.5903 70.9453 40.252L71.6724 42.6919L67.103 44.0542ZM76.4175 48.6597L77.1899 51.25L74.0454 52.1875L73.2734 49.5972L76.4175 48.6597ZM78.4648 61.4312C77.5981 61.689 76.6826 61.1943 76.4263 60.3354L74.7524 54.5854L77.8965 53.6484L79.5684 59.3901C79.8267 60.2573 79.332 61.1729 78.4648 61.4312Z" fill="url(#paint1_linear_107_1247)"/>
<defs>
<linearGradient id="paint0_linear_107_1247" x1="71.9138" y1="35.105" x2="70.5571" y2="35.105" gradientUnits="userSpaceOnUse">
<stop stop-color="#A268F9"/>
<stop offset="1" stop-color="#B88BFB"/>
</linearGradient>
<linearGradient id="paint1_linear_107_1247" x1="81.6103" y1="32" x2="48.0946" y2="32" gradientUnits="userSpaceOnUse">
<stop stop-color="#A268F9"/>
<stop offset="1" stop-color="#B88BFB"/>
</linearGradient>
</defs>
</svg>
