<svg width="64" height="64" viewBox="0 0 64 64" fill="none" xmlns="http://www.w3.org/2000/svg">
<circle cx="21" cy="42" r="32" fill="#F4E19C" fill-opacity="0.5"/>
<path d="M63.139 27.5791C63.0237 27.147 62.6862 26.8097 62.2542 26.6942C58.0859 25.5812 53.6745 25.5632 49.4971 26.642C47.1235 27.255 44.86 28.2183 42.7761 29.4874C43.8892 26.7031 44.471 23.7153 44.471 20.6862C44.471 16.4541 43.341 12.3002 41.2032 8.67369C39.1287 5.1546 36.1633 2.21338 32.6276 0.168021C32.2405 -0.0560069 31.7633 -0.0560069 31.3762 0.168021C27.8405 2.21338 24.8751 5.15472 22.8006 8.67369C20.6628 12.3002 19.5328 16.4542 19.5328 20.6862C19.5328 23.7153 20.1146 26.7031 21.2277 29.4874C19.1438 28.2183 16.8803 27.255 14.5067 26.642C10.3293 25.5632 5.91795 25.5812 1.74964 26.6942C1.31758 26.8095 0.980225 27.147 0.864775 27.5791C-0.24824 31.7473 -0.266358 36.1586 0.812548 40.3361C1.92431 44.6411 4.1827 48.5873 7.34333 51.7478C10.504 54.9086 14.4501 57.1668 18.755 58.2786C20.8103 58.8095 22.922 59.0747 25.0337 59.0747C26.9543 59.0747 28.8747 58.8547 30.7524 58.416V62.7506C30.7524 63.4407 31.3118 64.0001 32.0018 64.0001C32.6919 64.0001 33.2513 63.4407 33.2513 62.7506V58.4158C35.1285 58.8541 37.0404 59.0707 38.9472 59.0707C43.5266 59.0707 48.0733 57.8235 52.0145 55.4118C52.603 55.0516 52.7883 54.2825 52.4281 53.6938C52.068 53.1052 51.2987 52.9202 50.7101 53.2803C46.1216 56.0882 40.6207 57.1401 35.3214 56.2786L48.2565 43.3438C48.7444 42.8559 48.7444 42.0648 48.2565 41.5767C47.7686 41.0887 46.9774 41.0888 46.4894 41.5767L33.554 54.5121C32.3992 47.4099 34.7147 40.0775 39.8525 34.9398C45.3474 29.4449 53.3524 27.1773 60.9015 28.9317C62.2355 34.6741 61.2628 40.7817 58.1927 45.7985C57.8325 46.387 58.0176 47.1562 58.6063 47.5164C59.1949 47.8767 59.964 47.6916 60.3241 47.1028C63.8762 41.2985 64.9023 34.1823 63.139 27.5791ZM32.002 2.70754C38.1704 6.56686 41.9722 13.3888 41.9722 20.6862C41.9722 27.4767 38.6791 33.8541 33.2514 37.8171V20.6862C33.2514 19.9961 32.692 19.4368 32.002 19.4368C31.3119 19.4368 30.7525 19.9961 30.7525 20.6862V37.8171C25.325 33.8541 22.0317 27.4767 22.0317 20.6862C22.0317 13.3888 25.8335 6.56686 32.002 2.70754ZM9.11043 49.9808C3.61545 44.4858 1.34806 36.4807 3.10243 28.9317C10.6518 27.1775 18.6567 29.4449 24.1514 34.9396C29.2893 40.0775 31.6046 47.4099 30.4499 54.5121L17.5145 41.5767C17.0266 41.0888 16.2355 41.0888 15.7474 41.5767C15.2594 42.0646 15.2595 42.8558 15.7474 43.3438L28.6828 56.2792C21.5805 57.4339 14.2481 55.1186 9.11043 49.9808Z" fill="url(#paint0_linear_125_84)"/>
<path d="M55.7766 49.615C55.4479 49.615 55.1256 49.7487 54.8932 49.9811C54.6608 50.2135 54.5271 50.5358 54.5271 50.8644C54.5271 51.1931 54.6608 51.5154 54.8932 51.7478C55.1256 51.9802 55.4479 52.1139 55.7766 52.1139C56.1064 52.1139 56.4275 51.9802 56.6599 51.7478C56.8936 51.5154 57.026 51.1931 57.026 50.8644C57.026 50.5358 56.8936 50.2135 56.6599 49.9811C56.4275 49.7487 56.1064 49.615 55.7766 49.615Z" fill="url(#paint1_linear_125_84)"/>
<defs>
<linearGradient id="paint0_linear_125_84" x1="62.6283" y1="32" x2="27.9343" y2="32" gradientUnits="userSpaceOnUse">
<stop stop-color="#A268F9"/>
<stop offset="1" stop-color="#B88BFB"/>
</linearGradient>
<linearGradient id="paint1_linear_125_84" x1="56.9731" y1="50.8644" x2="55.6177" y2="50.8644" gradientUnits="userSpaceOnUse">
<stop stop-color="#A268F9"/>
<stop offset="1" stop-color="#B88BFB"/>
</linearGradient>
</defs>
</svg>
