<svg width="84" height="74" viewBox="0 0 84 74" fill="none" xmlns="http://www.w3.org/2000/svg">
<circle cx="32" cy="42" r="32" fill="#F4E19C" fill-opacity="0.5"/>
<g clip-path="url(#clip0_107_612)">
<path d="M83.6626 26.7969L62.4089 4.0907C62.1725 3.8382 61.8421 3.69482 61.4963 3.69482C61.1504 3.69482 60.82 3.83807 60.5836 4.09057L48.1466 17.3772C46.1707 16.7902 44.0798 16.4734 41.9158 16.4734C29.8314 16.4734 20 26.3048 20 38.3892C20 50.4736 29.8314 60.305 41.9158 60.305C45.8434 60.305 49.5325 59.2656 52.7239 57.4486H70.605C71.2952 57.4486 71.855 56.889 71.855 56.1986V51.1986C71.855 50.5082 71.2952 49.9486 70.605 49.9486C69.9147 49.9486 69.355 50.5082 69.355 51.1986V54.9486H56.2565C60.8939 50.9271 63.8316 44.9948 63.8316 38.3892C63.8316 29.4258 58.4219 21.7033 50.6965 18.3116L61.4963 6.77407L79.8677 26.4012H70.605C69.9147 26.4012 69.355 26.9608 69.355 27.6512V39.9487C69.355 40.6391 69.9147 41.1987 70.605 41.1987C71.2952 41.1987 71.855 40.6391 71.855 39.9487V28.9012H82.75C83.248 28.9012 83.6986 28.6054 83.8968 28.1486C84.095 27.6916 84.0029 27.1606 83.6626 26.7969ZM61.3315 38.3892C61.3315 49.0951 52.6216 57.805 41.9158 57.805C31.2099 57.805 22.5 49.0951 22.5 38.3892C22.5 27.6833 31.2099 18.9734 41.9158 18.9734C52.6217 18.9734 61.3315 27.6833 61.3315 38.3892Z" fill="url(#paint0_linear_107_612)"/>
<path d="M70.605 46.8237C71.2953 46.8237 71.855 46.2641 71.855 45.5737C71.855 44.8834 71.2953 44.3237 70.605 44.3237C69.9146 44.3237 69.355 44.8834 69.355 45.5737C69.355 46.2641 69.9146 46.8237 70.605 46.8237Z" fill="url(#paint1_linear_107_612)"/>
<path d="M25.0099 38.3892C25.0099 47.7112 32.5939 55.295 41.9158 55.295C51.2376 55.295 58.8216 47.7112 58.8216 38.3892C58.8216 29.0672 51.2376 21.4833 41.9158 21.4833C32.5939 21.4833 25.0099 29.0672 25.0099 38.3892ZM56.3216 38.3892C56.3216 46.3325 49.8593 52.795 41.9158 52.795C33.9723 52.795 27.5099 46.3325 27.5099 38.3892C27.5099 30.4458 33.9723 23.9833 41.9158 23.9833C49.8593 23.9833 56.3216 30.4458 56.3216 38.3892Z" fill="url(#paint2_linear_107_612)"/>
<path d="M38.832 41.4445C37.3636 39.9847 34.9745 39.9847 33.5061 41.4444C32.7925 42.1539 32.3994 43.0979 32.3994 44.1023C32.3994 45.1067 32.7925 46.0504 33.5061 46.7599C34.2404 47.49 35.2046 47.855 36.1691 47.8549C37.1334 47.8549 38.098 47.4899 38.832 46.76C39.5457 46.0505 39.9387 45.1067 39.9387 44.1024C39.9387 43.0979 39.5456 42.154 38.832 41.4445ZM37.0694 44.9872C36.573 45.4807 35.7652 45.4808 35.2687 44.9872C35.0307 44.7504 34.8995 44.4362 34.8995 44.1024C34.8995 43.7687 35.0307 43.4543 35.2689 43.2175C35.517 42.9708 35.8431 42.8474 36.1691 42.8474C36.4951 42.8474 36.8212 42.9708 37.0694 43.2175V43.2177C37.3075 43.4544 37.4387 43.7687 37.4387 44.1025C37.4387 44.436 37.3075 44.7503 37.0694 44.9872Z" fill="url(#paint3_linear_107_612)"/>
<path d="M47.6623 36.4287C48.6268 36.4287 49.5912 36.0637 50.3254 35.3338C51.0391 34.6243 51.4321 33.6804 51.4321 32.6762C51.4321 31.6718 51.0391 30.7281 50.3254 30.0186C50.3254 30.0184 50.3254 30.0184 50.3254 30.0184C48.8569 28.5587 46.4678 28.5586 44.9996 30.0184C44.2858 30.7279 43.8928 31.6718 43.8928 32.6762C43.8928 33.6806 44.2859 34.6244 44.9996 35.3339C45.7336 36.0637 46.6979 36.4287 47.6623 36.4287ZM46.7621 31.7913C47.0102 31.5444 47.3363 31.4212 47.6623 31.4212C47.9884 31.4212 48.3146 31.5446 48.5627 31.7913C48.8008 32.0281 48.9319 32.3423 48.9319 32.6761C48.9319 33.0099 48.8008 33.3242 48.5627 33.5608C48.0663 34.0546 47.2584 34.0543 46.7619 33.5608C46.5239 33.3241 46.3927 33.0098 46.3927 32.6761C46.3927 32.3423 46.5238 32.0281 46.7621 31.7913Z" fill="url(#paint4_linear_107_612)"/>
<path d="M36.12 30.8647C35.6304 30.3781 34.8389 30.3802 34.3521 30.87C33.8654 31.3595 33.8677 32.151 34.3572 32.6377L47.7114 45.9139C47.9552 46.1564 48.274 46.2774 48.5927 46.2774C48.9137 46.2774 49.235 46.1544 49.4792 45.9086C49.9659 45.419 49.9636 44.6276 49.4741 44.1409L36.12 30.8647Z" fill="url(#paint5_linear_107_612)"/>
</g>
<defs>
<linearGradient id="paint0_linear_107_612" x1="82.6441" y1="31.9999" x2="47.9322" y2="31.9999" gradientUnits="userSpaceOnUse">
<stop stop-color="#A268F9"/>
<stop offset="1" stop-color="#B88BFB"/>
</linearGradient>
<linearGradient id="paint1_linear_107_612" x1="71.802" y1="45.5737" x2="70.4461" y2="45.5737" gradientUnits="userSpaceOnUse">
<stop stop-color="#A268F9"/>
<stop offset="1" stop-color="#B88BFB"/>
</linearGradient>
<linearGradient id="paint2_linear_107_612" x1="58.1053" y1="38.3892" x2="39.7667" y2="38.3892" gradientUnits="userSpaceOnUse">
<stop stop-color="#A268F9"/>
<stop offset="1" stop-color="#B88BFB"/>
</linearGradient>
<linearGradient id="paint3_linear_107_612" x1="39.779" y1="44.1023" x2="35.6898" y2="44.1023" gradientUnits="userSpaceOnUse">
<stop stop-color="#A268F9"/>
<stop offset="1" stop-color="#B88BFB"/>
</linearGradient>
<linearGradient id="paint4_linear_107_612" x1="51.2723" y1="32.6761" x2="47.1833" y2="32.6761" gradientUnits="userSpaceOnUse">
<stop stop-color="#A268F9"/>
<stop offset="1" stop-color="#B88BFB"/>
</linearGradient>
<linearGradient id="paint5_linear_107_612" x1="49.5068" y1="38.3893" x2="40.908" y2="38.3893" gradientUnits="userSpaceOnUse">
<stop stop-color="#A268F9"/>
<stop offset="1" stop-color="#B88BFB"/>
</linearGradient>
<clipPath id="clip0_107_612">
<rect width="64" height="64" fill="white" transform="translate(20)"/>
</clipPath>
</defs>
</svg>
