<svg width="17" height="17" viewBox="0 0 17 17" fill="none" xmlns="http://www.w3.org/2000/svg">
<path d="M6.06523 14.28C5.93856 14.28 5.81189 14.2333 5.71189 14.1333C5.51856 13.94 5.51856 13.62 5.71189 13.4267L10.0586 9.08001C10.3786 8.76001 10.3786 8.24001 10.0586 7.92001L5.71189 3.57335C5.51856 3.38001 5.51856 3.06001 5.71189 2.86668C5.90523 2.67335 6.22523 2.67335 6.41856 2.86668L10.7652 7.21335C11.1052 7.55335 11.2986 8.01335 11.2986 8.50001C11.2986 8.98668 11.1119 9.44668 10.7652 9.78668L6.41856 14.1333C6.31856 14.2267 6.19189 14.28 6.06523 14.28Z" fill="#A6A6A6"/>
</svg>
