<svg width="466" height="248" viewBox="0 0 466 248" fill="none" xmlns="http://www.w3.org/2000/svg">
<path d="M297.141 -86.3371C262.141 -95.8377 225.178 -94.7283 190.926 -83.149C156.673 -71.5697 126.67 -50.0407 104.71 -21.2845C82.7502 7.47176 69.8198 42.1637 67.5541 78.4044C65.2883 114.645 73.789 150.807 91.9812 182.316C110.173 213.826 137.24 239.269 169.758 255.427C176.407 258.73 183.222 261.616 190.165 264.076L200.276 357.704L267.32 273.679C269.917 273.579 272.381 273.389 274.669 273.093C310.553 268.453 344.199 253.234 371.353 229.361C398.507 205.487 417.95 174.031 427.222 138.97L374.133 124.559C367.643 149.101 354.033 171.121 335.025 187.832C316.018 204.544 292.465 215.197 267.347 218.445C242.228 221.693 216.672 217.39 193.909 206.079C171.146 194.768 152.2 176.958 139.465 154.902C126.731 132.845 120.78 107.532 122.366 82.1631C123.952 56.7947 133.003 32.5103 148.375 12.3809C163.747 -7.74843 184.749 -22.8187 208.726 -30.9242C232.703 -39.0297 258.577 -39.8063 283.077 -33.1559L297.141 -86.3371Z" fill="#995FEF"/>
<path d="M271.504 -14.2447C251.729 -18.1414 231.246 -16.1642 212.582 -8.55699C193.917 -0.949788 177.887 11.9546 166.47 28.5644C155.053 45.1742 148.748 64.7628 148.332 84.9138C147.917 105.065 153.409 124.897 164.131 141.963C174.854 159.03 190.337 172.584 208.672 180.955C227.007 189.325 247.392 192.145 267.311 189.067C287.229 185.989 305.812 177.148 320.765 163.634C335.718 150.12 346.389 132.524 351.46 113.017L303.501 100.549C300.864 110.693 295.315 119.843 287.54 126.87C279.764 133.898 270.101 138.495 259.743 140.096C249.386 141.696 238.786 140.23 229.252 135.877C219.717 131.524 211.666 124.476 206.09 115.601C200.514 106.727 197.659 96.4143 197.875 85.9358C198.091 75.4572 201.37 65.2712 207.306 56.6341C213.243 47.997 221.579 41.2867 231.284 37.3309C240.99 33.3752 251.641 32.347 261.924 34.3733L271.504 -14.2447Z" fill="#995FEF"/>
</svg>
