<svg width="320" height="434" viewBox="0 0 320 434" fill="none" xmlns="http://www.w3.org/2000/svg">
<g opacity="0.8">
<path d="M240.755 -39.5702C198.372 -51.0749 153.612 -49.7314 112.135 -35.7096C70.6573 -21.6878 34.3252 4.38255 7.73305 39.2047C-18.8591 74.0267 -34.5171 116.037 -37.2608 159.922C-40.0044 203.807 -29.7106 247.597 -7.68101 285.753C14.3486 323.909 47.1246 354.719 86.5021 374.285C94.5533 378.286 102.806 381.78 111.214 384.759L123.457 498.137L204.644 396.388C207.789 396.267 210.773 396.036 213.543 395.678C256.996 390.06 297.74 371.63 330.622 342.721C363.504 313.811 387.047 275.719 398.275 233.263L333.988 215.812C326.129 245.532 309.648 272.196 286.631 292.433C263.614 312.669 235.093 325.57 204.676 329.503C174.259 333.436 143.312 328.225 115.747 314.528C88.1829 300.831 65.2398 279.265 49.8191 252.555C34.3983 225.846 27.1927 195.193 29.1132 164.474C31.0338 133.754 41.9944 104.347 60.6089 79.9715C79.2234 55.596 104.656 37.3468 133.69 27.5315C162.724 17.7163 194.056 16.7758 223.724 24.8291L240.755 -39.5702Z" fill="#995FEF"/>
<path d="M209.711 47.7293C185.764 43.0107 160.96 45.4049 138.359 54.6168C115.757 63.8287 96.3463 79.4552 82.5209 99.5686C68.6954 119.682 61.0601 143.403 60.5568 167.804C60.0534 192.206 66.7041 216.221 79.6884 236.888C92.6726 257.554 111.423 273.968 133.625 284.104C155.828 294.24 180.512 297.655 204.632 293.928C228.753 290.201 251.255 279.494 269.363 263.13C287.47 246.765 300.391 225.457 306.532 201.836L248.457 186.738C245.264 199.021 238.545 210.101 229.129 218.611C219.713 227.121 208.012 232.688 195.469 234.626C182.926 236.564 170.091 234.788 158.545 229.518C147 224.247 137.25 215.712 130.498 204.965C123.746 194.219 120.288 181.731 120.55 169.042C120.811 156.353 124.782 144.018 131.971 133.559C139.16 123.1 149.254 114.975 161.007 110.184C172.76 105.394 185.658 104.149 198.11 106.603L209.711 47.7293Z" fill="#995FEF"/>
</g>
</svg>
