<svg width="68" height="85" viewBox="0 0 68 85" fill="none" xmlns="http://www.w3.org/2000/svg">
<path d="M68 11.7434C62.4292 6.13608 55.3315 2.31747 47.6046 0.770418C39.8777 -0.776629 31.8685 0.0173733 24.5899 3.05202C17.3112 6.08667 11.0901 11.2257 6.71315 17.8191C2.33619 24.4126 -1.18959e-06 32.1644 0 40.0944C1.18959e-06 48.0243 2.33619 55.7761 6.71315 62.3696C7.60807 63.7177 8.58008 65.005 9.62246 66.2259L1.32778 85L23.1388 76.4465C23.64 76.7107 24.1258 76.9432 24.5899 77.1367C31.8685 80.1713 39.8777 80.9653 47.6046 79.4183C55.3315 77.8712 62.4292 74.0526 68 68.4453L59.55 59.94C55.6505 63.8651 50.6821 66.5382 45.2733 67.6211C39.8644 68.704 34.258 68.1482 29.1629 66.024C24.0679 63.8997 19.7131 60.3024 16.6492 55.687C13.5854 51.0716 11.95 45.6453 11.95 40.0944C11.95 34.5434 13.5854 29.1171 16.6492 24.5017C19.7131 19.8863 24.0679 16.289 29.1629 14.1647C34.258 12.0405 39.8644 11.4847 45.2733 12.5676C50.6821 13.6505 55.6505 16.3236 59.55 20.2487L68 11.7434Z" fill="white"/>
<path d="M55.3049 22.557C51.9971 19.6666 47.9154 17.8076 43.5635 17.2095C39.2116 16.6114 34.7798 17.3003 30.8148 19.1912C26.8498 21.0821 23.525 24.0924 21.2506 27.8505C18.9762 31.6087 17.8516 35.9505 18.0157 40.3403C18.1797 44.73 19.6252 48.9757 22.1738 52.5537C24.7223 56.1316 28.2625 58.8853 32.3576 60.475C36.4527 62.0647 40.9235 62.4209 45.2187 61.4996C49.5138 60.5784 53.4453 58.42 56.5282 55.2907L48.8347 47.7112C47.2316 49.3384 45.1872 50.4608 42.9537 50.9398C40.7202 51.4189 38.3954 51.2336 36.2659 50.407C34.1365 49.5804 32.2956 48.1485 30.9704 46.2879C29.6451 44.4274 28.8935 42.2196 28.8082 39.9369C28.7229 37.6543 29.3076 35.3965 30.4903 33.4423C31.673 31.488 33.4019 29.9227 35.4637 28.9394C37.5255 27.9562 39.83 27.5979 42.093 27.909C44.356 28.22 46.4785 29.1866 48.1986 30.6897L55.3049 22.557Z" fill="#EAC544"/>
</svg>
