<svg xmlns="http://www.w3.org/2000/svg">
    <symbol viewBox="0 0 68 85" id="header-logo">
        <path d="M68 11.7434C62.4292 6.13608 55.3315 2.31747 47.6046 0.770418C39.8777 -0.776629 31.8685 0.0173733 24.5899 3.05202C17.3112 6.08667 11.0901 11.2257 6.71315 17.8191C2.33619 24.4126 -1.18959e-06 32.1644 0 40.0944C1.18959e-06 48.0243 2.33619 55.7761 6.71315 62.3696C7.60807 63.7177 8.58008 65.005 9.62246 66.2259L1.32778 85L23.1388 76.4465C23.64 76.7107 24.1258 76.9432 24.5899 77.1367C31.8685 80.1713 39.8777 80.9653 47.6046 79.4183C55.3315 77.8712 62.4292 74.0526 68 68.4453L59.55 59.94C55.6505 63.8651 50.6821 66.5382 45.2733 67.6211C39.8644 68.704 34.258 68.1482 29.1629 66.024C24.0679 63.8997 19.7131 60.3024 16.6492 55.687C13.5854 51.0716 11.95 45.6453 11.95 40.0944C11.95 34.5434 13.5854 29.1171 16.6492 24.5017C19.7131 19.8863 24.0679 16.289 29.1629 14.1647C34.258 12.0405 39.8644 11.4847 45.2733 12.5676C50.6821 13.6505 55.6505 16.3236 59.55 20.2487L68 11.7434Z"
              fill="white"/>
        <path d="M55.3049 22.557C51.9971 19.6666 47.9154 17.8076 43.5635 17.2095C39.2116 16.6114 34.7798 17.3003 30.8148 19.1912C26.8498 21.0821 23.525 24.0924 21.2506 27.8505C18.9762 31.6087 17.8516 35.9505 18.0157 40.3403C18.1797 44.73 19.6252 48.9757 22.1738 52.5537C24.7223 56.1316 28.2625 58.8853 32.3576 60.475C36.4527 62.0647 40.9235 62.4209 45.2187 61.4996C49.5138 60.5784 53.4453 58.42 56.5282 55.2907L48.8347 47.7112C47.2316 49.3384 45.1872 50.4608 42.9537 50.9398C40.7202 51.4189 38.3954 51.2336 36.2659 50.407C34.1365 49.5804 32.2956 48.1485 30.9704 46.2879C29.6451 44.4274 28.8935 42.2196 28.8082 39.9369C28.7229 37.6543 29.3076 35.3965 30.4903 33.4423C31.673 31.488 33.4019 29.9227 35.4637 28.9394C37.5255 27.9562 39.83 27.5979 42.093 27.909C44.356 28.22 46.4785 29.1866 48.1986 30.6897L55.3049 22.557Z"
              fill="#EAC544"/>
    </symbol>
    <symbol viewBox="0 0 18 19" id="header-btn">
        <path d="M6.67505 6.17018C6.90755 3.47018 8.29505 2.36768 11.3325 2.36768H11.43C14.7826 2.36768 16.1251 3.71018 16.1251 7.06268V11.9527C16.1251 15.3052 14.7826 16.6477 11.43 16.6477H11.3325C8.31755 16.6477 6.93005 15.5602 6.68255 12.9052"
              stroke="white" stroke-width="1.5" stroke-linecap="round" stroke-linejoin="round"/>
        <path d="M1.5 9.5H11.16" stroke="white" stroke-width="1.5" stroke-linecap="round" stroke-linejoin="round"/>
        <path d="M9.48755 6.9873L12 9.4998L9.48755 12.0123" stroke="white" stroke-width="1.5" stroke-linecap="round"
              stroke-linejoin="round"/>
    </symbol>
    <symbol viewBox="0 0 24 24" id="add">
        <path d="M8 12H16" stroke="white" stroke-width="1.5" stroke-linecap="round" stroke-linejoin="round"/>
        <path d="M12 16V8" stroke="white" stroke-width="1.5" stroke-linecap="round" stroke-linejoin="round"/>
        <path d="M9 22H15C20 22 22 20 22 15V9C22 4 20 2 15 2H9C4 2 2 4 2 9V15C2 20 4 22 9 22Z" stroke="white"
              stroke-width="1.5" stroke-linecap="round" stroke-linejoin="round"/>

    </symbol>

    <symbol viewBox="0 0 16 16" id="see">
        <path d="M10.3866 7.99995C10.3866 9.31995 9.31995 10.3866 7.99995 10.3866C6.67995 10.3866 5.61328 9.31995 5.61328 7.99995C5.61328 6.67995 6.67995 5.61328 7.99995 5.61328C9.31995 5.61328 10.3866 6.67995 10.3866 7.99995Z"
              stroke="#777777" stroke-width="1.5" stroke-linecap="round" stroke-linejoin="round"/>
        <path d="M8.00002 13.5133C10.3534 13.5133 12.5467 12.1266 14.0734 9.72665C14.6734 8.78665 14.6734 7.20665 14.0734 6.26665C12.5467 3.86665 10.3534 2.47998 8.00002 2.47998C5.64668 2.47998 3.45335 3.86665 1.92668 6.26665C1.32668 7.20665 1.32668 8.78665 1.92668 9.72665C3.45335 12.1266 5.64668 13.5133 8.00002 13.5133Z"
              stroke="#777777" stroke-width="1.5" stroke-linecap="round" stroke-linejoin="round"/>

    </symbol>

    <symbol viewBox="0 0 36 45" id="decor">
        <path d="M36 6.21708C33.0507 3.24851 29.2932 1.22689 25.2024 0.407869C21.1117 -0.411157 16.8715 0.00919765 13.0182 1.61578C9.16478 3.22235 5.87123 5.943 3.55402 9.43366C1.23681 12.9243 -6.29784e-07 17.0282 0 21.2264C6.29785e-07 25.4246 1.23681 29.5285 3.55402 33.0192C4.0278 33.7329 4.54239 34.4144 5.09424 35.0608L0.702944 45L12.25 40.4717C12.5153 40.6115 12.7725 40.7346 13.0182 40.8371C16.8715 42.4436 21.1117 42.864 25.2024 42.045C29.2932 41.226 33.0507 39.2043 36 36.2358L31.5265 31.733C29.462 33.811 26.8317 35.2261 23.9682 35.7994C21.1047 36.3727 18.1366 36.0785 15.4392 34.9539C12.7418 33.8293 10.4364 31.9248 8.81431 29.4814C7.19226 27.0379 6.32649 24.1652 6.32649 21.2264C6.32649 18.2877 7.19226 15.415 8.81431 12.9715C10.4364 10.528 12.7418 8.62357 15.4392 7.49897C18.1366 6.37437 21.1047 6.08012 23.9682 6.65344C26.8317 7.22675 29.462 8.64189 31.5265 10.7199L36 6.21708Z"
              fill="white" fill-opacity="0.3"/>
        <path d="M29.2791 11.942C27.5279 10.4117 25.367 9.42757 23.063 9.11093C20.7591 8.79428 18.4128 9.15899 16.3137 10.1601C14.2146 11.1611 12.4544 12.7548 11.2503 14.7444C10.0462 16.734 9.45088 19.0326 9.53773 21.3566C9.62458 23.6806 10.3898 25.9283 11.7391 27.8225C13.0883 29.7168 14.9625 31.1746 17.1305 32.0162C19.2985 32.8578 21.6654 33.0464 23.9393 32.5586C26.2132 32.0709 28.2946 30.9282 29.9267 29.2715L25.8537 25.2589C25.005 26.1203 23.9226 26.7145 22.7402 26.9681C21.5578 27.2218 20.327 27.1237 19.1996 26.6861C18.0723 26.2484 17.0977 25.4904 16.3961 24.5054C15.6945 23.5204 15.2965 22.3516 15.2514 21.1431C15.2062 19.9346 15.5158 18.7393 16.1419 17.7047C16.7681 16.6701 17.6834 15.8414 18.7749 15.3209C19.8664 14.8003 21.0865 14.6107 22.2845 14.7753C23.4826 14.94 24.6063 15.4517 25.5169 16.2475L29.2791 11.942Z"
              fill="white" fill-opacity="0.3"/>
    </symbol>

    <symbol viewBox="0 0 24 24" id="left">
        <path d="M15.09 20.67C15.28 20.67 15.47 20.6 15.62 20.45C15.91 20.16 15.91 19.68 15.62 19.39L9.10002 12.87C8.62002 12.39 8.62002 11.61 9.10002 11.13L15.62 4.61002C15.91 4.32002 15.91 3.84002 15.62 3.55002C15.33 3.26002 14.85 3.26002 14.56 3.55002L8.04002 10.07C7.53002 10.58 7.24002 11.27 7.24002 12C7.24002 12.73 7.52002 13.42 8.04002 13.93L14.56 20.45C14.71 20.59 14.9 20.67 15.09 20.67Z"
              fill="#292D32"/>

    </symbol>

    <symbol viewBox="0 0 24 24" id=" right">
        <path d="M8.9101 20.67C8.7201 20.67 8.5301 20.6 8.3801 20.45C8.0901 20.16 8.0901 19.68 8.3801 19.39L14.9001 12.87C15.3801 12.39 15.3801 11.61 14.9001 11.13L8.3801 4.61002C8.0901 4.32002 8.0901 3.84002 8.3801 3.55002C8.6701 3.26002 9.1501 3.26002 9.4401 3.55002L15.9601 10.07C16.4701 10.58 16.7601 11.27 16.7601 12C16.7601 12.73 16.4801 13.42 15.9601 13.93L9.4401 20.45C9.2901 20.59 9.1001 20.67 8.9101 20.67Z"
              fill="#292D32"/>

    </symbol>

    <symbol viewBox="0 0 32 32" id="social1">
        <path fill-rule="evenodd" clip-rule="evenodd"
              d="M0 16C0 7.16344 7.16344 0 16 0C24.8366 0 32 7.16344 32 16C32 24.8366 24.8366 32 16 32C7.16344 32 0 24.8366 0 16ZM16 8C20.4 8 24 11.6 24 16C24 20 21.1 23.4 17.1 24V18.3H19L19.4 16H17.2V14.5C17.2 13.9 17.5 13.3 18.5 13.3H19.5V11.3C19.5 11.3 18.6 11.1 17.7 11.1C15.9 11.1 14.7 12.2 14.7 14.2V16H12.7V18.3H14.7V23.9C10.9 23.3 8 20 8 16C8 11.6 11.6 8 16 8Z"
              fill="white"/>
    </symbol>
    <symbol viewBox="0 0 32 32" id="social2">
        <path fill-rule="evenodd" clip-rule="evenodd"
              d="M0 16C0 7.16344 7.16344 0 16 0C24.8366 0 32 7.16344 32 16C32 24.8366 24.8366 32 16 32C7.16344 32 0 24.8366 0 16ZM22.1 11.5C22.8 11.4 23.4 11.3 24 11C23.6 11.7 23 12.3 22.3 12.7C22.5 17.4 19.1 22.5 13 22.5C11.2 22.5 9.5 21.9 8 21C9.7 21.2 11.5 20.7 12.7 19.8C11.2 19.8 10 18.8 9.6 17.5C10.1 17.6 10.6 17.5 11.1 17.4C9.6 17 8.5 15.6 8.5 14.1C9 14.3 9.5 14.5 10 14.5C8.6 13.5 8.1 11.6 9 10.1C10.7 12.1 13.1 13.4 15.8 13.5C15.3 11.5 16.9 9.5 19 9.5C19.9 9.5 20.8 9.9 21.4 10.5C22.2 10.3 22.9 10.1 23.5 9.7C23.3 10.5 22.8 11.1 22.1 11.5Z"
              fill="white"/>

    </symbol>

    <symbol viewBox="0 0 13 12" id="prev">
        <path fill-rule="evenodd" clip-rule="evenodd" d="M12.9999 6.00022C12.9999 6.19913 12.9209 6.38989 12.7802 6.53055C12.6396 6.6712 12.4488 6.75021 12.2499 6.75021H3.56038L6.78088 9.96921C6.85061 10.0389 6.90592 10.1217 6.94366 10.2128C6.9814 10.3039 7.00082 10.4016 7.00082 10.5002C7.00082 10.5988 6.9814 10.6965 6.94366 10.7876C6.90592 10.8787 6.85061 10.9615 6.78088 11.0312C6.71114 11.1009 6.62836 11.1563 6.53725 11.194C6.44614 11.2317 6.34849 11.2512 6.24988 11.2512C6.15126 11.2512 6.05361 11.2317 5.9625 11.194C5.87139 11.1563 5.78861 11.1009 5.71888 11.0312L1.21888 6.53122C1.14903 6.46155 1.09362 6.37878 1.05581 6.28766C1.018 6.19655 0.998535 6.09887 0.998535 6.00022C0.998535 5.90156 1.018 5.80388 1.05581 5.71276C1.09362 5.62165 1.14903 5.53888 1.21888 5.46921L5.71888 0.969215C5.85971 0.828385 6.05071 0.749268 6.24988 0.749268C6.44904 0.749268 6.64005 0.828385 6.78088 0.969215C6.92171 1.11005 7.00082 1.30105 7.00082 1.50022C7.00082 1.69938 6.92171 1.89039 6.78088 2.03122L3.56038 5.25022H12.2499C12.4488 5.25022 12.6396 5.32923 12.7802 5.46988C12.9209 5.61054 12.9999 5.8013 12.9999 6.00022Z" fill="currentColor"/>

    </symbol>
    <symbol viewBox="0 0 13 12" id="next">
        <path fill-rule="evenodd" clip-rule="evenodd" d="M0.000123978 6.00022C0.000123978 6.19913 0.0791416 6.38989 0.219793 6.53055C0.360446 6.6712 0.551212 6.75021 0.750124 6.75021H9.43962L6.21912 9.96921C6.14939 10.0389 6.09408 10.1217 6.05634 10.2128C6.0186 10.3039 5.99918 10.4016 5.99918 10.5002C5.99918 10.5988 6.0186 10.6965 6.05634 10.7876C6.09408 10.8787 6.14939 10.9615 6.21912 11.0312C6.28886 11.1009 6.37164 11.1563 6.46275 11.194C6.55386 11.2317 6.65151 11.2512 6.75012 11.2512C6.84874 11.2512 6.94639 11.2317 7.0375 11.194C7.12861 11.1563 7.21139 11.1009 7.28112 11.0312L11.7811 6.53122C11.851 6.46155 11.9064 6.37878 11.9442 6.28766C11.982 6.19655 12.0015 6.09887 12.0015 6.00022C12.0015 5.90156 11.982 5.80388 11.9442 5.71276C11.9064 5.62165 11.851 5.53888 11.7811 5.46921L7.28112 0.969215C7.14029 0.828385 6.94929 0.749268 6.75012 0.749268C6.55096 0.749268 6.35995 0.828385 6.21912 0.969215C6.07829 1.11005 5.99918 1.30105 5.99918 1.50022C5.99918 1.69938 6.07829 1.89039 6.21912 2.03122L9.43962 5.25022H0.750124C0.551212 5.25022 0.360446 5.32923 0.219793 5.46988C0.0791416 5.61054 0.000123978 5.8013 0.000123978 6.00022Z" fill="currentColor"/>

    </symbol>
</svg>