<svg width="192" height="201" viewBox="0 0 192 201" fill="none" xmlns="http://www.w3.org/2000/svg">
<g clip-path="url(#clip0_22_692)">
<path d="M94.2706 190.859C94.2706 190.859 18.3258 185.275 9.19304 148.169C0.0602789 111.063 20.2998 106.014 27.2106 85.231C34.1213 64.4478 2.77335 52.1905 23.7552 23.9117C44.7371 -4.36711 75.6788 -4.85942 88.7172 8.45918C101.756 21.7778 116.786 0.319671 140.99 12.4059C165.192 24.492 171.116 48.9122 163.465 67.987C155.813 87.0601 187.189 105.302 191.124 126.928C195.059 148.552 159.543 200.394 94.2706 190.859Z" fill="#E9E9E9"/>
<path d="M17.3192 201H62.828L66.6031 190.844C67.9409 187.246 70.6768 184.354 74.1763 182.773C77.4718 181.283 81.9076 178.577 86.2081 173.755C94.5757 164.37 99.0164 154.302 99.0164 154.302L70.8122 154.163C70.8122 154.163 73.3507 138.399 59.3335 117.463C57.8326 115.221 57.1506 112.532 57.3839 109.847L58.7119 94.5768C58.7119 94.5768 68.2378 83.9399 62.3924 70.7435C62.3924 70.7435 56.8048 63.0116 54.5877 65.8416C54.5877 65.8416 37.7072 106.009 36.1704 111.982C34.6336 117.955 32.5845 121.71 34.6336 140.48C35.1769 145.448 35.371 149.592 35.3645 153.001C35.3514 159.543 33.8897 166 31.0901 171.913L17.3192 201Z" fill="#F8CCAF"/>
<path opacity="0.2" d="M59.7658 174.943C55.542 170.257 49.6738 170.997 43.5021 168.86C37.332 166.722 35.3514 151.311 35.3514 151.311V151.309C35.3612 151.891 35.3661 152.455 35.3645 153C35.3514 159.542 33.8897 165.999 31.0901 171.911L17.3192 201H62.828L66.6032 190.844C67.9409 187.246 70.6768 184.355 74.1763 182.773C76.9823 181.505 80.6123 179.356 84.2813 175.772C71.7487 181.034 63.9896 179.63 59.7658 174.943Z" fill="#FFC0BB"/>
<path d="M150.628 40.6081L149.645 48.0157L154.911 44.1733L171.029 35.9458L158.562 37.0869C158.562 37.0869 152.211 38.6291 151.867 38.9388C151.522 39.2486 150.628 40.6081 150.628 40.6081Z" fill="#F4E19C"/>
<path d="M145.108 36.1333L171.029 35.9458L150.628 40.6081L145.108 36.1333Z" fill="#EAC544"/>
<path d="M158.962 48.0613L152.17 42.6084L171.03 35.9458L158.962 48.0613Z" fill="#EAC544"/>
<path d="M147.956 44.4668C148.948 44.0935 149.679 44.0136 149.687 44.012L149.638 43.5522C149.606 43.5555 148.84 43.6403 147.793 44.0331L147.956 44.4668Z" fill="white"/>
<path d="M131.622 85.7267C132.694 85.1839 133.704 84.5987 134.623 83.9873L134.879 84.3721C133.944 84.9948 132.919 85.5898 131.83 86.1392L131.622 85.7267ZM137.354 81.8632C138.225 81.0677 139.008 80.2118 139.683 79.3185L140.052 79.5973C139.36 80.5134 138.558 81.3921 137.665 82.2055L137.354 81.8632ZM141.473 76.3744C141.7 75.8984 141.908 75.4028 142.093 74.8991C142.302 74.3301 142.488 73.7351 142.644 73.1319L143.093 73.2477C142.933 73.8672 142.744 74.4752 142.528 75.0588C142.339 75.574 142.124 76.0842 141.891 76.5733L141.473 76.3744ZM143.343 66.2591L143.806 66.2493C143.835 67.5046 143.798 68.6571 143.692 69.7705L143.232 69.7265C143.333 68.631 143.37 67.4964 143.343 66.2591ZM142.683 59.3259L143.142 59.2607C143.336 60.6138 143.475 61.7207 143.577 62.7412L143.117 62.7868C143.015 61.7728 142.876 60.6725 142.683 59.3259ZM142.165 55.8438C141.982 54.5984 141.922 53.4165 141.99 52.3324L142.452 52.3618C142.387 53.4132 142.444 54.5625 142.623 55.7754L142.626 55.8031L142.168 55.8667L142.165 55.8438ZM142.747 48.8569C143.214 47.719 143.889 46.7262 144.757 45.9062L145.075 46.2421C144.256 47.0164 143.617 47.9538 143.176 49.0313L142.747 48.8569Z" fill="white"/>
<path d="M126.862 88.2224C127.457 88.0154 128.045 87.7986 128.607 87.5768L128.438 87.1465C127.881 87.3649 127.301 87.5801 126.71 87.7855L126.862 88.2224Z" fill="white"/>
<path d="M124.462 39.0595C124.462 39.0595 134.1 32.6121 136.303 36.8603C138.504 41.107 123.78 56.1356 123.78 56.1356L124.462 39.0595Z" fill="#F2BE9B"/>
<path d="M124.462 67.1476C124.462 67.1476 134.1 60.7019 136.303 64.9485C138.504 69.1951 123.78 84.2238 123.78 84.2238L124.462 67.1476Z" fill="#F2BE9B"/>
<path d="M124.462 86.2844C124.462 86.2844 134.1 79.8386 136.303 84.0852C138.504 88.3319 123.78 103.362 123.78 103.362L124.462 86.2844Z" fill="#F2BE9B"/>
<path d="M117.804 31.8345H64.8853C60.9454 31.8345 57.7494 35.0264 57.7494 38.9649V126.957V147.031C57.7494 151.001 60.978 154.162 64.8853 154.162H117.804C121.744 154.162 124.94 150.972 124.94 147.031V59.0406V38.9649C124.94 34.9921 121.706 31.8345 117.804 31.8345Z" fill="#2F1048"/>
<path d="M121.272 41.5518H61V144.444H121.272V41.5518Z" fill="#A66EFA"/>
<path opacity="0.5" d="M105.831 98.5654H53.4881C51.6805 98.5654 50.2139 100.029 50.2139 101.837V123.421C50.2139 125.227 51.6789 126.693 53.4881 126.693H94.6981C96.3655 129.019 99.3901 133.182 99.656 133.182C99.9057 133.182 99.4244 129.249 99.085 126.693H105.831C107.639 126.693 109.105 125.229 109.105 123.421V101.837C109.105 100.031 107.64 98.5654 105.831 98.5654Z" fill="white"/>
<path d="M103.77 38.3194H79.0167C78.7312 38.3194 78.4979 38.0879 78.4979 37.801V37.5467C78.4979 37.2614 78.7296 37.0283 79.0167 37.0283H103.77C104.056 37.0283 104.289 37.2598 104.289 37.5467V37.801C104.289 38.0879 104.058 38.3194 103.77 38.3194Z" fill="white"/>
<path d="M56.5503 103.789C56.5503 103.789 56.9141 105.14 57.7364 105.804L58.7136 94.5735C58.7136 94.5735 65.7206 86.7486 64.0272 76.1948C63.448 72.5823 61.6485 69.2567 58.8996 66.8408C57.3301 65.4616 55.6057 64.5406 54.5893 65.8382C54.5893 65.8382 46.6508 84.7271 41.1659 98.525L56.5503 103.789Z" fill="#F8CCAF"/>
<path d="M104.671 95.9673H52.3265C50.5189 95.9673 49.0522 97.4312 49.0522 99.2391V120.824C49.0522 122.631 50.5173 124.096 52.3265 124.096H93.5365C95.2038 126.422 98.2285 130.586 98.4944 130.586C98.744 130.586 98.2628 126.652 97.9234 124.096H104.669C106.477 124.096 107.944 122.632 107.944 120.824V99.2374C107.944 97.4312 106.479 95.9673 104.671 95.9673Z" fill="#EAC544"/>
<path d="M121.481 138.359H61.2097V144.444H121.481V138.359Z" fill="#EAC544"/>
<path d="M56.0169 76.9348C58.2095 75.9274 59.3548 70.2233 59.7659 67.6607C58.0056 65.892 55.7983 64.2993 54.5894 65.8414C54.5894 65.8414 52.8421 70.0016 50.4194 75.841C52.0753 76.762 54.3773 77.688 56.0169 76.9348Z" fill="#E28B6D"/>
<path d="M111.285 111.319C111.285 111.319 103.144 112.002 102.86 114.164C102.575 116.325 103.201 120.137 110.887 120.875H118.847C118.847 120.875 116.465 114.276 116.579 114.049C116.693 113.821 111.285 111.319 111.285 111.319Z" fill="#101010" fill-opacity="0.2"/>
<path d="M111.285 109.319C111.285 109.319 103.144 110.002 102.86 112.164C102.575 114.325 103.201 118.137 110.887 118.875H118.847C118.847 118.875 116.465 112.276 116.579 112.049C116.693 111.821 111.285 109.319 111.285 109.319Z" fill="#F2BE9B"/>
<path d="M98.2252 141.562C97.1224 142.147 96.739 143.539 97.3655 144.619C101.111 151.074 116.006 176.73 117.349 178.817C118.886 181.206 122.643 186.837 135.11 189.737C147.578 192.637 152.7 201 152.7 201H191.124C191.124 201 182.073 186.666 174.558 149.465C174.558 149.465 168.752 118.578 157.823 119.602C157.823 119.602 151.164 112.605 144.674 113.971C144.674 113.971 132.378 106.634 125.376 106.634L108.557 86.7732C106.893 84.8072 103.958 84.4225 101.912 85.9874C101.253 86.4912 100.752 87.1563 100.614 88.0349C100.101 91.2774 104.371 99.4674 111.202 109.366C118.032 119.263 134.939 150.662 127.596 164.484C127.596 164.484 120.082 158.853 113.592 149.809C108.157 142.234 101.764 139.686 98.2252 141.562Z" fill="#F8CCAF"/>
<path d="M125.438 106.642C127.669 108.551 129.761 110.621 131.737 112.796C134.406 115.696 137.773 119.998 139.75 123.319C142.245 127.427 143.891 131.028 144.669 135.55L144.618 135.56C143.723 131.312 141.382 126.736 139.342 123.575C137.817 121.103 134.991 117.176 131.431 113.06C129.643 111 127.374 108.564 125.403 106.678L125.438 106.642Z" fill="#E28B6D"/>
<path d="M144.563 113.917C146.379 114.847 147.997 116.141 149.429 117.605C150.878 119.062 152.08 120.715 153.116 122.52C154.128 124.31 154.904 126.232 155.425 128.213C155.865 130.068 156.151 131.328 156.198 134.265L156.148 134.269C155.98 132.257 155.611 130.262 155.04 128.327C154.464 126.454 153.653 124.44 152.671 122.771C151.687 121.009 150.491 119.369 149.132 117.877C147.847 116.47 146.165 114.953 144.538 113.961L144.563 113.917Z" fill="#E28B6D"/>
<path d="M157.681 119.46C159.286 120.673 160.913 122.821 161.701 124.274C162.693 125.979 163.478 127.956 163.996 130.125C164.377 131.51 164.473 132.857 164.532 134.265L164.481 134.272C164.244 132.906 164.096 131.887 163.608 130.234C162.863 127.727 162.277 126.437 161.277 124.504C160.68 123.312 159.128 120.952 157.658 119.497L157.681 119.46Z" fill="#E28B6D"/>
<path d="M105.981 149.506C106.322 147.778 104.307 145.039 102.478 142.972C101.336 141.681 99.5353 141.199 97.9495 141.74C97.0637 142.395 96.7945 143.636 97.3638 144.619C98.3704 146.353 100.183 149.475 102.32 153.153C103.921 152.338 105.665 151.105 105.981 149.506Z" fill="#E28B6D"/>
<path d="M107.595 94.5671C108.567 94.3731 112.973 92.9076 112.704 92.1055L108.356 86.9721C107.493 85.9532 106.288 85.3598 105.043 85.2425C105.037 85.2425 105.03 85.2408 105.022 85.2408C104.986 85.2376 104.908 85.231 104.795 85.2327C104.213 85.2327 102.777 85.399 102.46 86.977C102.149 88.5338 104.728 92.3207 105.867 93.8938C106.262 94.4351 106.937 94.6991 107.595 94.5671Z" fill="#E28B6D"/>
<path d="M30.4327 174.167C35.2487 177.123 50.7506 185.963 66.781 187.848C67.7207 187.959 68.3798 188.818 68.1025 189.561L65.3013 197.057C65.1153 197.552 64.5574 197.843 63.9325 197.766C59.2079 197.192 39.7172 194.261 26.0017 183.66C25.5351 183.3 25.3377 182.752 25.5123 182.284L28.3706 174.635C28.6381 173.915 29.648 173.686 30.4327 174.167Z" fill="#EAC544"/>
<path d="M29.0248 181.334L28.9726 181.314C28.692 181.21 28.5485 180.897 28.6529 180.615L29.5143 178.308C29.6187 178.028 29.9319 177.884 30.2141 177.989L30.268 178.008C30.5486 178.113 30.6922 178.426 30.5877 178.708L29.7263 181.014C29.6187 181.296 29.3071 181.44 29.0248 181.334Z" fill="#E09613"/>
<path d="M31.9091 183.111L31.8569 183.091C31.5763 182.987 31.4327 182.674 31.5371 182.392L32.3985 180.085C32.5029 179.805 32.8162 179.661 33.0984 179.766L33.1506 179.785C33.4312 179.889 33.5748 180.202 33.4704 180.484L32.609 182.791C32.5029 183.072 32.1897 183.215 31.9091 183.111Z" fill="#E09613"/>
<path d="M34.7968 184.873L34.7446 184.853C34.464 184.749 34.3204 184.436 34.4248 184.154L35.2862 181.847C35.3906 181.567 35.7039 181.423 35.9861 181.528L36.0383 181.547C36.3189 181.652 36.4625 181.965 36.3581 182.247L35.4967 184.553C35.3906 184.835 35.0774 184.979 34.7968 184.873Z" fill="#E09613"/>
<path d="M37.7692 186.307L37.717 186.288C37.4364 186.184 37.2928 185.871 37.3972 185.589L38.2603 183.282C38.3647 183.001 38.6779 182.858 38.9602 182.962L39.0124 182.982C39.293 183.086 39.4365 183.399 39.3321 183.681L38.4707 185.988C38.3631 186.27 38.0498 186.413 37.7692 186.307Z" fill="#E09613"/>
<path d="M40.6927 187.975L40.6389 187.955C40.3583 187.851 40.2147 187.538 40.3191 187.256L41.1805 184.949C41.2849 184.669 41.5982 184.525 41.8804 184.63L41.9342 184.649C42.2148 184.754 42.3584 185.067 42.254 185.349L41.3926 187.655C41.2866 187.937 40.9733 188.079 40.6927 187.975Z" fill="#E09613"/>
<path d="M43.7452 189.297L43.693 189.278C43.4124 189.173 43.2688 188.86 43.3732 188.578L44.2346 186.272C44.339 185.991 44.6522 185.848 44.9345 185.952L44.9867 185.972C45.2673 186.076 45.4109 186.389 45.3064 186.671L44.4451 188.978C44.339 189.26 44.0274 189.401 43.7452 189.297Z" fill="#E09613"/>
<path d="M46.858 190.458L46.8042 190.438C46.5236 190.334 46.38 190.021 46.4844 189.739L47.3458 187.432C47.4502 187.152 47.7634 187.008 48.0457 187.113L48.0995 187.132C48.3801 187.237 48.5237 187.55 48.4193 187.832L47.5579 190.138C47.4535 190.42 47.1402 190.564 46.858 190.458Z" fill="#E09613"/>
<path d="M50.0311 191.459L49.9773 191.439C49.6967 191.335 49.5531 191.022 49.6575 190.74L50.5189 188.433C50.6233 188.153 50.9365 188.009 51.2188 188.114L51.2726 188.133C51.5532 188.238 51.6968 188.551 51.5924 188.833L50.731 191.139C50.6249 191.421 50.3133 191.563 50.0311 191.459Z" fill="#E09613"/>
<path d="M53.3331 192.114L53.2793 192.095C52.9987 191.99 52.8551 191.677 52.9595 191.395L53.8209 189.088C53.9253 188.808 54.2385 188.665 54.5208 188.769L54.573 188.788C54.8536 188.893 54.9972 189.206 54.8928 189.488L54.0314 191.795C53.9269 192.077 53.6153 192.22 53.3331 192.114Z" fill="#E09613"/>
<path d="M56.5487 193.002L56.4948 192.983C56.2142 192.878 56.0707 192.565 56.1751 192.283L57.0365 189.977C57.1409 189.696 57.4541 189.553 57.7364 189.657L57.7902 189.677C58.0708 189.781 58.2144 190.094 58.11 190.376L57.2486 192.683C57.1425 192.965 56.8293 193.107 56.5487 193.002Z" fill="#E09613"/>
<path d="M59.8866 193.562L59.8327 193.542C59.5521 193.438 59.4086 193.125 59.513 192.843L60.3744 190.536C60.4788 190.256 60.792 190.112 61.0742 190.217L61.1281 190.236C61.4087 190.341 61.5523 190.654 61.4478 190.936L60.5865 193.244C60.4804 193.524 60.1672 193.666 59.8866 193.562Z" fill="#E09613"/>
<path d="M63.2293 194.108L63.1755 194.088C62.8949 193.984 62.7513 193.671 62.8557 193.389L63.7171 191.082C63.8216 190.802 64.1348 190.658 64.417 190.763L64.4709 190.782C64.7515 190.886 64.895 191.199 64.7906 191.481L63.9292 193.788C63.8232 194.07 63.5099 194.214 63.2293 194.108Z" fill="#E09613"/>
<path d="M39.9473 191.522L39.9603 191.486C39.9097 191.48 39.8592 191.468 39.8086 191.449L36.0155 190.034C35.6419 189.893 35.4592 189.452 35.6109 189.047L39.032 179.892C39.1837 179.488 39.6112 179.273 39.9848 179.413L43.7779 180.828C43.9997 180.911 44.1531 181.1 44.2102 181.325C44.5071 181.456 44.8073 181.584 45.1107 181.715C45.2119 180.945 44.8171 180.197 44.1107 179.935L40.3176 178.52C39.4856 178.21 38.5377 178.688 38.2016 179.586L34.7805 188.741C34.4461 189.639 34.849 190.621 35.6794 190.932L39.4725 192.347C40.0419 192.559 40.6651 192.402 41.1105 191.995C40.7254 191.838 40.3355 191.682 39.9473 191.522Z" fill="#E4F1F7"/>
<path d="M39.1152 184.257L37.4642 183.64C37.1689 183.53 36.8312 183.699 36.7121 184.019C36.593 184.338 36.7365 184.687 37.0318 184.796L38.6828 185.412L39.1152 184.257Z" fill="white"/>
<path opacity="0.2" d="M152.699 201H191.122C191.122 201 185.189 191.602 178.94 168.276C176.2 185.451 161.073 184.46 155.071 185.414C148.16 186.511 121.33 180.921 117.571 179.161C119.243 181.71 123.206 186.968 135.109 189.739C147.576 192.639 152.699 201 152.699 201Z" fill="#FFC0BB"/>
<path opacity="0.2" d="M113.231 112.478C120.765 124.574 134.282 152.359 127.594 164.483L132.033 168.86C132.033 168.86 143.248 156.446 125.402 129.068C121.25 122.698 117.122 117.186 113.231 112.478Z" fill="#FFC0BB"/>
<path d="M68.3924 111.345C69.1186 106.873 66.0799 102.661 61.6054 101.935C57.1309 101.209 52.9148 104.246 52.1887 108.717C51.4625 113.188 54.5011 117.401 58.9756 118.126C63.4502 118.852 67.6662 115.816 68.3924 111.345Z" fill="white"/>
<path d="M56.0152 110.246C56.0152 110.246 55.2011 106.909 57.1409 105.659C59.0791 104.408 61.1493 104.123 62.5638 104.844C64.5248 105.841 65.3307 108.539 64.7026 110.031L59.4983 108.725L56.0152 110.246Z" fill="#2F1048"/>
<path d="M61.5849 114.162H59.1753V116.567H61.5849V114.162Z" fill="#FFC0BB"/>
<path d="M61.5865 115.605V114.164H59.1769V115.389C59.694 115.667 60.4624 115.826 61.5865 115.605Z" fill="#F99893"/>
<path d="M65.3861 109.86C65.1349 109.736 64.8429 109.759 64.5786 109.893C64.6699 107.521 62.7302 105.525 60.2879 105.61C57.8456 105.525 55.9059 107.521 55.9972 109.893C55.7329 109.759 55.4409 109.736 55.1897 109.86C54.7068 110.098 54.5567 110.778 54.8552 111.379C55.1522 111.981 55.7851 112.276 56.2681 112.038C56.3349 112.005 56.3953 111.963 56.4491 111.914C56.7249 113.875 58.3661 115.345 60.2895 115.318C62.213 115.345 63.8542 113.875 64.1299 111.914C64.1838 111.963 64.2441 112.005 64.311 112.038C64.7939 112.276 65.4253 111.981 65.7238 111.379C66.0175 110.776 65.8674 110.096 65.3861 109.86Z" fill="#FFC0BB"/>
<path d="M61.8638 112.662C61.7578 113.138 61.2129 113.511 60.5456 113.531C59.8784 113.551 59.3107 113.211 59.1769 112.744L61.8638 112.662Z" fill="white"/>
<path d="M55.9956 109.891C55.9956 109.891 59.1492 108.936 60.5293 107.343C60.5293 107.343 60.1394 109.263 59.8474 109.57C59.9388 109.632 62.9977 108.145 63.4121 106.774C63.8281 105.403 60.2863 104.911 60.2863 104.911C60.2863 104.911 59.0725 105.426 59.0105 105.457C58.9485 105.488 57.8114 105.62 57.6809 105.91C57.5112 106.288 56.7069 106.321 56.7069 106.321L56.1995 107.375L55.8439 108.486L55.9956 109.891Z" fill="#2F1048"/>
<path d="M53.4131 105.55C54.1097 105.83 54.914 105.959 55.7477 105.703C57.5879 105.137 58.3172 105.357 58.5619 105.496C58.7087 105.579 58.8849 105.612 59.0448 105.558C59.2259 105.498 59.3955 105.333 59.3417 104.919C59.3417 104.919 59.4151 103.171 57.9158 102.175C56.0462 102.741 54.4588 103.952 53.4131 105.55Z" fill="#2F1048"/>
<path d="M57.3726 105.435C57.3171 105.364 57.3351 105.259 57.4101 105.211C57.7168 105.008 58.5081 104.554 59.4576 104.505C59.5473 104.5 59.6207 104.571 59.6207 104.661C59.6207 104.744 59.5554 104.813 59.4722 104.816C58.6043 104.862 57.8604 105.289 57.5798 105.471C57.5129 105.517 57.4215 105.501 57.3726 105.435Z" fill="#FEB546"/>
<path d="M80.4117 104.39H70.7732C70.3996 104.39 70.0945 104.087 70.0945 103.714V103.644C70.0945 103.271 70.3979 102.967 70.7732 102.967H80.4117C80.7853 102.967 81.0887 103.271 81.0887 103.644V103.714C81.0887 104.087 80.7853 104.39 80.4117 104.39Z" fill="white"/>
<path d="M76.8437 108.15H70.7732C70.3996 108.15 70.0945 107.847 70.0945 107.473V107.403C70.0945 107.03 70.3979 106.727 70.7732 106.727H76.8437C77.2173 106.727 77.5208 107.03 77.5208 107.403V107.473C77.5208 107.847 77.2173 108.15 76.8437 108.15Z" fill="white"/>
<path d="M87.2636 108.15H79.4801C79.1048 108.15 78.8014 107.847 78.8014 107.473V107.403C78.8014 107.03 79.1048 106.727 79.4801 106.727H87.2636C87.6389 106.727 87.9407 107.03 87.9407 107.403V107.473C87.9407 107.847 87.6372 108.15 87.2636 108.15Z" fill="white"/>
<path d="M100.863 108.15H89.8984C89.5248 108.15 89.2197 107.847 89.2197 107.473V107.403C89.2197 107.03 89.5232 106.727 89.8984 106.727H100.863C101.237 106.727 101.54 107.03 101.54 107.403V107.473C101.542 107.847 101.238 108.15 100.863 108.15Z" fill="white"/>
<path d="M100.863 104.39H83.5896C83.216 104.39 82.9126 104.087 82.9126 103.714V103.644C82.9126 103.271 83.216 102.967 83.5896 102.967H100.865C101.238 102.967 101.542 103.271 101.542 103.644V103.714C101.542 104.087 101.238 104.39 100.863 104.39Z" fill="white"/>
<path d="M100.863 115.521H70.7732C70.3996 115.521 70.0945 115.218 70.0945 114.845V114.775C70.0945 114.402 70.3979 114.097 70.7732 114.097H100.865C101.239 114.097 101.542 114.4 101.542 114.775V114.845C101.542 115.218 101.239 115.521 100.863 115.521Z" fill="white"/>
<path d="M85.6632 111.911H70.7732C70.3996 111.911 70.0945 111.607 70.0945 111.234V111.164C70.0945 110.791 70.3979 110.486 70.7732 110.486H85.6632C86.0368 110.486 86.3403 110.789 86.3403 111.164V111.234C86.3403 111.607 86.0368 111.911 85.6632 111.911Z" fill="white"/>
<path d="M100.863 111.911H89.3943C89.0207 111.911 88.7173 111.607 88.7173 111.234V111.164C88.7173 110.791 89.0207 110.486 89.3943 110.486H100.863C101.237 110.486 101.54 110.789 101.54 111.164V111.234C101.542 111.607 101.239 111.911 100.863 111.911Z" fill="white"/>
<path d="M9.22408 77.287C7.66117 69.3839 19.4597 66.7267 21.3587 74.5564C21.53 75.2639 21.6409 76.0546 21.6752 76.9365C22.0422 86.3459 16.3453 96.59 10.2812 94.8652C4.21721 93.1405 7.70848 86.7143 9.54547 82.8573C10.4036 81.0592 9.62704 79.3247 9.22408 77.287Z" fill="#E9E9E9"/>
<path d="M180.851 60.0478C177.394 58.8414 173.609 60.6819 172.309 64.1004C171.297 66.7592 170.139 70.4679 170.034 73.7299C169.845 79.6149 172.186 92.2439 181.143 95.3624C190.098 98.481 195.442 90.2551 189.479 80.7364C186.931 76.6707 188.202 62.612 180.851 60.0478Z" fill="#E9E9E9"/>
<path d="M36.9861 70.6831C36.9861 70.6831 36.5897 74.5841 33.5095 74.8531C36.5897 75.1221 36.9861 79.0231 36.9861 79.0231C36.9861 79.0231 37.3825 75.1221 40.4627 74.8531C37.3809 74.5825 36.9861 70.6831 36.9861 70.6831Z" fill="white"/>
<path d="M43.4662 61.5576C43.4662 61.5576 43.2035 64.1382 41.1675 64.3159C43.2051 64.4936 43.4662 67.0742 43.4662 67.0742C43.4662 67.0742 43.7288 64.4936 45.7649 64.3159C43.7272 64.1382 43.4662 61.5576 43.4662 61.5576Z" fill="white"/>
<path d="M145.752 80.9697C145.752 80.9697 145.635 82.1239 144.723 82.2038C145.635 82.2837 145.752 83.4378 145.752 83.4378C145.752 83.4378 145.87 82.2837 146.782 82.2038C145.87 82.1239 145.752 80.9697 145.752 80.9697Z" fill="white"/>
<path d="M39.7205 85.9126C39.7205 85.9126 39.603 87.0668 38.691 87.1466C39.603 87.2265 39.7205 88.3807 39.7205 88.3807C39.7205 88.3807 39.8379 87.2265 40.7499 87.1466C39.8379 87.0668 39.7205 85.9126 39.7205 85.9126Z" fill="white"/>
<path d="M101.2 50.3158C99.6271 48.7325 97.623 47.6543 95.4413 47.2175C93.2596 46.7807 90.9982 47.0049 88.943 47.8617C86.8879 48.7186 85.1313 50.1696 83.8955 52.0313C82.6596 53.893 82 56.0817 82 58.3208C82 60.5598 82.6596 62.7485 83.8955 64.6102C84.1482 64.9909 84.4226 65.3543 84.7169 65.6991L82.3749 71L88.5333 68.5849C88.6748 68.6595 88.812 68.7251 88.943 68.7798C90.9982 69.6366 93.2596 69.8608 95.4413 69.424C97.623 68.9872 99.6271 67.909 101.2 66.3257L98.8141 63.9242C97.7131 65.0325 96.3102 65.7873 94.783 66.093C93.2558 66.3988 91.6728 66.2419 90.2342 65.6421C88.7956 65.0423 87.5661 64.0266 86.701 62.7234C85.8359 61.4202 85.3741 59.8881 85.3741 58.3208C85.3741 56.7534 85.8359 55.2213 86.701 53.9181C87.5661 52.6149 88.7956 51.5992 90.2342 50.9995C91.6728 50.3997 93.2558 50.2427 94.783 50.5485C96.3102 50.8543 97.7131 51.609 98.8141 52.7173L101.2 50.3158Z" fill="white"/>
<path d="M97.6154 53.3689C96.6814 52.5527 95.529 52.0278 94.3002 51.859C93.0714 51.6901 91.8201 51.8846 90.7006 52.4185C89.581 52.9524 88.6423 53.8024 88.0001 54.8635C87.3579 55.9246 87.0404 57.1505 87.0867 58.39C87.133 59.6295 87.5412 60.8282 88.2607 61.8385C88.9803 62.8487 89.9799 63.6262 91.1362 64.0751C92.2924 64.524 93.5548 64.6245 94.7675 64.3644C95.9803 64.1043 97.0904 63.4949 97.9608 62.6113L95.7885 60.4712C95.3359 60.9306 94.7587 61.2476 94.128 61.3828C93.4974 61.5181 92.841 61.4658 92.2397 61.2324C91.6385 60.999 91.1187 60.5947 90.7445 60.0693C90.3703 59.544 90.1581 58.9206 90.134 58.2761C90.1099 57.6316 90.275 56.9941 90.6089 56.4423C90.9429 55.8905 91.431 55.4486 92.0132 55.1709C92.5954 54.8933 93.246 54.7922 93.885 54.88C94.524 54.9678 95.1233 55.2407 95.6089 55.6651L97.6154 53.3689Z" fill="#EAC544"/>
<path d="M78.09 83V81.94H79.68V77.41L78.45 78.15L77.95 77.21L80.05 75.95H80.96V81.94H82.45V83H78.09ZM86.0561 83.1C85.5961 83.1 85.1494 83.03 84.7161 82.89C84.2828 82.7433 83.9294 82.5467 83.6561 82.3L84.0761 81.32C84.6828 81.7867 85.3361 82.02 86.0361 82.02C86.4561 82.02 86.7828 81.9133 87.0161 81.7C87.2561 81.48 87.3761 81.1867 87.3761 80.82C87.3761 80.4467 87.2628 80.1467 87.0361 79.92C86.8094 79.6867 86.4994 79.57 86.1061 79.57C85.5461 79.57 85.0828 79.7933 84.7161 80.24H83.8561V75.95H88.1861V77.01H85.1061V78.92C85.4594 78.6533 85.8928 78.52 86.4061 78.52C86.8528 78.52 87.2394 78.6167 87.5661 78.81C87.8994 78.9967 88.1561 79.26 88.3361 79.6C88.5228 79.9333 88.6161 80.3233 88.6161 80.77C88.6161 81.23 88.5128 81.6367 88.3061 81.99C88.0994 82.3367 87.8028 82.61 87.4161 82.81C87.0361 83.0033 86.5828 83.1 86.0561 83.1ZM89.6722 80.82V79.82H92.6522V80.82H89.6722ZM94.1281 83V82.05L96.4081 79.62C96.7148 79.2867 96.9348 78.9933 97.0681 78.74C97.2015 78.48 97.2681 78.2167 97.2681 77.95C97.2681 77.27 96.8581 76.93 96.0381 76.93C95.3981 76.93 94.8081 77.17 94.2681 77.65L93.8381 76.69C94.1181 76.4367 94.4681 76.2333 94.8881 76.08C95.3081 75.9267 95.7448 75.85 96.1981 75.85C96.9515 75.85 97.5281 76.02 97.9281 76.36C98.3348 76.7 98.5381 77.1867 98.5381 77.82C98.5381 78.2467 98.4348 78.6567 98.2281 79.05C98.0281 79.4433 97.7115 79.8667 97.2781 80.32L95.7281 81.94H98.8081V83H94.1281ZM102.324 83.1C101.491 83.1 100.854 82.7867 100.414 82.16C99.9742 81.5267 99.7542 80.6267 99.7542 79.46C99.7542 78.28 99.9742 77.3833 100.414 76.77C100.854 76.1567 101.491 75.85 102.324 75.85C103.164 75.85 103.801 76.1567 104.234 76.77C104.674 77.3833 104.894 78.2767 104.894 79.45C104.894 80.6233 104.674 81.5267 104.234 82.16C103.794 82.7867 103.158 83.1 102.324 83.1ZM102.324 82.05C102.778 82.05 103.111 81.8433 103.324 81.43C103.544 81.01 103.654 80.35 103.654 79.45C103.654 78.5567 103.544 77.91 103.324 77.51C103.111 77.1033 102.778 76.9 102.324 76.9C101.878 76.9 101.544 77.1033 101.324 77.51C101.104 77.91 100.994 78.5567 100.994 79.45C100.994 80.35 101.104 81.01 101.324 81.43C101.544 81.8433 101.878 82.05 102.324 82.05Z" fill="white"/>
</g>
<defs>
<clipPath id="clip0_22_692">
<rect width="192" height="201" fill="white"/>
</clipPath>
</defs>
</svg>
