<svg width="245" height="219" viewBox="0 0 245 219" fill="none" xmlns="http://www.w3.org/2000/svg">
<g clip-path="url(#clip0_22_604)">
<path d="M240.75 157.646C236.68 148.379 228.864 140.645 219.475 136.839C209.696 132.875 198.467 134.317 188.167 132.99C179.22 131.837 172.766 127.839 167.424 120.731C162.306 113.92 157.716 106.377 149.349 103.226C142.736 100.736 135.219 101.427 128.646 104.02C116.537 108.801 107.39 118.964 99.6869 129.09C92.6538 138.336 86.9176 148.458 73.9086 148.788C60.8911 149.117 48.4985 141.684 35.3932 143.654C18.0714 146.257 3.64399 160.694 0.621385 177.879C-2.2121 193.986 4.89694 209.61 17.1106 218.787H227.042C242.432 202.444 250.507 179.866 240.75 157.646Z" fill="#E9E9E9"/>
<path d="M50.9739 218.789H51.5514C55.5619 214.375 58.7044 209.021 60.7003 203.078C63.9323 193.457 63.7972 183.36 60.317 174.647C58.5575 170.243 56.0195 166.141 53.5626 162.171C51.0719 158.146 48.4968 153.984 46.749 149.525C46.0263 147.68 45.4927 145.701 45.1719 143.681C45.0267 143.662 44.8814 143.647 44.7379 143.628C45.0604 145.721 45.6092 147.772 46.3573 149.679C48.1185 154.174 50.7055 158.352 53.2063 162.393C55.6531 166.345 58.1826 170.434 59.9269 174.803C63.37 183.422 63.5034 193.415 60.3018 202.942C58.2789 208.959 55.0722 214.365 50.9739 218.789Z" fill="white"/>
<path d="M226.027 200.459C230.353 201.382 234.52 202.209 238.551 202.729C238.62 202.596 238.688 202.462 238.755 202.329C234.691 201.811 230.483 200.978 226.115 200.045C219.461 198.626 212.261 197.09 205.118 197.09C200.696 197.09 196.297 197.678 192.065 199.249C190.463 199.844 188.916 200.598 187.445 201.497C183.624 199.867 179.783 198.087 175.978 196.133C178.739 194.05 181.53 192.012 184.35 190.04C205.286 175.406 224.607 167.109 243.272 164.754C243.235 164.617 243.196 164.48 243.158 164.343C224.441 166.717 205.08 175.036 184.11 189.694C181.23 191.707 178.381 193.792 175.563 195.918C171.284 193.705 167.056 191.273 162.962 188.588C155.539 183.72 146.711 176.77 139.001 167.535C168.881 164.18 199.301 159.952 224.144 143.329C225.088 142.699 226.133 141.953 227.216 141.11C227.096 141.025 226.974 140.94 226.854 140.856C225.817 141.661 224.816 142.371 223.911 142.978C199.075 159.595 168.597 163.791 138.68 167.146C133.231 160.548 128.363 152.799 124.98 143.828C119.71 129.853 119.989 116.139 125.744 106.201C125.994 105.77 126.257 105.344 126.529 104.925C126.289 105.035 126.051 105.15 125.813 105.265C125.664 105.505 125.519 105.746 125.379 105.99C119.56 116.038 119.271 129.883 124.585 143.977C127.951 152.899 132.775 160.618 138.179 167.202C136.446 167.396 134.714 167.588 132.988 167.779C126.759 168.467 120.315 169.178 114.06 169.985C111.777 170.279 109.455 170.622 107.144 171.053C102.191 160.587 96.7504 150.378 89.7173 141.622C89.616 141.721 89.5147 141.82 89.4134 141.919C96.3856 150.608 101.793 160.743 106.717 171.134C96.6389 173.058 86.8534 176.676 81.6289 185.094C76.7488 192.957 76.7539 203.825 81.6424 217.396C81.8113 217.866 81.9852 218.327 82.1625 218.787H82.615C82.4208 218.285 82.2283 217.776 82.0409 217.252C77.198 203.808 77.1811 193.063 81.9886 185.316C87.1523 176.997 96.8838 173.428 106.906 171.526C108.655 175.228 110.344 178.963 112.022 182.673L112.204 183.077C118.035 195.962 124.065 208.396 131.959 218.787H132.486C124.52 208.377 118.456 195.869 112.588 182.903L112.405 182.499C110.74 178.821 109.065 175.119 107.333 171.447C109.599 171.028 111.877 170.691 114.116 170.404C120.367 169.598 126.808 168.886 133.037 168.198C134.855 167.997 136.679 167.795 138.503 167.591C146.287 176.97 155.229 184.016 162.736 188.94C166.784 191.596 170.965 194.005 175.195 196.199C168.013 201.637 161.029 207.358 154.209 212.943C151.846 214.877 149.459 216.831 147.051 218.785H147.719C149.99 216.941 152.245 215.097 154.475 213.271C161.343 207.647 168.378 201.884 175.61 196.415C179.394 198.364 183.214 200.141 187.015 201.769C181.816 205.079 177.577 210.206 175.016 216.431C174.695 217.21 174.414 217.998 174.156 218.787H174.6C174.845 218.052 175.107 217.318 175.406 216.591C177.974 210.35 182.248 205.228 187.488 201.97C198.112 206.489 208.553 209.843 217.526 212.5L217.864 212.6C221.645 213.719 225.512 214.867 228.933 216.708C229.029 216.598 229.125 216.49 229.22 216.38C225.743 214.492 221.82 213.329 217.984 212.194L217.646 212.094C208.766 209.464 198.443 206.151 187.933 201.7C189.303 200.883 190.737 200.195 192.219 199.644C203.165 195.584 215.311 198.173 226.027 200.459Z" fill="white"/>
<path d="M18.1677 173.085C20.0319 180.726 19.2011 188.977 15.8847 195.724C13.7132 200.143 10.5774 204.144 6.71558 207.579C6.79325 207.699 6.87093 207.818 6.9486 207.936C10.8729 204.455 14.0593 200.397 16.263 195.91C19.6216 189.075 20.4642 180.719 18.5764 172.984C17.1022 166.94 14.137 161.822 10.0388 158.118C9.94757 158.226 9.85639 158.334 9.76689 158.442C13.7976 162.089 16.7155 167.13 18.1677 173.085Z" fill="white"/>
<path d="M113.712 76.295C117.39 80.0563 119.038 86.3956 117.01 92.2379C115.046 97.8959 110.742 102.582 105.572 105.596C101.411 108.02 95.9837 109.357 91.8922 106.818C88.8342 104.922 87.2486 101.199 87.1607 97.6001C87.0729 93.9994 88.282 90.4916 89.7764 87.2155C91.8838 82.5988 94.719 78.1207 98.9439 75.3128C104.768 71.4416 110.178 72.6773 113.712 76.295Z" fill="#E9E9E9"/>
<path d="M220.255 90.8029C219.224 87.3702 217.41 84.2186 214.814 81.3375C212.212 78.4565 208.664 76.0776 204.169 74.1963C199.675 72.3151 193.964 71.3745 187.037 71.3745C181.511 71.3745 175.88 72.1206 170.143 73.6129C164.4 75.1104 159.419 77.2401 155.194 80.008L160.694 95.1231L157.746 97.5135L162.021 98.7715C166.241 96.5606 170.085 94.9552 173.554 93.9553C177.017 92.9608 180.698 92.4631 184.6 92.4631C188.497 92.4631 191.448 93.4037 193.452 95.2849C195.455 97.1714 196.455 99.4363 196.455 102.096C196.455 105.307 195.424 108.156 193.372 110.648C191.31 113.141 189.037 115.659 186.545 118.205C184.816 119.973 183.135 121.8 181.511 123.681C179.888 125.567 178.45 127.584 177.207 129.746C175.959 131.903 174.96 134.227 174.204 136.719C173.443 139.212 173.067 142.006 173.067 145.104C173.067 146.103 173.089 147.292 173.147 148.677C173.157 148.932 173.17 149.181 173.185 149.427H169.144L173.554 152.412H194.996C194.885 151.747 194.832 150.974 194.832 150.088C194.832 149.201 194.832 148.536 194.832 148.093C194.832 146.212 195.213 144.358 195.968 142.531C196.724 140.704 197.676 138.963 198.814 137.298C199.95 135.639 201.22 134.06 202.631 132.569C204.038 131.071 205.392 129.66 206.692 128.331C208.421 126.563 210.209 124.682 212.049 122.687C213.889 120.693 215.517 118.595 216.924 116.379C218.331 114.163 219.494 111.757 220.414 109.152C221.334 106.552 221.8 103.703 221.8 100.6C221.8 97.5003 221.281 94.2356 220.255 90.8029Z" fill="#C0A64B"/>
<path d="M180.06 91.4079C176.204 91.4079 172.567 91.8888 169.144 92.8515C165.716 93.8195 161.917 95.3727 157.747 97.513L151 79.3541C155.175 76.6755 160.098 74.6139 165.773 73.165C171.443 71.7223 177.009 71 182.469 71C189.315 71 194.959 71.9106 199.401 73.7308C203.843 75.551 207.349 77.853 209.921 80.6412C212.487 83.4295 214.279 86.4794 215.298 89.8016C216.311 93.1238 216.824 96.2833 216.824 99.281C216.824 102.284 216.363 105.041 215.455 107.557C214.545 110.079 213.396 112.407 212.006 114.552C210.616 116.696 209.006 118.726 207.188 120.657C205.369 122.588 203.603 124.408 201.894 126.118C200.608 127.406 199.27 128.771 197.88 130.22C196.485 131.664 195.231 133.192 194.107 134.798C192.984 136.409 192.042 138.094 191.295 139.862C190.548 141.63 190.172 143.424 190.172 145.244C190.172 145.673 190.172 146.317 190.172 147.175C190.172 148.034 190.224 148.781 190.334 149.425H169.143C168.923 148.353 168.793 147.15 168.741 145.81C168.683 144.471 168.662 143.32 168.662 142.352C168.662 139.354 169.033 136.65 169.785 134.237C170.532 131.826 171.52 129.576 172.753 127.489C173.981 125.396 175.402 123.445 177.007 121.619C178.611 119.799 180.273 118.03 181.982 116.319C184.443 113.855 186.69 111.417 188.728 109.005C190.756 106.594 191.775 103.836 191.775 100.729C191.775 98.1548 190.788 95.9633 188.807 94.1378C186.827 92.3184 183.911 91.4079 180.06 91.4079Z" fill="#EAC544"/>
<path d="M196.463 173.248C196.463 177.118 195.212 180.104 192.708 182.211C190.206 184.322 187.377 185.373 184.218 185.373C181.055 185.373 178.226 184.322 175.724 182.211C173.225 180.104 171.974 177.118 171.974 173.248C171.974 169.382 173.225 166.395 175.724 164.284C179.577 161.029 185.277 160.304 189.787 162.589C193.79 164.616 196.463 168.732 196.463 173.248Z" fill="#C0A64B"/>
<path d="M192.269 173.248C192.269 177.118 191.017 180.104 188.514 182.211C186.011 184.322 183.182 185.373 180.023 185.373C176.86 185.373 174.032 184.322 171.529 182.211C169.03 180.104 167.779 177.118 167.779 173.248C167.779 169.382 169.03 166.396 171.529 164.285C174.032 162.178 176.861 161.123 180.023 161.123C183.182 161.123 186.01 162.178 188.514 164.285C191.016 166.396 192.269 169.382 192.269 173.248Z" fill="#EAC544"/>
<path d="M86.2417 68.9631C86.7595 66.197 84.9394 63.5345 82.1765 63.0162C79.4135 62.4978 76.7539 64.3199 76.2361 67.0859C75.7183 69.8519 77.5384 72.5145 80.3014 73.0328C83.0643 73.5512 85.7239 71.7291 86.2417 68.9631Z" fill="#DEC2FD"/>
<path d="M88.673 78.5383C88.9643 76.9823 87.9319 75.483 86.3671 75.1894C84.8023 74.8959 83.2977 75.9192 83.0064 77.4752C82.7151 79.0311 83.7475 80.5305 85.3123 80.824C86.8771 81.1176 88.3818 80.0943 88.673 78.5383Z" fill="#DEC2FD"/>
<path d="M82.8478 56.5581C90.6738 48.7234 90.6738 36.0208 82.8478 28.186C75.0217 20.3513 62.3332 20.3513 54.5071 28.186C46.6811 36.0208 46.6811 48.7234 54.5071 56.5581C62.3332 64.3929 75.0217 64.3929 82.8478 56.5581Z" fill="#DEC2FD"/>
<path d="M60.9827 44.9002C62.377 44.9002 63.5072 43.7688 63.5072 42.373C63.5072 40.9772 62.377 39.8457 60.9827 39.8457C59.5885 39.8457 58.4583 40.9772 58.4583 42.373C58.4583 43.7688 59.5885 44.9002 60.9827 44.9002Z" fill="white"/>
<path d="M68.6786 44.9002C70.0729 44.9002 71.2031 43.7688 71.2031 42.373C71.2031 40.9772 70.0729 39.8457 68.6786 39.8457C67.2844 39.8457 66.1542 40.9772 66.1542 42.373C66.1542 43.7688 67.2844 44.9002 68.6786 44.9002Z" fill="white"/>
<path d="M76.3729 44.9002C77.7671 44.9002 78.8973 43.7688 78.8973 42.373C78.8973 40.9772 77.7671 39.8457 76.3729 39.8457C74.9786 39.8457 73.8484 40.9772 73.8484 42.373C73.8484 43.7688 74.9786 44.9002 76.3729 44.9002Z" fill="white"/>
<path d="M54.3221 206.58L56.1945 213.808C56.683 215.692 58.5029 216.966 60.5174 216.828C66.6564 216.411 79.413 214.905 86.7354 209.501L84.6547 199.086C74.5879 198.517 65.1752 199.078 57.0237 201.824C54.9799 202.514 53.7985 204.562 54.3221 206.58Z" fill="#2F1048"/>
<path d="M66.0549 212.333C65.9479 212.333 65.8505 212.263 65.8213 212.156L63.3066 203.144C63.2696 203.015 63.3455 202.881 63.4759 202.844C63.6063 202.809 63.7406 202.883 63.7757 203.013L66.2904 212.025C66.3274 212.156 66.2515 212.288 66.1211 212.325C66.0977 212.331 66.0763 212.333 66.0549 212.333Z" fill="white"/>
<path d="M71.4892 211.115C71.3822 211.115 71.2849 211.045 71.2557 210.938L68.7409 201.926C68.7039 201.797 68.7799 201.663 68.9103 201.626C69.0407 201.589 69.175 201.665 69.21 201.795L71.7247 210.807C71.7617 210.938 71.6858 211.07 71.5554 211.107C71.5321 211.113 71.5106 211.115 71.4892 211.115Z" fill="white"/>
<path d="M77.7997 167.516L54.4041 174.468L71.7776 198.301L96.7225 200.288L131.129 185.723L118.055 166.027L77.7997 167.516Z" fill="#EAC544"/>
<path d="M106.643 170.826C158.024 155.6 166.28 201.06 86.1144 209.336C83.2824 206.146 79.9735 200.612 78.6597 195.984L120.994 176.399L106.643 170.826Z" fill="#EAC544"/>
<path d="M108.825 203.409C106.421 202.639 104.119 201.117 104.119 201.117L95.8621 203.711L97.754 212.703L106.332 214.447C108.946 209.662 109.099 205.733 108.825 203.409Z" fill="#F9B384"/>
<path d="M78.8427 196.3L78.4768 195.668C87.3095 190.53 109.931 178.186 129.206 174.544L129.342 175.263C110.176 178.881 87.6424 191.181 78.8427 196.3Z" fill="#C0A64B"/>
<path d="M77.7996 167.516C29.9747 158.412 17.5879 204.425 97.756 212.701C100.588 209.511 102.807 205.742 104.121 201.114C91.8058 192.866 78.0371 185.025 62.9486 177.556L77.7996 167.516Z" fill="#EAC544"/>
<path d="M103.924 201.422C101.649 199.973 99.2782 198.441 96.7693 196.818C84.1703 188.675 69.8915 179.445 57.7596 174.182L58.0497 173.511C70.236 178.798 84.542 188.045 97.1644 196.204C99.6733 197.825 102.042 199.357 104.315 200.807L103.924 201.422Z" fill="#C0A64B"/>
<path d="M42.7098 190.329L42.0714 189.976C43.866 186.722 46.7428 184.528 50.618 183.455L50.8127 184.158C47.0814 185.193 44.4304 187.211 42.7098 190.329Z" fill="#C0A64B"/>
<path d="M142.529 187.561C140.808 184.443 138.157 182.424 134.426 181.389L134.621 180.686C138.496 181.76 141.373 183.956 143.167 187.208L142.529 187.561Z" fill="#C0A64B"/>
<path d="M93.2771 212.297L92.7438 211.799C96.5704 207.697 98.9197 203.367 99.9279 198.56L100.642 198.71C99.6048 203.65 97.1952 208.094 93.2771 212.297Z" fill="#C0A64B"/>
<path d="M132.678 200.729C126.551 196.939 114.672 203.488 111.69 203.819C110.82 203.917 109.816 203.726 108.827 203.408C109.1 205.733 108.948 209.661 106.334 214.447L107.792 214.743C107.792 214.743 117.864 218.439 128.55 216.288C138.412 214.301 137.494 203.708 132.678 200.729Z" fill="#2F1048"/>
<path d="M124.326 213.125C124.303 213.125 124.278 213.121 124.252 213.113C124.124 213.073 124.054 212.936 124.093 212.808C124.821 210.5 125.138 205.96 123.03 202.911C122.954 202.8 122.981 202.648 123.092 202.572C123.203 202.496 123.355 202.523 123.431 202.634C125.638 205.828 125.315 210.555 124.558 212.954C124.525 213.059 124.43 213.125 124.326 213.125Z" fill="white"/>
<path d="M119.521 214.038C119.497 214.038 119.472 214.034 119.447 214.026C119.318 213.985 119.248 213.849 119.287 213.72C120.015 211.413 120.332 206.873 118.224 203.823C118.149 203.712 118.176 203.56 118.287 203.484C118.398 203.408 118.549 203.436 118.625 203.547C120.833 206.74 120.51 211.468 119.752 213.866C119.719 213.971 119.624 214.038 119.521 214.038Z" fill="white"/>
<path d="M69.3386 108.19C69.3386 108.19 81.3829 97.9371 80.9372 95.9885C80.618 94.5953 77.206 96.6374 77.206 96.6374C77.206 96.6374 81.9902 90.9535 81.7469 90.2637C81.3128 89.0303 78.002 91.3296 78.002 91.3296C78.002 91.3296 80.2384 88.1067 79.1699 87.5806C78.1013 87.0544 75.7695 89.042 75.7695 89.042C75.7695 89.042 77.132 87.2532 76.4916 86.7836C75.8513 86.314 73.0913 88.245 73.0913 88.245C73.0913 88.245 74.082 85.9886 71.9779 86.844C69.8739 87.6994 55.1163 101.257 55.1163 101.257L69.3386 108.19Z" fill="#F9B384"/>
<path d="M74.267 96.0295C74.2086 96.0295 74.1502 96.0081 74.1035 95.9652C72.0364 94.0751 71.1236 93.6153 68.8444 92.9118C68.7159 92.8729 68.6439 92.7365 68.6828 92.6079C68.7217 92.4792 68.858 92.4071 68.9864 92.4461C71.3494 93.1729 72.2934 93.6484 74.4324 95.6047C74.5317 95.6963 74.5395 95.8502 74.448 95.9496C74.3974 96.0022 74.3332 96.0295 74.267 96.0295Z" fill="#E28B6D"/>
<path d="M70.637 101.591C70.6253 101.591 70.6136 101.591 70.6039 101.589C70.4715 101.569 70.3781 101.446 70.3976 101.314C70.635 99.6187 71.1684 98.5587 72.0267 98.0755C72.7625 97.6624 73.7181 97.7033 74.8704 98.2021C74.993 98.2547 75.0514 98.3989 74.9969 98.5217C74.9444 98.6444 74.8003 98.7029 74.6777 98.6483C73.6734 98.2138 72.8617 98.1632 72.2661 98.5003C71.5576 98.8997 71.0905 99.8681 70.8803 101.382C70.8608 101.503 70.7577 101.591 70.637 101.591Z" fill="#E28B6D"/>
<path d="M70.0687 91.3414C70.0045 91.3414 69.9402 91.3161 69.8916 91.2654C69.8001 91.168 69.804 91.0141 69.9013 90.9205L72.9241 88.0698C73.0214 87.9763 73.1752 87.9821 73.2686 88.0795C73.3601 88.177 73.3562 88.3309 73.2588 88.4244L70.2361 91.2751C70.1894 91.318 70.129 91.3414 70.0687 91.3414Z" fill="#E28B6D"/>
<path d="M72.8676 92.3155C72.8073 92.3155 72.7469 92.2922 72.6983 92.2473C72.601 92.1538 72.599 91.9999 72.6905 91.9025L75.5945 88.8744C75.6879 88.777 75.8417 88.7731 75.939 88.8666C76.0363 88.9601 76.0383 89.1141 75.9468 89.2115L73.0428 92.2395C72.9961 92.2902 72.9318 92.3155 72.8676 92.3155Z" fill="#E28B6D"/>
<path d="M75.7269 94.0209C75.6665 94.0209 75.6081 93.9994 75.5614 93.9546C75.4641 93.863 75.4582 93.7091 75.5497 93.6097L77.827 91.1643C77.9185 91.0669 78.0723 91.061 78.1715 91.1526C78.2688 91.2442 78.2747 91.3981 78.1832 91.4975L75.9059 93.9429C75.8573 93.9936 75.7911 94.0209 75.7269 94.0209Z" fill="#E28B6D"/>
<path d="M114.835 176.771L70.7981 178.476L65.9321 138.287C65.9321 138.287 80.6741 124.289 86.3459 119.133L95.9222 118.642C125.63 132.159 120.766 149.043 114.835 176.771Z" fill="#B88BFB"/>
<path d="M95.9222 118.642C95.9222 118.642 129.91 121.551 140.625 144.864C151.11 167.675 108.023 175.797 108.023 175.797L95.9222 118.642Z" fill="#B88BFB"/>
<path d="M57.0722 123.636L71.1173 106.526L57.9831 98.5586C52.504 102.372 41.9098 111.01 32.931 120.792C30.9496 122.951 29.4003 125.472 28.6217 128.249C27.9561 130.618 27.8354 132.958 28.2091 135.25C29.1842 141.224 33.877 145.832 40.1424 146.567C45.4931 147.194 65.9321 145.593 82.4765 140.721L87.3425 121.92C84.8433 120.501 66.2591 120.254 57.0722 123.636Z" fill="#B88BFB"/>
<g opacity="0.8">
<path d="M124.287 127.892C124.361 127.875 124.433 127.859 124.507 127.842C124.354 127.75 124.2 127.663 124.046 127.573C121.555 128.148 118.985 128.734 116.451 129.04C114.929 129.223 109.841 129.56 108.356 126.168C107.617 124.481 108.177 122.602 109.012 121.285C108.889 121.25 108.769 121.215 108.648 121.18C107.792 122.575 107.241 124.533 108.021 126.314C109.608 129.938 114.91 129.595 116.496 129.403C119.102 129.089 121.738 128.481 124.287 127.892Z" fill="white"/>
<path d="M140.149 154.186C138.525 153.559 136.847 152.908 135.084 153.076C131.991 153.368 129.344 156.431 129.183 159.901C129.074 162.269 129.977 164.749 131.697 166.93C131.8 166.865 131.904 166.799 132.007 166.733C130.323 164.613 129.439 162.206 129.547 159.917C129.698 156.62 132.198 153.713 135.117 153.438C136.793 153.282 138.36 153.884 140.016 154.525C140.608 154.753 141.209 154.985 141.82 155.18C141.852 155.063 141.883 154.944 141.912 154.825C141.316 154.634 140.729 154.408 140.149 154.186Z" fill="white"/>
<path d="M54.3611 142.565C52.2395 140.807 48.9423 140.338 45.3162 141.277C42.0851 142.113 39.3135 143.771 37.4099 145.963C37.5345 146.004 37.6571 146.049 37.7836 146.086C39.6366 144.005 42.3051 142.432 45.4076 141.63C48.917 140.72 52.0974 141.164 54.1275 142.845C55.0929 143.644 55.7761 144.683 56.2724 145.801C56.397 145.788 56.5235 145.772 56.65 145.759C56.1323 144.556 55.4082 143.432 54.3611 142.565Z" fill="white"/>
<path d="M35.1794 118.403C39.1559 117.413 43.0351 116.024 46.6145 113.96C47.9673 113.181 49.4932 112.187 50.5676 110.727C51.7102 109.174 52.0897 107.325 51.5837 105.782C51.3851 105.176 51.0328 104.644 50.5929 104.219C50.4995 104.295 50.4061 104.373 50.3127 104.449C50.7233 104.841 51.0523 105.334 51.2372 105.897C51.7063 107.329 51.3481 109.054 50.2757 110.511C49.2421 111.916 47.7531 112.884 46.4335 113.644C43.0584 115.591 39.407 116.937 35.6563 117.91C35.4967 118.073 35.3371 118.237 35.1794 118.403Z" fill="white"/>
</g>
<path d="M99.0329 109.706L99.0271 110.33L98.9278 120.02L98.9162 121.07C98.8967 122.713 98.2252 124.201 97.1391 125.283C96.0589 126.356 94.5718 127.031 92.9252 127.042C89.6066 127.06 86.8913 124.392 86.8602 121.064L86.7434 109.088L99.0329 109.706Z" fill="#F9B384"/>
<path d="M99.027 110.33L98.9277 120.02C93.5479 117.828 91.3329 111.998 91.3329 111.998L99.027 110.33Z" fill="#2F1048"/>
<path d="M101.156 93.4204C103.083 95.7372 108.714 108.861 103.007 113.338C96.5862 118.377 86.8133 110.096 86.8133 110.096L85.5015 94.8097L93.9839 92.5708L101.156 93.4204Z" fill="#F9B384"/>
<path d="M81.1805 92.5786C81.1805 92.5786 62.3648 102.403 77.7062 130.722C79.676 134.359 84.0417 135.946 87.7749 134.172C91.7806 132.269 93.2968 127.37 91.1208 123.502C88.6119 119.04 86.1886 113.292 87.2241 109.017L81.1805 92.5786Z" fill="#2F1048"/>
<path d="M86.5555 100.832C88.5431 98.8416 88.5431 95.6154 86.5555 93.6255C84.5678 91.6356 81.3451 91.6356 79.3574 93.6255C77.3698 95.6154 77.3698 98.8416 79.3574 100.832C81.3451 102.821 84.5678 102.821 86.5555 100.832Z" fill="#EAC544"/>
<path d="M89.2174 103.35C88.6666 100.172 88.3318 97.9916 91.5414 96.3529C91.5414 96.3529 102.852 98.4125 105.01 94.1393C107.169 89.8681 103.88 83.1261 96.9913 87.8085C79.357 84.3596 76.9921 100.881 82.3389 106.388L87.6155 105.577C88.6783 105.416 89.4023 104.41 89.2174 103.35Z" fill="#2F1048"/>
<path d="M97.9759 104.112C98.3909 104.112 98.7272 103.775 98.7272 103.36C98.7272 102.945 98.3909 102.608 97.9759 102.608C97.561 102.608 97.2246 102.945 97.2246 103.36C97.2246 103.775 97.561 104.112 97.9759 104.112Z" fill="#2F1048"/>
<path d="M103.064 101.602C103.479 101.602 103.815 101.266 103.815 100.85C103.815 100.435 103.479 100.098 103.064 100.098C102.649 100.098 102.312 100.435 102.312 100.85C102.312 101.266 102.649 101.602 103.064 101.602Z" fill="#2F1048"/>
<path d="M102.544 105.677C102.492 105.677 102.439 105.657 102.398 105.618C102.313 105.536 102.309 105.402 102.39 105.316C102.692 104.998 103.023 104.552 102.883 104.227C102.739 103.89 102.13 103.746 101.849 103.746C101.25 103.746 100.962 102.678 100.909 102.463C100.882 102.348 100.952 102.233 101.067 102.206C101.182 102.177 101.297 102.249 101.324 102.364C101.433 102.816 101.682 103.321 101.849 103.321C102.137 103.321 103.015 103.457 103.274 104.061C103.459 104.492 103.266 105.014 102.698 105.612C102.657 105.655 102.601 105.677 102.544 105.677Z" fill="#2F1048"/>
<path d="M102.583 108.533C102.542 108.533 102.501 108.522 102.464 108.496C101.049 107.54 99.6187 108.343 99.605 108.35C99.5038 108.409 99.3734 108.374 99.315 108.272C99.2566 108.171 99.2917 108.041 99.3929 107.982C99.461 107.943 101.069 107.041 102.704 108.144C102.801 108.21 102.826 108.343 102.76 108.44C102.717 108.5 102.651 108.533 102.583 108.533Z" fill="#2F1048"/>
<path d="M97.645 100.1C98.0732 100.907 97.3278 101.068 96.4538 101.532C95.5799 101.996 94.6865 102.167 94.4821 101.781C94.2778 101.396 94.8208 100.71 95.6947 100.244C96.5687 99.7783 97.3141 99.4763 97.645 100.1Z" fill="#2F1048"/>
<path d="M100.831 98.6446C101.02 99.3636 101.555 99.0499 102.334 98.8453C103.112 98.6407 103.743 98.249 103.654 97.9061C103.564 97.5631 102.859 97.4501 102.079 97.6547C101.3 97.8593 100.685 98.0892 100.831 98.6446Z" fill="#2F1048"/>
<path opacity="0.4" d="M96.0138 108.503C96.9138 107.672 96.9705 106.268 96.1404 105.367C95.3102 104.466 93.9077 104.409 93.0076 105.24C92.1076 106.071 92.0509 107.476 92.881 108.377C93.7112 109.278 95.1137 109.334 96.0138 108.503Z" fill="#EB5D60"/>
<path d="M88.7874 108.96C89.8006 107.645 89.4127 105.645 87.9208 104.493C86.4289 103.341 84.398 103.472 83.3848 104.787C82.3715 106.101 82.7595 108.101 84.2513 109.254C85.7432 110.406 87.7741 110.275 88.7874 108.96Z" fill="#F9B384"/>
<path d="M87.4052 107.994C87.2884 107.994 87.193 107.898 87.193 107.781C87.193 107.152 86.8874 106.571 86.3736 106.224C85.9356 105.928 85.4121 105.86 84.9741 106.037C84.8651 106.08 84.7406 106.029 84.6958 105.92C84.651 105.811 84.7036 105.686 84.8126 105.642C85.3809 105.41 86.0524 105.494 86.6091 105.87C87.2397 106.294 87.6173 107.008 87.6173 107.779C87.6173 107.9 87.522 107.994 87.4052 107.994Z" fill="#2F1048"/>
<path d="M56.8917 123.468L49.2102 131.787L49.5675 132.117L57.249 123.798L56.8917 123.468Z" fill="#2F1048"/>
<path d="M111.015 159.225L110.873 158.759C116.465 157.053 121.893 155.012 126.812 148.855L127.191 149.159C122.185 155.424 116.683 157.495 111.015 159.225Z" fill="#2F1048"/>
<path d="M114.415 140.361H66.8413C65.1305 140.361 63.7427 141.864 63.7427 143.717V177.721C63.7427 179.574 65.1305 181.076 66.8413 181.076H114.415C116.126 181.076 117.514 179.574 117.514 177.721V143.717C117.512 141.864 116.126 140.361 114.415 140.361Z" fill="#DEC2FD"/>
<path d="M93.1391 158.569C93.3202 158.569 93.4661 158.726 93.4661 158.923V162.512C93.4661 162.707 93.3202 162.867 93.1391 162.867H88.1155C87.9345 162.867 87.7885 162.709 87.7885 162.512V158.923C87.7885 158.728 87.9345 158.569 88.1155 158.569H93.1391ZM93.1391 157.594H88.1155C87.3992 157.594 86.8153 158.19 86.8153 158.923V162.512C86.8153 163.245 87.3992 163.841 88.1155 163.841H93.1391C93.8554 163.841 94.4393 163.245 94.4393 162.512V158.923C94.4393 158.19 93.8574 157.594 93.1391 157.594Z" fill="#B88BFB"/>
</g>
<defs>
<clipPath id="clip0_22_604">
<rect width="245" height="219" fill="white"/>
</clipPath>
</defs>
</svg>
